<?xml version="1.0" encoding="UTF-8"?>
<svg version="1.1" xmlns="http://www.w3.org/2000/svg" width="556" height="197">
<path d="M0 0 C68.31 0 136.62 0 207 0 C207 14.52 207 29.04 207 44 C138.69 44 70.38 44 0 44 C0 29.48 0 14.96 0 0 Z " fill="#1C1C23" transform="translate(322,36)"/>
<path d="M0 0 C58.41 0 116.82 0 177 0 C177 14.19 177 28.38 177 43 C118.59 43 60.18 43 0 43 C0 28.81 0 14.62 0 0 Z " fill="#1C1C23" transform="translate(94,121)"/>
<path d="M0 0 C25 0 25 0 30.40625 4.5390625 C32.07543945 7.47045898 32.07543945 7.47045898 33.5 10.625 C34.07000732 11.66922119 34.64001465 12.71344238 35.22729492 13.78930664 C36.35922586 15.86651947 37.45591369 17.9633996 38.51318359 20.07958984 C40.52974705 24.04053107 42.87433654 27.7272947 45.3125 31.4375 C46.32763672 33.07525391 46.32763672 33.07525391 47.36328125 34.74609375 C47.90339844 35.48988281 48.44351563 36.23367187 49 37 C49.66 37 50.32 37 51 37 C52.22988161 35.5931233 52.22988161 35.5931233 53.41430664 33.71118164 C53.89142593 32.99366226 54.36854523 32.27614288 54.86012268 31.53688049 C55.37163376 30.75256149 55.88314484 29.96824249 56.41015625 29.16015625 C56.93765976 28.36347031 57.46516327 27.56678436 58.00865173 26.74595642 C59.69980636 24.18905202 61.38137433 21.62600696 63.0625 19.0625 C64.74914208 16.50389489 66.43768714 13.94655801 68.12705994 11.38975525 C69.17967483 9.79519503 70.23030782 8.19932449 71.27882385 6.60206604 C71.98977455 5.52105873 71.98977455 5.52105873 72.71508789 4.41821289 C73.13319229 3.78089737 73.55129669 3.14358185 73.98207092 2.48695374 C75 1 75 1 76 0 C83.92 0 91.84 0 100 0 C100 31.35 100 62.7 100 95 C90.43 95 80.86 95 71 95 C70.67 82.46 70.34 69.92 70 57 C66.7 62.28 63.4 67.56 60 73 C56.75206739 76.24793261 52.55179227 75.76967072 48.17871094 75.85571289 C44.20653598 75.7051705 42.45789506 75.37560667 39.3046875 72.7890625 C37.2509056 69.93875683 35.59734811 67.12748108 34 64 C32.68 61.69 31.36 59.38 30 57 C29.67 69.54 29.34 82.08 29 95 C19.43 95 9.86 95 0 95 C0 63.65 0 32.3 0 0 Z " fill="#1C1C23" transform="translate(193,2)"/>
<path d="M0 0 C8.25 0 16.5 0 25 0 C33.87696247 9.08299567 33.87696247 9.08299567 36.08398438 13.15234375 C36.57342529 14.02874512 37.06286621 14.90514648 37.56713867 15.80810547 C38.30734253 17.14059326 38.30734253 17.14059326 39.0625 18.5 C40.14469291 20.28760435 41.23514655 22.07023501 42.33398438 23.84765625 C45.00821798 28.17890555 47.48219084 32.56008462 50 37 C50.33 24.79 50.66 12.58 51 0 C60.57 0 70.14 0 80 0 C80 31.02 80 62.04 80 94 C71.75 94 63.5 94 55 94 C46.12303753 84.67151796 46.12303753 84.67151796 43.91601562 80.4921875 C43.18185425 79.14205566 43.18185425 79.14205566 42.43286133 77.76464844 C41.93939209 76.85231445 41.44592285 75.93998047 40.9375 75 C39.85542482 73.16428175 38.76497455 71.33347333 37.66601562 69.5078125 C34.99041975 65.05723643 32.51675655 60.55800676 30 56 C29.67 68.54 29.34 81.08 29 94 C19.43 94 9.86 94 0 94 C0 62.98 0 31.96 0 0 Z " fill="#1C1C22" transform="translate(399,101)"/>
<path d="M0 0 C11.8583643 7.73448537 18.7056463 18.36100808 21.80078125 32.12109375 C23.96829385 46.47036324 22.24530334 61.06095764 14.3046875 73.45703125 C9.02049147 80.5096018 3.28054202 85.67505328 -4.6953125 89.45703125 C-5.76072266 89.96556641 -5.76072266 89.96556641 -6.84765625 90.484375 C-17.01670656 94.36255412 -32.34198376 94.31154871 -42.52734375 90.5078125 C-46.78216277 88.44556689 -50.76654289 86.08325179 -54.6953125 83.45703125 C-56.025625 82.59078125 -56.025625 82.59078125 -57.3828125 81.70703125 C-66.98248596 72.36680842 -71.7290434 60.16051206 -71.98779297 46.94213867 C-72.08490697 32.76467869 -70.5726151 22.00968532 -61.6953125 10.45703125 C-61.0971875 9.57015625 -60.4990625 8.68328125 -59.8828125 7.76953125 C-44.98691829 -7.97755691 -18.41621666 -10.54261678 0 0 Z M-39.1328125 31.45703125 C-42.57860091 38.07294501 -42.71127138 45.19526852 -40.5078125 52.26953125 C-38.11360252 56.48003845 -35.61512675 59.36740695 -31.3828125 61.76953125 C-26.13483118 63.1120381 -21.74794047 63.31513019 -16.9453125 60.76953125 C-11.39683276 56.82157451 -8.91162113 53.20201549 -7.6953125 46.45703125 C-7.59813657 39.75189224 -8.77478194 34.90221258 -12.6953125 29.45703125 C-17.06851343 25.40382063 -20.4846893 24.07992147 -26.50390625 24.1796875 C-31.9489685 24.86881303 -35.71553948 27.25115676 -39.1328125 31.45703125 Z " fill="#1C1C23" transform="translate(366.6953125,104.54296875)"/>
<path d="M0 0 C1.175625 0.63615234 1.175625 0.63615234 2.375 1.28515625 C12.59370658 7.48197325 19.34440489 16.65374112 23 28 C23.495 32.95 23.495 32.95 24 38 C14.43 38 4.86 38 -5 38 C-6.32 35.69 -7.64 33.38 -9 31 C-12.68200435 27.78317393 -16.78568051 26.66819554 -21.625 26.9375 C-26.2215806 27.74586418 -28.85540362 29.48104691 -32 33 C-35.45347772 39.00434195 -35.97774554 45.46977901 -34.53125 52.171875 C-32.92749258 57.25044015 -30.61045122 60.12934169 -26 63 C-21.71009505 64.40381036 -18.64761318 64.18660041 -14.3125 62.9375 C-9.99091999 60.40978339 -7.26987366 57.53974732 -5 53 C4.9 53 14.8 53 25 53 C22.73597769 65.45212271 22.73597769 65.45212271 19.6875 71.3125 C19.11386719 72.44300781 18.54023438 73.57351562 17.94921875 74.73828125 C12.12692986 84.48098911 3.51105686 91.08086464 -7.39453125 94.33984375 C-18.82306394 96.43239199 -31.5895956 96.64483076 -42 91 C-42.78375 90.57589844 -43.5675 90.15179688 -44.375 89.71484375 C-55.36056799 83.05298748 -62.052883 73.17571489 -65.109375 60.79296875 C-68.34831588 45.3863746 -66.82599131 28.76657126 -58.8125 15.125 C-46.14648908 -3.1613852 -20.21717258 -10.96235202 0 0 Z " fill="#1C1C23" transform="translate(158,4)"/>
<path d="M0 0 C1.34888732 0.00015905 2.69778075 0.00584927 4.04663086 0.01586914 C5.10991859 0.01799156 5.10991859 0.01799156 6.19468689 0.02015686 C8.46699173 0.02577096 10.73919936 0.03832576 13.01147461 0.05102539 C14.54858257 0.05603858 16.08569206 0.0606018 17.62280273 0.06469727 C21.39823103 0.07574497 25.17358632 0.09301898 28.94897461 0.11352539 C29.55817749 1.98657349 29.55817749 1.98657349 30.1796875 3.89746094 C32.12162058 9.8659665 34.06606992 15.83365055 36.01147461 21.80102539 C36.36612793 22.88899414 36.72078125 23.97696289 37.08618164 25.09790039 C43.11879902 43.59467054 49.23760371 62.06154871 55.42578125 80.50683594 C55.73137466 81.41938644 56.03696808 82.33193695 56.3518219 83.2721405 C56.92344032 84.97881374 57.49632123 86.68506483 58.07066345 88.39082336 C59.94897461 94.00116655 59.94897461 94.00116655 59.94897461 95.11352539 C49.38897461 95.11352539 38.82897461 95.11352539 27.94897461 95.11352539 C24.94897461 87.11352539 24.94897461 87.11352539 24.94897461 84.11352539 C16.69897461 84.11352539 8.44897461 84.11352539 -0.05102539 84.11352539 C-0.71102539 87.08352539 -1.37102539 90.05352539 -2.05102539 93.11352539 C-2.38102539 93.77352539 -2.71102539 94.43352539 -3.05102539 95.11352539 C-13.28102539 95.11352539 -23.51102539 95.11352539 -34.05102539 95.11352539 C-31.80129724 84.98974873 -31.80129724 84.98974873 -30.5456543 81.27270508 C-30.26379776 80.43055954 -29.98194122 79.588414 -29.69154358 78.7207489 C-29.3899382 77.83458389 -29.08833282 76.94841888 -28.77758789 76.03540039 C-28.45741196 75.08176102 -28.13723602 74.12812164 -27.80735779 73.14558411 C-26.76751711 70.0502244 -25.72173244 66.95690758 -24.67602539 63.86352539 C-23.22681772 59.55580052 -21.78111391 55.24690477 -20.33618164 50.93774414 C-19.79340828 49.32058754 -19.79340828 49.32058754 -19.2396698 47.67076111 C-15.25827924 35.7870838 -11.40947119 23.86109222 -7.59448242 11.9230957 C-7.13339477 10.4878703 -6.67229526 9.0526487 -6.21118164 7.61743164 C-5.81552002 6.37807861 -5.4198584 5.13872559 -5.01220703 3.86181641 C-3.70986113 0.13803996 -3.70986113 0.13803996 0 0 Z M11.94897461 37.11352539 C10.94250735 40.54916561 9.94492011 43.98732168 8.94897461 47.42602539 C8.66280273 48.40249023 8.37663086 49.37895508 8.08178711 50.38500977 C7.67573242 51.79169922 7.67573242 51.79169922 7.26147461 53.22680664 C7.01010742 54.09088135 6.75874023 54.95495605 6.49975586 55.84521484 C5.83099499 58.21036985 5.83099499 58.21036985 5.94897461 61.11352539 C10.56897461 61.11352539 15.18897461 61.11352539 19.94897461 61.11352539 C17.63897461 53.19352539 15.32897461 45.27352539 12.94897461 37.11352539 C12.61897461 37.11352539 12.28897461 37.11352539 11.94897461 37.11352539 Z " fill="#1C1C23" transform="translate(34.051025390625,1.886474609375)"/>
<path d="M0 0 C20.13 0 40.26 0 61 0 C61 7.92 61 15.84 61 24 C50.44 24 39.88 24 29 24 C29 27.3 29 30.6 29 34 C38.57 34 48.14 34 58 34 C58 42.25 58 50.5 58 59 C48.43 59 38.86 59 29 59 C29 62.3 29 65.6 29 69 C39.89 69 50.78 69 62 69 C62 77.25 62 85.5 62 94 C41.54 94 21.08 94 0 94 C0 62.98 0 31.96 0 0 Z " fill="#1C1C23" transform="translate(494,101)"/>
</svg>