<svg width="302" height="654" viewBox="0 0 302 654" fill="none" xmlns="http://www.w3.org/2000/svg">
<path d="M-138.87 184.023L90.0234 557.279C94.6074 554.87 99.1915 552.461 103.776 550.052L-127.469 174.548C-130.658 177.385 -134.764 180.704 -138.87 184.023Z" fill="#DBB8BF"/>
<path d="M-191.891 247.882L9.86496 576.174C15.4054 575.586 21.4237 575.907 27.881 574.836L-182.442 232.466C-186.508 238.087 -189.658 243.225 -191.891 247.882Z" fill="#DBB8BF"/>
<path d="M-167.054 212.768L52.7931 571.037C57.8553 569.538 62.9176 568.039 67.9798 566.54L-157.088 200.564C-160.715 204.793 -164.343 209.021 -167.054 212.768Z" fill="#DBB8BF"/>
<path d="M68.1208 143.77L220.863 392.144C222.099 383.365 223.815 375.496 224.135 367.199L92.7921 152.87C83.944 149.391 76.4908 146.339 68.1208 143.77Z" fill="#DBB8BF"/>
<path d="M16.1472 133.92L205.072 442.246C207.743 436.197 210.414 430.148 211.691 423.671L34.6811 135.793C28.6626 135.472 22.1658 134.241 16.1472 133.92Z" fill="#DBB8BF"/>
<path d="M134.839 177.225L220.953 316.614C216.334 290.01 207.13 265.815 193.781 242.637L188.56 234.929C174.294 212.233 155.922 192.855 134.839 177.225Z" fill="#DBB8BF"/>
<path d="M-70.1482 145.589L155.875 513.386C159.981 510.067 163.609 505.838 167.237 501.609L-54.0448 140.611C-59.1071 142.11 -65.0859 144.091 -70.1482 145.589Z" fill="#DBB8BF"/>
<path d="M-105.943 162.076L125.779 538.49C129.885 535.172 134.469 532.763 138.575 529.444L-90.7964 155.278C-96.7755 157.258 -101.359 159.667 -105.943 162.076Z" fill="#DBB8BF"/>
<path d="M-29.6104 135.901L182.626 481.911C185.775 476.772 189.403 472.544 192.553 467.405L-12.072 133.653C-17.6124 134.242 -24.0699 135.313 -29.6104 135.901Z" fill="#DBB8BF"/>
<path d="M-0.499988 262C-72.3825 262 -131 203.786 -131 132C-131 60.2143 -72.5618 2 -0.499988 2C71.5618 2 130 60.2143 130 132C130 203.786 71.3826 262 -0.499988 262ZM-0.499988 5.39286C-70.59 5.39286 -127.773 62.1786 -127.773 132.179C-127.773 202.179 -70.7692 258.964 -0.499988 258.964C69.7692 258.964 126.773 202.179 126.773 132.179C126.773 62.1786 69.59 5.39286 -0.499988 5.39286Z" fill="#7F8CC0" stroke="#7F8CC0" stroke-width="4"/>
</svg>
