<?xml version="1.0" encoding="UTF-8"?>
<svg version="1.1" xmlns="http://www.w3.org/2000/svg" width="434" height="619">
<path d="M0 0 C1.13937012 0.28955566 1.13937012 0.28955566 2.30175781 0.58496094 C20.49823411 5.42199894 38.72238441 14.72035263 53 27 C53.84046875 27.71542969 54.6809375 28.43085937 55.546875 29.16796875 C58.08439342 31.39420773 60.54869403 33.67932789 63 36 C63.88429688 36.81984375 64.76859375 37.6396875 65.6796875 38.484375 C89.90558324 61.68084175 105.43040637 95.83945371 106.203125 129.4921875 C106.62163392 168.89333655 95.87166457 205.52060907 67.84375 234.33203125 C64.47845536 237.73131113 61.07274668 241.08715422 57.63476562 244.4128418 C57.09529297 244.936604 56.55582031 245.46036621 56 246 C55.43788818 246.51699463 54.87577637 247.03398926 54.29663086 247.56665039 C52.77150967 248.95541773 52.77150967 248.95541773 52.84765625 251.234375 C52.95400391 252.47960937 52.95400391 252.47960937 53.0625 253.75 C53.18945397 258.88043397 52.45800205 262.14036032 49 266 C44.8390585 269.85743753 41.04285847 271.32263844 35.375 271.5 C30.94198313 271.29710186 27.78855196 270.42855895 24 268 C23.34 267.67 22.68 267.34 22 267 C19.86938824 267.8084775 17.77049932 268.70074019 15.6875 269.625 C9.27871663 272.33993711 2.8350326 274.22409519 -3.9375 275.8125 C-5.25004761 276.1221167 -5.25004761 276.1221167 -6.58911133 276.43798828 C-16.64527015 278.71951703 -26.32697671 279.27469715 -36.625 279.3125 C-37.30752838 279.31511841 -37.99005676 279.31773682 -38.69326782 279.32043457 C-54.45235107 279.3268801 -69.94751387 277.58814852 -84.66015625 271.63671875 C-88.25405388 270.65874661 -90.90031448 271.46586703 -94.1875 273.0625 C-99.53310171 274.84436724 -104.91870186 274.68042439 -110.25 272.9375 C-113.88309507 270.37781938 -116.79899672 267.91052039 -119 264 C-119.2510776 262.23705729 -119.4343784 260.46361706 -119.5625 258.6875 C-120.18282151 254.16713733 -121.4209431 252.15594088 -125.06665039 249.37744141 C-126.20577256 248.57220842 -127.34695073 247.76987739 -128.48999023 246.97021484 C-156.2452444 227.54266688 -173.01966511 194.88155738 -179.2734375 162.26953125 C-185.73614143 125.45932155 -177.46883437 87.60619076 -156.32080078 56.84326172 C-152.55712017 51.59080541 -148.38064245 46.74305341 -144 42 C-143.53899902 41.4951709 -143.07799805 40.9903418 -142.60302734 40.47021484 C-106.96958875 1.86215876 -50.56748318 -13.08733161 0 0 Z M-142.75 47.9375 C-167.55141554 76.48849202 -177.66726439 111.65088729 -176 149 C-175.4790244 155.42653127 -174.39897037 161.71024045 -173 168 C-172.8443457 168.70108887 -172.68869141 169.40217773 -172.52832031 170.12451172 C-168.38987036 187.80585328 -160.11512405 204.68387733 -149 219 C-147.90558594 220.42505859 -147.90558594 220.42505859 -146.7890625 221.87890625 C-139.34423669 231.26983565 -130.461007 241.88856959 -120 248 C-117.06166195 247.76218487 -116.2308195 247.2308195 -114.125 245.125 C-111.65685561 242.65685561 -109.15899632 241.43590742 -106 240 C-106.67804688 239.46503906 -107.35609375 238.93007813 -108.0546875 238.37890625 C-111.46467457 235.62468593 -114.79839831 232.79137408 -118.125 229.9375 C-118.74503906 229.40833984 -119.36507812 228.87917969 -120.00390625 228.33398438 C-120.60332031 227.82029297 -121.20273438 227.30660156 -121.8203125 226.77734375 C-122.35930176 226.31577881 -122.89829102 225.85421387 -123.45361328 225.37866211 C-125 224 -125 224 -126.51586914 222.36108398 C-128.83404457 220.23510471 -131.23993132 220.4156005 -134.3125 220.125 C-140.20879722 219.3370761 -143.07030794 218.46073153 -147 214 C-148.9710563 210.81232619 -149.24542646 208.41059161 -149.1875 204.6875 C-149.18105469 203.78386719 -149.17460937 202.88023437 -149.16796875 201.94921875 C-149 199 -149 199 -148.32421875 195.53515625 C-147.93968439 191.34234182 -148.75713569 189.48572861 -150.625 185.75 C-153.34990378 179.97189079 -155.22494383 174.18537686 -156.8125 168 C-157.01891113 167.19916992 -157.22532227 166.39833984 -157.43798828 165.57324219 C-162.3661576 145.88539198 -162.06034752 122.43093157 -156 103 C-155.78569336 102.3095459 -155.57138672 101.6190918 -155.35058594 100.90771484 C-145.48362877 70.26557056 -124.42245892 45.03902149 -96.0078125 30 C-65.18642277 14.31344848 -30.20017985 11.5155342 2.625 22.125 C33.99881167 32.84594547 58.45699039 54.64244913 73.75 83.9375 C80.84929198 98.64552389 85.23090193 114.66249251 86 131 C86.07927734 132.40185547 86.07927734 132.40185547 86.16015625 133.83203125 C87.12527301 166.52011621 74.45894637 197.79304803 52.37109375 221.61328125 C48.83226394 225.17543119 45.13671817 228.53963616 41.3828125 231.87109375 C39.52315875 233.53258767 37.73614074 235.21211997 36 237 C36.60328125 237.18175781 37.2065625 237.36351562 37.828125 237.55078125 C44.60583942 239.68248175 44.60583942 239.68248175 47.25 241.8125 C47.8275 242.204375 48.405 242.59625 49 243 C54.23677851 241.77115306 57.48020583 238.01644174 61.125 234.3125 C62.1152417 233.30981079 62.1152417 233.30981079 63.12548828 232.28686523 C82.81312294 211.92898277 95.03563024 186.77506666 100 159 C100.28810547 157.43185547 100.28810547 157.43185547 100.58203125 155.83203125 C104.76448003 117.48640274 94.62998295 81.66192441 70.75 51.5 C47.01972128 23.3152321 14.61927117 5.70113892 -22 1 C-69.36530464 -1.33902739 -110.12628588 13.05217658 -142.75 47.9375 Z M-126.3671875 58.65625 C-128.64786539 61.38999185 -130.84079272 64.16957847 -133 67 C-133.60585937 67.77859375 -134.21171875 68.5571875 -134.8359375 69.359375 C-142.23184831 79.33214161 -147.4168284 90.59046095 -151.375 102.3125 C-151.73283569 103.36824219 -151.73283569 103.36824219 -152.09790039 104.4453125 C-155.56374418 115.24742196 -156.39024044 125.75062638 -156.375 137.0625 C-156.37445618 137.74531036 -156.37391235 138.42812073 -156.37335205 139.13162231 C-156.31096798 156.19965514 -153.71856034 175.4221595 -144 190 C-139.31261335 189.09276387 -134.65806256 188.0452733 -130 187 C-131.27759651 183.02655763 -132.74935195 179.21649954 -134.375 175.375 C-144.46498424 148.96738547 -143.47662764 120.42658348 -132.20288086 94.60131836 C-127.16305444 83.65265034 -120.31706969 74.70184516 -112 66 C-111.39929688 65.32453125 -110.79859375 64.6490625 -110.1796875 63.953125 C-92.75552657 45.09580798 -66.34103604 36.31506925 -41.38671875 34.77734375 C-15.06092712 34.12697511 11.18862696 42.38202897 31 60 C32.11375 60.90105469 32.11375 60.90105469 33.25 61.8203125 C51.99916225 77.37951312 62.75981221 101.20295105 66 125 C68.18415536 153.91657946 61.20540976 181.9653219 42.1875 204.375 C24.11059067 224.87976539 1.23297652 234.40493344 -25 240 C-24.22269531 240.73605469 -23.44539062 241.47210938 -22.64453125 242.23046875 C-20.35979395 244.62319954 -19.03950614 246.3581162 -17.6875 249.3125 C-17.36136719 250.00988281 -17.03523437 250.70726562 -16.69921875 251.42578125 C-16.46847656 251.94527344 -16.23773438 252.46476563 -16 253 C11.98878523 249.49384548 38.43418141 232.95193053 56.05908203 211.23754883 C75.72706435 185.93427201 84.6115027 155.14002126 81.3125 123.3125 C77.31602902 92.49799702 61.24284418 64.44478127 37 45 C-12.06246269 7.97809582 -84.63838938 11.83185607 -126.3671875 58.65625 Z M-112.44140625 72.10546875 C-131.44504297 93.60423945 -138.48269218 119.73319108 -137 148 C-135.32072775 165.00685788 -128.51742892 183.23744363 -117 196 C-116.1028125 197.38638672 -116.1028125 197.38638672 -115.1875 198.80078125 C-101.29493453 219.11865824 -77.51861582 230.40497632 -54 235 C-27.14735676 239.26602747 -0.0852754 232.67914203 22 216.875 C43.74715533 199.89041431 57.9161777 177.60841755 62 150 C62.28653792 146.09935415 62.33450236 142.22263432 62.3125 138.3125 C62.30404053 136.72985352 62.30404053 136.72985352 62.29541016 135.11523438 C61.88868558 108.81102683 51.26871 86.49355566 33 68 C32.43023437 67.35804687 31.86046875 66.71609375 31.2734375 66.0546875 C16.51288685 49.78023422 -7.58178707 40.92228198 -29 39 C-61.55552432 37.55681696 -89.88386586 48.69670042 -112.44140625 72.10546875 Z M-115 207 C-115.24234375 207.54269531 -115.4846875 208.08539063 -115.734375 208.64453125 C-119.06326889 215.75043937 -119.06326889 215.75043937 -123 218 C-120.6421066 223.93492486 -114.89825261 227.22519983 -110 231 C-109.21238281 231.61359375 -108.42476562 232.2271875 -107.61328125 232.859375 C-92.24815757 244.23321867 -70.30386431 254.54579378 -51 254 C-50.5875 252.783125 -50.175 251.56625 -49.75 250.3125 C-48.3839438 246.63264526 -46.65605232 243.93081636 -44 241 C-45.86032456 239.13967544 -48.58124905 239.4416891 -51.08105469 239.10083008 C-72.1776793 236.19143953 -89.4935183 228.322361 -106 215 C-106.6496875 214.48050781 -107.299375 213.96101562 -107.96875 213.42578125 C-110.44690453 211.40316983 -112.75636231 209.27615417 -115 207 Z M8.3125 250.75 C2.06290585 253.40136637 -4.09688024 255.19317753 -10.80737305 256.26660156 C-13.00894666 256.64296751 -13.00894666 256.64296751 -16 258 C-17.84774333 261.39807641 -17.84774333 261.39807641 -19 265 C-22.97591209 269.74719558 -27.77969776 271.78160962 -33.8125 272.375 C-38.49154605 272.23347876 -42.22168566 270.73948734 -46 268 C-48.39578952 264.98990547 -49.78878746 262.63363762 -51 259 C-51.54301758 258.89977539 -52.08603516 258.79955078 -52.64550781 258.69628906 C-62.26632547 256.9007831 -71.67817301 255.12418558 -80.8828125 251.734375 C-82.94143705 250.8907636 -82.94143705 250.8907636 -85 251 C-84.98839844 251.66386719 -84.97679687 252.32773437 -84.96484375 253.01171875 C-84.95582031 253.89472656 -84.94679688 254.77773438 -84.9375 255.6875 C-84.92589844 256.55761719 -84.91429687 257.42773438 -84.90234375 258.32421875 C-84.99956517 260.98808557 -85.40635667 263.40573189 -86 266 C-51.78678152 277.6499923 -14.39559758 277.91959165 19 263 C18.89171875 261.87851562 18.89171875 261.87851562 18.78125 260.734375 C18.6884375 259.74953125 18.595625 258.7646875 18.5 257.75 C18.4071875 256.77546875 18.314375 255.8009375 18.21875 254.796875 C18.04199832 252.53697847 18 250.26679807 18 248 C14.31181482 248 11.63235109 249.31728049 8.3125 250.75 Z " fill="#B5D9CF" transform="translate(281,23)"/>
<path d="M0 0 C0.63244629 0.30663574 1.26489258 0.61327148 1.91650391 0.92919922 C27.56593049 13.54142045 49.41128461 33.08323682 65 57 C65.42023438 57.64420898 65.84046875 58.28841797 66.2734375 58.95214844 C88.38150578 93.40388817 96.14244384 136.21766481 87.96484375 176.31640625 C82.644766 200.62476315 72.6030236 223.47594931 57 243 C56.54012695 243.5779834 56.08025391 244.1559668 55.60644531 244.75146484 C34.25467663 271.27131565 5.04626592 291.17287662 -28 300 C-27.09507812 300.43699219 -27.09507812 300.43699219 -26.171875 300.8828125 C-19.67977825 304.21262987 -16.36039662 306.91881013 -14 314 C-13.46807214 320.27674872 -14.15372112 324.87527047 -18 330 C-22.12722192 334.0974583 -26.24963333 335.34909857 -32 335.625 C-37.75036667 335.34909857 -41.87277808 334.0974583 -46 330 C-49.18826741 325.75199598 -50.67818194 321.33926158 -50.39453125 316.0234375 C-49.6778163 312.34761231 -48.14727825 309.0593329 -46 306 C-45.01 305.34 -44.02 304.68 -43 304 C-43.88328979 304.09849243 -43.88328979 304.09849243 -44.78442383 304.19897461 C-53.74117218 305.11132135 -62.69373174 305.33174566 -71.6875 305.5625 C-73.27539933 305.60580192 -74.86329008 305.64941943 -76.45117188 305.69335938 C-80.30069221 305.79920689 -84.15030289 305.90079909 -88 306 C-87.36707031 306.76699219 -86.73414063 307.53398437 -86.08203125 308.32421875 C-82.89899572 312.41498674 -81.72362444 315.9212125 -82.1875 321.0625 C-83.3047643 327.74069343 -86.81519774 331.0286621 -92 335 C-96.41681271 337.20840635 -102.19242534 336.42161434 -107 336 C-111.50665768 333.86526742 -114.1741532 331.08177871 -117 327 C-118.61788547 322.14634359 -118.93894722 316.84366871 -117.31640625 311.9296875 C-115.01768539 307.523011 -112.185337 305.37803239 -108 303 C-112.47185042 301.49944575 -116.94594949 300.01382626 -121.4453125 298.59765625 C-143.20560273 291.56630153 -162.53816905 280.71152771 -180 266 C-180.17015625 266.73605469 -180.3403125 267.47210938 -180.515625 268.23046875 C-182.2187882 275.08841845 -183.54782446 279.80316102 -189.75 283.75 C-196.19031058 286.22704253 -200.88812025 286.68399471 -207.1796875 283.9453125 C-212.25729749 281.30844208 -215.09233473 278.4217855 -217 273 C-217.96086659 266.70685178 -217.29926611 261.89971772 -213.54296875 256.69140625 C-209.0465612 251.76243291 -204.23241893 250.55630456 -197.72265625 250.078125 C-197.15417969 250.05234375 -196.58570313 250.0265625 -196 250 C-196.59425781 249.34257812 -197.18851563 248.68515625 -197.80078125 248.0078125 C-227.63300514 213.76802831 -237.14166981 171.42314362 -235 127 C-231.86227407 88.98068172 -211.43721571 50.84447702 -183.1875 25.4375 C-181.80334906 24.27758151 -180.40608691 23.13322739 -179 22 C-178.05640625 21.23042969 -177.1128125 20.46085937 -176.140625 19.66796875 C-126.53253827 -20.07412721 -57.09639856 -27.85010946 0 0 Z M-168 20 C-168.8971875 20.67289063 -169.794375 21.34578125 -170.71875 22.0390625 C-197.58455007 43.13661726 -215.68892161 70.98887929 -225.25 103.625 C-225.49645264 104.45926514 -225.74290527 105.29353027 -225.99682617 106.15307617 C-229.34115827 118.04262184 -230.35172026 129.7153292 -230.31567383 142.00048828 C-230.31252272 144.23390026 -230.33604514 146.46596991 -230.36132812 148.69921875 C-230.42270128 162.47186474 -228.4075934 175.75874486 -224.3125 188.9375 C-224.05758789 189.76540039 -223.80267578 190.59330078 -223.54003906 191.44628906 C-211.26514313 229.97215717 -183.74413188 263.02650155 -147.984375 281.9765625 C-107.24529745 302.90253746 -63.14294104 305.85073795 -19.55712891 292.06640625 C0.70114462 285.25754907 19.12105696 273.86852238 34.59765625 259.2265625 C37 257 37 257 39.609375 254.92578125 C66.56416425 233.21220102 81.1774947 194.01790925 85.3984375 160.87109375 C85.69005799 157.91153986 85.8728347 154.97104374 86 152 C86.05285156 150.93394531 86.10570312 149.86789063 86.16015625 148.76953125 C87.21973932 107.26151609 71.45896987 67.97559209 43 38 C42.53110352 37.49855469 42.06220703 36.99710938 41.57910156 36.48046875 C12.75687571 5.81138182 -27.51213301 -10.6538279 -69.3359375 -11.9609375 C-104.94711643 -12.54148742 -139.5416958 -1.34372815 -168 20 Z " fill="#7F8CBF" transform="translate(316,16)"/>
<path d="M0 0 C15.35738134 15.90507682 23.19520441 36.36810838 23.75 58.375 C23.10689404 83.88486986 12.69760516 103.91706006 -5.4375 121.625 C-7.59493649 123.73284025 -9.04579474 125.50619212 -10.75 128.0625 C-13.85674387 132.7226158 -17.40974961 135.05415827 -22.625 136.875 C-24.63708501 137.23960601 -26.659739 137.54866493 -28.6875 137.8125 C-33.15791336 138.44824727 -37.44936339 139.27625175 -41.8125 140.4375 C-47.09215846 141.81298997 -52.1806245 142.58463331 -57.625 142.875 C-58.3159375 142.91625 -59.006875 142.9575 -59.71875 143 C-68.13570895 143.25125251 -77.13740762 142.18163813 -85.20703125 139.83203125 C-88.4807632 138.9153863 -91.30443943 138.58458959 -94.6875 138.4375 C-101.08703194 137.95873202 -104.81358732 136.90731667 -109.1875 132 C-109.991875 130.96875 -110.79625 129.9375 -111.625 128.875 C-114.16497149 126.2657959 -116.76486284 123.74392742 -119.421875 121.25390625 C-136.28456663 105.31496483 -146.50658019 84.58715255 -147.60107422 61.21679688 C-148.16920294 39.11508136 -140.29471097 18.33706287 -125.625 1.875 C-124.95984375 1.11574219 -124.2946875 0.35648438 -123.609375 -0.42578125 C-111.03147145 -13.91208894 -93.61199586 -21.96322338 -75.625 -25.125 C-74.820625 -25.26808594 -74.01625 -25.41117187 -73.1875 -25.55859375 C-45.74178245 -29.31383551 -19.75922023 -18.66604069 0 0 Z M-120.8046875 3.9921875 C-134.73265514 18.78726596 -142.33426467 38.31641426 -142.9375 58.5625 C-142.86855272 60.00211912 -142.76059828 61.44012368 -142.625 62.875 C-142.54378906 63.89335937 -142.46257812 64.91171875 -142.37890625 65.9609375 C-140.1994806 85.95772959 -130.8890725 102.92891638 -116.625 116.875 C-115.14 117.865 -115.14 117.865 -113.625 118.875 C-112.97665346 117.605447 -112.33142185 116.33430294 -111.6875 115.0625 C-111.14802734 114.00095703 -111.14802734 114.00095703 -110.59765625 112.91796875 C-109.51769484 110.75689715 -109.51769484 110.75689715 -108.625 107.875 C-107.965 107.875 -107.305 107.875 -106.625 107.875 C-108.08722002 104.59428301 -109.96376752 102.20404172 -112.3125 99.5 C-124.08426686 84.9244123 -128.08481843 68.28121221 -126.625 49.875 C-124.49327623 32.76359566 -115.31637893 17.73713744 -101.9375 7.0625 C-85.65109272 -4.5291011 -67.5814107 -7.06231256 -48.0859375 -4.6953125 C-35.92173723 -2.03951675 -24.70149587 4.48537408 -15.625 12.875 C-15.00238281 13.44347656 -14.37976563 14.01195312 -13.73828125 14.59765625 C-1.87573958 26.72677189 2.91075793 44.16152682 2.79516602 60.66186523 C2.21856714 79.21803296 -5.75422091 93.95242703 -18.625 106.875 C-16.67097168 109.07196122 -16.67097168 109.07196122 -13.625 110.1875 C-10.625 111.875 -10.625 111.875 -9.25 114.5625 C-9.04375 115.325625 -8.8375 116.08875 -8.625 116.875 C7.3459915 104.2312984 15.9941547 85.95495944 18.375 65.875 C19.3144695 51.15062223 16.99715336 37.11930672 10.375 23.875 C9.88257813 22.89015625 9.39015625 21.9053125 8.8828125 20.890625 C-0.89803861 2.82646937 -17.87853044 -11.2823039 -37.54296875 -17.41015625 C-67.85133369 -26.02162166 -98.26477988 -17.90141453 -120.8046875 3.9921875 Z M-106.625 17.875 C-107.26050781 18.47699219 -107.89601563 19.07898438 -108.55078125 19.69921875 C-118.94088484 30.31970158 -123.01810195 45.25260054 -122.92382812 59.72363281 C-122.42802829 78.04258182 -114.31547921 91.18452079 -101.625 103.875 C-98.96574997 104.18920716 -98.96574997 104.18920716 -95.9375 104.25 C-90.27884857 104.65660968 -87.08778767 105.34195976 -82.625 108.875 C-81.52734375 110.625 -81.52734375 110.625 -80.5625 112.5 C-78.981056 115.98968536 -78.981056 115.98968536 -76.15234375 117.0703125 C-71.47135083 118.13818021 -67.03510911 118.16543754 -62.25 118.125 C-60.88875 118.13660156 -60.88875 118.13660156 -59.5 118.1484375 C-53.88663078 118.13226064 -48.96264134 117.67440917 -43.625 115.875 C-41.85004725 113.0753264 -41.85004725 113.0753264 -40.625 109.875 C-38.625 106.9375 -38.625 106.9375 -35.625 104.875 C-33.171875 105.0703125 -33.171875 105.0703125 -30.375 105.5625 C-27.04565094 106.00879344 -25.25283164 106.18993835 -22.2265625 104.671875 C-11.58224056 95.78293246 -3.73657745 81.51307819 -1.625 67.875 C-0.25418134 48.94204952 -3.99467481 33.13175729 -16.25 18.1875 C-26.52295045 7.2811499 -40.90206756 -0.81587957 -56.06640625 -1.328125 C-76.52289709 -1.64579099 -91.84891117 2.94199695 -106.625 17.875 Z M-48.86401367 121.36889648 C-51.90364709 121.9260775 -54.71125983 121.98787557 -57.80078125 121.97265625 C-58.95771484 121.96943359 -60.11464844 121.96621094 -61.30664062 121.96289062 C-62.50482422 121.95451172 -63.70300781 121.94613281 -64.9375 121.9375 C-66.15501953 121.93298828 -67.37253906 121.92847656 -68.62695312 121.92382812 C-71.62635226 121.91206578 -74.62565089 121.89562826 -77.625 121.875 C-77.89054687 122.56207031 -78.15609375 123.24914062 -78.4296875 123.95703125 C-78.95949219 125.30861328 -78.95949219 125.30861328 -79.5 126.6875 C-79.84804687 127.58082031 -80.19609375 128.47414062 -80.5546875 129.39453125 C-81.625 131.875 -81.625 131.875 -83.625 134.875 C-71.51953162 138.65795887 -59.36612237 138.78063539 -46.9375 136.5 C-46.24205078 136.37399414 -45.54660156 136.24798828 -44.83007812 136.11816406 C-40.81278477 135.33920462 -40.81278477 135.33920462 -37.625 132.875 C-38.223125 132.194375 -38.82125 131.51375 -39.4375 130.8125 C-41.86087643 127.55825166 -43.1502401 124.63563775 -44.625 120.875 C-46.68163199 120.80319728 -46.68163199 120.80319728 -48.86401367 121.36889648 Z " fill="#B5D9CF" transform="translate(305.625,102.125)"/>
<path d="M0 0 C1.13937012 0.28955566 1.13937012 0.28955566 2.30175781 0.58496094 C20.49823411 5.42199894 38.72238441 14.72035263 53 27 C53.84046875 27.71542969 54.6809375 28.43085937 55.546875 29.16796875 C58.08439342 31.39420773 60.54869403 33.67932789 63 36 C63.88429688 36.81984375 64.76859375 37.6396875 65.6796875 38.484375 C89.90558324 61.68084175 105.43040637 95.83945371 106.203125 129.4921875 C106.63894178 170.52281096 94.79369184 206.83849194 65.71679688 236.57861328 C65.00587891 237.2951709 64.29496094 238.01172852 63.5625 238.75 C62.87607422 239.44206543 62.18964844 240.13413086 61.48242188 240.84716797 C58.44900094 243.83642014 55.92071713 246.2393051 52 248 C51.34 247.34 50.68 246.68 50 246 C50.20851292 243.43007826 50.74719641 242.26505682 52.53125 240.39453125 C53.1809375 239.87246094 53.830625 239.35039062 54.5 238.8125 C78.78347017 218.32466993 93.44982155 190.05259754 99 159 C99.28810547 157.43185547 99.28810547 157.43185547 99.58203125 155.83203125 C103.76680836 117.46505603 93.62250053 81.59048999 69.6875 51.4375 C46.30873331 23.67770377 13.97657854 6.6186308 -22 2 C-62.14108147 0.01772437 -99.68047913 9.23024691 -130.19140625 36.51806641 C-155.60153058 59.82787594 -173.4173012 92.66028981 -175.1262207 127.57910156 C-175.50561777 141.31447982 -174.98795249 154.56618957 -172 168 C-171.8443457 168.70108887 -171.68869141 169.40217773 -171.52832031 170.12451172 C-167.39029539 187.80403737 -159.11704858 204.68704503 -148 219 C-146.88818359 220.44246094 -146.88818359 220.44246094 -145.75390625 221.9140625 C-137.5735985 232.20678941 -128.64316163 240.38230564 -118 248 C-118.495 250.97 -118.495 250.97 -119 254 C-126.88845317 249.2788803 -133.38516285 243.30590245 -140 237 C-140.7115625 236.35289062 -141.423125 235.70578125 -142.15625 235.0390625 C-165.38878722 213.23475503 -179.64807104 178.91802552 -181.12451172 147.33666992 C-182.19162755 107.71750898 -171.21811877 71.46987627 -144 42 C-143.53899902 41.4951709 -143.07799805 40.9903418 -142.60302734 40.47021484 C-106.96958875 1.86215876 -50.56748318 -13.08733161 0 0 Z " fill="#7F8CBF" transform="translate(281,23)"/>
<path d="M0 0 C1.53251906 1.31988528 3.05357119 2.65320912 4.5625 4 C5.78646484 5.01126953 5.78646484 5.01126953 7.03515625 6.04296875 C26.04971339 22.17742295 37.22639497 45.49850202 40.5625 70 C42.74330931 98.87228022 35.79193735 126.92165506 16.8125 149.3125 C0.36233665 167.98331728 -22.46593553 181.7919036 -47.4375 185 C-52.1364025 185.28613588 -56.81005254 185.2051322 -61.51171875 185.04296875 C-65.29667061 184.87320008 -65.29667061 184.87320008 -68.3984375 185.55859375 C-72.55781769 186.16271966 -76.25182156 185.56011399 -80.375 184.875 C-81.21256836 184.73666748 -82.05013672 184.59833496 -82.91308594 184.45581055 C-101.78599168 181.13384891 -117.66000579 172.98175206 -132.4375 161 C-133.17226562 160.40703125 -133.90703125 159.8140625 -134.6640625 159.203125 C-137.3751886 156.9494317 -139.47124136 154.94938796 -141.4375 152 C-141.51655064 149.66800612 -141.52548769 147.33167378 -141.4375 145 C-137.90507544 147.95570218 -134.54505121 150.85187258 -131.4375 154.25 C-114.35449679 171.44714354 -88.34031876 180.15083062 -64.5 180.25 C-37.03176238 180.23483088 -12.0240164 169.48020253 7.6875 150.375 C24.35137701 133.6243602 34.66105388 110.0170902 34.89208984 86.34960938 C34.88363037 84.84624023 34.88363037 84.84624023 34.875 83.3125 C34.86654053 81.72985352 34.86654053 81.72985352 34.85791016 80.11523438 C34.45505526 54.06129221 23.97189053 31.17370843 5.5625 13 C4.74910156 12.18789062 3.93570313 11.37578125 3.09765625 10.5390625 C-15.91271116 -7.5161649 -41.47358346 -15.51191093 -67.2890625 -15.1484375 C-94.62119273 -14.37834053 -119.33336339 -2.22967472 -138.1015625 17.328125 C-156.92196421 38.85513966 -163.9158702 64.81558753 -162.4375 93 C-161.1107357 106.43682766 -156.39643326 119.36886974 -149.4765625 130.890625 C-149.13367188 131.58671875 -148.79078125 132.2828125 -148.4375 133 C-148.7675 133.66 -149.0975 134.32 -149.4375 135 C-154.02368088 133.52606612 -155.85520012 132.90689643 -158.51171875 128.76953125 C-159.07796188 127.46249511 -159.61452385 126.14230782 -160.125 124.8125 C-160.41262207 124.11068604 -160.70024414 123.40887207 -160.99658203 122.68579102 C-171.3100128 96.58264299 -171.41609514 67.93927855 -160.6875 42 C-155.48400501 30.08012631 -148.43133577 20.39770404 -139.4375 11 C-138.76332031 10.25105469 -138.08914062 9.50210938 -137.39453125 8.73046875 C-102.85879299 -28.26747974 -39.26001113 -30.82956987 0 0 Z " fill="#7F8CBF" transform="translate(307.4375,78)"/>
<path d="M0 0 C23.71411036 20.66252716 38.75793099 48.91769907 42.08203125 80.3828125 C42.2052315 82.19411828 42.30916046 84.00683 42.39453125 85.8203125 C42.47380859 87.22216797 42.47380859 87.22216797 42.5546875 88.65234375 C43.51771781 121.26976171 30.90164153 152.59904018 8.83203125 176.36328125 C-5.95473998 191.26853622 -5.95473998 191.26853622 -13.48046875 193.1328125 C-18.07060003 194.44905102 -20.51670523 196.07635672 -23.60546875 199.8203125 C-25.890755 202.42833001 -27.94221133 203.5636697 -31.17578125 204.79296875 C-32.07296875 205.13521484 -32.97015625 205.47746094 -33.89453125 205.83007812 C-34.83039063 206.17748047 -35.76625 206.52488281 -36.73046875 206.8828125 C-37.643125 207.23408203 -38.55578125 207.58535156 -39.49609375 207.94726562 C-46.43344304 210.56112444 -53.14245559 212.8203125 -60.60546875 212.8203125 C-60.60546875 211.1703125 -60.60546875 209.5203125 -60.60546875 207.8203125 C-58.96964844 207.418125 -58.96964844 207.418125 -57.30078125 207.0078125 C-25.97462652 198.99740751 1.0344217 182.00749546 18.64453125 154.4453125 C35.07248665 126.39348681 40.7679492 95.04411438 32.87255859 63.14770508 C24.7101745 32.49084789 4.68266084 6.81163339 -22.60546875 -9.1796875 C-50.97462138 -24.74073364 -83.98373651 -28.80009262 -115.16015625 -19.92578125 C-139.80864605 -12.43343953 -160.87625657 1.28253821 -176.60546875 21.8203125 C-177.21261719 22.60019531 -177.81976563 23.38007812 -178.4453125 24.18359375 C-185.83763814 34.15736644 -191.02263973 45.41178801 -194.98046875 57.1328125 C-195.21902588 57.83664063 -195.45758301 58.54046875 -195.70336914 59.265625 C-199.16921293 70.06773446 -199.99570919 80.57093888 -199.98046875 91.8828125 C-199.97992493 92.56562286 -199.9793811 93.24843323 -199.9788208 93.95193481 C-199.92014207 110.00619972 -196.87411951 123.62728203 -190.875 138.46484375 C-189.80675405 141.28829997 -189.07507418 143.84991669 -188.60546875 146.8203125 C-190.58546875 147.8103125 -190.58546875 147.8103125 -192.60546875 148.8203125 C-205.99337391 120.84846454 -210.99284756 87.9185065 -201.60546875 57.8203125 C-201.39116211 57.1298584 -201.17685547 56.4394043 -200.95605469 55.72802734 C-190.97845744 24.74228683 -169.34274706 -0.97567072 -140.61328125 -16.1796875 C-94.11443677 -39.84528227 -39.74022209 -33.24594292 0 0 Z " fill="#7F8CBF" transform="translate(325.60546875,68.1796875)"/>
<path d="M0 0 C15.35738134 15.90507682 23.19520441 36.36810838 23.75 58.375 C23.16841101 81.44469669 14.69287123 101.44241614 -1.625 117.875 C-3.90249182 119.96862092 -6.21773936 121.92870416 -8.625 123.875 C-9.16556114 121.05206961 -9.35591035 119.60576229 -8.625 116.875 C-6.9375 114.8984375 -6.9375 114.8984375 -4.6875 112.8125 C9.21949656 99.8676227 16.3670421 81.30591919 17.58984375 62.5859375 C17.97317672 49.00061708 15.47190573 36.06881147 9.375 23.875 C8.88257813 22.89015625 8.39015625 21.9053125 7.8828125 20.890625 C-1.75577413 3.0892162 -18.1602767 -10.37608445 -37.546875 -16.4140625 C-59.51069788 -22.64116833 -81.02606465 -20.2418926 -101.375 -9.875 C-119.73213406 0.57306284 -132.69063138 16.67790803 -138.54638672 36.93383789 C-144.3472613 58.75160223 -141.15426105 79.39173325 -130.4375 99.125 C-126.0023805 106.37795829 -120.11144349 112.82272846 -113.80859375 118.515625 C-111.87119131 120.74076048 -112.43754569 123.06318541 -112.625 125.875 C-129.26896115 116.23902249 -139.57131277 97.66174086 -144.875 79.75 C-150.47074555 57.32152393 -146.91730495 35.01093552 -135.50390625 14.87109375 C-132.57097334 10.19425479 -129.29468907 5.99305333 -125.625 1.875 C-124.95984375 1.11574219 -124.2946875 0.35648438 -123.609375 -0.42578125 C-111.03147145 -13.91208894 -93.61199586 -21.96322338 -75.625 -25.125 C-74.820625 -25.26808594 -74.01625 -25.41117187 -73.1875 -25.55859375 C-45.74178245 -29.31383551 -19.75922023 -18.66604069 0 0 Z " fill="#7F8CBF" transform="translate(305.625,102.125)"/>
<path d="M0 0 C1.56663294 1.34648518 3.10971635 2.72097843 4.625 4.125 C5.32109375 4.76695313 6.0171875 5.40890625 6.734375 6.0703125 C19.00022063 18.57386831 24.1652545 35.76965747 24.04516602 52.91186523 C23.54769479 68.92153823 17.54122005 82.95187409 7.0625 95 C6.61575928 95.53069092 6.16901855 96.06138184 5.70874023 96.6081543 C4.37109375 98.0546875 4.37109375 98.0546875 1.625 100.125 C-1.71484375 99.9453125 -1.71484375 99.9453125 -4.375 99.125 C-3.25491359 96.1007667 -2.1532704 94.94817374 0.421875 92.89453125 C3.71240686 90.20942167 6.01502472 87.08816746 8.25 83.5 C8.63607422 82.88970947 9.02214844 82.27941895 9.41992188 81.65063477 C17.79217863 68.01728882 19.5528562 52.83150027 16.9765625 37.1875 C12.63014263 20.54479829 2.89201518 8.00818122 -11.61816406 -0.88818359 C-25.4293262 -8.64592642 -42.41438225 -10.17696809 -57.8125 -6.8125 C-69.08008665 -3.39567189 -78.16320016 2.82328994 -86.375 11.125 C-86.93703125 11.65351562 -87.4990625 12.18203125 -88.078125 12.7265625 C-98.07309789 22.984561 -101.76402317 38.12869348 -101.67382812 51.97363281 C-101.24395066 67.8568639 -95.29905816 80.69766263 -84.29296875 92.1015625 C-82.375 94.125 -82.375 94.125 -80.375 97.125 C-83.345 98.115 -83.345 98.115 -86.375 99.125 C-100.44376583 84.70531257 -107.66941819 68.99393145 -107.61938477 48.7956543 C-107.3379327 31.55717538 -100.28837862 16.5101956 -88.375 4.125 C-64.09790252 -19.16455453 -26.4110123 -20.29435147 0 0 Z " fill="#7F8CBF" transform="translate(285.375,109.875)"/>
<path d="M0 0 C3.94182075 2.67147093 6.47176786 6.07401841 8.1875 10.5 C9.18100533 16.06885884 8.79655094 21.21138677 5.56640625 25.9609375 C2.12220193 29.80517689 -1.40904615 32.14203879 -6.56640625 32.91015625 C-12.0667328 33.08227531 -16.08028819 32.53346911 -20.8125 29.5 C-21.4725 29.17 -22.1325 28.84 -22.8125 28.5 C-24.94311176 29.3084775 -27.04200068 30.20074019 -29.125 31.125 C-35.53378337 33.83993711 -41.9774674 35.72409519 -48.75 37.3125 C-49.62503174 37.51891113 -50.50006348 37.72532227 -51.40161133 37.93798828 C-78.82977867 44.16085661 -108.64128887 41.44669083 -134.8125 31.5 C-133.8225 29.85 -132.8325 28.2 -131.8125 26.5 C-130.9603894 26.75692627 -130.9603894 26.75692627 -130.09106445 27.01904297 C-127.4382934 27.81329222 -124.78174161 28.59413951 -122.125 29.375 C-121.23232422 29.64441406 -120.33964844 29.91382813 -119.41992188 30.19140625 C-107.17416923 33.7648999 -95.29326448 34.86682423 -82.5625 34.8125 C-81.88274109 34.81067719 -81.20298218 34.80885437 -80.50262451 34.80697632 C-65.06312956 34.73740863 -51.33656153 32.26508483 -36.6171875 27.68359375 C-33.02787392 26.56700031 -29.43013754 25.51951603 -25.8125 24.5 C-26.163125 23.51 -26.51375 22.52 -26.875 21.5 C-28.24741797 16.56725134 -28.10864386 12.24871888 -25.90625 7.578125 C-20.37212952 -1.17176819 -9.50412751 -4.62809687 0 0 Z " fill="#B5D9CF" transform="translate(325.8125,261.5)"/>
<path d="M0 0 C9.02600127 8.05209747 14.21998836 19.63986035 15.21484375 31.578125 C15.62377934 43.02832155 12.58865615 52.68500338 6 62 C5.33871094 62.95519531 5.33871094 62.95519531 4.6640625 63.9296875 C-2.26145906 72.93686872 -13.05787005 77.90812222 -24 80 C-36.5823408 81.28743361 -48.6235263 79.29816339 -58.94921875 71.671875 C-59.62597656 71.12015625 -60.30273438 70.5684375 -61 70 C-61.68707031 69.44828125 -62.37414062 68.8965625 -63.08203125 68.328125 C-71.12242202 61.13328202 -76.44250676 50.38844877 -77.8515625 39.7109375 C-78.63565313 25.39096646 -74.26203626 13.85773033 -65.2578125 2.875 C-47.99502299 -16.03527565 -19.33406411 -15.11346585 0 0 Z M-63.25 8.125 C-70.87748033 17.21403344 -73.6726169 27.83559478 -72.8125 39.5546875 C-70.96816998 51.58125614 -64.55969975 61.17781189 -55.0625 68.4921875 C-45.56140949 74.96672095 -35.2885286 76.04545166 -24 75 C-16.13408057 73.37541687 -9.95429937 70.34855895 -4 65 C-3.07574219 64.21302734 -3.07574219 64.21302734 -2.1328125 63.41015625 C5.21158525 56.71193942 9.42861637 47.47661555 10.18359375 37.59765625 C10.51554778 24.92482282 6.48957944 14.43690588 -2.25 5.125 C-11.61793126 -3.69094878 -22.5719995 -6.51193097 -35.2109375 -6.3125 C-46.30292186 -5.39769717 -55.61816805 0.23639614 -63.25 8.125 Z " fill="#7F8CBF" transform="translate(275,126)"/>
<path d="M0 0 C5.04038917 2.81438072 8.94494376 6.18382634 10.66796875 11.83203125 C11.49595466 17.1688513 10.91264613 21.08510317 8.17578125 25.75 C5.26808469 29.71253917 1.64547376 32.15350716 -3.0625 33.4375 C-9.58245548 34.26344446 -14.65200374 33.23219195 -20.0625 29.4375 C-24.92806249 24.32242148 -25.41580453 19.9912288 -25.34375 13.1640625 C-24.82312196 8.11686289 -22.21783389 5.50396205 -18.625 2.1875 C-12.59570497 -1.93006734 -6.83944979 -3.04120573 0 0 Z " fill="#B5DACF" transform="translate(397.0625,372.5625)"/>
<path d="M0 0 C4.72468701 4.19972179 7.31722485 7.4615917 7.96484375 13.87890625 C8.04100675 18.47407395 6.68300345 21.9637189 4.1875 25.75 C-0.18262741 30.2449882 -4.19981849 31.78866555 -10.3125 32.25 C-15.29158645 31.91243482 -19.08077411 30.86315862 -22.73828125 27.3125 C-27.29598339 22.09126605 -28.41180261 18.8812274 -28.34765625 11.8984375 C-27.8085229 7.40364034 -25.99851174 4.33441059 -23 1 C-15.81089547 -4.4356644 -7.83693259 -4.20872306 0 0 Z " fill="#B5DACF" transform="translate(237,546)"/>
<path d="M0 0 C4.25683697 3.56386351 7.25731299 6.79006733 7.9609375 12.44921875 C8.22861023 19.00720065 7.14447386 23.32804922 2.6875 28.25 C-1.7836117 32.36110011 -6.66165906 32.93552457 -12.59375 32.69921875 C-18.36931436 31.74492291 -21.94857391 28.78878841 -25.75 24.5 C-28.42038677 18.94559551 -28.96470581 14.42401937 -27.1875 8.5 C-23.99856909 2.97251976 -20.53325151 -0.3139028 -14.4921875 -2.30859375 C-9.15064787 -3.39030339 -4.77212367 -2.52112194 0 0 Z " fill="#B5DACF" transform="translate(162.3125,433.75)"/>
<path d="M0 0 C4.25120169 3.5591456 7.31992108 6.80319441 7.92578125 12.484375 C8.10932356 18.70549322 7.48493001 22.25338157 3.6875 27.25 C-1.54191209 31.38995124 -5.50744477 32.64732412 -12.16015625 32.5234375 C-17.59145686 31.83343561 -21.85952655 29.25757729 -25.25 25 C-28.46195704 19.9216355 -28.70820012 15.37239156 -27.625 9.5625 C-25.45629923 4.08911234 -22.61239519 0.83531472 -17.3125 -1.75 C-11.48746599 -3.691678 -5.3353864 -2.8186947 0 0 Z " fill="#B5DACF" transform="translate(168.3125,546.75)"/>
<path d="M0 0 C4.47872482 3.0554856 6.65285004 6.97575983 7.7578125 12.19921875 C7.94125507 17.7738345 6.95232582 22.31416513 3.39453125 26.6875 C-0.42921781 30.21922049 -4.64008016 32.0424653 -9.8359375 32.35546875 C-16.68624525 31.94279961 -20.91709544 29.77567211 -25.5546875 24.63671875 C-28.87586905 19.83945651 -28.87664794 14.84767904 -28.2421875 9.19921875 C-25.62545714 3.96575803 -22.04534574 0.71443942 -16.9296875 -2.05078125 C-10.52333746 -3.83859986 -5.71304192 -3.19258225 0 0 Z " fill="#B5DACF" transform="translate(268.2421875,488.80078125)"/>
<path d="M0 0 C4.43915814 2.51522877 6.80479419 5.46302116 9 10.0625 C10.11857845 15.35032539 10.16097486 19.79403851 7.37109375 24.5625 C3.94248991 28.89001853 0.45985712 31.63344014 -4.91796875 33.03515625 C-10.18388421 33.64507468 -14.89756577 32.8006698 -19.4296875 30.0078125 C-23.75226479 26.54616346 -25.89829109 23.63192416 -26.59375 18.05859375 C-26.9329446 12.50428211 -26.20072968 8.55768388 -22.921875 4.0078125 C-16.73150128 -2.51311515 -8.04635506 -3.65743412 0 0 Z " fill="#B5DACF" transform="translate(335.3125,486.6875)"/>
<path d="M0 0 C4.07415769 2.7885346 6.41785228 6.51326422 7.7578125 11.203125 C8.43435035 17.17920938 7.02675397 21.2997128 3.7578125 26.203125 C-0.26603756 30.33572776 -4.67582736 32.14710887 -10.48046875 32.23828125 C-17.05835913 31.78501485 -21.09186773 29.58591178 -25.5546875 24.640625 C-28.73512484 20.04665995 -28.74240484 15.60361959 -28.2421875 10.203125 C-26.18147037 4.24994217 -22.31747063 0.90262357 -16.8671875 -2.109375 C-10.45578392 -3.78855213 -5.70735149 -3.17821142 0 0 Z " fill="#B5DACF" transform="translate(94.2421875,435.796875)"/>
<path d="M0 0 C4.67394807 3.260894 8.19592213 7.31548247 9.6875 12.875 C10.36626802 18.87078417 8.93950459 22.94869602 5.6875 27.875 C1.62940638 32.41051639 -3.42579504 33.43462055 -9.3125 33.875 C-15.23876133 33.46737356 -19.18447327 31.19502797 -23.3125 26.875 C-26.27701372 21.63769243 -26.87087388 17.73792574 -26.3125 11.875 C-24.46330845 6.43620134 -20.93663162 3.10138275 -16.3125 -0.125 C-10.91330143 -1.92473286 -5.37692735 -1.82612627 0 0 Z " fill="#B5DACF" transform="translate(192.3125,376.125)"/>
<path d="M0 0 C4.34593253 2.86436462 7.77422427 5.94299964 9.75 10.8125 C10.43073835 16.0526022 10.40733258 20.4734892 8.0625 25.25 C4.09627016 29.64501144 0.63534094 32.56752403 -5.25 33.8125 C-11.55142114 33.91617969 -16.20158996 32.57406042 -21.25 28.8125 C-24.86383068 24.48469062 -26.50751359 19.43488008 -26.25 13.8125 C-25.05381342 7.60153123 -22.41073403 4.32179914 -17.25 0.8125 C-11.8691647 -2.2414876 -5.69371788 -2.08039692 0 0 Z " fill="#B5DACF" transform="translate(155.25,320.1875)"/>
<path d="M0 0 C5.24094777 2.73984471 8.03007342 6.81678275 9.86328125 12.31640625 C10.39520911 18.59315497 9.70956013 23.19167672 5.86328125 28.31640625 C1.73605933 32.41386455 -2.38635208 33.66550482 -8.13671875 33.94140625 C-13.88708542 33.66550482 -18.00949683 32.41386455 -22.13671875 28.31640625 C-25.32236216 24.07189841 -26.83338727 19.64665978 -26.51953125 14.33203125 C-25.49614036 8.94356495 -23.35179224 5.28350556 -19.07421875 1.87890625 C-13.19916075 -1.2461246 -6.43282489 -2.05803356 0 0 Z " fill="#B5DACF" transform="translate(292.13671875,317.68359375)"/>
<path d="M0 0 C4.5345155 2.73415597 7.85742693 5.78470939 9.90625 10.72265625 C11.09257216 15.68763416 10.62869165 20.39721814 8.44921875 25.015625 C4.91959266 30.44758203 0.84263132 32.38571128 -5.44140625 33.8046875 C-11.20088705 34.34429469 -15.62876607 32.17838895 -20.37890625 29.1171875 C-24.31475076 25.18134299 -25.75435989 21.55345035 -26.06640625 16.0546875 C-25.87813659 10.61942436 -24.20173943 6.94427936 -20.56640625 2.9296875 C-14.94019195 -2.24350694 -6.93651048 -2.89285216 0 0 Z " fill="#B5D9CF" transform="translate(124.56640625,268.0703125)"/>
<path d="M0 0 C4.28494418 2.42813504 6.92834215 4.79617284 8.5 9.609375 C9.82089896 15.05808321 10.02654815 19.03504746 7.75 24.3125 C4.79413923 28.79725427 1.81821119 31.62360975 -3.51171875 32.8203125 C-9.31401633 33.65555901 -14.20708902 33.5196618 -19.25 30.3125 C-22.6213706 27.13210029 -26.0068551 23.71604711 -26.48828125 18.95703125 C-26.65888413 12.44718444 -26.35751594 8.47322516 -22.25 3.3125 C-15.46561134 -1.7295343 -7.80670201 -3.61880766 0 0 Z " fill="#B5DACF" transform="translate(124.25,377.6875)"/>
<path d="M0 0 C5.13344543 2.87550139 8.00529018 6.51657083 9.640625 12.1640625 C10.58230275 17.29396413 10.05515205 21.03493938 7.390625 25.5390625 C4.63746501 29.45103842 2.21939914 31.63780445 -2.359375 33.1640625 C-9.7760751 33.82549336 -15.40740766 33.87603665 -21.359375 29.1640625 C-25.68860401 24.37912518 -26.589417 19.45521117 -26.359375 13.1640625 C-24.74377432 7.10555995 -21.4406801 3.60549186 -16.359375 0.1640625 C-11.08525515 -1.59397745 -5.29015199 -1.87432537 0 0 Z " fill="#B5DACF" transform="translate(93.359375,324.8359375)"/>
<path d="M0 0 C5.19764827 2.72311573 7.98011524 6.86612696 9.796875 12.31640625 C10.16510988 17.93198814 10.03578906 21.51027571 6.796875 26.31640625 C2.19934672 30.95740997 -1.32321642 33.44304388 -8.015625 33.56640625 C-13.38836674 33.48062953 -16.94762634 32.5612908 -20.86328125 28.6640625 C-24.93188967 24.1145311 -26.57755827 20.83262701 -26.484375 14.5078125 C-25.8195021 9.32734445 -23.36939573 5.42578572 -19.640625 1.87890625 C-14.02931146 -1.71808961 -6.32069468 -1.96120845 0 0 Z " fill="#B5DACF" transform="translate(361.203125,316.68359375)"/>
<path d="M0 0 C4.61140592 3.17798095 7.53119872 7.4585788 8.60546875 12.9609375 C8.91574395 18.41171804 7.87626851 22.37917369 4.66015625 26.8046875 C1.33907182 30.47224638 -1.61071624 32.21325664 -6.55859375 32.83984375 C-12.01898475 33.02506733 -16.30842796 32.76183717 -20.875 29.5 C-24.78751403 25.40964442 -27.66277366 21.99870284 -28.01171875 16.24609375 C-27.83130936 10.02671749 -26.05024701 6.61840828 -21.859375 2.09375 C-15.9410893 -2.65951883 -6.80850882 -3.37439253 0 0 Z " fill="#B6DACF" transform="translate(61.875,491.5)"/>
<path d="M0 0 C4.57815648 3.14220334 6.99560216 6.46550315 8.4921875 11.890625 C9.21879749 17.23639849 8.51100363 21.36240081 5.4921875 25.890625 C0.61981204 30.55115805 -3.2276427 32.93351952 -9.9453125 33.203125 C-15.0129824 33.05210172 -18.49403364 31.89022232 -22.171875 28.23828125 C-26.22955709 23.69021578 -27.90522667 20.40251675 -27.77734375 14.078125 C-27.19192794 9.32692426 -25.26614104 5.67487485 -21.91796875 2.27734375 C-15.69187765 -2.39551532 -7.10983253 -3.14515956 0 0 Z " fill="#B5DACF" transform="translate(304.5078125,543.109375)"/>
<path d="M0 0 C3.81726849 4.18968493 5.67838879 8.21773856 5.9375 13.875 C5.27306476 20.85157001 2.47057383 24.27746463 -2.71875 28.61328125 C-7.11067838 31.67764946 -12.31647126 31.2445868 -17.4375 30.8125 C-23.40673165 28.78521378 -26.79411264 24.8645051 -29.75 19.375 C-31.31780099 13.53137812 -30.69768933 8.91346977 -27.83984375 3.67578125 C-24.86236514 -0.28036722 -20.71430972 -2.56555996 -15.9921875 -3.85546875 C-10.4524836 -4.57546085 -4.49921341 -3.40815416 0 0 Z " fill="#B5DACF" transform="translate(133.4375,492.1875)"/>
<path d="M0 0 C4.59006854 3.2023734 8.42767752 7.33178109 9.6875 12.875 C9.77220166 19.17468614 9.0400703 24.0642644 4.6875 28.875 C-0.51422168 32.99302966 -4.85709311 33.51304372 -11.44140625 33.25 C-16.47357383 32.5927373 -19.36836266 31.02743777 -22.84375 27.1796875 C-26.10105625 22.70993948 -27.04305099 18.769289 -26.73046875 13.26953125 C-25.80634939 7.97527733 -23.53836621 4.82567175 -19.25 1.5 C-13.10400173 -1.89991394 -6.64119512 -2.25550023 0 0 Z " fill="#B5DACF" transform="translate(366.3125,429.125)"/>
<path d="M0 0 C4.67493492 2.66637939 8.08029169 5.89457396 9.64453125 11.125 C10.39158753 16.47112154 10.35562772 20.67647015 7.95703125 25.5625 C4.45527065 29.44282931 1.18091081 32.91129951 -4.18359375 33.36328125 C-15.62648495 33.61147181 -15.62648495 33.61147181 -20.35546875 29.125 C-24.47647843 25.11846281 -26.05190245 20.79157091 -26.35546875 15.125 C-25.66759604 10.25454492 -24.17296777 6.44565436 -20.41796875 3.1875 C-13.98016198 -1.14816578 -7.60130489 -2.82370198 0 0 Z " fill="#B5DACF" transform="translate(61.35546875,381.875)"/>
<path d="M0 0 C4.66693312 2.67559135 8.03998695 5.91424894 9.640625 11.12890625 C10.46229321 17.07891741 10.15613463 22.09000912 6.640625 27.12890625 C2.23401228 31.55959882 -1.43827607 33.27544403 -7.671875 33.37890625 C-14.11920237 33.29396123 -17.54572279 31.98377782 -22.109375 27.31640625 C-25.71010626 22.2153703 -26.90177384 18.19538293 -25.8984375 12.08203125 C-24.4149437 6.70705373 -20.82179143 3.21827147 -16.359375 0.12890625 C-11.09387166 -1.62626153 -5.26334027 -1.94325311 0 0 Z " fill="#B5DACF" transform="translate(260.359375,374.87109375)"/>
<path d="M0 0 C4.87247124 2.4255033 7.89965676 6.41842752 9.8359375 11.3828125 C10.86271233 16.64190311 10.41647891 21.03559727 7.8359375 25.7578125 C4.90382859 29.81512846 1.65752707 32.04953817 -3.1640625 33.3828125 C-9.12863006 34.18484863 -14.10857362 33.90989776 -19.1640625 30.3828125 C-23.07657653 26.29245692 -25.95183616 22.88151534 -26.30078125 17.12890625 C-26.11912054 10.86639246 -24.31596012 7.49154577 -20.05078125 2.9765625 C-14.4099931 -1.78832687 -6.98169419 -1.9911691 0 0 Z " fill="#B5DACF" transform="translate(329.1640625,373.6171875)"/>
<path d="M0 0 C3.93129922 3.40712599 6.64582076 6.31070882 7.3359375 11.55078125 C7.42688237 17.98058384 6.98292587 21.8641219 3 27 C-2.48272669 31.25191049 -7.09135009 32.69977117 -14 32 C-19.78510468 30.13700019 -23.90472653 27.43330775 -27.11328125 22.17578125 C-28.8361201 17.94837492 -28.52574743 13.4720985 -28 9 C-25.41736271 3.73907218 -21.78290162 0.46468506 -16.625 -2.25 C-10.38575443 -4.03264159 -5.64826323 -3.03332655 0 0 Z " fill="#B5DACF" transform="translate(231,433)"/>
<path d="M0 0 C3.77119206 3.15727707 7.41183528 6.52498644 7.92578125 11.60546875 C8.09675915 18.1296256 7.72953231 22.0379057 3.6875 27.25 C-1.54796775 31.3947453 -5.50091663 32.63058333 -12.15625 32.53125 C-17.31927355 31.85781215 -21.21488613 29.40390176 -24.75 25.6875 C-28.0545187 20.53245083 -27.89389047 15.18848837 -27.3125 9.25 C-26.00956987 4.95660974 -23.63005404 2.18195201 -19.8125 -0.125 C-12.92929509 -3.32077371 -6.83443385 -3.6106443 0 0 Z " fill="#B5DACF" transform="translate(199.3125,489.75)"/>
<path d="M0 0 C4.44496055 2.49696987 7.0635749 5.44072469 8.6875 10.3125 C9.19192239 15.5799928 9.3591659 19.94429168 7 24.75 C3.03377016 29.14501144 -0.42715906 32.06752403 -6.3125 33.3125 C-12.37136263 33.41057511 -16.57476159 32.27897867 -21.3125 28.3125 C-25.91760096 23.0850881 -26.67070886 20.0051745 -26.58984375 13.140625 C-26.16463942 8.80473863 -24.9909431 6.76628189 -22.3125 3.3125 C-15.46530414 -1.99757026 -8.06182428 -3.74406821 0 0 Z " fill="#B5DACF" transform="translate(298.3125,430.6875)"/>
<path d="M0 0 C3.79492863 2.29791536 5.45545759 5.07419483 7.29296875 9.01171875 C8.37603147 14.03319135 7.86647552 18.19404554 5.79296875 22.88671875 C3.08886771 26.3367787 -0.06402847 29.22146736 -4.01953125 31.19921875 C-9.87428836 31.6925063 -15.20937406 32.05666163 -20.58203125 29.51171875 C-25.49521355 24.85049452 -28.12962631 21.30968109 -28.33203125 14.44921875 C-28.26244789 9.14542012 -27.23045756 6.42412179 -24.01953125 2.19921875 C-16.11809969 -3.92842205 -8.79538654 -4.31443229 0 0 Z " fill="#B5D9CF" transform="translate(226.01953125,320.80078125)"/>
<path d="M0 0 C4.49965648 2.42063949 7.5935957 5.7418789 9.86328125 10.28125 C10.74335716 18.20193317 8.68321239 23.90346693 3.86328125 30.28125 C-0.63318984 33.53830919 -4.65530347 34.40957745 -10.13671875 34.28125 C-16.03843754 33.27259261 -19.35870703 30.52586975 -23.0078125 25.90234375 C-26.26431091 21.22605711 -25.65456965 15.77622343 -25.13671875 10.28125 C-22.97734237 5.80254344 -20.20718936 3.09926812 -16.13671875 0.28125 C-11.04065361 -1.41743838 -5.14382507 -1.73028119 0 0 Z " fill="#B5DACF" transform="translate(402.13671875,484.71875)"/>
<path d="M0 0 C4.85254766 5.08309857 7.39595128 9.69656147 7.27734375 16.87890625 C6.6126743 21.96222331 3.7167504 25.58582696 -0.0625 28.875 C-5.16815088 32.56844957 -9.90242694 32.5057455 -16 32 C-21.3685131 30.24490918 -25.1820403 26.86075249 -28 22 C-29.88985573 15.9504618 -29.3291689 10.58818689 -26.41796875 4.984375 C-20.28962793 -3.59192565 -9.08507587 -4.19311194 0 0 Z " fill="#B5D9CF" transform="translate(190,265)"/>
<path d="M0 0 C4.20916633 3.60785685 7.26666029 6.83696115 7.86328125 12.51953125 C8.0329021 18.33127736 7.62469908 21.70980104 3.625 26.25 C-0.12904859 29.71527562 -3.42835544 32.20482146 -8.66796875 32.28515625 C-14.58063653 31.91840984 -18.59013795 30.76540886 -23.375 27.25 C-26.91374597 23.10112542 -28.0313461 17.6059717 -28.375 12.25 C-26.52504662 5.61193199 -23.06111945 1.83007026 -17.1875 -1.625 C-10.97236934 -3.45897298 -5.75751141 -2.98537629 0 0 Z " fill="#B5DACF" transform="translate(32.375,439.75)"/>
<path d="M0 0 C4.50665768 2.13473258 7.1741532 4.91822129 10 9 C11.61788547 13.85365641 11.93894722 19.15633129 10.31640625 24.0703125 C8.0650563 28.38617838 5.30263468 30.84868266 1 33 C-5.88340921 34.6196257 -5.88340921 34.6196257 -10.44921875 32.0859375 C-11.54719683 31.20492515 -12.62670966 30.30045257 -13.6875 29.375 C-14.22955078 28.93542969 -14.77160156 28.49585938 -15.33007812 28.04296875 C-16.92357507 26.73203399 -18.4655545 25.3793553 -20 24 C-20.95519531 23.14664063 -21.91039063 22.29328125 -22.89453125 21.4140625 C-25 19 -25 19 -25 15 C-23.64111103 8.3551576 -20.21937114 4.99781619 -15 1 C-10.58318729 -1.20840635 -4.80757466 -0.42161434 0 0 Z " fill="#B5DACF" transform="translate(96,546)"/>
<path d="M0 0 C11.42644458 3.53950472 11.42644458 3.53950472 13.70703125 7.13671875 C15.27051066 11.13384937 15.11048458 15.12907399 14.5703125 19.34375 C11.95358214 24.57721072 8.37347074 27.82852933 3.2578125 30.59375 C-3.14612491 32.38089532 -7.96381419 31.74005346 -13.671875 28.5390625 C-17.39050345 26.01039515 -19.04820301 23.22810041 -20.8046875 19.15625 C-21.77012635 13.26707304 -21.20595987 8.28360948 -18.08203125 3.11328125 C-12.63879066 -3.33367747 -7.492989 -2.02382983 0 0 Z " fill="#B5D9CF" transform="translate(282.4296875,207.65625)"/>
<path d="M0 0 C5.5982291 3.99430024 9.28788588 9.34289745 11 16 C12.15566722 24.68930918 11.20446193 31.82968805 6 39 C0.89201949 44.7614535 -4.71072825 48.39134798 -12.41015625 49.27734375 C-20.82516433 49.60249862 -27.27582547 47.73678205 -33.8125 42.375 C-39.75663433 36.65948622 -42.15202268 31.29796317 -42.5 23.0625 C-42.14652498 14.63265629 -39.9558554 8.45883237 -33.8125 2.5625 C-23.45121538 -5.83166675 -11.68226997 -5.97368722 0 0 Z M-33 9 C-36.53602496 14.6444622 -38.24297512 20.38559669 -37 27 C-34.77986451 34.04466068 -31.44923111 38.1081827 -25.18359375 41.94140625 C-19.81079893 44.54610642 -14.14599424 45.03895489 -8.46875 43.1640625 C-2.2710294 40.38255536 1.64416994 36.91913936 5 31 C6.97784396 25.06646813 7.00831235 18.36146881 4.375 12.625 C1.01538747 6.8807674 -3.77251893 3.57055823 -9.99609375 1.50390625 C-18.80680787 -0.71165344 -26.88817918 2.61036915 -33 9 Z " fill="#7F8CBF" transform="translate(259,138)"/>
<path d="M0 0 C1.4375 2 1.4375 2 1.33203125 3.80078125 C-1.875268 11.68597547 -14.44200504 21.61460602 -21.5625 26 C-24.72344682 25.80495065 -25.66064517 24.92054915 -28.1875 22.875 C-31.75640057 18.55475194 -32.86015472 14.47427681 -32.4375 8.9375 C-31.51356655 3.4469989 -28.94661477 0.0669218 -24.5625 -3.3125 C-15.63141748 -8.33623392 -7.70444578 -6.01322597 0 0 Z " fill="#B5DACF" transform="translate(377.5625,546)"/>
<path d="M0 0 C5.96427382 0.23857095 9.75103252 1.9706174 14 6 C17.78080128 11.12237593 17.82294759 16.8644685 17 23 C14.50442459 28.08357955 11.20174531 31.8597293 5.7734375 33.79296875 C-0.66204807 35.43670732 -4.98316505 34.56840243 -11 32 C-9.78860285 24.60616169 -7.68286242 17.8966745 -4.9375 10.9375 C-4.57333984 9.98939453 -4.20917969 9.04128906 -3.83398438 8.06445312 C-1.15402701 1.15402701 -1.15402701 1.15402701 0 0 Z " fill="#B5DACF" transform="translate(18,325)"/>
<path d="M0 0 C4.99629737 1.07139285 7.85257051 3.3777721 10.8125 7.5625 C12.49727156 12.43947031 12.68489993 16.89369052 12 22 C9.54432448 27.00230198 6.0029693 30.49851535 1 33 C-11.32415865 34.03836143 -11.32415865 34.03836143 -15.6875 31.1875 C-18 29 -18 29 -20 26 C-13.71911807 16.96622088 -7.180528 8.34163466 0 0 Z " fill="#B5DACF" transform="translate(54,269)"/>
<path d="M0 0 C0.33083184 6.06525047 -0.31903811 11.67045864 -1.375 17.625 C-1.50108643 18.34099365 -1.62717285 19.0569873 -1.75708008 19.79467773 C-2.58710219 24.28963842 -3.67919127 28.62410324 -5 33 C-10.93799181 33.41670118 -15.30625251 33.03297721 -20 29 C-23.60982218 25.04378074 -25.31739733 21.30524852 -25.5625 15.9375 C-25.2164575 10.15237919 -23.59958777 6.35999443 -19.3046875 2.4609375 C-13.3421798 -1.86007011 -6.92500782 -2.30833594 0 0 Z " fill="#B6DACF" transform="translate(434,428)"/>
<path d="M0 0 C1.32 1.32 2.64 2.64 4 4 C-4.53018794 8.92529279 -13.50272076 11.6413213 -23 14 C-23.6693457 14.16806152 -24.33869141 14.33612305 -25.02832031 14.50927734 C-52.44060625 21.03440214 -82.86255202 17.93385873 -109 8 C-108.01 6.35 -107.02 4.7 -106 3 C-105.43192627 3.17128418 -104.86385254 3.34256836 -104.27856445 3.51904297 C-101.6257934 4.31329222 -98.96924161 5.09413951 -96.3125 5.875 C-94.97348633 6.27912109 -94.97348633 6.27912109 -93.60742188 6.69140625 C-81.36166923 10.2648999 -69.48076448 11.36682423 -56.75 11.3125 C-56.07024109 11.31067719 -55.39048218 11.30885437 -54.69012451 11.30697632 C-35.66728002 11.22126268 -17.42991418 7.78687075 0 0 Z " fill="#7F8CBF" transform="translate(300,285)"/>
<path d="M0 0 C3.84460227 2.30527409 5.62855604 5.03801188 7.01953125 9.2109375 C7.05907359 11.54393575 7.06354857 13.87801939 7.01953125 16.2109375 C-21.20107658 16.88643077 -21.20107658 16.88643077 -28.98046875 12.2109375 C-26.55240505 5.69350335 -23.93440259 1.79730938 -17.60546875 -1.6015625 C-10.90676688 -3.79596484 -6.21254542 -2.98456185 0 0 Z " fill="#B5DACF" transform="translate(204.98046875,602.7890625)"/>
<path d="M0 0 C5.2893154 0.41941708 7.98432755 5.02053093 11.24609375 8.734375 C14.11557677 12.11217822 16.93449781 15.52655846 19.6875 19 C20.13367676 19.55139648 20.57985352 20.10279297 21.03955078 20.67089844 C22.26171875 22.25 22.26171875 22.25 24 25 C23 28 23 28 20.77734375 29.1640625 C14.95454564 30.91663465 9.12849946 31.02483307 3.625 28.375 C-1.32952537 23.89233419 -4.72523074 20.24227727 -5.3125 13.3125 C-5.27695755 8.51426979 -3.45493505 3.45493505 0 0 Z " fill="#B5DACF" transform="translate(371,263)"/>
<path d="M0 0 C3.27509309 2.66734386 5.085431 4.40958213 5.83203125 8.66796875 C-1.24882559 11.05654546 -8.2676385 13.03100247 -15.60546875 14.41796875 C-16.26675781 14.54534424 -16.92804688 14.67271973 -17.609375 14.80395508 C-21.50770791 15.50776594 -25.21023525 15.79030982 -29.16796875 15.66796875 C-28.83636176 9.36743597 -27.67735201 5.22571001 -23.16796875 0.66796875 C-15.83447685 -3.91546368 -7.55135969 -4.63966424 0 0 Z " fill="#B5DACF" transform="translate(274.16796875,601.33203125)"/>
<path d="M0 0 C3 1 3 1 4.01147461 2.57543945 C4.45245483 3.58417114 4.45245483 3.58417114 4.90234375 4.61328125 C5.39927734 5.73597412 5.39927734 5.73597412 5.90625 6.88134766 C6.41671875 8.08476807 6.41671875 8.08476807 6.9375 9.3125 C7.28941406 10.12251465 7.64132812 10.9325293 8.00390625 11.76708984 C10.70320541 18.07170293 13.04015928 24.42421864 15 31 C8.23142676 31.55990036 3.19353495 31.52411359 -2.41015625 27.41015625 C-6.615647 23.67997895 -7.62875857 19.71327791 -8.0625 14.2734375 C-7.92030048 9.1009299 -5.71040747 5.77649188 -2.3125 2.0625 C-1.549375 1.381875 -0.78625 0.70125 0 0 Z " fill="#B5DACF" transform="translate(411,317)"/>
<path d="M0 0 C-19.2283381 7.37623398 -40.59725981 8.48877692 -60 1 C-57.84775742 -0.91529844 -56.63111898 -1.96994672 -53.703125 -2.109375 C-52.89359375 -1.99078125 -52.0840625 -1.8721875 -51.25 -1.75 C-49.92162109 -1.57404297 -49.92162109 -1.57404297 -48.56640625 -1.39453125 C-47.71949219 -1.26433594 -46.87257812 -1.13414062 -46 -1 C-35.23477951 0.58831122 -25.16631918 0.40205268 -14.55664062 -2.02050781 C-8.8651391 -3.26318114 -4.90532227 -3.27021484 0 0 Z " fill="#7F8CBF" transform="translate(275,239)"/>
<path d="M0 0 C1.155 0.391875 2.31 0.78375 3.5 1.1875 C5.33269188 1.7936097 7.16613639 2.39744482 9 3 C10.19882813 3.39832031 11.39765625 3.79664063 12.6328125 4.20703125 C21.67242105 7.15658543 30.6327001 9.344572 40 11 C40 12.65 40 14.3 40 16 C34.02302163 16.29195552 28.83874666 15.23197776 23.0625 13.75 C22.20720703 13.54503906 21.35191406 13.34007812 20.47070312 13.12890625 C11.1843526 10.79138095 5.09337722 8.27673798 0 0 Z " fill="#7F8CBF" transform="translate(190,266)"/>
<path d="M0 0 C0.77601563 0.16242188 1.55203125 0.32484375 2.3515625 0.4921875 C7.0476231 1.14581478 11.64022312 1.1450061 16.375 1.125 C17.2825 1.12886719 18.19 1.13273438 19.125 1.13671875 C24.50865729 1.12896132 29.67353182 0.78587235 35 0 C35 1.65 35 3.3 35 5 C28.64147063 6.8859413 22.92408697 7.27627749 16.3125 7.1875 C15.38888672 7.18685547 14.46527344 7.18621094 13.51367188 7.18554688 C9.18521044 7.15750069 5.23973102 6.94336485 1 6 C0.67 4.02 0.34 2.04 0 0 Z " fill="#7F8CBF" transform="translate(227,218)"/>
<path d="M0 0 C3.26391101 1.27372137 5.55463603 3.55724116 8.1171875 5.875 C14.70344072 11.66216821 21.76115599 16.33254458 29.2421875 20.875 C24.59420228 22.42432841 20.80614412 21.49802867 16.2421875 19.875 C12.58154237 17.55527125 9.44826404 14.78019859 6.2421875 11.875 C4.83066406 10.65876953 4.83066406 10.65876953 3.390625 9.41796875 C-1.73609774 4.94833301 -1.73609774 4.94833301 -3.7578125 2.875 C-3.7578125 2.215 -3.7578125 1.555 -3.7578125 0.875 C-1.7578125 -0.125 -1.7578125 -0.125 0 0 Z " fill="#7F8DBF" transform="translate(156.7578125,242.125)"/>
<path d="M0 0 C0.66 0.33 1.32 0.66 2 1 C-0.22417969 5.44835937 -2.64757974 7.61043594 -7 10 C-10.375 10.75 -10.375 10.75 -13 11 C-13 10.34 -13 9.68 -13 9 C-10.86229382 7.37322909 -8.7324466 5.86020356 -6.5 4.375 C-5.87996094 3.95476562 -5.25992188 3.53453125 -4.62109375 3.1015625 C-3.08482736 2.06162833 -1.54292476 1.03002944 0 0 Z " fill="#B5DBCF" transform="translate(95,235)"/>
<path d="M0 0 C3 3 3 3 3.36328125 5.33984375 C3.34652344 6.19707031 3.32976562 7.05429687 3.3125 7.9375 C3.30863281 8.79214844 3.30476562 9.64679688 3.30078125 10.52734375 C2.98780141 13.10028192 2.29573378 14.77505475 1 17 C0.67 17 0.34 17 0 17 C0 11.39 0 5.78 0 0 Z " fill="#B6D9CF" transform="translate(0,391)"/>
</svg>
