<?xml version="1.0" encoding="UTF-8"?>
<svg version="1.1" xmlns="http://www.w3.org/2000/svg" width="1032" height="1109">
<path d="M0 0 C0.97727051 0.02078613 1.95454102 0.04157227 2.96142578 0.06298828 C16.52534447 0.37962826 29.98816285 1.55445681 43.47387695 2.98364258 C49.98051431 3.64822184 56.30099159 4.03947235 62.84375 3.90234375 C68.10696073 3.84860281 72.08537907 4.39813893 77.00683594 6.13134766 C84.65200583 8.35006825 92.75868397 9.06245796 100.625 10.1875 C102.50661058 10.46220542 104.38812211 10.7375902 106.26953125 11.01367188 C110.84524876 11.68362608 115.42221207 12.34434879 120 13 C120.27972656 12.38511719 120.55945313 11.77023438 120.84765625 11.13671875 C122.90333618 7.32500038 125.96205596 5.34598135 130 4 C137.182488 3.30233795 142.17911514 3.60463796 148 8 C151.24462164 11.06923668 152.14565323 13.33912023 152.8125 17.625 C153.19028261 19.96276386 153.19028261 19.96276386 154 22 C156.53084826 23.46789199 158.28638199 24.17898394 161 25 C162.32535354 25.6190274 163.63797102 26.26594853 164.9375 26.9375 C165.59621094 27.27136719 166.25492188 27.60523438 166.93359375 27.94921875 C167.61550781 28.29597656 168.29742188 28.64273438 169 29 C170.499487 29.75102512 171.99947109 30.50105876 173.5 31.25 C174.655 31.8275 175.81 32.405 177 33 C177 33.66 177 34.32 177 35 C177.7425 35.28875 178.485 35.5775 179.25 35.875 C181.56739797 36.82302644 183.77917115 37.84845911 186 39 C186 39.66 186 40.32 186 41 C186.66 41 187.32 41 188 41 C188 41.66 188 42.32 188 43 C188.99 43 189.98 43 191 43 C193.66090097 45.38798805 195.90817079 47.88386306 198.125 50.6875 C199.96561073 53.19153669 199.96561073 53.19153669 203 55 C203.68268138 56.32520503 204.3507041 57.65812182 205 59 C205.66 59.33 206.32 59.66 207 60 C207 60.99 207 61.98 207 63 C207.66 63 208.32 63 209 63 C210.71768311 65.97291308 212.36446955 68.98116548 214 72 C214.62777344 73.15242188 215.25554687 74.30484375 215.90234375 75.4921875 C230.02811337 102.09617698 234.40893346 133.62439792 233.97753906 163.50952148 C234.0096481 167.06978553 234.46900944 170.48218754 235 174 C235.78375 173.505 236.5675 173.01 237.375 172.5 C243.09389511 170.13356064 248.37621384 170.14222376 254.25 172.0625 C259.16107884 175.52257827 263.01960982 179.17426794 264.25 185.25 C264.55303599 191.3420683 261.47897737 196.20761094 258 201 C254.34674313 204.33558236 251.06484095 205.68309069 246.09375 206.11328125 C241.6902785 205.87503372 237.90447124 203.95223562 234 202 C234.01160156 202.85722656 234.02320313 203.71445312 234.03515625 204.59765625 C234.04869141 206.31275391 234.04869141 206.31275391 234.0625 208.0625 C234.07410156 209.18785156 234.08570313 210.31320312 234.09765625 211.47265625 C234 215 234 215 233.50219727 217.86181641 C232.62867967 223.77620883 232.85768246 229.77471903 232.8671875 235.73828125 C232.86623077 237.05539597 232.86527405 238.37251068 232.86428833 239.72953796 C232.86282078 242.5040302 232.86493717 245.27849006 232.86962891 248.05297852 C232.87535359 251.61179047 232.87202404 255.17052746 232.86605644 258.72933674 C232.86158305 262.12815767 232.86470966 265.52695819 232.8671875 268.92578125 C232.86415115 270.84599846 232.86415115 270.84599846 232.86105347 272.80500793 C232.86420563 273.98350815 232.86735779 275.16200836 232.87060547 276.3762207 C232.87140106 277.4165596 232.87219666 278.4568985 232.87301636 279.52876282 C232.83468654 282.00331065 232.83468654 282.00331065 234 284 C233.98582031 285.14984375 233.97164062 286.2996875 233.95703125 287.484375 C233.89898728 292.53306252 234.73219539 297.30505231 235.6875 302.25 C235.86466553 303.17441895 236.04183105 304.09883789 236.22436523 305.05126953 C237.66023778 312.13192766 239.81547146 318.50313576 243 325 C246.2690583 332.34529148 246.2690583 332.34529148 247 336 C247.66 336 248.32 336 249 336 C250.2265625 337.72265625 250.2265625 337.72265625 251.625 340.0625 C255.19092978 345.60852839 259.6005653 350.8668551 266 353 C266 353.66 266 354.32 266 355 C267.65 355.33 269.3 355.66 271 356 C271 356.66 271 357.32 271 358 C271.66257812 358.11472656 272.32515625 358.22945313 273.0078125 358.34765625 C275.97239515 358.99398171 278.82639731 359.85161756 281.71826172 360.76489258 C310.16405096 369.63608902 340.38175168 366.57054193 369.375 361.8125 C387.87434015 359.08384733 407.29587805 360.14021496 424 369 C424.88945313 369.41894531 425.77890625 369.83789062 426.6953125 370.26953125 C434.76664079 374.25920492 445.53329938 381.26145287 449 390 C449.66 390 450.32 390 451 390 C452.69140625 392.01171875 452.69140625 392.01171875 454.5625 394.6875 C455.18253906 395.55761719 455.80257812 396.42773438 456.44140625 397.32421875 C457.98342898 399.971551 458.60350598 401.98555914 459 405 C459.66 405 460.32 405 461 405 C461.67667998 406.24460783 462.34094719 407.49596896 463 408.75 C463.37125 409.44609375 463.7425 410.1421875 464.125 410.859375 C465 413 465 413 465 417 C465.66 417 466.32 417 467 417 C467.71818153 419.39393843 468.4354532 421.78809979 469.1484375 424.18359375 C469.65785145 425.86839859 470.17967171 427.54964089 470.7265625 429.22265625 C478.04265933 452.01511176 479.39706256 475.60116114 479.3125 499.375 C479.31167419 500.36670197 479.31084839 501.35840393 479.30999756 502.38015747 C479.27692775 519.75172681 478.25376238 536.76841943 476 554 C475.91713745 554.64459167 475.8342749 555.28918335 475.74890137 555.95330811 C474.85862993 562.87711069 473.95746533 569.76188126 472.5 576.59375 C471.93699531 579.30321008 471.46919359 582.02281226 471 584.75 C470.30087449 588.66073333 469.25652482 592.23042553 468 596 C467.66978606 597.76761582 467.35931481 599.53897021 467.0625 601.3125 C466.31056283 605.7107357 465.16032497 609.72389969 463.6640625 613.91796875 C462.70361103 616.9292666 462.33382432 619.86205143 462 623 C461.34 623 460.68 623 460 623 C459.87882813 623.99773438 459.75765625 624.99546875 459.6328125 626.0234375 C459.06151799 629.99463101 458.03555723 633.78985442 456.875 637.625 C456.66270752 638.337771 456.45041504 639.05054199 456.23168945 639.78491211 C453.37163195 649.25929614 450.18303173 658.6302694 447 668 C446.34 668 445.68 668 445 668 C444.938125 668.928125 444.87625 669.85625 444.8125 670.8125 C444.17895442 675.12745907 442.47267842 678.69363284 440.6015625 682.60546875 C439.33929971 685.28085012 438.13536124 687.96176309 436.9609375 690.67578125 C436.42932007 691.89914185 436.42932007 691.89914185 435.88696289 693.1472168 C435.17623743 694.7861972 434.46962355 696.42696728 433.76733398 698.06958008 C433.43805908 698.82263428 433.10878418 699.57568848 432.76953125 700.3515625 C432.47667236 701.03041504 432.18381348 701.70926758 431.88208008 702.40869141 C431 704 431 704 429 705 C428.30562395 706.78042656 428.30562395 706.78042656 427.75 708.9375 C426.29030983 713.58934088 424.12906151 717.39946631 421.546875 721.515625 C420.06939642 723.88854515 418.70979776 726.29463127 417.375 728.75 C407.93048669 745.85142158 394.66441602 763.15617325 379 775 C378.34 775 377.68 775 377 775 C377 775.66 377 776.32 377 777 C376.01 777 375.02 777 374 777 C374 777.66 374 778.32 374 779 C367.5102308 782.76566855 360.8742496 785.99856708 354 789 C352.89914062 789.49113281 351.79828125 789.98226562 350.6640625 790.48828125 C346.82095582 792.07387004 342.97358566 793.35596106 339 794.5625 C338.32710937 794.77068359 337.65421875 794.97886719 336.9609375 795.19335938 C333.77458414 796.17448555 330.58291963 797.11820273 327.375 798.02734375 C325.24326303 798.6416985 323.12307732 799.29921246 321.0234375 800.015625 C314.17316785 802.24594535 307.04369508 803.52799357 300 805 C298.94087402 805.2273584 297.88174805 805.4547168 296.79052734 805.68896484 C279.45197306 809.36863244 262.12169308 811.8750382 244.5 813.75 C243.56757477 813.8507785 242.63514954 813.95155701 241.67446899 814.0553894 C212.58013859 817.16043692 183.60279047 818.38616682 154.36423492 818.31805801 C151.89343704 818.31239908 149.42264607 818.30959061 146.95184326 818.30697632 C123.606356 818.2710874 100.3698182 818.01557594 77.15875244 815.25646973 C74.87403991 814.98503536 72.58824264 814.72425203 70.30224609 814.46386719 C49.93215222 812.11167661 29.95804541 808.7662536 10 804 C9.17226074 803.80519043 8.34452148 803.61038086 7.49169922 803.40966797 C-5.56876388 800.32030687 -18.45153952 796.77845375 -31 792 C-31.67160156 791.75507812 -32.34320313 791.51015625 -33.03515625 791.2578125 C-35.03273006 790.52769312 -37.01683348 789.76838555 -39 789 C-39.82242188 788.68804688 -40.64484375 788.37609375 -41.4921875 788.0546875 C-48.16877242 785.4099461 -54.52248245 782.27121642 -60.875 778.9375 C-62.08796753 778.3021936 -62.08796753 778.3021936 -63.32543945 777.65405273 C-71.75843137 773.17039106 -79.31137523 767.63904779 -87 762 C-87.82113281 761.4121875 -88.64226562 760.824375 -89.48828125 760.21875 C-90.21402344 759.6928125 -90.93976563 759.166875 -91.6875 758.625 C-92.33074219 758.16351562 -92.97398437 757.70203125 -93.63671875 757.2265625 C-94.31154297 756.61941406 -94.31154297 756.61941406 -95 756 C-95 755.34 -95 754.68 -95 754 C-95.66 754 -96.32 754 -97 754 C-101.76744186 749.69767442 -101.76744186 749.69767442 -103 746 C-103.66 746 -104.32 746 -105 746 C-106.83563979 743.68337997 -108.52626151 741.37584132 -110.1875 738.9375 C-110.67927734 738.21594727 -111.17105469 737.49439453 -111.67773438 736.75097656 C-127.34404902 713.21043955 -130.7726499 685.77412148 -125.75 658.25 C-121.37761096 638.74081653 -112.97662543 614.97525243 -100.44140625 599.015625 C-98.48235994 596.27614561 -97.47884717 593.40228965 -96.3125 590.25 C-95.87550781 589.07953125 -95.43851562 587.9090625 -94.98828125 586.703125 C-94.66214844 585.81109375 -94.33601563 584.9190625 -94 584 C-93.34 584 -92.68 584 -92 584 C-92.495 582.515 -92.495 582.515 -93 581 C-92.47258181 578.91655246 -91.8530008 576.85603427 -91.1875 574.8125 C-88.85099854 566.95702095 -87.70650533 559.1511173 -87 551 C-86.93683594 550.28295898 -86.87367188 549.56591797 -86.80859375 548.82714844 C-85.32878487 531.01434265 -86.89151845 513.9486757 -89.64013672 496.32958984 C-89.95343991 494.30140866 -90.24610763 492.27006094 -90.53515625 490.23828125 C-92.29205427 477.99905052 -95.43664794 466.04733769 -98.42456055 454.06152344 C-98.93680977 452.00277405 -99.4439996 449.9428176 -99.95117188 447.8828125 C-102.0309157 439.49825264 -104.39161994 431.23683815 -107 423 C-107.52462961 421.25113433 -108.04614249 419.50132586 -108.5625 417.75 C-109.70922704 413.90691478 -110.95578732 410.10685953 -112.2421875 406.30859375 C-113.35546804 402.9171051 -114.35401663 399.49345899 -115.3515625 396.06640625 C-115.95015542 393.96727021 -115.95015542 393.96727021 -117 392 C-116.67 391.34 -116.34 390.68 -116 390 C-116.66 389.67 -117.32 389.34 -118 389 C-118.8515625 386.3828125 -118.8515625 386.3828125 -119.625 383.125 C-119.88539063 382.05507813 -120.14578125 380.98515625 -120.4140625 379.8828125 C-121 377 -121 377 -121 374 C-121.66 373.67 -122.32 373.34 -123 373 C-123.74609375 370.99609375 -123.74609375 370.99609375 -124.4375 368.4375 C-125.49397417 364.56778604 -126.78146814 360.86531549 -128.20825195 357.12182617 C-129.52535974 353.59207478 -130.69592693 350.01524124 -131.875 346.4375 C-132.2613562 345.27275146 -132.2613562 345.27275146 -132.65551758 344.08447266 C-133.67734035 341.00360314 -134.69571546 337.92160103 -135.71337891 334.83935547 C-138.02376997 327.84524691 -140.35448513 320.87550923 -143 314 C-146.49352437 304.89365684 -149.38879241 295.60406969 -152.31640625 286.3046875 C-154.36622334 279.81223896 -156.53909419 273.36380424 -158.71875 266.9140625 C-164.36180237 250.18644298 -164.36180237 250.18644298 -166.38671875 242.34765625 C-167.05346702 239.7953269 -167.79863733 237.27488596 -168.5625 234.75 C-168.80742187 233.93660156 -169.05234375 233.12320313 -169.3046875 232.28515625 C-169.92392004 230.25003807 -170.55489324 228.21850065 -171.1875 226.1875 C-171.92625945 223.28928985 -172.17992457 220.96875547 -172 218 C-172.66 217.67 -173.32 217.34 -174 217 C-174.52734375 214.69921875 -174.52734375 214.69921875 -174.9375 211.6875 C-176.01067622 204.58087637 -177.71921653 197.71561186 -179.6015625 190.78515625 C-180.70811448 186.61494169 -181.3108783 182.58921137 -181.72265625 178.3125 C-181.99595849 176.03369825 -182.43611929 173.86372315 -182.9375 171.625 C-185.85153736 157.03290313 -186.20684644 142.51592065 -186.25 127.6875 C-186.25517639 126.87116089 -186.26035278 126.05482178 -186.26568604 125.21374512 C-186.3328313 111.76107244 -185.58813344 98.78260784 -181.4375 85.875 C-180.99818957 84.45588643 -180.55937024 83.03662073 -180.12109375 81.6171875 C-179.75113281 80.42351562 -179.38117188 79.22984375 -179 78 C-178.65197656 76.67042542 -178.30878644 75.33923106 -178 74 C-177.34 74 -176.68 74 -176 74 C-175.690625 72.80375 -175.38125 71.6075 -175.0625 70.375 C-173.50261902 65.63477916 -171.12336226 61.66711077 -168.4375 57.5 C-168.03732666 56.87657715 -167.63715332 56.2531543 -167.22485352 55.61083984 C-164.27126669 51.13563334 -164.27126669 51.13563334 -162 50 C-161.67 49.01 -161.34 48.02 -161 47 C-160.34 47 -159.68 47 -159 47 C-158.95875 46.443125 -158.9175 45.88625 -158.875 45.3125 C-157.78247763 42.42511945 -156.01069653 41.15253907 -153.61328125 39.29296875 C-151.76361832 37.86421251 -151.76361832 37.86421251 -149.4375 35.375 C-146.22962575 32.24937894 -143.2364412 30.41214707 -139 29 C-138.67 28.34 -138.34 27.68 -138 27 C-137.57074219 26.17628906 -137.57074219 26.17628906 -137.1328125 25.3359375 C-134.7259734 20.65286297 -132.77096297 15.9586963 -131 11 C-129.58089348 11.25774371 -128.16475101 11.53183165 -126.75 11.8125 C-125.96109375 11.96332031 -125.1721875 12.11414063 -124.359375 12.26953125 C-122 13 -122 13 -120.14282227 14.61621094 C-118.10690373 16.25274191 -118.10690373 16.25274191 -115.76245117 15.73999023 C-114.96814697 15.45325439 -114.17384277 15.16651855 -113.35546875 14.87109375 C-112.4742334 14.56929199 -111.59299805 14.26749023 -110.68505859 13.95654297 C-109.79898926 13.64088379 -108.91291992 13.32522461 -108 13 C-106.41586887 12.50172635 -104.82864713 12.0131567 -103.23828125 11.53515625 C-102.44276855 11.29450439 -101.64725586 11.05385254 -100.82763672 10.8059082 C-68.23552262 1.17253726 -33.82773597 -0.86396968 0 0 Z " fill="#B5D9CF" transform="translate(433,133)"/>
<path d="M0 0 C0.99 0.33 1.98 0.66 3 1 C3.49674025 31.30625029 2.85287784 61.81463515 -3.5 91.59375 C-4.06300469 94.30321008 -4.53080641 97.02281226 -5 99.75 C-5.69912551 103.66073333 -6.74347518 107.23042553 -8 111 C-8.33021394 112.76761582 -8.64068519 114.53897021 -8.9375 116.3125 C-9.68943717 120.7107357 -10.83967503 124.72389969 -12.3359375 128.91796875 C-13.29638897 131.9292666 -13.66617568 134.86205143 -14 138 C-14.66 138 -15.32 138 -16 138 C-16.12117187 138.99773437 -16.24234375 139.99546875 -16.3671875 141.0234375 C-16.93848201 144.99463101 -17.96444277 148.78985442 -19.125 152.625 C-19.33729248 153.337771 -19.54958496 154.05054199 -19.76831055 154.78491211 C-22.62836805 164.25929614 -25.81696827 173.6302694 -29 183 C-29.66 183 -30.32 183 -31 183 C-31.061875 183.928125 -31.12375 184.85625 -31.1875 185.8125 C-31.82104558 190.12745907 -33.52732158 193.69363284 -35.3984375 197.60546875 C-36.66070029 200.28085012 -37.86463876 202.96176309 -39.0390625 205.67578125 C-39.57067993 206.89914185 -39.57067993 206.89914185 -40.11303711 208.1472168 C-40.82376257 209.7861972 -41.53037645 211.42696728 -42.23266602 213.06958008 C-42.56194092 213.82263428 -42.89121582 214.57568848 -43.23046875 215.3515625 C-43.52332764 216.03041504 -43.81618652 216.70926758 -44.11791992 217.40869141 C-45 219 -45 219 -47 220 C-47.69437605 221.78042656 -47.69437605 221.78042656 -48.25 223.9375 C-49.70969017 228.58934088 -51.87093849 232.39946631 -54.453125 236.515625 C-55.93060358 238.88854515 -57.29020224 241.29463127 -58.625 243.75 C-68.06951331 260.85142158 -81.33558398 278.15617325 -97 290 C-97.66 290 -98.32 290 -99 290 C-99 290.66 -99 291.32 -99 292 C-99.99 292 -100.98 292 -102 292 C-102 292.66 -102 293.32 -102 294 C-108.4897692 297.76566855 -115.1257504 300.99856708 -122 304 C-123.10085938 304.49113281 -124.20171875 304.98226563 -125.3359375 305.48828125 C-129.17904418 307.07387004 -133.02641434 308.35596106 -137 309.5625 C-138.00933594 309.87477539 -138.00933594 309.87477539 -139.0390625 310.19335938 C-142.22541586 311.17448555 -145.41708037 312.11820273 -148.625 313.02734375 C-150.75673697 313.6416985 -152.87692268 314.29921246 -154.9765625 315.015625 C-161.82683215 317.24594535 -168.95630492 318.52799357 -176 320 C-177.05912598 320.2273584 -178.11825195 320.4547168 -179.20947266 320.68896484 C-196.54802694 324.36863244 -213.87830692 326.8750382 -231.5 328.75 C-232.43242523 328.8507785 -233.36485046 328.95155701 -234.32553101 329.0553894 C-263.41986141 332.16043692 -292.39720953 333.38616682 -321.63576508 333.31805801 C-324.10656296 333.31239908 -326.57735393 333.30959061 -329.04815674 333.30697632 C-352.393644 333.2710874 -375.6301818 333.01557594 -398.84124756 330.25646973 C-401.12596009 329.98503536 -403.41175736 329.72425203 -405.69775391 329.46386719 C-426.06784778 327.11167661 -446.04195459 323.7662536 -466 319 C-466.82773926 318.80519043 -467.65547852 318.61038086 -468.50830078 318.40966797 C-481.56876388 315.32030687 -494.45153952 311.77845375 -507 307 C-507.67160156 306.75507812 -508.34320313 306.51015625 -509.03515625 306.2578125 C-511.03273006 305.52769312 -513.01683348 304.76838555 -515 304 C-516.23363281 303.53207031 -516.23363281 303.53207031 -517.4921875 303.0546875 C-524.16877242 300.4099461 -530.52248245 297.27121642 -536.875 293.9375 C-538.08796753 293.3021936 -538.08796753 293.3021936 -539.32543945 292.65405273 C-547.75843137 288.17039106 -555.31137523 282.63904779 -563 277 C-563.82113281 276.4121875 -564.64226562 275.824375 -565.48828125 275.21875 C-566.21402344 274.6928125 -566.93976563 274.166875 -567.6875 273.625 C-568.33074219 273.16351562 -568.97398437 272.70203125 -569.63671875 272.2265625 C-570.08660156 271.82179688 -570.53648437 271.41703125 -571 271 C-571 270.34 -571 269.68 -571 269 C-571.66 269 -572.32 269 -573 269 C-577.76744186 264.69767442 -577.76744186 264.69767442 -579 261 C-579.66 261 -580.32 261 -581 261 C-582.83563979 258.68337997 -584.52626151 256.37584132 -586.1875 253.9375 C-586.67927734 253.21594727 -587.17105469 252.49439453 -587.67773438 251.75097656 C-596.64398587 238.27809669 -601.3229567 224.68477464 -603.25 208.625 C-603.3425708 207.86340576 -603.4351416 207.10181152 -603.53051758 206.31713867 C-604.23611175 199.66784782 -603.25556628 194.31558558 -601 188 C-600.67 188 -600.34 188 -600 188 C-599.97421875 189.01835938 -599.9484375 190.03671875 -599.921875 191.0859375 C-598.96860473 217.77431698 -590.66892835 239.45596563 -572 259 C-571.360625 259.72574219 -570.72125 260.45148438 -570.0625 261.19921875 C-524.22727251 311.06293303 -435.3294139 319.94308786 -372 324 C-370.68636475 324.08757568 -369.37272949 324.17515137 -368.01928711 324.26538086 C-354.08011675 325.13335395 -340.14992042 325.20021473 -326.1875 325.1875 C-324.95767395 325.18689575 -323.7278479 325.1862915 -322.46075439 325.18566895 C-259.543836 325.10216128 -195.04133951 319.97484252 -135 300 C-133.86981445 299.6292334 -133.86981445 299.6292334 -132.71679688 299.25097656 C-119.30864245 294.7877142 -106.42923963 288.68429394 -96 279 C-95.34 279 -94.68 279 -94 279 C-94 278.34 -94 277.68 -94 277 C-92.93619611 276.03678502 -91.8204078 275.13089825 -90.6875 274.25 C-84.49322325 268.98925787 -79.83690663 262.47930345 -75 256 C-74.09121094 254.79923828 -74.09121094 254.79923828 -73.1640625 253.57421875 C-21.04161776 182.00120317 -2.75957486 86.48911448 0 0 Z " fill="#111111" transform="translate(909,618)"/>
<path d="M0 0 C1 2 1 2 -0.109375 5.5703125 C-0.65289925 7.08974445 -1.20002108 8.60789247 -1.75 10.125 C-16.69658948 53.14117243 -7.17610535 101.23782744 4 144 C4.42273193 145.62881104 4.42273193 145.62881104 4.85400391 147.29052734 C17.33226013 194.95043806 34.17369361 241.41427862 50.13282776 287.9889679 C84.49497422 388.27836242 84.49497422 388.27836242 90 440 C90.11085938 440.9590625 90.22171875 441.918125 90.3359375 442.90625 C92.62170168 466.3816659 91.9131454 491.54204484 84 514 C83.34 514.66 82.68 515.32 82 516 C81.78404712 510.81713091 82.03278165 506.35882169 83.42578125 501.3203125 C89.26033023 477.74397174 87.05295545 453.00290557 83.35986328 429.32958984 C83.04656009 427.30140866 82.75389237 425.27006094 82.46484375 423.23828125 C80.70794573 410.99905052 77.56335206 399.04733769 74.57543945 387.06152344 C74.06319023 385.00277405 73.5560004 382.9428176 73.04882812 380.8828125 C70.9690843 372.49825264 68.60838006 364.23683815 66 356 C65.47537039 354.25113433 64.95385751 352.50132586 64.4375 350.75 C63.29077296 346.90691478 62.04421268 343.10685953 60.7578125 339.30859375 C59.64453196 335.9171051 58.64598337 332.49345899 57.6484375 329.06640625 C57.04984458 326.96727021 57.04984458 326.96727021 56 325 C56.33 324.34 56.66 323.68 57 323 C56.34 322.67 55.68 322.34 55 322 C54.1484375 319.3828125 54.1484375 319.3828125 53.375 316.125 C53.11460937 315.05507813 52.85421875 313.98515625 52.5859375 312.8828125 C52 310 52 310 52 307 C51.34 306.67 50.68 306.34 50 306 C49.25390625 303.99609375 49.25390625 303.99609375 48.5625 301.4375 C47.50602583 297.56778604 46.21853186 293.86531549 44.79174805 290.12182617 C43.47464026 286.59207478 42.30407307 283.01524124 41.125 279.4375 C40.7386438 278.27275146 40.7386438 278.27275146 40.34448242 277.08447266 C39.32265965 274.00360314 38.30428454 270.92160103 37.28662109 267.83935547 C34.97623003 260.84524691 32.64551487 253.87550923 30 247 C26.50647563 237.89365684 23.61120759 228.60406969 20.68359375 219.3046875 C18.63377666 212.81223896 16.46090581 206.36380424 14.28125 199.9140625 C8.63819763 183.18644298 8.63819763 183.18644298 6.61328125 175.34765625 C5.94653298 172.7953269 5.20136267 170.27488596 4.4375 167.75 C4.19257813 166.93660156 3.94765625 166.12320313 3.6953125 165.28515625 C3.07607996 163.25003807 2.44510676 161.21850065 1.8125 159.1875 C1.07374055 156.28928985 0.82007543 153.96875547 1 151 C0.34 150.67 -0.32 150.34 -1 150 C-1.52734375 147.69921875 -1.52734375 147.69921875 -1.9375 144.6875 C-3.01067622 137.58087637 -4.71921653 130.71561186 -6.6015625 123.78515625 C-7.70811448 119.61494169 -8.3108783 115.58921137 -8.72265625 111.3125 C-8.99595849 109.03369825 -9.43611929 106.86372315 -9.9375 104.625 C-12.85153736 90.03290313 -13.20684644 75.51592065 -13.25 60.6875 C-13.25517639 59.87116089 -13.26035278 59.05482178 -13.26568604 58.21374512 C-13.3328313 44.76107244 -12.58813344 31.78260784 -8.4375 18.875 C-7.99818957 17.45588643 -7.55937024 16.03662073 -7.12109375 14.6171875 C-6.75113281 13.42351562 -6.38117188 12.22984375 -6 11 C-5.65197656 9.67042542 -5.30878644 8.33923106 -5 7 C-4.34 7 -3.68 7 -3 7 C-2.690625 6.030625 -2.38125 5.06125 -2.0625 4.0625 C-1 1 -1 1 0 0 Z " fill="#292A2A" transform="translate(260,200)"/>
<path d="M0 0 C0.99 0 1.98 0 3 0 C5.25003701 15.32182948 7.39935465 30.50967248 8 46 C8.17196504 49.02185889 8.36648404 52.04211786 8.5625 55.0625 C8.6473697 56.40753732 8.73202927 57.75258793 8.81640625 59.09765625 C8.87699219 60.05542969 8.93757812 61.01320313 9 62 C9.886875 61.51273437 10.77375 61.02546875 11.6875 60.5234375 C17.23485519 57.97217745 22.49001711 58.17942867 28.25 60.0625 C33.16107884 63.52257827 37.01960982 67.17426794 38.25 73.25 C38.55303599 79.3420683 35.47897737 84.20761094 32 89 C28.34674313 92.33558236 25.06484095 93.68309069 20.09375 94.11328125 C15.6902785 93.87503372 11.90447124 91.95223562 8 90 C8.01160156 90.85722656 8.02320313 91.71445312 8.03515625 92.59765625 C8.04417969 93.74105469 8.05320312 94.88445312 8.0625 96.0625 C8.07410156 97.18785156 8.08570313 98.31320312 8.09765625 99.47265625 C8 103 8 103 7.4934082 106.05981445 C6.88331897 110.93177396 6.93295986 115.66805918 7.0078125 120.5703125 C7.0253186 122.62108889 7.04222785 124.67187044 7.05859375 126.72265625 C7.08961162 129.93325209 7.12526702 133.14358745 7.17138672 136.35400391 C7.21371579 139.46780669 7.23715367 142.58130076 7.2578125 145.6953125 C7.27643341 146.65374054 7.29505432 147.61216858 7.3142395 148.59963989 C7.33320813 153.53076322 7.30862027 157.02902884 4 161 C3.67 161 3.34 161 3 161 C2.34 150.11 1.68 139.22 1 128 C-3.34006817 132.37932511 -3.34006817 132.37932511 -7.67431641 136.7644043 C-11.29584709 140.40227667 -15.00032645 143.78180113 -19 147 C-23.50178297 145.2314424 -25.63428009 142.04857986 -28.25 138.125 C-29.89102887 133.4754182 -29.40031553 129.33149217 -27.5 124.875 C-24.98841563 120.37690116 -21.85283805 117.74411484 -17 116 C-10.719879 115.0735708 -5.3978672 115.40142187 0 119 C0.66 119.66 1.32 120.32 2 121 C2.38870284 104.00096855 2.7261405 87.00128426 3 70 C3.01651611 68.97843811 3.03303223 67.95687622 3.05004883 66.90435791 C3.36753863 46.45215706 3.60088301 26.35191633 0.27539062 6.09838867 C0 4 0 4 0 0 Z " fill="#D9B7BE" transform="translate(659,245)"/>
<path d="M0 0 C0.99 0.33 1.98 0.66 3 1 C3.49674025 31.30625029 2.85287784 61.81463515 -3.5 91.59375 C-4.06300469 94.30321008 -4.53080641 97.02281226 -5 99.75 C-5.69912551 103.66073333 -6.74347518 107.23042553 -8 111 C-8.33021394 112.76761582 -8.64068519 114.53897021 -8.9375 116.3125 C-9.68943717 120.7107357 -10.83967503 124.72389969 -12.3359375 128.91796875 C-13.29638897 131.9292666 -13.66617568 134.86205143 -14 138 C-14.66 138 -15.32 138 -16 138 C-16.18175781 139.49660156 -16.18175781 139.49660156 -16.3671875 141.0234375 C-16.93848201 144.99463101 -17.96444277 148.78985442 -19.125 152.625 C-19.33729248 153.337771 -19.54958496 154.05054199 -19.76831055 154.78491211 C-22.62836805 164.25929614 -25.81696827 173.6302694 -29 183 C-29.66 183 -30.32 183 -31 183 C-31.0928125 184.3921875 -31.0928125 184.3921875 -31.1875 185.8125 C-31.82104558 190.12745907 -33.52732158 193.69363284 -35.3984375 197.60546875 C-36.66070029 200.28085012 -37.86463876 202.96176309 -39.0390625 205.67578125 C-39.39347412 206.49135498 -39.74788574 207.30692871 -40.11303711 208.1472168 C-40.82376257 209.7861972 -41.53037645 211.42696728 -42.23266602 213.06958008 C-42.56194092 213.82263428 -42.89121582 214.57568848 -43.23046875 215.3515625 C-43.52332764 216.03041504 -43.81618652 216.70926758 -44.11791992 217.40869141 C-45 219 -45 219 -47 220 C-47.69437605 221.78042656 -47.69437605 221.78042656 -48.25 223.9375 C-49.70790027 228.58363672 -51.86002484 232.39064733 -54.44921875 236.49609375 C-56.41591291 239.67153697 -58.12412665 242.96092117 -59.82421875 246.28515625 C-61 248 -61 248 -64 249 C-64 248.34 -64 247.68 -64 247 C-63.34 247 -62.68 247 -62 247 C-62.33 246.401875 -62.66 245.80375 -63 245.1875 C-64 243 -64 243 -64 240 C-62.61846654 237.34781537 -61.18669378 234.77196219 -59.6875 232.1875 C-19.49389657 161.09015414 -2.5866545 81.06953737 0 0 Z " fill="#181818" transform="translate(909,618)"/>
<path d="M0 0 C4.80373898 2.65718633 8.05016447 6.08799341 9.8125 11.375 C10.33416057 16.34360315 10.3849051 20.23018979 8.125 24.75 C4.04617464 29.38001798 0.01685892 32.93038319 -6.29296875 33.59765625 C-11.35570285 33.79270296 -14.90903501 33.322387 -19.1875 30.375 C-23.83879677 25.85472567 -25.87657659 22.60860349 -26.5 16.125 C-26.05335659 10.76527906 -24.49249584 6.4966439 -20.46875 2.79296875 C-14.09174136 -1.89521345 -7.37997377 -3.36851076 0 0 Z " fill="#DBB7BF" transform="translate(682.1875,192.625)"/>
<path d="M0 0 C4.10488479 2.82780952 7.56757505 6.44765011 9.8125 10.9375 C10.33088766 16.13837292 10.47845399 20.55436478 8.1875 25.3125 C3.1602453 30.86893941 -0.39478811 33.62144068 -7.9375 34.25 C-13.86961681 34.16146094 -18.36967575 31.70748677 -22.5625 27.625 C-25.67233109 22.48181781 -26.71224368 17.7361205 -25.72265625 11.85546875 C-24.0815408 5.97380679 -20.30493113 2.87730086 -15.1875 -0.0625 C-10.0582896 -1.7722368 -5.12602784 -1.70867595 0 0 Z " fill="#DBB7BF" transform="translate(409.1875,87.0625)"/>
<path d="M0 0 C5.07105259 3.50144107 8.45558162 6.61458257 9.625 12.8125 C9.96971165 18.67259811 9.1856172 22.74640095 5.375 27.3125 C2.04749248 30.90503025 -1.1355693 32.49449415 -5.98828125 33.18359375 C-12.72971632 33.34944671 -17.34030359 32.47995973 -22.375 27.8125 C-26.26875088 23.46650043 -27.02850383 18.9737195 -26.75 13.23828125 C-25.88492796 7.64234648 -23.33513912 4.19965053 -18.8125 0.875 C-12.83041322 -2.5129856 -6.35344416 -2.23547109 0 0 Z " fill="#DBB7BF" transform="translate(609.375,81.1875)"/>
<path d="M0 0 C7.18500706 6.81654516 7.18500706 6.81654516 7.67578125 11.66796875 C7.84675915 18.1921256 7.47953231 22.1004057 3.4375 27.3125 C-2.70564445 32.07657121 -7.95090115 33.14538012 -15.5625 32.3125 C-21.12258788 30.38220534 -24.95227912 26.53294175 -27.5625 21.3125 C-28.24493922 13.93991891 -28.32918165 8.17918511 -23.5625 2.3125 C-16.93357628 -3.18809628 -7.73249296 -3.66275982 0 0 Z " fill="#DBB7BF" transform="translate(647.5625,137.6875)"/>
<path d="M0 0 C5.2087689 2.90676617 8.07489458 6.44209604 9.7734375 12.1640625 C10.76497306 17.48323766 9.64287573 21.70705517 7.05078125 26.40234375 C4.40245901 30.05492275 0.95502242 31.77020086 -3.2265625 33.1640625 C-9.76822903 33.90383093 -15.13133212 33.73925611 -20.56640625 29.77734375 C-24.45892326 25.99473311 -26.38686836 21.56732234 -26.7265625 16.1640625 C-26.44029211 11.61952 -25.08261617 7.73215172 -22.2265625 4.1640625 C-15.81564824 -0.31196818 -7.56386988 -2.83976869 0 0 Z " fill="#DBB7BF" transform="translate(441.2265625,30.8359375)"/>
<path d="M0 0 C4.33288045 4.00791441 7.23445129 7.44495598 8.5 13.3125 C8.60292643 19.01919897 7.15983747 22.83936532 3.5 27.3125 C-1.48392583 31.81018916 -5.31392898 32.68711265 -11.8671875 32.58203125 C-16.92047268 32.0647068 -20.60800107 30.31037722 -24.10546875 26.6171875 C-27.84352619 21.44463743 -28.4437925 16.55201705 -27.5 10.3125 C-25.70646165 5.03152596 -22.89000798 2.51354749 -18.5 -0.6875 C-12.4658316 -2.69888947 -5.73494967 -2.76506502 0 0 Z " fill="#DBB7BE" transform="translate(504.5,27.6875)"/>
<path d="M0 0 C4.44496055 2.49696987 7.0635749 5.44072469 8.6875 10.3125 C9.19192239 15.5799928 9.3591659 19.94429168 7 24.75 C2.4831117 29.75520054 -1.00954021 32.08656908 -7.6875 33.1796875 C-12.06164435 33.40099837 -15.53312311 32.5195407 -19.3125 30.3125 C-22.73926598 27.18809573 -26.06975375 23.71210641 -26.55078125 18.95703125 C-26.72175915 12.4328744 -26.35453231 8.5245943 -22.3125 3.3125 C-15.46530414 -1.99757026 -8.06182428 -3.74406821 0 0 Z " fill="#DBB7BF" transform="translate(472.3125,83.6875)"/>
<path d="M0 0 C3.97181495 2.67866589 6.86072126 5.19652338 9.0625 9.5 C10.06871781 14.83295439 10.25729088 20.07175762 7.48828125 24.90625 C3.82847751 29.44018009 0.0450135 32.40552867 -5.890625 33.125 C-12.27237947 33.4039838 -16.2405802 32.74582556 -21.3125 28.8125 C-25.05117205 23.99158078 -26.69195708 20.16474373 -26.58984375 14.00390625 C-25.89671455 8.52720932 -23.5152364 4.76978 -19.25 1.375 C-13.06512837 -1.91482534 -6.61164467 -2.37021224 0 0 Z " fill="#DBB7BF" transform="translate(540.3125,82.1875)"/>
<path d="M0 0 C4.68948134 2.52275786 7.85900218 5.52543207 9.6875 10.54296875 C10.86767636 14.99762288 11.30253381 18.32739436 9.36328125 22.59375 C6.23823015 27.8021685 1.81931051 31.68329093 -4.13671875 33.28125 C-9.61413943 33.78841858 -13.34013276 32.98478029 -18.13671875 30.28125 C-23.12059521 25.64456493 -24.94844225 22.1995358 -25.38671875 15.40625 C-25.29967107 10.71438017 -24.07840332 7.24415517 -20.70703125 3.8359375 C-14.88089968 -1.23656511 -7.40607561 -2.49125761 0 0 Z " fill="#DAB8BE" transform="translate(576.13671875,137.71875)"/>
<path d="M0 0 C4.37041398 2.88050012 7.71145674 5.95066452 9.75 10.8125 C10.65638154 16.41941835 9.79043145 21.14974525 7.02734375 26.0859375 C4.35171781 29.70253281 0.92305926 31.42148025 -3.25 32.8125 C-9.80694743 33.58764301 -13.90584898 32.68962917 -19.25 28.8125 C-21.5625 26.3125 -21.5625 26.3125 -23.25 23.8125 C-23.6625 23.214375 -24.075 22.61625 -24.5 22 C-25.96463795 17.72813932 -26.06076067 13.86014207 -24.41015625 9.69140625 C-19.05872774 0.15973728 -10.40876969 -3.80320431 0 0 Z " fill="#DAB8BF" transform="translate(444.25,252.1875)"/>
<path d="M0 0 C4.70638128 2.69314501 8.04433394 5.88984113 9.70703125 11.12890625 C10.56741628 16.79558006 9.99047402 21.31319019 6.70703125 26.12890625 C2.62285416 30.24740415 -1.62892975 33.38558132 -7.54296875 33.56640625 C-12.82395806 33.41874701 -16.39270624 31.63914251 -20.29296875 28.12890625 C-23.44456553 24.47244203 -25.11914727 21.36738432 -25.79296875 16.56640625 C-24.78187372 9.61512793 -22.32468012 5.65052917 -17.01171875 1.29296875 C-12.17912005 -1.98001855 -5.3443187 -2.03029484 0 0 Z " fill="#DAB8BF" transform="translate(613.29296875,193.87109375)"/>
<path d="M0 0 C4.26709186 3.96938778 7.24580261 8.13790339 8.01953125 14.02734375 C7.82465751 20.04987042 5.70757363 23.54912405 1.671875 27.90625 C-3.05935008 31.70613156 -7.79082863 31.93466071 -13.65625 31.81640625 C-18.71055502 31.21434933 -21.33548384 28.58263953 -24.625 24.9375 C-27.94618155 20.14023776 -27.94696044 15.14846029 -27.3125 9.5 C-24.68967969 4.25435938 -21.09590531 1.17004319 -16.125 -1.8125 C-10.51280269 -3.18437045 -5.22058361 -2.36403786 0 0 Z " fill="#DAB8BF" transform="translate(510.3125,139.5)"/>
<path d="M0 0 C3.43219394 1.90453115 5.58914599 3.98810922 7.75 7.3125 C8.1625 7.93125 8.575 8.55 9 9.1875 C10.58201327 13.66987093 10.01003347 17.47461438 8.625 21.9375 C5.8360643 26.95758425 2.07921712 30.0582115 -3.25 32.3125 C-9.42142714 33.30958432 -14.4502343 32.60038783 -19.5546875 28.921875 C-23.74761452 24.94149267 -25.44197774 20.4051632 -25.75 14.6875 C-25.52983199 10.27654786 -24.15898907 7.69321703 -21.25 4.3125 C-14.70013424 -1.58237918 -8.33238943 -3.83973916 0 0 Z " fill="#DAB8BF" transform="translate(650.25,249.6875)"/>
<path d="M0 0 C4.85553134 2.438508 7.85851941 6.44527465 9.828125 11.38671875 C10.73449222 16.08551724 10.34556561 19.35183753 8.203125 23.63671875 C4.28239447 28.176512 0.61707607 31.9031531 -5.58984375 32.6953125 C-11.97228991 32.99237981 -15.73617779 32.29803267 -20.578125 28.01171875 C-24.42441505 24.09001125 -25.36579188 21.41138567 -25.609375 15.94921875 C-25.46251565 10.98270252 -24.57819322 8.16128759 -21.171875 4.38671875 C-14.87464243 -1.16084327 -8.24277941 -2.32754742 0 0 Z " fill="#DAB8BF" transform="translate(550.171875,307.61328125)"/>
<path d="M0 0 C3.98818109 2.74741364 7.91482793 6.19581482 9.4609375 10.91796875 C10.3604706 16.08528666 10.53874844 19.5887529 8.0625 24.1875 C2.07845745 31.50132979 2.07845745 31.50132979 -3.1875 32.9375 C-9.05095783 33.4103595 -12.94556968 32.90463037 -18.1875 29.9375 C-22.50452331 25.86031132 -24.9827338 22.01928967 -25.5625 16.125 C-25.4309583 11.41580711 -23.90829847 8.76132487 -21.1875 4.9375 C-14.72511249 -1.04020845 -8.45533612 -2.81844537 0 0 Z " fill="#DAB8BF" transform="translate(413.1875,309.0625)"/>
<path d="M0 0 C4.43610866 2.56565986 7.60483924 5.32963828 9.71875 10.0859375 C10.47024116 15.26026727 10.52518671 20.2650538 8.15625 25.0234375 C5.22692351 28.70387334 2.92599228 30.06022825 -1.28125 32.0859375 C-2.27125 32.5809375 -2.27125 32.5809375 -3.28125 33.0859375 C-9.82218522 33.89855878 -13.96119619 32.94558438 -19.28125 29.0859375 C-24.22936083 23.74718635 -24.75137644 19.19051886 -24.69140625 12.10546875 C-24.0500668 7.3839888 -21.9445743 4.97270457 -18.28125 2.0859375 C-12.85329659 -1.73830241 -6.19491028 -2.4822072 0 0 Z " fill="#DAB8BF" transform="translate(481.28125,307.9140625)"/>
<path d="M0 0 C4.2548691 4.1510918 7.79952786 8.40656116 8.0625 14.5625 C7.28758973 20.6649184 5.7580907 24.82454838 1.125 28.9375 C-4.08777888 32.52489211 -9.33852345 32.45769053 -15.4375 31.5 C-20.70778295 29.94766211 -23.93428969 26.3923766 -26.55078125 21.70703125 C-28.41789797 17.0598024 -28.41789797 12.9401976 -26.55078125 8.29296875 C-20.94578585 -1.74388348 -10.49496003 -4.57961892 0 0 Z " fill="#DAB8BF" transform="translate(379.4375,145.5)"/>
<path d="M0 0 C3.77702297 2.63513231 6.60374735 5.7074947 8.6875 9.875 C9.27322663 15.38919784 9.8137223 21.0597784 6.6875 25.875 C3.1896258 29.9049452 -1.12661397 32.34900006 -6.39453125 33.21875 C-11.11886303 33.43554534 -14.42937915 32.49188579 -18.3125 29.875 C-22.80020574 25.33474502 -25.45616905 22.12943466 -25.625 15.625 C-25.57177779 10.53562631 -24.81051724 7.75118126 -21.3125 3.875 C-15.04126271 -1.78440926 -7.97318998 -2.70787584 0 0 Z " fill="#DAB8BF" transform="translate(519.3125,364.125)"/>
<path d="M0 0 C4.94924121 2.21862537 7.54601725 5.18292275 10 10 C11.38768538 14.82556402 11.48455644 18.70749266 9.375 23.3125 C6.65771367 28.02558628 2.95628217 30.8564984 -2 33 C-7.23032677 33.84503579 -11.75236503 33.56720875 -16.375 30.875 C-19.88198204 28.31930459 -22.20694712 26.03436897 -24 22 C-24.75543647 16.79850514 -24.81495778 11.81939248 -22.375 7.0625 C-16.20404663 -0.89478197 -9.61254733 -1.11880005 0 0 Z " fill="#DAB8BF" transform="translate(618,306)"/>
<path d="M0 0 C5.01791684 2.41935276 8.49958655 5.9991731 11 11 C11.55713132 16.95701945 11.52180186 21.95208399 8 27 C3.60686812 31.41713807 -0.09882932 33.14920852 -6.3125 33.3125 C-11.37478087 33.25907223 -14.14510059 32.47881166 -18 29 C-21.53949876 25.0672236 -23.76486559 22.03783155 -24.375 16.75 C-23.83078803 11.30788032 -22.29429172 7.28326147 -18.375 3.3828125 C-12.75088195 -0.76497456 -6.7695552 -1.02973516 0 0 Z " fill="#DAB8BF" transform="translate(543,194)"/>
<path d="M0 0 C3.7569618 3.26656191 5.44897591 6.26913619 6.140625 11.21875 C6.33760804 15.75551567 6.09817342 18.83168844 4.140625 22.97265625 C-0.67494503 28.16840287 -4.76937225 30.20163131 -11.7734375 30.6328125 C-16.92690456 30.42830984 -20.23476914 28.40148133 -24.046875 25.09765625 C-28.2076775 20.22357332 -28.68137782 16.53978857 -28.546875 10.2265625 C-28.10083877 6.38507548 -26.84740528 4.35447839 -24.234375 1.53515625 C-16.50139159 -4.42568513 -8.21572464 -5.80599438 0 0 Z " fill="#DAB8BF" transform="translate(516.234375,253.46484375)"/>
<path d="M0 0 C3.97311509 2.33972333 6.94479591 4.64844872 8.609375 9.0546875 C10.05251915 15.18805014 10.07361338 19.85123421 6.85546875 25.36328125 C4.29813783 28.83451726 1.66038192 30.70435186 -2.390625 32.0546875 C-8.46379046 32.76547279 -13.81277581 33.08908107 -18.953125 29.4296875 C-23.38491161 25.48622665 -25.19787634 22.07854844 -25.765625 16.1171875 C-25.52775534 10.70823831 -23.92022131 6.50584297 -19.953125 2.7421875 C-13.72154054 -1.36153885 -7.2259533 -2.8573214 0 0 Z " fill="#DAB8BF" transform="translate(476.390625,195.9453125)"/>
<path d="M0 0 C0.91652344 0.23203125 1.83304688 0.4640625 2.77734375 0.703125 C4.03417969 1.01765625 5.29101562 1.3321875 6.5859375 1.65625 C7.94320231 2.04058795 9.29868869 2.43126053 10.65234375 2.828125 C11.30710693 3.00327637 11.96187012 3.17842773 12.63647461 3.35888672 C16.49061061 4.5911309 17.68860663 5.54859081 19.7265625 9.09765625 C21.46899905 15.07635117 20.91038572 19.47900557 18.08984375 25.015625 C14.48950826 29.19979867 10.39712831 32.26760851 4.796875 32.94140625 C-1.03610963 33.13755972 -5.52544882 32.31793246 -10.22265625 28.703125 C-13.95621403 24.77020248 -15.52700023 20.99127495 -15.72265625 15.578125 C-15.37663274 9.63198417 -13.56440721 6.20460821 -9.59765625 1.765625 C-5.9907163 -0.43861608 -4.13276563 -0.76297212 0 0 Z " fill="#DBB7BF" transform="translate(561.22265625,26.296875)"/>
<path d="M0 0 C4.80617304 2.6297928 8.21728962 5.71353669 10.3125 10.8125 C10.87119731 15.27482266 10.86551557 19.42996109 9.1875 23.625 C4.33815051 29.2825744 -0.12003834 32.40311915 -7.5 33.25 C-13.74802792 33.07283475 -17.9753451 29.56745877 -22.1875 25.25 C-24.43142156 20.10767977 -24.43856183 15.33545971 -23.6875 9.8125 C-21.52812362 5.33379344 -18.75797061 2.63051812 -14.6875 -0.1875 C-9.46829895 -1.92723368 -5.14359457 -1.65641181 0 0 Z " fill="#DAB8BF" transform="translate(449.6875,365.1875)"/>
<path d="M0 0 C4.76032566 2.81211831 7.43464983 5.68434328 9.359375 10.93359375 C10.19937116 16.64556763 9.96573472 20.61948001 6.8828125 25.484375 C4.31290353 28.82525666 1.63668768 30.73698952 -2.328125 32.05859375 C-7.79283248 32.53961418 -12.68740679 32.77454351 -17.765625 30.55859375 C-22.26547333 26.16849782 -25.57044771 21.96588319 -25.890625 15.49609375 C-25.5858788 10.71899119 -24.1849092 7.89269886 -21.328125 4.05859375 C-15.03565066 -0.82128431 -7.6960217 -3.11198193 0 0 Z " fill="#DAB8BF" transform="translate(587.328125,362.94140625)"/>
<path d="M0 0 C4.07166495 2.90833211 7.01178079 6.03534238 8.625 10.875 C9.14666057 15.84360315 9.1974051 19.73018979 6.9375 24.25 C3.18145537 28.51361822 -0.03711809 31.55535982 -5.86328125 32.11328125 C-11.92156353 32.27248922 -15.67456464 32.1168563 -20.375 27.875 C-23.44366184 24.46537574 -26.25901647 21.21786735 -26.4921875 16.5078125 C-25.95745323 10.97072538 -25.23446683 7.14072649 -21.375 2.875 C-14.86224688 -2.1757065 -7.77758015 -2.59252672 0 0 Z " fill="#DAB8BF" transform="translate(346.375,202.125)"/>
<path d="M0 0 C4.50228771 2.31546225 7.96561746 5.66893025 9.96484375 10.3515625 C10.94694078 16.25349796 10.4445322 21.36400905 6.96484375 26.3515625 C2.42342758 30.91779515 -1.38364293 32.51534506 -7.78515625 32.7265625 C-12.82839222 32.68387489 -15.88812931 32.09403858 -19.703125 28.76171875 C-24.01287799 24.19919432 -25.18422247 19.53781078 -25.03515625 13.3515625 C-23.39313319 7.29660245 -20.1188753 3.79462676 -15.03515625 0.3515625 C-10.19078729 -1.26322715 -4.91785279 -1.56691663 0 0 Z " fill="#DAB8BF" transform="translate(439.03515625,139.6484375)"/>
<path d="M0 0 C3.64522648 2.66723889 6.59113405 5.5586658 8.375 9.8125 C8.9381732 16.00740519 8.60053752 20.32272452 5.5625 25.875 C1.01998604 30.29797412 -3.11253894 31.96875175 -9.375 32.25 C-14.92597722 32.11822606 -17.97020634 30.38252127 -21.875 26.4140625 C-24.27473722 23.727993 -26.10809079 21.49850133 -26.4375 17.875 C-26.56125 16.8025 -26.685 15.73 -26.8125 14.625 C-26.19625874 8.46258739 -23.23260161 4.62631864 -18.875 0.375 C-12.75257897 -2.29660191 -6.30450021 -2.06329098 0 0 Z " fill="#DAB8BF" transform="translate(345.4375,311.125)"/>
<path d="M0 0 C3.77702297 2.63513231 6.60374735 5.7074947 8.6875 9.875 C9.28270744 15.47845293 9.80904174 21.08849855 6.5625 25.9375 C3.15979191 29.80207151 0.03179633 31.64885185 -5.1875 32.15234375 C-10.88516696 32.32690463 -14.57567928 32.30899397 -19.3125 28.875 C-23.46876767 24.75021921 -25.47314834 21.47528493 -25.625 15.625 C-25.55152331 10.5083508 -24.94956507 7.69391832 -21.3125 3.875 C-14.78872192 -1.77693677 -8.14550072 -2.76639647 0 0 Z " fill="#DAB8BF" transform="translate(408.3125,197.125)"/>
<path d="M0 0 C4.40468881 3.57880966 6.59504959 6.56527438 7.37890625 12.125 C7.56990454 16.65966917 7.33170999 19.73580579 5.375 23.875 C1.64018945 27.90466402 -2.43702714 31.08459602 -8.05078125 31.640625 C-13.14891633 31.74628583 -16.65683383 31.39874966 -21 28.4375 C-25.34272681 24.02415974 -27.16634128 20.87232162 -27.3125 14.6875 C-27.24938873 9.41139787 -26.81182069 6.34705969 -23 2.4375 C-16.52623539 -2.68756365 -7.56173751 -3.76457191 0 0 Z " fill="#DAB8BF" transform="translate(584,251.5625)"/>
<path d="M0 0 C4.18459552 4.27969996 6.87933146 8.06052708 7.06640625 14.16796875 C6.74164275 20.04323562 5.29608697 22.99031883 1 27 C-4.3912244 30.94479834 -10.5791921 30.7937812 -17 30 C-22.01791684 27.58064724 -25.49958655 24.0008269 -28 19 C-28.53749296 14.10088383 -28.56674874 10.1552955 -26.375 5.6875 C-19.12406 -2.51751105 -10.05390823 -6.70260549 0 0 Z " fill="#DAB8BF" transform="translate(379,256)"/>
<path d="M0 0 C4.71056364 1.97454077 7.52455993 4.69368009 9.984375 9.15625 C11.90343196 14.19377451 11.4382587 18.60848527 9.703125 23.62109375 C7.09118626 27.45193724 4.02488871 30.2727119 -0.171875 32.37109375 C-6.80496412 33.08542642 -12.98924847 33.24944821 -18.54296875 29.19140625 C-22.52968253 24.7362297 -24.171875 18.94771625 -24.171875 13.05859375 C-21.96309772 7.1225048 -18.82359323 3.41041367 -13.37890625 0.2890625 C-8.80727563 -1.61241218 -4.69581994 -1.35976081 0 0 Z " fill="#DAB8BF" transform="translate(313.171875,257.62890625)"/>
<path d="M0 0 C4.53926269 4.53926269 4.10645201 9.69686568 4.1328125 15.8125 C4 18 4 18 3.49121094 20.97607422 C2.78808195 25.83712565 2.932993 30.67023014 3.0078125 35.5703125 C3.0253186 37.62108889 3.04222785 39.67187044 3.05859375 41.72265625 C3.08961162 44.93325209 3.12526702 48.14358745 3.17138672 51.35400391 C3.21371579 54.46780669 3.23715367 57.58130076 3.2578125 60.6953125 C3.27643341 61.65374054 3.29505432 62.61216858 3.3142395 63.59963989 C3.33320813 68.53076322 3.30862027 72.02902884 0 76 C-0.33 76 -0.66 76 -1 76 C-1.66 65.11 -2.32 54.22 -3 43 C-7.34006817 47.37932511 -7.34006817 47.37932511 -11.67431641 51.7644043 C-15.29584709 55.40227667 -19.00032645 58.78180113 -23 62 C-27.50178297 60.2314424 -29.63428009 57.04857986 -32.25 53.125 C-33.89102887 48.4754182 -33.40031553 44.33149217 -31.5 39.875 C-28.98841563 35.37690116 -25.85283805 32.74411484 -21 31 C-14.719879 30.0735708 -9.3978672 30.40142187 -4 34 C-3.34 34.66 -2.68 35.32 -2 36 C-1.01 18.18 -1.01 18.18 0 0 Z " fill="#D8B7BE" transform="translate(663,330)"/>
<path d="M0 0 C4.84967778 2.60445659 8.27369203 5.68825775 10.375 10.8125 C11.13663907 16.04776648 11.31094945 21.18296751 8.375 25.75 C5.45585712 29.19160311 1.76356941 31.68211091 -2.625 32.8125 C-7.29122193 32.54388525 -10.00967239 30.31755762 -13.625 27.5 C-14.635625 26.72011719 -15.64625 25.94023437 -16.6875 25.13671875 C-17.656875 24.36972656 -18.62625 23.60273438 -19.625 22.8125 C-21.03072266 21.77996094 -21.03072266 21.77996094 -22.46484375 20.7265625 C-24.625 18.8125 -24.625 18.8125 -25.1875 15.5 C-24.25056502 9.35787071 -21.97482252 5.55929711 -17.0625 1.9375 C-11.51704502 -1.79240513 -6.34126884 -2.07731221 0 0 Z " fill="#DAB8BF" transform="translate(380.625,366.1875)"/>
<path d="M0 0 C4.73983949 1.63798535 6.87179706 5.13635078 9.18359375 9.4296875 C10.84829913 15.63449845 9.9679221 20.41789648 6.87109375 25.9921875 C2.60781471 30.6352414 -1.73032917 32.75626189 -7.94140625 33.3671875 C-12.50040176 33.24607566 -16.49553193 31.75559895 -20.12890625 28.9921875 C-21.35546875 26.8515625 -21.35546875 26.8515625 -22.12890625 24.9921875 C-17.60672887 18.21984456 -12.96929923 11.5261575 -7.94140625 5.1171875 C-7.16410156 4.10914062 -6.38679688 3.10109375 -5.5859375 2.0625 C-3.12890625 -0.0078125 -3.12890625 -0.0078125 0 0 Z " fill="#DBB7BF" transform="translate(341.12890625,89.0078125)"/>
<path d="M0 0 C1.299375 -0.02126953 1.299375 -0.02126953 2.625 -0.04296875 C5 0.1875 5 0.1875 8 2.1875 C5.25806452 30.92943548 5.25806452 30.92943548 2 34.1875 C-4.09690716 34.70418705 -7.15069031 34.2653286 -12 30.1875 C-15.37009826 26.53656022 -18 23.17404925 -18 18.046875 C-17.49330211 11.67092654 -15.8669853 7.68856408 -11 3.4375 C-7.18736789 0.57802591 -4.64304775 0.03454649 0 0 Z " fill="#DAB7BF" transform="translate(711,246.8125)"/>
<path d="M0 0 C5.59118274 0.92577318 9.96443257 1.72704625 14 6 C17.51196862 11.08629939 17.7021016 16.02238499 17 22 C15.20646165 27.28097404 12.39000798 29.79895251 8 33 C4.79226388 34.06924537 2.37015182 34.16684956 -1 34.1875 C-2.051875 34.20167969 -3.10375 34.21585938 -4.1875 34.23046875 C-7 34 -7 34 -10 32 C-7.75500882 20.96212671 -4.39978251 10.36757261 0 0 Z " fill="#DAB8BF" transform="translate(302,144)"/>
<path d="M0 0 C7.30626438 3.34541695 11.96919033 10.03873678 16.875 16.1875 C17.60795288 17.09677246 17.60795288 17.09677246 18.35571289 18.02441406 C20.67836356 20.98713311 22.26456292 23.31230837 23 27 C18.87210133 30.416192 14.94067633 30.56081448 9.79296875 30.421875 C4.41035188 29.60883637 0.6668114 26.82811573 -2.9375 22.875 C-5.74444005 17.92157638 -5.59967149 12.53118041 -5 7 C-3.80611692 4.19437475 -2.16550876 2.16550876 0 0 Z " fill="#DBB7BF" transform="translate(656,83)"/>
<path d="M0 0 C4.43597739 2.56558394 7.46679991 5.3943748 9.71875 10.0859375 C9.96875 13.9609375 9.96875 13.9609375 9.71875 17.0859375 C-1.83000914 17.66444677 -12.90951109 15.90515768 -24.28125 14.0859375 C-24.47984367 11.33399662 -24.57519276 9.5966891 -23.1796875 7.171875 C-16.91813474 0.13966959 -9.37782275 -3.75755227 0 0 Z " fill="#DAB8BF" transform="translate(486.28125,420.9140625)"/>
<path d="M0 0 C12 24.69164265 12 24.69164265 12 31 C1.13126492 31.57995227 1.13126492 31.57995227 -4 28 C-8.0422988 23.97967021 -10.13083687 20.43712092 -10.25 14.6875 C-10.1876066 10.41701833 -9.43140455 7.60518606 -7 4 C-2.68421053 0 -2.68421053 0 0 0 Z " fill="#DBB7BF" transform="translate(698,137)"/>
<path d="M0 0 C4 4.2 4 4.2 4 7 C0.9595402 7.81706167 -2.08256683 8.6278202 -5.125 9.4375 C-5.9809375 9.66759766 -6.836875 9.89769531 -7.71875 10.13476562 C-13.77279517 11.74141607 -19.57042545 13.15802386 -25.875 13.0625 C-26.65617188 13.05347656 -27.43734375 13.04445313 -28.2421875 13.03515625 C-28.82226562 13.02355469 -29.40234375 13.01195312 -30 13 C-29.56516436 7.56455446 -28.46772 4.23832445 -25 0 C-17.04051808 -5.77062439 -7.98829408 -5.49637048 0 0 Z " fill="#DAB8BF" transform="translate(560,423)"/>
<path d="M0 0 C0.99 0.33 1.98 0.66 3 1 C4.03084383 63.89204658 4.03084383 63.89204658 -4 92 C-4.66 91.67 -5.32 91.34 -6 91 C-6 89.02 -6 87.04 -6 85 C-6.33 85 -6.66 85 -7 85 C-6.54549573 78.6443066 -5.94758552 72.33137371 -5.09765625 66.015625 C-2.15010591 44.04672017 -0.84484214 22.14276306 0 0 Z " fill="#0B0C0C" transform="translate(909,618)"/>
<path d="M0 0 C3.07995625 3.07995625 2.7583823 6.90019978 3.125 11.0625 C3.2077417 11.990625 3.2904834 12.91875 3.37573242 13.875 C5.26303444 37.2441826 4.88011913 61.63577526 -3 84 C-3.99 84.99 -3.99 84.99 -5 86 C-5.21595288 80.81713091 -4.96721835 76.35882169 -3.57421875 71.3203125 C2.01746493 48.72534578 0.19671925 24.78050415 -3 2 C-2.01 2 -1.02 2 0 2 C0 1.34 0 0.68 0 0 Z " fill="#141414" transform="translate(347,630)"/>
<path d="M0 0 C-0.99 4.29 -1.98 8.58 -3 13 C-3.66 13 -4.32 13 -5 13 C-5.14695312 13.53367187 -5.29390625 14.06734375 -5.4453125 14.6171875 C-7.09690026 20.10349627 -9.39742643 24.65714761 -12.44921875 29.49609375 C-14.41591291 32.67153697 -16.12412665 35.96092117 -17.82421875 39.28515625 C-19 41 -19 41 -22 42 C-22 41.34 -22 40.68 -22 40 C-21.34 40 -20.68 40 -20 40 C-20.33 39.401875 -20.66 38.80375 -21 38.1875 C-22 36 -22 36 -22 33 C-21.19311523 31.22924805 -21.19311523 31.22924805 -20.05859375 29.26171875 C-19.43500977 28.16428345 -19.43500977 28.16428345 -18.79882812 27.04467773 C-18.34958984 26.26680908 -17.90035156 25.48894043 -17.4375 24.6875 C-13.48701613 17.74254374 -9.81164234 10.73933598 -6.375 3.52734375 C-4.5240969 0.12525765 -3.85362779 0 0 0 Z " fill="#191B1B" transform="translate(867,825)"/>
<path d="M0 0 C0.99 0 1.98 0 3 0 C7.63014395 31.52938188 7.63014395 31.52938188 8 46 C8.0515625 47.28261719 8.103125 48.56523437 8.15625 49.88671875 C8.31923521 56.38575413 8.25898524 61.29677582 5 67 C4.67 67 4.34 67 4 67 C3.98541748 65.9797876 3.97083496 64.9595752 3.95581055 63.90844727 C3.65788142 44.50157915 3.18323411 25.37024561 0.25952148 6.14599609 C0 4 0 4 0 0 Z " fill="#2C2C2C" transform="translate(659,245)"/>
<path d="M0 0 C0.33 0 0.66 0 1 0 C1.03867187 1.52753906 1.03867187 1.52753906 1.078125 3.0859375 C1.49909793 14.72868714 2.67848662 26.86921203 7.125 37.75390625 C8.04242785 40.10891077 8.18356047 41.68396954 8.0625 44.1875 C7.70968619 47.80421762 7.70968619 47.80421762 9 50 C8.34 50.66 7.68 51.32 7 52 C1.35767829 41.91964659 -0.89947289 32.00125908 -2.25 20.625 C-2.34240967 19.86380859 -2.43481934 19.10261719 -2.5300293 18.31835938 C-3.23673937 11.66869359 -2.25568731 6.31592447 0 0 Z " fill="#535353" transform="translate(308,806)"/>
<path d="M0 0 C0.66 0 1.32 0 2 0 C2.50615298 1.26839526 3.00469099 2.53983102 3.5 3.8125 C3.91765625 4.87404297 3.91765625 4.87404297 4.34375 5.95703125 C5 8 5 8 5 11 C5.66 11 6.32 11 7 11 C11.44037148 14.49269586 12.48997434 20.29885366 14.25 25.4375 C14.62640625 26.48744141 15.0028125 27.53738281 15.390625 28.61914062 C15.74125 29.63041016 16.091875 30.64167969 16.453125 31.68359375 C16.77442383 32.60712646 17.09572266 33.53065918 17.42675781 34.48217773 C18.04077702 37.1791028 17.77664169 38.40531073 17 41 C17.27313343 43.34114367 17.59802999 45.67750658 18 48 C17.01 48.495 17.01 48.495 16 49 C11.96322634 38.21943975 8.40130426 27.28187721 4.796875 16.3515625 C4.27867187 14.78535156 4.27867187 14.78535156 3.75 13.1875 C3.45609375 12.29417969 3.1621875 11.40085937 2.859375 10.48046875 C2.26107587 8.75355989 1.59939743 7.0478636 0.890625 5.36328125 C0 3 0 3 0 0 Z " fill="#0E0F0F" transform="translate(294,456)"/>
<path d="M0 0 C2.29425754 3.44138631 3.51923456 6.96700784 4.85546875 10.84375 C5.12136307 11.60925171 5.38725739 12.37475342 5.66120911 13.16345215 C6.22070109 14.77988362 6.77783156 16.39713414 7.33276367 18.01513672 C8.18545056 20.49404192 9.05232519 22.96768627 9.91992188 25.44140625 C10.4618148 27.01271856 11.00285949 28.5843237 11.54296875 30.15625 C11.80434128 30.89693726 12.06571381 31.63762451 12.33500671 32.40075684 C14.11439422 37.65681735 14.11439422 37.65681735 13 41 C12.505 39.515 12.505 39.515 12 38 C11.34 38 10.68 38 10 38 C7 31.5 7 31.5 7 27 C6.37351562 26.76667969 5.74703125 26.53335937 5.1015625 26.29296875 C2.3573864 24.60463736 2.15781003 23.39186716 1.375 20.3125 C1.13910156 19.42433594 0.90320313 18.53617187 0.66015625 17.62109375 C0.44230469 16.75613281 0.22445313 15.89117187 0 15 C-0.39083767 13.62357167 -0.78589373 12.24832495 -1.1875 10.875 C-1.455625 9.92625 -1.72375 8.9775 -2 8 C-1.34 8 -0.68 8 0 8 C-0.66 6.02 -1.32 4.04 -2 2 C-1.34 1.34 -0.68 0.68 0 0 Z " fill="#353535" transform="translate(289,429)"/>
<path d="M0 0 C6.32876381 4.57917381 6.88790599 11.18781236 8.375 18.5 C8.64699219 19.72332031 8.91898437 20.94664062 9.19921875 22.20703125 C11.30913805 32.10742183 11.30913805 32.10742183 10 37 C8.515 37.495 8.515 37.495 7 38 C6.61908203 36.36804688 6.61908203 36.36804688 6.23046875 34.703125 C5.88299762 33.21870665 5.53532737 31.73433491 5.1875 30.25 C4.91619263 29.09105225 4.91619263 29.09105225 4.6394043 27.90869141 C3.57579624 23.38495567 2.46925377 18.87603201 1.3125 14.375 C-1.53119287 3.06238574 -1.53119287 3.06238574 0 0 Z " fill="#2D2D2D" transform="translate(252,309)"/>
<path d="M0 0 C0.33 0.66 0.66 1.32 1 2 C0.04451344 4.22234573 -0.97065992 6.34557542 -2.0625 8.5 C-8.17084124 21.07038805 -12.24030561 34.31118477 -15 48 C-15.20496094 48.99644531 -15.40992188 49.99289062 -15.62109375 51.01953125 C-16.09254764 53.34428662 -16.55301863 55.67043829 -17 58 C-20.39029401 52.29212219 -18.98533102 46.12511139 -17.5 39.90673828 C-14.92071882 30.28321959 -11.36251373 21.09267788 -7.3125 12 C-6.93222656 11.14535156 -6.55195313 10.29070313 -6.16015625 9.41015625 C-4.44751994 5.68939356 -3.0622042 2.79026259 0 0 Z " fill="#303030" transform="translate(326,746)"/>
<path d="M0 0 C2 3 2 3 4 6 C4.99 6.33 5.98 6.66 7 7 C7.84316997 9.39316263 8.47798987 11.63664415 9.04296875 14.09765625 C9.21629227 14.80651474 9.38961578 15.51537323 9.56819153 16.24571228 C10.12015125 18.51523057 10.65397066 20.78858597 11.1875 23.0625 C11.55806001 24.59989543 11.92979007 26.13700934 12.30273438 27.67382812 C13.21544261 31.44608364 14.11190296 35.22187799 15 39 C14.01 39 13.02 39 12 39 C11.67 36.69 11.34 34.38 11 32 C10.01 31.67 9.02 31.34 8 31 C7.04858398 28.77856445 7.04858398 28.77856445 6.24609375 25.86328125 C5.94896484 24.81076172 5.65183594 23.75824219 5.34570312 22.67382812 C4.89614258 21.0099707 4.89614258 21.0099707 4.4375 19.3125 C3.83285868 17.14169645 3.22741383 14.97111651 2.62109375 12.80078125 C2.3573999 11.83309814 2.09370605 10.86541504 1.82202148 9.8684082 C0.96571264 6.88035574 0.00242562 3.94191904 -1 1 C-0.67 0.67 -0.34 0.34 0 0 Z " fill="#242424" transform="translate(327,555)"/>
<path d="M0 0 C2.48869541 4.67877434 3.80052537 9.61098354 5.25 14.6875 C5.54390625 15.64333984 5.8378125 16.59917969 6.140625 17.58398438 C8.00945361 24.17430064 8.02650437 28.44088085 6 35 C3.33496694 32.33496694 2.98674602 29.93956253 2 26.3125 C1.67 25.11238281 1.34 23.91226562 1 22.67578125 C0.67 21.46277344 0.34 20.24976563 0 19 C-0.36867188 17.75476563 -0.73734375 16.50953125 -1.1171875 15.2265625 C-1.92065757 12.28998606 -2.18287092 10.01737014 -2 7 C-2.66 6.67 -3.32 6.34 -4 6 C-3.67 4.35 -3.34 2.7 -3 1 C-2.01 0.67 -1.02 0.34 0 0 Z " fill="#0D0F0E" transform="translate(263,344)"/>
<path d="M0 0 C1 2 1 2 -0.109375 5.5703125 C-0.6529639 7.08972132 -1.20008344 8.60786987 -1.75 10.125 C-5.21183533 20.09819304 -7.33968978 29.95468059 -8.515625 40.44921875 C-8.59844727 41.17931152 -8.68126953 41.9094043 -8.76660156 42.66162109 C-8.98732846 44.69572564 -9.18196522 46.73261219 -9.375 48.76953125 C-9.99972728 51.99859036 -10.39556088 53.09621162 -13 55 C-13.42415189 40.81447579 -11.31780911 28.09378426 -7.12109375 14.6171875 C-6.3349431 12.08068751 -5.59590934 9.58450569 -5 7 C-4.34 7 -3.68 7 -3 7 C-2.690625 6.030625 -2.38125 5.06125 -2.0625 4.0625 C-1 1 -1 1 0 0 Z " fill="#1B1B1B" transform="translate(260,200)"/>
<path d="M0 0 C0.99 0.33 1.98 0.66 3 1 C3.02496148 6.06794894 3.0429822 11.13586106 3.05493164 16.20385742 C3.05992009 17.92326482 3.06671324 19.64266806 3.07543945 21.36206055 C3.12122492 30.62419203 3.15167056 39.79053072 2 49 C-0.56687367 45.1496895 0.16711276 43.41430237 1 39 C0.34 39 -0.32 39 -1 39 C-1.20956539 25.98366076 -0.57575125 13.00034071 0 0 Z " fill="#181818" transform="translate(909,618)"/>
<path d="M0 0 C3.44599513 3.07645141 3.62175713 5.38543696 4 10 C4.17634665 13.90262804 4.06331136 17.56473438 3.5 21.4375 C3.09673161 24.31078726 2.991282 26.75254063 3.0625 29.625 C3.11738774 33.19270334 2.6646718 35.77469839 1 39 C0.34 38.67 -0.32 38.34 -1 38 C-1.20638953 12.23623663 -1.20638953 12.23623663 0 0 Z " fill="#131313" transform="translate(663,330)"/>
<path d="M0 0 C2.77183221 3.11831124 3.2169669 4.87762884 3 9 C3.33 9.66 3.66 10.32 4 11 C3.979375 12.14210938 3.95875 13.28421875 3.9375 14.4609375 C3.87168025 19.66774987 4.93282117 24.5486899 6 29.625 C8.28718609 40.59731165 8.28718609 40.59731165 8 46 C1.96727716 39.96727716 1.42362567 26.15523045 0.25 18 C0.12246338 17.11658936 -0.00507324 16.23317871 -0.13647461 15.32299805 C-0.78738312 10.50901575 -1.232574 5.8582125 -1 1 C-0.67 0.67 -0.34 0.34 0 0 Z " fill="#202020" transform="translate(663,406)"/>
<path d="M0 0 C2.62533022 1.31266511 3.21660165 2.97688877 4.29101562 5.62841797 C5.83782056 10.80254439 6.20456653 16.20863985 6.75 21.5625 C6.88792969 22.76841797 7.02585937 23.97433594 7.16796875 25.21679688 C8.29244366 35.71382814 8.29244366 35.71382814 7 41 C6.01 41.495 6.01 41.495 5 42 C4.17246591 39.02319386 3.77433444 36.18375347 3.53515625 33.10546875 C3.4582959 32.15615479 3.38143555 31.20684082 3.30224609 30.22875977 C3.22312988 29.22514404 3.14401367 28.22152832 3.0625 27.1875 C2.31226052 18.07488753 1.34309224 9.04444029 0 0 Z " fill="#363636" transform="translate(904,575)"/>
<path d="M0 0 C1.60106027 2.84900449 2.27267712 5.00723575 2.4140625 8.265625 C2.45273437 9.07386719 2.49140625 9.88210938 2.53125 10.71484375 C2.5621875 11.55144531 2.593125 12.38804687 2.625 13.25 C2.66367187 14.07113281 2.70234375 14.89226562 2.7421875 15.73828125 C2.84959025 18.15867903 2.93125612 20.57821572 3 23 C3.02408936 23.75474609 3.04817871 24.50949219 3.07299805 25.28710938 C3.15782025 29.78217208 2.8173683 32.39376858 0 36 C-0.33 36 -0.66 36 -1 36 C-1.68282483 28.87911247 -2.12034394 21.77711997 -2.1875 14.625 C-2.20167969 13.33851563 -2.21585938 12.05203125 -2.23046875 10.7265625 C-1.98675866 6.78589425 -1.21988069 3.73196702 0 0 Z " fill="#575757" transform="translate(663,370)"/>
<path d="M0 0 C0.99 0.33 1.98 0.66 3 1 C2.62488281 1.61746094 2.24976563 2.23492188 1.86328125 2.87109375 C-1.19707937 7.93572078 -4.12927224 13.01565604 -6.82421875 18.28515625 C-8 20 -8 20 -11 21 C-11 20.34 -11 19.68 -11 19 C-10.34 19 -9.68 19 -9 19 C-9.33 18.401875 -9.66 17.80375 -10 17.1875 C-11 15 -11 15 -11 12 C-9.79296875 9.5546875 -9.79296875 9.5546875 -8.1875 6.875 C-7.66542969 5.98554687 -7.14335938 5.09609375 -6.60546875 4.1796875 C-5 2 -5 2 -2 1 C-1.34 1.33 -0.68 1.66 0 2 C0 1.34 0 0.68 0 0 Z " fill="#323332" transform="translate(856,846)"/>
<path d="M0 0 C0.99 0.33 1.98 0.66 3 1 C3 2.32 3 3.64 3 5 C3.99 5.33 4.98 5.66 6 6 C6 6.66 6 7.32 6 8 C6.99 8.33 7.98 8.66 9 9 C11.9132216 14.38714789 12.16749145 19.04579359 11 25 C11.34659295 27.32158065 11.34659295 27.32158065 12 29 C11.01 28.67 10.02 28.34 9 28 C8.04858398 25.9621582 8.04858398 25.9621582 7.24609375 23.30078125 C6.94896484 22.33849609 6.65183594 21.37621094 6.34570312 20.38476562 C5.89614258 18.86399414 5.89614258 18.86399414 5.4375 17.3125 C4.8321563 15.32938891 4.22669087 13.34631497 3.62109375 11.36328125 C3.34120605 10.43209473 3.06131836 9.5009082 2.77294922 8.54150391 C1.90141559 5.67584847 0.97030924 2.83368917 0 0 Z " fill="#0C0D0D" transform="translate(277,408)"/>
<path d="M0 0 C0.33 0 0.66 0 1 0 C1.66 11.55 2.32 23.1 3 35 C0 33 0 33 -0.73046875 30.05078125 C-3.7218543 5.58278146 -3.7218543 5.58278146 0 0 Z " fill="#0A0A0A" transform="translate(249,252)"/>
<path d="M0 0 C1.32 0 2.64 0 4 0 C6.48063781 12.48519362 6.48063781 12.48519362 5 19 C4.01 19 3.02 19 2 19 C1.47120316 16.20962572 0.95165912 13.41807402 0.4375 10.625 C0.28603516 9.8309375 0.13457031 9.036875 -0.02148438 8.21875 C-1.11328125 2.2265625 -1.11328125 2.2265625 0 0 Z " fill="#373737" transform="translate(342,613)"/>
<path d="M0 0 C0.99 0 1.98 0 3 0 C4.17152378 3.45670732 5.33639077 6.91562122 6.5 10.375 C6.83386719 11.35984375 7.16773438 12.3446875 7.51171875 13.359375 C7.98544922 14.77089844 7.98544922 14.77089844 8.46875 16.2109375 C8.76201172 17.08024902 9.05527344 17.94956055 9.35742188 18.84521484 C10 21 10 21 10 23 C9.01 22.67 8.02 22.34 7 22 C7 21.01 7 20.02 7 19 C6.34 18.67 5.68 18.34 5 18 C5 17.01 5 16.02 5 15 C4.01 14.67 3.02 14.34 2 14 C2 13.01 2 12.02 2 11 C1.34 10.67 0.68 10.34 0 10 C0.185625 9.46375 0.37125 8.9275 0.5625 8.375 C1.11419324 5.38009386 0.60597444 2.96254171 0 0 Z " fill="#262626" transform="translate(310,496)"/>
<path d="M0 0 C0.66 0 1.32 0 2 0 C4.46945412 5.76205962 5.21513885 9.76097344 5 16 C5.33 16.66 5.66 17.32 6 18 C5.34 18.66 4.68 19.32 4 20 C1.05966587 14.42234327 -1.53012914 9.14673271 -3 3 C-2.01 2.67 -1.02 2.34 0 2 C0 1.34 0 0.68 0 0 Z " fill="#3A3B3B" transform="translate(311,838)"/>
<path d="M0 0 C0.66 0 1.32 0 2 0 C2.433125 1.134375 2.86625 2.26875 3.3125 3.4375 C4.1478125 5.2009375 4.1478125 5.2009375 5 7 C5.99 7.33 6.98 7.66 8 8 C8.33 9.65 8.66 11.3 9 13 C8.34 13 7.68 13 7 13 C7.16757812 13.62648438 7.33515625 14.25296875 7.5078125 14.8984375 C7.71148437 15.71570313 7.91515625 16.53296875 8.125 17.375 C8.33382813 18.18710937 8.54265625 18.99921875 8.7578125 19.8359375 C8.83773438 20.55007813 8.91765625 21.26421875 9 22 C8.34 22.66 7.68 23.32 7 24 C6.30314502 22.3789897 5.61777139 20.75303934 4.9375 19.125 C4.55464844 18.22007812 4.17179687 17.31515625 3.77734375 16.3828125 C3 14 3 14 4 12 C3.34 11.67 2.68 11.34 2 11 C1.3671875 8.49609375 1.3671875 8.49609375 0.875 5.4375 C0.70742188 4.42558594 0.53984375 3.41367187 0.3671875 2.37109375 C0.24601562 1.58863281 0.12484375 0.80617188 0 0 Z " fill="#3E3F3E" transform="translate(313,511)"/>
<path d="M0 0 C0.33 0 0.66 0 1 0 C0.98839844 0.61488281 0.97679687 1.22976563 0.96484375 1.86328125 C0.95582031 2.67152344 0.94679688 3.47976563 0.9375 4.3125 C0.92589844 5.11300781 0.91429687 5.91351562 0.90234375 6.73828125 C0.90342145 9.16861334 0.90342145 9.16861334 2 12 C1.66015625 14.26171875 1.66015625 14.26171875 1.0625 16.6875 C0.86785156 17.49574219 0.67320312 18.30398438 0.47265625 19.13671875 C0.31667969 19.75160156 0.16070313 20.36648438 0 21 C-1.65 21.33 -3.3 21.66 -5 22 C-4.68798326 19.95825942 -4.37536431 17.91661087 -4.0625 15.875 C-3.88847656 14.73804688 -3.71445312 13.60109375 -3.53515625 12.4296875 C-3.04410734 9.28267331 -2.52981281 6.14069217 -2 3 C-1.34 3 -0.68 3 0 3 C0 2.01 0 1.02 0 0 Z " fill="#0C0D0D" transform="translate(903,700)"/>
<path d="M0 0 C0.66 0 1.32 0 2 0 C2.50615298 1.26839526 3.00469099 2.53983102 3.5 3.8125 C3.91765625 4.87404297 3.91765625 4.87404297 4.34375 5.95703125 C5 8 5 8 5 11 C5.66 11 6.32 11 7 11 C10.1754706 13.38160295 10.92577836 16.28154048 12 20 C11.01 20 10.02 20 9 20 C9 21.65 9 23.3 9 25 C7 24 7 24 6.2890625 22.1015625 C6.06992187 21.28429687 5.85078125 20.46703125 5.625 19.625 C4.25856214 14.75487531 2.58289706 10.06784065 0.76953125 5.34765625 C0 3 0 3 0 0 Z " fill="#3A3A3A" transform="translate(294,456)"/>
<path d="M0 0 C0.99 0.33 1.98 0.66 3 1 C4.1062138 9.02005002 4.56022379 14.58286711 1 22 C0.67 22 0.34 22 0 22 C0 14.74 0 7.48 0 0 Z " fill="#0E0E0E" transform="translate(663,290)"/>
<path d="M0 0 C0.33 0 0.66 0 1 0 C1.33801152 2.54112232 1.67053379 5.08276746 2 7.625 C2.09539063 8.33785156 2.19078125 9.05070312 2.2890625 9.78515625 C2.81606101 13.88821609 3.10466984 17.85245742 3 22 C1.68 21.67 0.36 21.34 -1 21 C-1.22537111 17.87598221 -1.42738648 14.75088667 -1.625 11.625 C-1.68945312 10.73554688 -1.75390625 9.84609375 -1.8203125 8.9296875 C-1.871875 8.07890625 -1.9234375 7.228125 -1.9765625 6.3515625 C-2.02893066 5.56604004 -2.08129883 4.78051758 -2.13525391 3.97119141 C-2 2 -2 2 0 0 Z " fill="#151515" transform="translate(664,269)"/>
<path d="M0 0 C3.06456321 4.59684481 1.94068561 8.71111026 1 14 C-0.15816777 18.06999847 -1.51373109 22.03892053 -3 26 C-5.39442092 17.69208499 -1.82687851 8.180739 0 0 Z " fill="#3E3E3E" transform="translate(346,690)"/>
<path d="M0 0 C0.99 0 1.98 0 3 0 C2.50940538 9.87956066 0.97298648 19.33360714 -1 29 C-1.66 28.67 -2.32 28.34 -3 28 C-2.85970581 25.8537974 -2.71261836 23.70803782 -2.5625 21.5625 C-2.48128906 20.36753906 -2.40007813 19.17257812 -2.31640625 17.94140625 C-2 15 -2 15 -1 14 C-0.76472227 11.65012738 -0.58613583 9.29443961 -0.4375 6.9375 C-0.35371094 5.64714844 -0.26992188 4.35679687 -0.18359375 3.02734375 C-0.12300781 2.02832031 -0.06242188 1.02929688 0 0 Z " fill="#575757" transform="translate(906,681)"/>
<path d="M0 0 C2.560881 3.24640915 4.62476717 6.66940716 6.6875 10.25 C7.31011719 11.32765625 7.93273437 12.4053125 8.57421875 13.515625 C9.04472656 14.33546875 9.51523437 15.1553125 10 16 C8.125 16.625 8.125 16.625 6 17 C5.34 16.34 4.68 15.68 4 15 C4 14.01 4 13.02 4 12 C3.34 12 2.68 12 2 12 C2 11.01 2 10.02 2 9 C1.34 9 0.68 9 0 9 C-1.125 2.25 -1.125 2.25 0 0 Z " fill="#0A0B0A" transform="translate(316,849)"/>
<path d="M0 0 C0.66 0 1.32 0 2 0 C3.03205859 2.7671136 4.05090829 5.53791254 5.0625 8.3125 C5.50432617 9.49102539 5.50432617 9.49102539 5.95507812 10.69335938 C6.22900391 11.45068359 6.50292969 12.20800781 6.78515625 12.98828125 C7.04176025 13.68477783 7.29836426 14.38127441 7.56274414 15.09887695 C8 17 8 17 7 20 C6.67 19.01 6.34 18.02 6 17 C5.34 17 4.68 17 4 17 C1 10.5 1 10.5 1 6 C0.34 6 -0.32 6 -1 6 C-0.67 4.02 -0.34 2.04 0 0 Z " fill="#080908" transform="translate(295,450)"/>
<path d="M0 0 C1.51953125 1.765625 1.51953125 1.765625 3 4 C2.6875 7.75 2.6875 7.75 2 11 C1.01 11.33 0.02 11.66 -1 12 C-1.33 14.31 -1.66 16.62 -2 19 C-2.66 19 -3.32 19 -4 19 C-5.79341438 14.83326479 -4.01173384 11.25336659 -2.5625 7.25 C-2.19801758 6.20392578 -2.19801758 6.20392578 -1.82617188 5.13671875 C-1.22689752 3.42114902 -0.61470115 1.71010285 0 0 Z " fill="#090909" transform="translate(886,765)"/>
<path d="M0 0 C0.33 0 0.66 0 1 0 C1.2780211 7.08953806 0.58875661 14.07615946 -1 21 C-1.66 21.66 -2.32 22.32 -3 23 C-4.92714274 14.86317511 -3.69129327 7.38258655 0 0 Z " fill="#4F4F4F" transform="translate(311,781)"/>
<path d="M0 0 C0.66 0 1.32 0 2 0 C1.02324495 5.60772311 -0.13820945 10.89318628 -2.28125 16.17578125 C-2.95762346 17.8924465 -3.48460705 19.66583673 -4 21.4375 C-4.495 22.7059375 -4.495 22.7059375 -5 24 C-5.99 24.33 -6.98 24.66 -8 25 C-7.49202991 20.6822542 -6.80317221 16.96697886 -5 13 C-4.34 13 -3.68 13 -3 13 C-3 11.02 -3 9.04 -3 7 C-2.34 7 -1.68 7 -1 7 C-0.67 4.69 -0.34 2.38 0 0 Z " fill="#606060" transform="translate(885,777)"/>
<path d="M0 0 C0.33 0 0.66 0 1 0 C2.62162429 7.50001236 2.62162429 15.49998764 1 23 C0.34 22.67 -0.32 22.34 -1 22 C-2.27351152 14.93779978 -2.03680299 8.09634046 -1 1 C-0.67 0.67 -0.34 0.34 0 0 Z " fill="#252525" transform="translate(348,671)"/>
<path d="M0 0 C3.19675018 1.59837509 3.86981557 4.78894658 5 8 C6.19262885 12.987357 6.10192502 17.90374914 6 23 C2.6886527 19.44749015 2.07585221 15.57184049 1.3125 10.9375 C1.18294922 10.21755859 1.05339844 9.49761719 0.91992188 8.75585938 C0.40114758 5.79966937 0 3.00648866 0 0 Z " fill="#696969" transform="translate(904,575)"/>
<path d="M0 0 C0.33 0.99 0.66 1.98 1 3 C1.66 3 2.32 3 3 3 C3.73716396 5.44246992 4.47075403 7.88578385 5.1953125 10.33203125 C5.84395394 12.48262399 6.53966312 14.61898936 7.25 16.75 C8.05431233 20.23535344 7.84115891 22.55124846 7 26 C5.42611779 23.06604598 4.39060273 20.21867061 3.4921875 17.015625 C3.22792969 16.08105469 2.96367188 15.14648438 2.69140625 14.18359375 C2.42199219 13.21550781 2.15257812 12.24742187 1.875 11.25 C1.59785156 10.26644531 1.32070313 9.28289063 1.03515625 8.26953125 C0.35317949 5.84733793 -0.325069 3.42416422 -1 1 C-0.67 0.67 -0.34 0.34 0 0 Z " fill="#323232" transform="translate(897,547)"/>
<path d="M0 0 C0.66 0 1.32 0 2 0 C2.69821417 2.10063576 3.38324472 4.20565737 4.0625 6.3125 C4.44535156 7.48425781 4.82820313 8.65601563 5.22265625 9.86328125 C6 13 6 13 5 16 C4.01 15.67 3.02 15.34 2 15 C1.67 13.02 1.34 11.04 1 9 C0.34 9 -0.32 9 -1 9 C-0.67 8.01 -0.34 7.02 0 6 C-0.32380126 4.66431979 -0.65657551 3.33076989 -1 2 C-0.67 1.34 -0.34 0.68 0 0 Z " fill="#0D0E0E" transform="translate(327,546)"/>
<path d="M0 0 C2.39073445 3.82517513 2.55966552 7.59665524 3 12 C1.02 12.99 1.02 12.99 -1 14 C-1.99 10.04 -2.98 6.08 -4 2 C-2.68 1.34 -1.36 0.68 0 0 Z " fill="#060606" transform="translate(260,333)"/>
<path d="M0 0 C0.66 0 1.32 0 2 0 C3.31281522 6.56407612 2.52653315 10.83354621 0 17 C-0.33 16.01 -0.66 15.02 -1 14 C-1.4125 13.29875 -1.825 12.5975 -2.25 11.875 C-3.39463581 7.48722941 -1.66075641 4.09831825 0 0 Z " fill="#0C0C0C" transform="translate(889,755)"/>
<path d="M0 0 C0.33 0 0.66 0 1 0 C1.33 7.26 1.66 14.52 2 22 C-1.16130459 17.78492722 -1.3367697 16.93928888 -1 12 C-1.66 12 -2.32 12 -3 12 C-2.40075776 7.80530429 -1.42500059 3.99000166 0 0 Z " fill="#080808" transform="translate(308,806)"/>
<path d="M0 0 C2.97 0.495 2.97 0.495 6 1 C6.38218767 2.65614657 6.71395102 4.32457024 7 6 C6.67 6.33 6.34 6.66 6 7 C6.28730055 9.33944736 6.61936779 11.6739143 7 14 C6.01 14.495 6.01 14.495 5 15 C4.35163958 13.25093469 3.70641216 11.50070781 3.0625 9.75 C2.70285156 8.77546875 2.34320313 7.8009375 1.97265625 6.796875 C1.18620345 4.53542839 0.52748399 2.33203448 0 0 Z " fill="#383838" transform="translate(305,490)"/>
<path d="M0 0 C0.33 0.66 0.66 1.32 1 2 C-2.57969686 6.88140481 -5.18702545 9.16998949 -11 11 C-11.99 10.67 -12.98 10.34 -14 10 C-4.58997722 2.51708428 -4.58997722 2.51708428 0 0 Z " fill="#DBB7BF" transform="translate(380,55)"/>
<path d="M0 0 C2.77042109 2.77042109 2.39796106 4.76533805 2.625 8.625 C2.69976562 9.81351563 2.77453125 11.00203125 2.8515625 12.2265625 C2.92503906 13.59941406 2.92503906 13.59941406 3 15 C2.34 15 1.68 15 1 15 C1 14.01 1 13.02 1 12 C0.34 12 -0.32 12 -1 12 C-1.66 8.7 -2.32 5.4 -3 2 C-2.01 2 -1.02 2 0 2 C0 1.34 0 0.68 0 0 Z " fill="#0A0A0A" transform="translate(347,630)"/>
<path d="M0 0 C2 3 2 3 4 6 C4.99 6.33 5.98 6.66 7 7 C7.33 8.98 7.66 10.96 8 13 C6.02 13.99 6.02 13.99 4 15 C2.23945126 10.35855331 0.53472968 5.72224516 -1 1 C-0.67 0.67 -0.34 0.34 0 0 Z " fill="#494949" transform="translate(327,555)"/>
<path d="M0 0 C0.66 1.32 1.32 2.64 2 4 C2.33 4 2.66 4 3 4 C3 10.93 3 17.86 3 25 C2.67 25 2.34 25 2 25 C1.67 20.38 1.34 15.76 1 11 C0.34 11.99 -0.32 12.98 -1 14 C-1.02685938 11.85423363 -1.04633088 9.70837355 -1.0625 7.5625 C-1.07410156 6.36753906 -1.08570313 5.17257812 -1.09765625 3.94140625 C-1 1 -1 1 0 0 Z " fill="#919F9B" transform="translate(307,798)"/>
<path d="M0 0 C3.54846534 3.54846534 4.50339115 7.1345638 5.04296875 12.02734375 C4.97867111 14.97919016 3.82671476 16.75173569 2 19 C1.67 19 1.34 19 1 19 C0.67 12.73 0.34 6.46 0 0 Z " fill="#292929" transform="translate(661,387)"/>
<path d="M0 0 C2 1 2 1 2.8515625 3.50390625 C3.10679687 4.51324219 3.36203125 5.52257812 3.625 6.5625 C3.88539063 7.57441406 4.14578125 8.58632813 4.4140625 9.62890625 C4.60742188 10.41136719 4.80078125 11.19382812 5 12 C4.01 12.33 3.02 12.66 2 13 C1.67 12.01 1.34 11.02 1 10 C0.34 10 -0.32 10 -1 10 C-1.33 7.69 -1.66 5.38 -2 3 C-1.34 3 -0.68 3 0 3 C0 2.01 0 1.02 0 0 Z " fill="#131414" transform="translate(270,372)"/>
<path d="M0 0 C0.66 0 1.32 0 2 0 C2.67260351 1.76858691 3.33788395 3.53996016 4 5.3125 C4.37125 6.29863281 4.7425 7.28476562 5.125 8.30078125 C6 11 6 11 6 14 C5.01 13.67 4.02 13.34 3 13 C3 12.34 3 11.68 3 11 C2.34 10.67 1.68 10.34 1 10 C1 8.68 1 7.36 1 6 C0.01 5.67 -0.98 5.34 -2 5 C-1.34 4.67 -0.68 4.34 0 4 C0 2.68 0 1.36 0 0 Z " fill="#0B0C0C" transform="translate(279,403)"/>
<path d="M0 0 C0.66 0 1.32 0 2 0 C1.979375 1.03125 1.95875 2.0625 1.9375 3.125 C1.99276661 6.55152969 2.34550715 9.64572414 3 13 C2.01 13.33 1.02 13.66 0 14 C-2 12 -2 12 -2.01171875 9.43359375 C-1.90472656 8.44488281 -1.79773438 7.45617187 -1.6875 6.4375 C-1.58824219 5.44621094 -1.48898437 4.45492187 -1.38671875 3.43359375 C-1 1 -1 1 0 0 Z " fill="#1B1B1B" transform="translate(908,657)"/>
<path d="M0 0 C-0.254496 1.48206495 -0.52911762 2.96068615 -0.8125 4.4375 C-0.96332031 5.26121094 -1.11414063 6.08492187 -1.26953125 6.93359375 C-1.63111328 7.95646484 -1.63111328 7.95646484 -2 9 C-2.99 9.33 -3.98 9.66 -5 10 C-5 9.34 -5 8.68 -5 8 C-5.99 8.33 -6.98 8.66 -8 9 C-5.4 0 -5.4 0 0 0 Z " fill="#121313" transform="translate(867,825)"/>
<path d="M0 0 C0.99 0.33 1.98 0.66 3 1 C3 6.28 3 11.56 3 17 C2.34 17 1.68 17 1 17 C1.020625 16.05125 1.04125 15.1025 1.0625 14.125 C1.22551826 11.09333717 1.22551826 11.09333717 0 9 C-0.06950541 7.45976004 -0.08452357 5.91665012 -0.0625 4.375 C-0.05347656 3.55773437 -0.04445313 2.74046875 -0.03515625 1.8984375 C-0.02355469 1.27195312 -0.01195312 0.64546875 0 0 Z " fill="#333333" transform="translate(909,618)"/>
<path d="M0 0 C1.44977894 2.34112451 2.04314411 3.5796929 1.7578125 6.359375 C1.54898437 7.14828125 1.34015625 7.9371875 1.125 8.75 C0.92132813 9.54921875 0.71765625 10.3484375 0.5078125 11.171875 C0.34023438 11.77515625 0.17265625 12.3784375 0 13 C-2.42130331 10.57869669 -2.52840504 9.19888623 -3.125 5.875 C-3.29257812 4.96492188 -3.46015625 4.05484375 -3.6328125 3.1171875 C-3.75398438 2.41851562 -3.87515625 1.71984375 -4 1 C-2.68 0.67 -1.36 0.34 0 0 Z " fill="#444545" transform="translate(269,366)"/>
<path d="M0 0 C0.99 0 1.98 0 3 0 C3 0.99 3 1.98 3 3 C3.66 3 4.32 3 5 3 C5 5.97 5 8.94 5 12 C4.01 12.33 3.02 12.66 2 13 C1.34 8.71 0.68 4.42 0 0 Z " fill="#282828" transform="translate(345,642)"/>
<path d="M0 0 C0.33 0 0.66 0 1 0 C1 4.62 1 9.24 1 14 C0.01 14.33 -0.98 14.66 -2 15 C-2.05406122 13.06280622 -2.09282025 11.12518079 -2.125 9.1875 C-2.14820313 8.10855469 -2.17140625 7.02960938 -2.1953125 5.91796875 C-2 3 -2 3 0 0 Z " fill="#1C1C1C" transform="translate(249,252)"/>
<path d="M0 0 C2.125 0.9375 2.125 0.9375 4 2 C4 1.34 4 0.68 4 0 C4.66 0 5.32 0 6 0 C4.87548273 2.9719385 3.77706209 5.33440687 2 8 C0.68 7.67 -0.64 7.34 -2 7 C-1.67 6.01 -1.34 5.02 -1 4 C-1.33 3.01 -1.66 2.02 -2 1 C-1.34 0.67 -0.68 0.34 0 0 Z " fill="#3F3F3F" transform="translate(838,870)"/>
<path d="M0 0 C1.65 0 3.3 0 5 0 C5.33 1.32 5.66 2.64 6 4 C5.34 4 4.68 4 4 4 C4 4.763125 4 5.52625 4 6.3125 C4 8.20833333 4 10.10416667 4 12 C1.35858749 8.87833067 0.03218742 5.95671845 -1 2 C-0.67 1.34 -0.34 0.68 0 0 Z " fill="#505050" transform="translate(323,542)"/>
<path d="M0 0 C1.5625 1.4375 1.5625 1.4375 3 4 C3.10527337 8.78116535 2.31472355 12.80873103 0 17 C-0.19386492 14.35448944 -0.38038267 11.70882217 -0.5625 9.0625 C-0.61857422 8.30775391 -0.67464844 7.55300781 -0.73242188 6.77539062 C-0.86176157 4.85254042 -0.93516912 2.92610452 -1 1 C-0.67 0.67 -0.34 0.34 0 0 Z " fill="#0B0B0B" transform="translate(663,406)"/>
<path d="M0 0 C1.32 0.33 2.64 0.66 4 1 C3.91253716 2.43861294 3.80434652 3.87597508 3.6875 5.3125 C3.62949219 6.11300781 3.57148438 6.91351563 3.51171875 7.73828125 C3 10 3 10 0 13 C0 8.71 0 4.42 0 0 Z " fill="#4C4C4C" transform="translate(247,242)"/>
<path d="M0 0 C1 2 1 2 0.56274414 3.78759766 C0.30614014 4.48933105 0.04953613 5.19106445 -0.21484375 5.9140625 C-0.48876953 6.67460937 -0.76269531 7.43515625 -1.04492188 8.21875 C-1.33947266 9.0128125 -1.63402344 9.806875 -1.9375 10.625 C-2.22818359 11.42679688 -2.51886719 12.22859375 -2.81835938 13.0546875 C-3.53882525 15.03892138 -4.26855138 17.01978837 -5 19 C-5.33 19 -5.66 19 -6 19 C-6.14285714 10.42857143 -6.14285714 10.42857143 -5 7 C-4.34 7 -3.68 7 -3 7 C-2.690625 6.030625 -2.38125 5.06125 -2.0625 4.0625 C-1 1 -1 1 0 0 Z " fill="#434343" transform="translate(260,200)"/>
<path d="M0 0 C3.63 0.33 7.26 0.66 11 1 C11 1.66 11 2.32 11 3 C12.32 3 13.64 3 15 3 C15 3.66 15 4.32 15 5 C13.3954444 4.85851011 11.79136233 4.71164314 10.1875 4.5625 C9.29417969 4.48128906 8.40085937 4.40007813 7.48046875 4.31640625 C5 4 5 4 2 3 C2 2.34 2 1.68 2 1 C1.34 0.67 0.68 0.34 0 0 Z " fill="#343434" transform="translate(466,939)"/>
<path d="M0 0 C0.66 0 1.32 0 2 0 C2 0.99 2 1.98 2 3 C2.66 3 3.32 3 4 3 C5.01866229 4.65532623 6.01810813 6.32260138 7 8 C7.66 8.33 8.32 8.66 9 9 C9 9.99 9 10.98 9 12 C6.37417256 11.629691 5.26426684 11.31016581 3.515625 9.2578125 C3.09796875 8.55398438 2.6803125 7.85015625 2.25 7.125 C1.60804688 6.07699219 1.60804688 6.07699219 0.953125 5.0078125 C0 3 0 3 0 0 Z " fill="#424242" transform="translate(316,858)"/>
<path d="M0 0 C3 1 3 1 4 3 C4.66 3 5.32 3 6 3 C6.33 3.99 6.66 4.98 7 6 C6.34 6 5.68 6 5 6 C4.67 7.65 4.34 9.3 4 11 C3.34 10.67 2.68 10.34 2 10 C1.3671875 7.71484375 1.3671875 7.71484375 0.875 4.9375 C0.70742188 4.01839844 0.53984375 3.09929687 0.3671875 2.15234375 C0.24601562 1.44207031 0.12484375 0.73179687 0 0 Z " fill="#3B3B3B" transform="translate(290,444)"/>
<path d="M0 0 C1.76462683 3.08809695 2 4.23312136 2 8 C1.01 8 0.02 8 -1 8 C-0.649375 8.5775 -0.29875 9.155 0.0625 9.75 C1.14917407 12.35801776 0.93065133 13.39417629 0 16 C-0.66 16 -1.32 16 -2 16 C-2.2358396 10.22192976 -1.86783046 5.48675196 0 0 Z " fill="#0B0B0B" transform="translate(663,370)"/>
<path d="M0 0 C1.32 0 2.64 0 4 0 C4 3.3 4 6.6 4 10 C2.68 9.34 1.36 8.68 0 8 C0 5.36 0 2.72 0 0 Z " fill="#131313" transform="translate(906,670)"/>
<path d="M0 0 C0.66 0 1.32 0 2 0 C1.67 5.61 1.34 11.22 1 17 C-1.56687367 13.1496895 -0.83288724 11.41430237 0 7 C-0.66 7 -1.32 7 -2 7 C-1.125 1.125 -1.125 1.125 0 0 Z " fill="#717171" transform="translate(910,650)"/>
<path d="M0 0 C0 0.99 0 1.98 0 3 C-0.75925781 3.20496094 -1.51851562 3.40992188 -2.30078125 3.62109375 C-3.29464844 3.89050781 -4.28851562 4.15992188 -5.3125 4.4375 C-6.29863281 4.70433594 -7.28476562 4.97117187 -8.30078125 5.24609375 C-10.21517526 5.78079425 -12.11433615 6.37144538 -14 7 C-13 4 -13 4 -11.328125 2.83203125 C-4.42748092 -0.55343511 -4.42748092 -0.55343511 0 0 Z " fill="#3C3C3C" transform="translate(772,925)"/>
<path d="M0 0 C0.99 0.33 1.98 0.66 3 1 C2.19185349 2.33597652 1.37836819 3.668725 0.5625 5 C0.11003906 5.7425 -0.34242188 6.485 -0.80859375 7.25 C-1.20175781 7.8275 -1.59492187 8.405 -2 9 C-2.33 9 -2.66 9 -3 9 C-3 7.35 -3 5.7 -3 4 C-3.99 4.33 -4.98 4.66 -6 5 C-5.34 3.68 -4.68 2.36 -4 1 C-2.68 1.33 -1.36 1.66 0 2 C0 1.34 0 0.68 0 0 Z " fill="#464746" transform="translate(856,846)"/>
<path d="M0 0 C0.66 0 1.32 0 2 0 C4.29013653 3.4352048 4.17842973 4.985331 4 9 C2.68 9 1.36 9 0 9 C-1.125 3.375 -1.125 3.375 0 0 Z " fill="#1E1F1F" transform="translate(256,325)"/>
<path d="M0 0 C3.96 0 7.92 0 12 0 C11.67 0.99 11.34 1.98 11 3 C7.7 3 4.4 3 1 3 C0.67 2.01 0.34 1.02 0 0 Z " fill="#494949" transform="translate(516,946)"/>
<path d="M0 0 C0.66 0 1.32 0 2 0 C1.32116957 3.11547441 0.25893098 5.85137721 -1.0625 8.75 C-1.60583984 9.94882812 -1.60583984 9.94882812 -2.16015625 11.171875 C-2.57587891 12.07679688 -2.57587891 12.07679688 -3 13 C-3.33 13 -3.66 13 -4 13 C-4 11.02 -4 9.04 -4 7 C-4.66 7 -5.32 7 -6 7 C-6 6.34 -6 5.68 -6 5 C-5.01 4.67 -4.02 4.34 -3 4 C-2.34 4.33 -1.68 4.66 -1 5 C-0.67 3.35 -0.34 1.7 0 0 Z " fill="#363736" transform="translate(869,819)"/>
<path d="M0 0 C1 2 1 2 0.25 4.5625 C-1 7 -1 7 -4 8 C-4 7.34 -4 6.68 -4 6 C-4.99 6.33 -5.98 6.66 -7 7 C-6.34 5.02 -5.68 3.04 -5 1 C-4.01 1 -3.02 1 -2 1 C-1.34 0.67 -0.68 0.34 0 0 Z " fill="#353635" transform="translate(877,803)"/>
<path d="M0 0 C2.40343831 4.24639101 2.22969604 7.17638324 2 12 C1.67 12.99 1.34 13.98 1 15 C0.34 15 -0.32 15 -1 15 C-2.20220203 11.46905698 -1.79532349 8.87101018 -1.0625 5.25 C-0.86785156 4.26515625 -0.67320312 3.2803125 -0.47265625 2.265625 C-0.31667969 1.51796875 -0.16070313 0.7703125 0 0 Z " fill="#727272" transform="translate(665,336)"/>
<path d="M0 0 C0.33 0 0.66 0 1 0 C1.12117187 1.05960937 1.24234375 2.11921875 1.3671875 3.2109375 C1.53600752 4.59901324 1.70530308 5.98703119 1.875 7.375 C1.95363281 8.07367188 2.03226563 8.77234375 2.11328125 9.4921875 C2.55220445 13.69072159 2.55220445 13.69072159 5 17 C5 17.99 5 18.98 5 20 C3.68 20 2.36 20 1 20 C0.202163 13.30386804 -0.12910853 6.74233419 0 0 Z " fill="#696969" transform="translate(247,270)"/>
<path d="M0 0 C0.66 0 1.32 0 2 0 C2.99 3.63 3.98 7.26 5 11 C4.01 11 3.02 11 2 11 C1.67 8.69 1.34 6.38 1 4 C0.01 3.67 -0.98 3.34 -2 3 C-1.34 2.01 -0.68 1.02 0 0 Z " fill="#0E0F0F" transform="translate(337,583)"/>
<path d="M0 0 C0.33 1.98 0.66 3.96 1 6 C-0.98 6.99 -0.98 6.99 -3 8 C-3.66 5.69 -4.32 3.38 -5 1 C-3 0 -3 0 0 0 Z " fill="#373837" transform="translate(338,577)"/>
<path d="M0 0 C0.66 0.33 1.32 0.66 2 1 C2.4140625 3.94140625 2.4140625 3.94140625 2.625 7.5625 C2.69976563 8.76003906 2.77453125 9.95757812 2.8515625 11.19140625 C2.90054688 12.11824219 2.94953125 13.04507812 3 14 C1.68 13.67 0.36 13.34 -1 13 C-1 11.68 -1 10.36 -1 9 C-0.34 9 0.32 9 1 9 C0.835 7.88625 0.67 6.7725 0.5 5.625 C0 2 0 2 0 0 Z " fill="#464646" transform="translate(664,277)"/>
<path d="M0 0 C0.99 0 1.98 0 3 0 C4.23076923 6.4 4.23076923 6.4 3.0625 9.4375 C2.711875 9.953125 2.36125 10.46875 2 11 C-0.32590854 7.36576791 -0.16265833 4.22911669 0 0 Z " fill="#232323" transform="translate(908,606)"/>
<path d="M0 0 C0.66 0.33 1.32 0.66 2 1 C2 1.99 2 2.98 2 4 C2.66 4 3.32 4 4 4 C4.33 4.99 4.66 5.98 5 7 C4.34 7 3.68 7 3 7 C3 7.66 3 8.32 3 9 C2.01 9 1.02 9 0 9 C-1.125 2.25 -1.125 2.25 0 0 Z " fill="#444444" transform="translate(308,831)"/>
<path d="M0 0 C1.32 0 2.64 0 4 0 C4.33 1.98 4.66 3.96 5 6 C3.35 6.33 1.7 6.66 0 7 C-1.125 2.25 -1.125 2.25 0 0 Z " fill="#2A2A2A" transform="translate(342,613)"/>
<path d="M0 0 C0.80824219 0.10183594 1.61648438 0.20367188 2.44921875 0.30859375 C3.06410156 0.39238281 3.67898438 0.47617187 4.3125 0.5625 C4.3125 1.2225 4.3125 1.8825 4.3125 2.5625 C2.68786158 2.61645478 1.06271459 2.65527195 -0.5625 2.6875 C-1.46742188 2.71070313 -2.37234375 2.73390625 -3.3046875 2.7578125 C-5.6875 2.5625 -5.6875 2.5625 -7.6875 0.5625 C-4.59271121 -0.46909626 -3.16118607 -0.41232862 0 0 Z " fill="#333333" transform="translate(557.6875,948.4375)"/>
<path d="M0 0 C0.66 0 1.32 0 2 0 C3.625 2 3.625 2 5 4 C3.68 4.33 2.36 4.66 1 5 C1 5.66 1 6.32 1 7 C-0.32 6.34 -1.64 5.68 -3 5 C-1.625 2.5 -1.625 2.5 0 0 Z " fill="#080808" transform="translate(855,841)"/>
<path d="M0 0 C0.66 0.33 1.32 0.66 2 1 C1.34 4.3 0.68 7.6 0 11 C-0.99 11.33 -1.98 11.66 -3 12 C-2.49202991 7.6822542 -1.80317221 3.96697886 0 0 Z " fill="#373737" transform="translate(880,790)"/>
<path d="M0 0 C0.66 0.33 1.32 0.66 2 1 C1.71517632 2.41805831 1.42181856 3.83440379 1.125 5.25 C0.96257812 6.03890625 0.80015625 6.8278125 0.6328125 7.640625 C0.00849925 9.96831144 -0.84838542 11.89031952 -2 14 C-2.66 14 -3.32 14 -4 14 C-3.47731534 11.23723823 -2.89130413 8.6739124 -2 6 C-1.34 6 -0.68 6 0 6 C-0.33 5.01 -0.66 4.02 -1 3 C-0.67 2.01 -0.34 1.02 0 0 Z " fill="#888888" transform="translate(341,711)"/>
<path d="M0 0 C2.63829259 1.31914629 2.98263229 2.23857335 4 5 C4.44444444 11.33333333 4.44444444 11.33333333 2 15 C1.34 10.05 0.68 5.1 0 0 Z " fill="#2B2C2C" transform="translate(904,575)"/>
<path d="M0 0 C2.58110217 3.87165325 1.72948337 5.54204609 1 10 C1.33 10.66 1.66 11.32 2 12 C1.01 12.33 0.02 12.66 -1 13 C-1.33 11.35 -1.66 9.7 -2 8 C-1.34 8 -0.68 8 0 8 C-0.66 6.02 -1.32 4.04 -2 2 C-1.34 1.34 -0.68 0.68 0 0 Z " fill="#101111" transform="translate(289,429)"/>
<path d="M0 0 C0.66 0 1.32 0 2 0 C4.43160605 3.36683915 5 4.73350364 5 9 C4.01 9.33 3.02 9.66 2 10 C0.41727399 8.41727399 0.65264253 6.61965997 0.4375 4.4375 C0.35371094 3.61121094 0.26992188 2.78492188 0.18359375 1.93359375 C0.12300781 1.29550781 0.06242187 0.65742188 0 0 Z " fill="#0B0C0C" transform="translate(264,358)"/>
<path d="M0 0 C1.24386556 3.73159669 0.77811718 6.18015204 0 10 C-0.99 10.495 -0.99 10.495 -2 11 C-2 9.68 -2 8.36 -2 7 C-2.66 6.67 -3.32 6.34 -4 6 C-3.67 4.35 -3.34 2.7 -3 1 C-2.01 0.67 -1.02 0.34 0 0 Z " fill="#444444" transform="translate(263,344)"/>
<path d="M0 0 C3.3 0 6.6 0 10 0 C10 0.66 10 1.32 10 2 C6.37 2.66 2.74 3.32 -1 4 C-0.67 2.68 -0.34 1.36 0 0 Z " fill="#3E3E3E" transform="translate(723,936)"/>
<path d="M0 0 C0.33 0.66 0.66 1.32 1 2 C0.00390625 4.3828125 0.00390625 4.3828125 -1.4375 7.125 C-1.91058594 8.03507813 -2.38367188 8.94515625 -2.87109375 9.8828125 C-3.24363281 10.58148437 -3.61617188 11.28015625 -4 12 C-4.66 12 -5.32 12 -6 12 C-5.57405412 10.55903414 -5.13373367 9.12231288 -4.6875 7.6875 C-4.44386719 6.88699219 -4.20023437 6.08648438 -3.94921875 5.26171875 C-2.95817977 2.90035427 -1.91925057 1.66120007 0 0 Z " fill="#747776" transform="translate(326,746)"/>
<path d="M0 0 C0.66 0 1.32 0 2 0 C0.23570801 4.97209562 -2.3939166 9.43438061 -5 14 C-6 11 -6 11 -5.29296875 9.0625 C-4.74576172 8.0415625 -4.74576172 8.0415625 -4.1875 7 C-3.83042969 6.319375 -3.47335937 5.63875 -3.10546875 4.9375 C-2.14192431 3.24874367 -1.07850549 1.61775824 0 0 Z " fill="#4C4C4C" transform="translate(333,731)"/>
<path d="M0 0 C0 2.31 0 4.62 0 7 C-2.97 6.505 -2.97 6.505 -6 6 C-3.84615385 0 -3.84615385 0 0 0 Z " fill="#121313" transform="translate(853,850)"/>
<path d="M0 0 C0.99 0 1.98 0 3 0 C3.66 2.97 4.32 5.94 5 9 C3.68 8.67 2.36 8.34 1 8 C0.67 5.36 0.34 2.72 0 0 Z " fill="#040404" transform="translate(310,496)"/>
<path d="M0 0 C1.32 0.33 2.64 0.66 4 1 C3.67 1.66 3.34 2.32 3 3 C2.34 3 1.68 3 1 3 C1 3.66 1 4.32 1 5 C0.01 5 -0.98 5 -2 5 C-2.33 5.66 -2.66 6.32 -3 7 C-3.66 5.68 -4.32 4.36 -5 3 C-3.35 2.34 -1.7 1.68 0 1 C0 0.67 0 0.34 0 0 Z " fill="#4A4A4A" transform="translate(809,905)"/>
<path d="M0 0 C2.31 0.33 4.62 0.66 7 1 C7.33 2.98 7.66 4.96 8 7 C8.99 7.33 9.98 7.66 11 8 C10.01 8.495 10.01 8.495 9 9 C8.01 8.34 7.02 7.68 6 7 C6 6.34 6 5.68 6 5 C5.34 5 4.68 5 4 5 C2.61767557 3.37373596 1.28062485 1.7074998 0 0 Z " fill="#717171" transform="translate(332,882)"/>
<path d="M0 0 C0.99 0 1.98 0 3 0 C3.33 2.97 3.66 5.94 4 9 C3.01 8.67 2.02 8.34 1 8 C0.67 5.36 0.34 2.72 0 0 Z " fill="#515151" transform="translate(659,245)"/>
<path d="M0 0 C4.03520597 1.58962659 8.01811282 3.28232318 12 5 C11.01 6.485 11.01 6.485 10 8 C8.7035649 7.23721377 7.41300852 6.46443041 6.125 5.6875 C5.40570313 5.25824219 4.68640625 4.82898438 3.9453125 4.38671875 C2 3 2 3 0 0 Z " fill="#606060" transform="translate(355,900)"/>
<path d="M0 0 C0.66 0 1.32 0 2 0 C2.66 2.64 3.32 5.28 4 8 C2.68 8 1.36 8 0 8 C0 6.35 0 4.7 0 3 C-0.66 2.67 -1.32 2.34 -2 2 C-1.34 2 -0.68 2 0 2 C0 1.34 0 0.68 0 0 Z " fill="#090909" transform="translate(311,838)"/>
<path d="M0 0 C0.66 0 1.32 0 2 0 C3.83691257 3.78187881 4.15837626 5.94568308 3 10 C2.34 9.67 1.68 9.34 1 9 C1.33 8.34 1.66 7.68 2 7 C1.34 6.67 0.68 6.34 0 6 C0 4.02 0 2.04 0 0 Z " fill="#090A0A" transform="translate(320,524)"/>
<path d="M0 0 C0.99 0.33 1.98 0.66 3 1 C3 2.32 3 3.64 3 5 C3.99 5.33 4.98 5.66 6 6 C5.67 7.65 5.34 9.3 5 11 C3 10 3 10 2.1484375 7.71484375 C1.89320313 6.79832031 1.63796875 5.88179688 1.375 4.9375 C1.11460937 4.01839844 0.85421875 3.09929687 0.5859375 2.15234375 C0.39257812 1.44207031 0.19921875 0.73179687 0 0 Z " fill="#888888" transform="translate(277,408)"/>
<path d="M0 0 C0.99 0.33 1.98 0.66 3 1 C3.33 3.31 3.66 5.62 4 8 C2.68 8 1.36 8 0 8 C0 5.36 0 2.72 0 0 Z " fill="#191919" transform="translate(663,290)"/>
<path d="M0 0 C0.33 0.66 0.66 1.32 1 2 C1.99 2 2.98 2 4 2 C4.33 4.64 4.66 7.28 5 10 C3.0625 8.9375 3.0625 8.9375 1 7 C0.25 3.3125 0.25 3.3125 0 0 Z " fill="#212222" transform="translate(249,288)"/>
<path d="M0 0 C0.99 0.33 1.98 0.66 3 1 C1.55746343 4.36591866 -0.33264727 6.51047079 -3 9 C-3.125 6.625 -3.125 6.625 -3 4 C-2.34 3.34 -1.68 2.68 -1 2 C-0.67 1.34 -0.34 0.68 0 0 Z " fill="#3A3A3A" transform="translate(834,879)"/>
<path d="M0 0 C0.33 0 0.66 0 1 0 C1 3.3 1 6.6 1 10 C-0.32 10.33 -1.64 10.66 -3 11 C-2.32829194 7.1936543 -1.27253436 3.64793184 0 0 Z " fill="#3B3B3B" transform="translate(308,806)"/>
<path d="M0 0 C0.66 0.33 1.32 0.66 2 1 C1.01 3.97 0.02 6.94 -1 10 C-1.33 9.01 -1.66 8.02 -2 7 C-2.6599679 5.33066942 -3.32558869 3.6635479 -4 2 C-3.01 2 -2.02 2 -1 2 C-0.67 1.34 -0.34 0.68 0 0 Z " fill="#414242" transform="translate(890,762)"/>
<path d="M0 0 C0.66 0.33 1.32 0.66 2 1 C1.67 2.65 1.34 4.3 1 6 C0.34 6 -0.32 6 -1 6 C-1.33 7.32 -1.66 8.64 -2 10 C-2.12375 9.195625 -2.2475 8.39125 -2.375 7.5625 C-2.684375 6.2940625 -2.684375 6.2940625 -3 5 C-3.66 4.67 -4.32 4.34 -5 4 C-3.68 4 -2.36 4 -1 4 C-0.67 2.68 -0.34 1.36 0 0 Z " fill="#4C4C4C" transform="translate(894,750)"/>
<path d="M0 0 C0.99 0.33 1.98 0.66 3 1 C2.67 3.64 2.34 6.28 2 9 C0.4375 7.875 0.4375 7.875 -1 6 C-0.6875 2.8125 -0.6875 2.8125 0 0 Z " fill="#131313" transform="translate(900,711)"/>
<path d="M0 0 C0.99 0 1.98 0 3 0 C3.33 1.65 3.66 3.3 4 5 C2.02 5.99 2.02 5.99 0 7 C-1.33332095 4.3333581 -0.67102033 2.83319697 0 0 Z " fill="#070707" transform="translate(303,476)"/>
<path d="M0 0 C2.84249384 2.84249384 2 5.15984574 2 9 C1.01 8.67 0.02 8.34 -1 8 C-2.1875 4.9375 -2.1875 4.9375 -3 2 C-2.01 1.34 -1.02 0.68 0 0 Z " fill="#5A5A5A" transform="translate(287,428)"/>
<path d="M0 0 C0.66 0 1.32 0 2 0 C3.17571451 3.67410785 3.07366746 7.16929183 3 11 C0.17661571 7.8083482 -0.62384955 5.23169259 -1 1 C-0.67 0.67 -0.34 0.34 0 0 Z " fill="#5F5F5F" transform="translate(262,355)"/>
<path d="M0 0 C0.99 0.33 1.98 0.66 3 1 C3.33 2.98 3.66 4.96 4 7 C3.01 7.66 2.02 8.32 1 9 C0.67 6.03 0.34 3.06 0 0 Z " fill="#1B1B1B" transform="translate(657,235)"/>
<path d="M0 0 C1.125 1.5625 1.125 1.5625 2 4 C1.125 7.75 1.125 7.75 0 11 C-0.99 10.01 -1.98 9.02 -3 8 C-2.01 5.36 -1.02 2.72 0 0 Z " fill="#292929" transform="translate(253,215)"/>
<path d="M0 0 C1.65 0 3.3 0 5 0 C5.33 0.99 5.66 1.98 6 3 C8.01508358 3.73323796 8.01508358 3.73323796 10 4 C9.01 4.495 9.01 4.495 8 5 C1.25806452 2.51612903 1.25806452 2.51612903 0 0 Z " fill="#4A4A4A" transform="translate(419,928)"/>
<path d="M0 0 C2.125 0.375 2.125 0.375 4 1 C3.34 2.32 2.68 3.64 2 5 C1.01 5 0.02 5 -1 5 C-1.33 4.01 -1.66 3.02 -2 2 C-1.34 1.34 -0.68 0.68 0 0 Z " fill="#3F3F3F" transform="translate(819,895)"/>
<path d="M0 0 C1.98 0.66 3.96 1.32 6 2 C6 3.32 6 4.64 6 6 C6.66 6.33 7.32 6.66 8 7 C7.01 7.33 6.02 7.66 5 8 C5 7.34 5 6.68 5 6 C4.34 6 3.68 6 3 6 C2.01 4.02 1.02 2.04 0 0 Z " fill="#616161" transform="translate(325,873)"/>
<path d="M0 0 C3 4 3 4 4 7 C3.01 7.495 3.01 7.495 2 8 C1.34 8.99 0.68 9.98 0 11 C0 7.37 0 3.74 0 0 Z " fill="#060606" transform="translate(908,643)"/>
<path d="M0 0 C2.21399303 3.79541663 3.00980198 7.75629421 4 12 C3.34 12 2.68 12 2 12 C-0.60018816 8.09971775 -0.15085514 4.52565431 0 0 Z " fill="#858585" transform="translate(904,567)"/>
<path d="M0 0 C0.66 0 1.32 0 2 0 C2.33 2.31 2.66 4.62 3 7 C2.01 7.495 2.01 7.495 1 8 C-1 5 -1 5 -0.625 2.3125 C-0.41875 1.549375 -0.2125 0.78625 0 0 Z " fill="#080808" transform="translate(327,546)"/>
<path d="M0 0 C0.66 0.33 1.32 0.66 2 1 C2 3.97 2 6.94 2 10 C1.01 10.33 0.02 10.66 -1 11 C-1.125 3.375 -1.125 3.375 0 0 Z " fill="#3D3D3D" transform="translate(665,416)"/>
<path d="M0 0 C2.39763185 2.39763185 2.34280586 3.33273498 2.625 6.625 C2.69976563 7.44226563 2.77453125 8.25953125 2.8515625 9.1015625 C2.90054688 9.72804687 2.94953125 10.35453125 3 11 C0.82905523 8.82905523 0.5137 7.84247144 -0.1875 4.9375 C-0.36667969 4.22464844 -0.54585937 3.51179687 -0.73046875 2.77734375 C-0.81941406 2.19082031 -0.90835938 1.60429687 -1 1 C-0.67 0.67 -0.34 0.34 0 0 Z " fill="#1F1F1F" transform="translate(654,222)"/>
<path d="M0 0 C2.64 0.66 5.28 1.32 8 2 C7.67 2.66 7.34 3.32 7 4 C4.69 3.67 2.38 3.34 0 3 C0 2.01 0 1.02 0 0 Z " fill="#2F2F2F" transform="translate(387,916)"/>
<path d="M0 0 C1.65 0 3.3 0 5 0 C5.33 0.99 5.66 1.98 6 3 C6.66 3 7.32 3 8 3 C7.67 3.99 7.34 4.98 7 6 C5.83054208 5.19152271 4.66449539 4.37810888 3.5 3.5625 C2.8503125 3.11003906 2.200625 2.65757812 1.53125 2.19140625 C1.0259375 1.79824219 0.520625 1.40507813 0 1 C0 0.67 0 0.34 0 0 Z " fill="#4E4E4E" transform="translate(342,891)"/>
<path d="M0 0 C0.66 0.33 1.32 0.66 2 1 C1.34 3.64 0.68 6.28 0 9 C-0.99 9 -1.98 9 -3 9 C-2.01 6.03 -1.02 3.06 0 0 Z " fill="#2A2A2A" transform="translate(319,757)"/>
<path d="M0 0 C0.99 0.33 1.98 0.66 3 1 C1.6875 3.5 1.6875 3.5 0 6 C-0.99 6 -1.98 6 -3 6 C-2.625 3.5625 -2.625 3.5625 -2 1 C-1.34 0.67 -0.68 0.34 0 0 Z " fill="#050505" transform="translate(893,748)"/>
<path d="M0 0 C0.66 0 1.32 0 2 0 C2 2.97 2 5.94 2 9 C0.4375 7.3125 0.4375 7.3125 -1 5 C-0.6875 2.25 -0.6875 2.25 0 0 Z " fill="#4A4A4A" transform="translate(910,640)"/>
<path d="M0 0 C0.66 0 1.32 0 2 0 C3.76462683 3.08809695 4 4.23312136 4 8 C3.01 8 2.02 8 1 8 C0.67 5.36 0.34 2.72 0 0 Z " fill="#212121" transform="translate(257,336)"/>
<path d="M0 0 C0.66 0 1.32 0 2 0 C4.01782732 2.90567134 5.35494404 5.51669784 6 9 C3.525 8.01 3.525 8.01 1 7 C0.67 4.69 0.34 2.38 0 0 Z " fill="#030303" transform="translate(248,292)"/>
<path d="M0 0 C2.64 0 5.28 0 8 0 C7.67 0.66 7.34 1.32 7 2 C4.67843403 2.40729228 2.3431213 2.74438677 0 3 C0 2.01 0 1.02 0 0 Z " fill="#464646" transform="translate(734,934)"/>
<path d="M0 0 C0 0.66 0 1.32 0 2 C0.66 2.33 1.32 2.66 2 3 C2 3.66 2 4.32 2 5 C1.01 5.33 0.02 5.66 -1 6 C-2.5 4.625 -2.5 4.625 -4 3 C-4 2.34 -4 1.68 -4 1 C-2 0 -2 0 0 0 Z " fill="#343535" transform="translate(862,833)"/>
<path d="M0 0 C0.66 0 1.32 0 2 0 C2 2.31 2 4.62 2 7 C0.68 6.67 -0.64 6.34 -2 6 C-1.34 4.02 -0.68 2.04 0 0 Z " fill="#131515" transform="translate(880,782)"/>
<path d="M0 0 C0 1.98 0 3.96 0 6 C-1.32 5.67 -2.64 5.34 -4 5 C-3.625 3.0625 -3.625 3.0625 -3 1 C-1 0 -1 0 0 0 Z " fill="#1B1B1B" transform="translate(351,653)"/>
<path d="M0 0 C0.99 0 1.98 0 3 0 C3 0.99 3 1.98 3 3 C3.99 3 4.98 3 6 3 C5.67 3.99 5.34 4.98 5 6 C4.01 6 3.02 6 2 6 C1.34 4.02 0.68 2.04 0 0 Z " fill="#464646" transform="translate(338,601)"/>
<path d="M0 0 C0.99 0.33 1.98 0.66 3 1 C3.33 3.31 3.66 5.62 4 8 C3.01 8.495 3.01 8.495 2 9 C1.34 6.03 0.68 3.06 0 0 Z " fill="#606060" transform="translate(335,586)"/>
<path d="M0 0 C0.66 0 1.32 0 2 0 C2.33 1.98 2.66 3.96 3 6 C1.35 6 -0.3 6 -2 6 C-1.34 4.02 -0.68 2.04 0 0 Z " fill="#0A0A0A" transform="translate(324,536)"/>
<path d="M0 0 C1.20628008 2.33214148 2.1654738 4.49642139 3 7 C2.34 7.66 1.68 8.32 1 9 C-0.61949011 6.42786866 -1.04408751 5.32330841 -0.625 2.25 C-0.41875 1.5075 -0.2125 0.765 0 0 Z " fill="#626262" transform="translate(319,526)"/>
<path d="M0 0 C2 1 2 1 2.6328125 2.84765625 C2.79523438 3.57855469 2.95765625 4.30945313 3.125 5.0625 C3.29257812 5.79597656 3.46015625 6.52945313 3.6328125 7.28515625 C3.75398438 7.85105469 3.87515625 8.41695312 4 9 C3.01 8.67 2.02 8.34 1 8 C1 7.01 1 6.02 1 5 C0.34 4.67 -0.32 4.34 -1 4 C-0.67 2.68 -0.34 1.36 0 0 Z " fill="#050505" transform="translate(316,510)"/>
<path d="M0 0 C1.32 0 2.64 0 4 0 C3.67 1.98 3.34 3.96 3 6 C1.68 5.34 0.36 4.68 -1 4 C-0.67 2.68 -0.34 1.36 0 0 Z " fill="#3C3D3D" transform="translate(304,481)"/>
<path d="M0 0 C1.99097846 2.98646769 2.94124926 5.59687262 4 9 C3.01 9.495 3.01 9.495 2 10 C-1.07692308 4.58461538 -1.07692308 4.58461538 -0.6875 1.625 C-0.460625 1.08875 -0.23375 0.5525 0 0 Z " fill="#3B3B3B" transform="translate(672,451)"/>
<path d="M0 0 C1.485 0.99 1.485 0.99 3 2 C3.66 2.33 4.32 2.66 5 3 C3.68 4.65 2.36 6.3 1 8 C0.34 5.69 -0.32 3.38 -1 1 C-0.67 0.67 -0.34 0.34 0 0 Z " fill="#525252" transform="translate(270,382)"/>
<path d="M0 0 C0.66 0.99 1.32 1.98 2 3 C1.125 5.6875 1.125 5.6875 0 8 C-0.66 7.67 -1.32 7.34 -2 7 C-2 5.35 -2 3.7 -2 2 C-1.34 2 -0.68 2 0 2 C0 1.34 0 0.68 0 0 Z " fill="#2C2B2B" transform="translate(664,361)"/>
<path d="M0 0 C0.33 0.99 0.66 1.98 1 3 C1.99 3.33 2.98 3.66 4 4 C4.33 4.99 4.66 5.98 5 7 C3.02 7.99 3.02 7.99 1 9 C0.67 6.03 0.34 3.06 0 0 Z " fill="#2C2C2C" transform="translate(250,297)"/>
<path d="M0 0 C0.66 0 1.32 0 2 0 C2.33 1.98 2.66 3.96 3 6 C2.01 6.66 1.02 7.32 0 8 C0 5.36 0 2.72 0 0 Z " fill="#424242" transform="translate(662,263)"/>
<path d="M0 0 C-3.8503105 2.56687367 -5.58569763 1.83288724 -10 1 C-6.42181037 -1.33958553 -4.07775191 -0.9267618 0 0 Z " fill="#444444" transform="translate(720,939)"/>
<path d="M0 0 C2 1.1875 2 1.1875 4 3 C4.25 5.6875 4.25 5.6875 4 8 C3.34 8 2.68 8 2 8 C2 7.01 2 6.02 2 5 C1.34 5 0.68 5 0 5 C0 3.35 0 1.7 0 0 Z " fill="#131313" transform="translate(346,637)"/>
<path d="M0 0 C0.66 0 1.32 0 2 0 C3.2380014 3.57644848 2.74926071 6.33694766 2 10 C-0.09350689 6.5980513 -0.17942163 3.94727588 0 0 Z " fill="#4B4B4B" transform="translate(902,563)"/>
<path d="M0 0 C1.98 0.495 1.98 0.495 4 1 C3.34 1 2.68 1 2 1 C2 3.64 2 6.28 2 9 C-0.37783838 6.62216162 -0.59009208 5.27926335 -1 2 C-0.67 1.34 -0.34 0.68 0 0 Z " fill="#474747" transform="translate(282,417)"/>
<path d="M0 0 C0.66 0.99 1.32 1.98 2 3 C0.25 6.875 0.25 6.875 -2 8 C-2 5.69 -2 3.38 -2 1 C-1.34 0.67 -0.68 0.34 0 0 Z " fill="#090909" transform="translate(277,393)"/>
<path d="M0 0 C2.46278801 2.46278801 2.99771255 4.70676982 4 8 C3.01 8.33 2.02 8.66 1 9 C0.67 6.03 0.34 3.06 0 0 Z " fill="#080808" transform="translate(661,387)"/>
<path d="M0 0 C0.928125 0.20625 1.85625 0.4125 2.8125 0.625 C2.8125 1.285 2.8125 1.945 2.8125 2.625 C-0.1575 2.295 -3.1275 1.965 -6.1875 1.625 C-3.1875 -0.375 -3.1875 -0.375 0 0 Z " fill="#282828" transform="translate(610.1875,948.375)"/>
<path d="M0 0 C2.64 1.32 5.28 2.64 8 4 C5.45297384 5.27351308 4.5717055 4.80191925 1.875 4.0625 C1.15054687 3.86785156 0.42609375 3.67320312 -0.3203125 3.47265625 C-0.87460937 3.31667969 -1.42890625 3.16070313 -2 3 C-1.34 2.67 -0.68 2.34 0 2 C0 1.34 0 0.68 0 0 Z " fill="#6F6F6F" transform="translate(445,934)"/>
<path d="M0 0 C1.32 0.33 2.64 0.66 4 1 C3.67 1.99 3.34 2.98 3 4 C1.35 4 -0.3 4 -2 4 C-1.34 2.68 -0.68 1.36 0 0 Z " fill="#090909" transform="translate(871,809)"/>
<path d="M0 0 C0.99 0 1.98 0 3 0 C3.33 1.65 3.66 3.3 4 5 C3.01 5 2.02 5 1 5 C0.67 3.35 0.34 1.7 0 0 Z M4 1 C4.66 1 5.32 1 6 1 C5.67 1.66 5.34 2.32 5 3 C4.67 2.34 4.34 1.68 4 1 Z " fill="#5F5F5F" transform="translate(305,490)"/>
<path d="M0 0 C0.66 0 1.32 0 2 0 C2.33 1.98 2.66 3.96 3 6 C2.01 6.495 2.01 6.495 1 7 C0.67 6.01 0.34 5.02 0 4 C-0.66 3.34 -1.32 2.68 -2 2 C-1.34 1.34 -0.68 0.68 0 0 Z " fill="#010101" transform="translate(292,441)"/>
<path d="M0 0 C0.99 1.32 1.98 2.64 3 4 C2.01 5.485 2.01 5.485 1 7 C0.34 6.67 -0.32 6.34 -1 6 C-1.042721 4.33388095 -1.04063832 2.66617115 -1 1 C-0.67 0.67 -0.34 0.34 0 0 Z " fill="#262626" transform="translate(663,406)"/>
</svg>
