<svg width="194" height="322" viewBox="0 0 194 322" fill="none" xmlns="http://www.w3.org/2000/svg">
<path d="M30.6046 320.027C-58.5367 320.027 -131 248.501 -131 160.513C-131 72.5256 -58.5367 1 30.6046 1C119.746 1 192.209 72.5256 192.209 160.513C192.209 248.501 119.746 320.027 30.6046 320.027ZM30.6046 3.04359C-57.3865 3.04359 -128.93 73.6609 -128.93 160.513C-128.93 247.366 -57.3865 317.983 30.6046 317.983C118.596 317.983 190.139 247.366 190.139 160.513C190.139 73.6609 118.596 3.04359 30.6046 3.04359Z" fill="#7F8CC0" stroke="#7F8CC0" stroke-width="2"/>
<path d="M30.6045 300.84C-47.7248 300.84 -111.562 237.943 -111.562 160.513C-111.562 83.1977 -47.8398 20.187 30.6045 20.187C109.049 20.187 172.771 83.0841 172.771 160.513C172.771 237.943 108.934 300.84 30.6045 300.84ZM30.6045 22.2306C-46.5746 22.2306 -109.491 84.2195 -109.491 160.513C-109.491 236.694 -46.6896 298.796 30.6045 298.796C107.899 298.796 170.7 236.807 170.7 160.513C170.7 84.333 107.784 22.2306 30.6045 22.2306Z" fill="#7F8CC0" stroke="#7F8CC0" stroke-width="2"/>
<path d="M30.6046 281.653C-37.0277 281.653 -92.0078 227.271 -92.0078 160.514C-92.0078 93.7564 -37.0277 39.4878 30.6046 39.4878C98.237 39.4878 153.217 93.7564 153.217 160.514C153.217 227.271 98.237 281.653 30.6046 281.653ZM30.6046 41.5314C-35.8775 41.5314 -89.9374 94.8918 -89.9374 160.514C-89.9374 226.136 -35.8775 279.496 30.6046 279.496C97.0868 279.496 151.147 226.136 151.147 160.514C151.147 94.8918 97.0868 41.5314 30.6046 41.5314Z" fill="#7F8CC0" stroke="#7F8CC0" stroke-width="2"/>
<path d="M30.6046 262.352C-26.3309 262.352 -72.5693 216.712 -72.5693 160.513C-72.5693 104.314 -26.3309 58.6743 30.6046 58.6743C87.54 58.6743 133.778 104.314 133.778 160.513C133.778 216.712 87.54 262.352 30.6046 262.352ZM30.6046 60.7179C-25.1807 60.7179 -70.499 105.45 -70.499 160.513C-70.499 215.577 -25.1807 260.308 30.6046 260.308C86.3898 260.308 131.708 215.577 131.708 160.513C131.708 105.45 86.3898 60.7179 30.6046 60.7179Z" fill="#7F8CC0" stroke="#7F8CC0" stroke-width="2"/>
<path d="M30.6045 243.165C-15.519 243.165 -53.1309 206.154 -53.1309 160.514C-53.1309 114.873 -15.634 77.8618 30.6045 77.8618C76.8429 77.8618 114.34 114.873 114.34 160.514C114.34 206.154 76.7279 243.165 30.6045 243.165ZM30.6045 80.0189C-14.3688 80.0189 -51.0605 116.122 -51.0605 160.627C-51.0605 205.132 -14.4838 241.235 30.6045 241.235C75.6927 241.235 112.269 205.132 112.269 160.627C112.269 116.122 75.5777 80.0189 30.6045 80.0189Z" fill="#7F8CC0" stroke="#7F8CC0" stroke-width="2"/>
<path d="M30.6046 223.865C-4.82188 223.865 -33.5771 195.481 -33.5771 160.513C-33.5771 125.545 -4.82188 97.1621 30.6046 97.1621C66.0311 97.1621 94.7863 125.545 94.7863 160.513C94.7863 195.481 66.0311 223.865 30.6046 223.865ZM30.6046 99.2057C-3.67167 99.2057 -31.5068 126.681 -31.5068 160.513C-31.5068 194.346 -3.67167 221.821 30.6046 221.821C64.8809 221.821 92.716 194.346 92.716 160.513C92.716 126.681 64.8809 99.2057 30.6046 99.2057Z" fill="#7F8CC0" stroke="#7F8CC0" stroke-width="2"/>
<path d="M30.6045 204.678C5.99002 204.678 -14.1387 184.923 -14.1387 160.513C-14.1387 136.104 5.875 116.349 30.6045 116.349C55.3341 116.349 75.3477 136.104 75.3477 160.513C75.3477 184.923 55.219 204.678 30.6045 204.678ZM30.6045 118.393C7.14024 118.393 -12.0683 137.239 -12.0683 160.513C-12.0683 183.788 7.02521 202.634 30.6045 202.634C54.1838 202.634 73.2773 183.788 73.2773 160.513C73.2773 137.239 54.1838 118.393 30.6045 118.393Z" fill="#7F8CC0" stroke="#7F8CC0" stroke-width="2"/>
<path d="M30.6044 185.491C16.6869 185.491 5.2998 174.364 5.2998 160.513C5.2998 146.662 16.5719 135.536 30.6044 135.536C44.637 135.536 55.9091 146.662 55.9091 160.513C55.9091 174.364 44.522 185.491 30.6044 185.491ZM30.6044 137.693C17.8371 137.693 7.4852 147.911 7.4852 160.513C7.4852 173.115 17.8371 183.333 30.6044 183.333C43.3718 183.333 53.7237 173.115 53.7237 160.513C53.7237 147.911 43.3718 137.693 30.6044 137.693Z" fill="#7F8CC0" stroke="#7F8CC0" stroke-width="2"/>
</svg>
