<svg width="217" height="413" viewBox="0 0 217 413" fill="none" xmlns="http://www.w3.org/2000/svg">
<path d="M140.323 35.9637C148.865 40.0811 159.236 37.1401 164.117 28.9053C168.388 20.6705 165.337 10.6711 156.796 5.96548C153.745 4.78908 150.695 3.61269 147.644 4.20089C143.984 5.37729 140.933 6.55368 137.883 7.73008C136.052 8.90648 134.222 10.6711 133.002 13.0239C128.731 21.8469 131.782 31.8463 140.323 35.9637Z" fill="#DBB8BF"/>
<path d="M132.392 85.309C136.663 77.0742 133.612 67.0748 125.071 62.3692C116.529 58.2518 106.158 61.1928 101.277 69.4276C97.0062 77.6625 100.057 87.6619 108.598 92.3675C117.139 97.0731 128.121 93.5439 132.392 85.309Z" fill="#DBB8BF"/>
<path d="M100.667 142.364C104.938 134.129 101.888 124.13 93.3461 119.424C84.8047 115.307 74.4331 118.248 69.5523 126.483C65.2816 134.718 68.3321 144.717 76.8735 149.423C86.0249 153.54 96.3966 150.599 100.667 142.364Z" fill="#DBB8BF"/>
<path d="M68.9403 199.42C73.211 191.185 70.1605 181.186 61.6191 176.48C53.0777 172.363 42.706 175.304 37.8252 183.538C33.5545 191.773 36.605 201.773 45.1464 206.478C54.2979 210.596 64.6696 207.655 68.9403 199.42Z" fill="#DBB8BF"/>
<path d="M37.8257 255.887C42.0964 247.652 39.0459 237.652 30.5045 232.947C21.9631 228.829 11.5915 231.77 6.71066 240.005C5.49047 242.358 4.88037 244.711 4.88037 246.475C5.49047 250.005 6.71065 252.946 7.32075 256.475C9.15105 258.828 10.9814 261.18 14.0319 262.357C22.5732 267.062 32.9449 264.121 37.8257 255.887Z" fill="#DBB8BF"/>
<path d="M95.7857 30.6691C95.7857 30.0809 96.3958 29.4927 96.3958 29.4927C91.515 32.4337 86.6342 35.9629 81.7534 39.4921C87.2443 38.9039 92.7352 35.9629 95.7857 30.6691Z" fill="#DBB8BF"/>
<path d="M40.2663 93.5434C48.8077 97.6608 59.1794 94.7199 64.0601 86.4851C68.3308 78.2502 65.2803 68.2508 56.739 63.5452C56.1289 62.957 55.5188 62.957 54.9087 62.957C47.5875 71.1918 40.8764 79.4266 34.7754 88.8378C35.9956 90.6024 38.436 92.367 40.2663 93.5434Z" fill="#DBB8BF"/>
<path d="M9.15063 150.6C17.692 154.717 28.0637 151.776 32.9445 143.541C37.2152 135.307 34.1647 125.307 25.6233 120.601C23.1829 119.425 20.7425 118.837 18.3021 118.837C14.0314 128.836 10.3708 138.836 7.32031 149.423C7.93041 150.012 8.54053 150.012 9.15063 150.6Z" fill="#DBB8BF"/>
<path d="M0.610089 184.714C-9.31846e-06 190.596 0 196.478 0 201.772C0 201.184 0.610089 200.596 0.610089 200.596C3.66058 195.302 3.66058 189.42 0.610089 184.714Z" fill="#DBB8BF"/>
<path d="M211.093 345.882C206.823 354.117 209.873 364.116 218.414 368.822C226.956 372.939 237.328 369.998 242.208 361.764C246.479 353.529 243.429 343.529 234.887 338.824C225.736 334.706 215.364 337.647 211.093 345.882Z" fill="#DBB8BF"/>
<path d="M202.553 395.879C194.011 391.762 183.64 394.703 178.759 402.937C177.539 404.702 176.929 407.055 176.929 408.819C188.521 411.172 200.112 411.76 211.704 412.349C212.314 405.29 209.264 398.82 202.553 395.879Z" fill="#DBB8BF"/>
<path d="M236.108 248.829C240.378 240.594 237.328 230.595 228.787 225.889C220.245 221.772 209.873 224.713 204.993 232.948C200.722 241.182 203.772 251.182 212.314 255.887C221.465 260.005 231.837 257.064 236.108 248.829Z" fill="#DBB8BF"/>
<path d="M173.878 290.003C169.608 298.238 172.658 308.237 181.2 312.943C189.741 317.06 200.113 314.119 204.993 305.884C209.264 297.649 206.214 287.65 197.672 282.944C189.131 278.827 178.759 281.768 173.878 290.003Z" fill="#DBB8BF"/>
<path d="M142.763 347.058C138.493 355.293 141.543 365.292 150.084 369.998C158.626 374.115 168.997 371.174 173.878 362.939C178.149 354.705 175.098 344.705 166.557 340C157.406 335.882 147.034 338.823 142.763 347.058Z" fill="#DBB8BF"/>
<path d="M231.227 136.482C235.498 128.248 232.448 118.248 223.906 113.543C215.365 109.425 204.993 112.366 200.112 120.601C195.842 128.836 198.892 138.835 207.434 143.541C215.975 147.658 226.347 144.717 231.227 136.482Z" fill="#DBB8BF"/>
<path d="M199.502 193.538C203.773 185.303 200.722 175.304 192.181 170.598C183.64 166.481 173.268 169.422 168.387 177.657C164.117 185.891 167.167 195.891 175.708 200.596C184.25 204.714 195.232 201.773 199.502 193.538Z" fill="#DBB8BF"/>
<path d="M167.778 250.005C172.048 241.77 168.998 231.771 160.456 227.065C151.915 222.948 141.543 225.889 136.663 234.123C132.392 242.358 135.442 252.358 143.984 257.063C153.135 261.769 163.507 258.24 167.778 250.005Z" fill="#DBB8BF"/>
<path d="M136.661 307.061C140.932 298.826 137.882 288.827 129.34 284.121C120.799 280.004 110.427 282.945 105.546 291.18C101.276 299.414 104.326 309.414 112.868 314.119C121.409 318.237 131.781 315.296 136.661 307.061Z" fill="#DBB8BF"/>
<path d="M104.937 364.117C109.207 355.882 106.157 345.882 97.6156 341.177C89.0743 337.059 78.7026 340 73.8218 348.235C71.9915 351.764 71.3814 355.294 71.9915 358.823C77.4824 363.528 84.1935 368.822 90.2944 372.94C96.3954 372.351 101.886 369.41 104.937 364.117Z" fill="#DBB8BF"/>
<path d="M225.736 24.7876C230.007 16.5528 226.956 6.55334 218.415 1.84773C209.874 -2.26967 199.502 0.671335 194.621 8.90615C190.35 17.141 193.401 27.1404 201.942 31.846C211.094 35.9634 221.465 33.0224 225.736 24.7876Z" fill="#DBB8BF"/>
<path d="M194.622 81.1914C198.893 72.9566 195.843 62.9572 187.301 58.2515C178.76 54.1341 168.388 57.0751 163.507 65.3099C159.237 73.5447 162.287 83.5442 170.829 88.2498C179.37 92.3672 189.742 89.4262 194.622 81.1914Z" fill="#DBB8BF"/>
<path d="M162.896 137.658C167.167 129.423 164.116 119.424 155.575 114.718C147.033 110.601 136.662 113.542 131.781 121.777C127.51 130.012 130.561 140.011 139.102 144.717C147.643 148.834 158.015 145.893 162.896 137.658Z" fill="#DBB8BF"/>
<path d="M131.171 194.715C135.442 186.48 132.391 176.481 123.85 171.775C115.309 167.658 104.937 170.599 100.056 178.834C95.7855 187.069 98.836 197.068 107.377 201.774C115.919 205.891 126.901 202.95 131.171 194.715Z" fill="#DBB8BF"/>
<path d="M99.4466 251.77C103.717 243.536 100.667 233.536 92.1254 228.831C83.584 224.713 73.2124 227.654 68.3316 235.889C64.0609 244.124 67.1114 254.123 75.6528 258.829C84.1941 262.946 95.1759 259.417 99.4466 251.77Z" fill="#DBB8BF"/>
<path d="M67.721 308.237C71.9917 300.002 68.9412 290.003 60.3998 285.297C51.8584 281.18 41.4868 284.121 36.606 292.356C32.3353 300.591 35.3858 310.59 43.9271 315.296C53.0786 319.413 63.4503 316.472 67.721 308.237Z" fill="#DBB8BF"/>
</svg>
