<?xml version="1.0" encoding="UTF-8"?>
<svg version="1.1" xmlns="http://www.w3.org/2000/svg" width="160" height="104">
<path d="M0 0 C7 0 7 0 8.77734375 1.53125 C9.16019531 2.1809375 9.54304688 2.830625 9.9375 3.5 C10.33839844 4.1496875 10.73929688 4.799375 11.15234375 5.46875 C11.43207031 5.9740625 11.71179688 6.479375 12 7 C12.61875 6.21625 13.2375 5.4325 13.875 4.625 C16 2 16 2 18 0 C19.98 0 21.96 0 24 0 C24 6.93 24 13.86 24 21 C21.69 21 19.38 21 17 21 C16.67 19.02 16.34 17.04 16 15 C15.67 15.66 15.34 16.32 15 17 C13.33388095 17.042721 11.66617115 17.04063832 10 17 C9.67 16.67 9.34 16.34 9 16 C8.67 17.65 8.34 19.3 8 21 C5.36 21 2.72 21 0 21 C0 14.07 0 7.14 0 0 Z " fill="#FDFDF8" transform="translate(58,32)"/>
<path d="M0 0 C13.53 0 27.06 0 41 0 C41 2.97 41 5.94 41 9 C27.47 9 13.94 9 0 9 C0 6.03 0 3.06 0 0 Z " fill="#FEFDF8" transform="translate(36,57)"/>
<path d="M0 0 C13.53 0 27.06 0 41 0 C41 2.97 41 5.94 41 9 C27.47 9 13.94 9 0 9 C0 6.03 0 3.06 0 0 Z " fill="#FEFDF8" transform="translate(87,39)"/>
<path d="M0 0 C2.31 0 4.62 0 7 0 C9.4375 2.5 9.4375 2.5 11 5 C11.33 3.35 11.66 1.7 12 0 C14.64 0 17.28 0 20 0 C20 6.6 20 13.2 20 20 C17.69 20 15.38 20 13 20 C10.5625 17.5 10.5625 17.5 9 15 C8.67 16.65 8.34 18.3 8 20 C5.36 20 2.72 20 0 20 C0 13.4 0 6.8 0 0 Z " fill="#FDFDF8" transform="translate(107,53)"/>
<path d="M0 0 C3.00197464 1.80118478 4.45166366 2.90332732 6 6 C6.37712577 10.99691647 6.09290612 13.99067725 3 18 C-1.48368726 20.98912484 -5.74840544 20.70320497 -11 20 C-14.17954516 18.75477889 -14.82559551 17.87961676 -17 15 C-18.07208285 10.33179672 -17.6627024 7.06032385 -15.125 3 C-10.76292586 -1.10548155 -5.72919175 -0.6200424 0 0 Z M-6 6 C-6.99 6.66 -7.98 7.32 -9 8 C-8.67 9.65 -8.34 11.3 -8 13 C-7.01 13.33 -6.02 13.66 -5 14 C-4.01 13.34 -3.02 12.68 -2 12 C-2.33 10.35 -2.66 8.7 -3 7 C-3.99 6.67 -4.98 6.34 -6 6 Z " fill="#FEFDF8" transform="translate(99,53)"/>
<path d="M0 0 C3.05887297 2.24733524 4.55717008 3.73963792 5.8125 7.3125 C5.874375 7.869375 5.93625 8.42625 6 9 C1.48382401 9.07654536 -2.59085217 9.10228696 -7 8 C-7 9.65 -7 11.3 -7 13 C-6.34 12.835 -5.68 12.67 -5 12.5 C-1.26900206 11.87816701 2.21873378 11.93591074 6 12 C4.82347675 16.41196217 3.95453342 18.64528658 0 21 C-4.85723364 21.87667144 -8.83334278 21.71427993 -13.0625 19.125 C-16.08881777 15.80581276 -16.27969296 13.52476034 -16.22265625 9.03515625 C-15.90143435 6.09907538 -14.81916075 4.29079502 -13 2 C-8.7659782 -0.8226812 -4.97182497 -0.785025 0 0 Z " fill="#FEFDF8" transform="translate(51,32)"/>
<path d="M0 0 C2.64 0 5.28 0 8 0 C9.17192435 3.12305373 10.33663876 6.24874739 11.5 9.375 C11.83386719 10.26445313 12.16773437 11.15390625 12.51171875 12.0703125 C12.82753906 12.92109375 13.14335938 13.771875 13.46875 14.6484375 C13.90864258 15.82672119 13.90864258 15.82672119 14.35742188 17.02880859 C15 19 15 19 15 21 C12.36 21 9.72 21 7 21 C7 20.34 7 19.68 7 19 C5.02 19 3.04 19 1 19 C1 19.66 1 20.32 1 21 C-1.64 21 -4.28 21 -7 21 C-5.62820313 13.51747162 -3.07836721 6.94395046 0 0 Z M3 10 C3 10.99 3 11.98 3 13 C3.66 12.67 4.32 12.34 5 12 C4.34 11.34 3.68 10.68 3 10 Z " fill="#FDFDF8" transform="translate(21,32)"/>
<path d="M0 0 C4.95 0 9.9 0 15 0 C15 1.98 15 3.96 15 6 C14.67 6.33 14.34 6.66 14 7 C13.83333333 10 13.83333333 10 14 13 C14.33 13.33 14.66 13.66 15 14 C15 15.98 15 17.96 15 20 C10.05 20 5.1 20 0 20 C0 13.4 0 6.8 0 0 Z " fill="#FDFCF8" transform="translate(130,53)"/>
</svg>
