<?xml version="1.0" encoding="UTF-8"?>
<svg version="1.1" xmlns="http://www.w3.org/2000/svg" width="603" height="920">
<path d="M0 0 C14.75034946 -1.31805179 26.24481784 1.92494848 39.89941406 7.28466797 C47.46529087 10.2076329 55.14928192 12.65337543 62.92114258 14.97143555 C63.61970682 15.18160435 64.31827106 15.39177315 65.03800392 15.6083107 C80.70679741 20.31903227 96.48835732 24.60211226 112.28646851 28.85412598 C138.97364271 36.04174052 165.5897097 43.32987097 191.76489258 52.23706055 C192.83255859 52.59622559 193.90022461 52.95539062 195.00024414 53.32543945 C230.6142857 65.4019941 263.07998152 81.57672632 290.76489258 107.23706055 C291.6543457 108.02790039 291.6543457 108.02790039 292.56176758 108.8347168 C306.14299231 121.47819029 315.67323989 138.93557663 321.76489258 156.23706055 C321.99450684 156.88771484 322.22412109 157.53836914 322.46069336 158.20874023 C346.14694442 227.18499959 315.97319844 304.60086537 289.50024414 368.27905273 C279.84109615 391.54919652 273.4582268 415.14652597 270.76489258 440.23706055 C270.65274414 441.24381836 270.5405957 442.25057617 270.42504883 443.2878418 C267.37553501 476.83249379 271.44065599 510.33201003 277.76489258 543.23706055 C277.93585449 544.12973633 278.10681641 545.02241211 278.28295898 545.94213867 C279.0756514 550.04800549 279.8959191 554.14652686 280.76489258 558.23706055 C282.74489258 558.56706055 284.72489258 558.89706055 286.76489258 559.23706055 C286.83780518 560.12748047 286.91071777 561.01790039 286.98583984 561.93530273 C289.47029511 589.6137146 297.01238527 614.29337273 306.76489258 640.23706055 C306.61788658 639.01462898 306.61788658 639.01462898 306.46791077 637.76750183 C305.53952811 630.04513929 304.61267565 622.3225953 303.68749332 614.59984875 C303.2119245 610.63059337 302.73578753 606.66140796 302.25830078 602.69238281 C301.79655942 598.85405503 301.33637755 595.01554307 300.87722588 591.17690468 C300.70276576 589.72060957 300.52776652 588.26437893 300.35219002 586.808218 C299.36609375 578.62668797 298.46396639 570.44884765 297.76489258 562.23706055 C301.06489258 562.89706055 304.36489258 563.55706055 307.76489258 564.23706055 C307.92696198 565.61498276 308.08903137 566.99290497 308.25601196 568.4125824 C309.79359185 581.46299741 311.35171517 594.51082559 312.93013954 607.55636501 C313.74091025 614.26162822 314.54457451 620.96759317 315.33081055 627.67578125 C316.0917693 634.1618559 316.87200293 640.64535786 317.66508102 647.12758064 C317.96282406 649.58840509 318.25386993 652.05005035 318.53776932 654.5125103 C320.15708121 668.51546048 322.31149498 681.2090603 327.76489258 694.23706055 C328.20201569 695.34661606 328.63913879 696.45617157 329.08950806 697.59934998 C330.24196261 700.51345283 331.43158374 703.40825011 332.63989258 706.29956055 C333.04208008 707.2721582 333.44426758 708.24475586 333.85864258 709.24682617 C334.82349632 711.57855604 335.79218276 713.90859987 336.76489258 716.23706055 C335.62342818 706.42404834 334.4767402 696.61165201 333.32739258 686.79956055 C333.24007874 686.05380768 333.15276489 685.30805481 333.06280518 684.53970337 C330.83950327 665.555752 328.57678582 646.57723505 326.22973633 627.6081543 C326.12602785 626.76964998 326.02231937 625.93114567 325.91546822 625.06723213 C324.90055087 616.86517491 323.88149185 608.66364542 322.85517979 600.46300602 C322.47534341 597.42496185 322.09729695 594.38669649 321.71956062 591.34839058 C321.45912112 589.25977073 321.19596589 587.17150487 320.932724 585.08323669 C320.77808182 583.83913528 320.62343964 582.59503387 320.46411133 581.31323242 C320.32835693 580.23037964 320.19260254 579.14752686 320.05273438 578.03186035 C319.76489258 575.23706055 319.76489258 575.23706055 319.76489258 571.23706055 C321.43789216 571.8876715 323.10348495 572.55739379 324.76489258 573.23706055 C325.45838271 573.49512387 326.15187284 573.7531872 326.86637783 574.01907063 C328.76489258 575.23706055 328.76489258 575.23706055 329.52340031 577.26928234 C329.64475062 578.12088593 329.76610094 578.97248953 329.89112854 579.84989929 C330.03865129 580.8442568 330.18617405 581.83861431 330.33816719 582.86310387 C330.47898657 583.97650957 330.61980595 585.08991528 330.76489258 586.23706055 C330.92096418 587.4267576 331.07703579 588.61645466 331.23783684 589.84220314 C331.76643847 594.03593471 332.25885911 598.23284707 332.74511719 602.43164062 C332.93406406 604.03978536 333.12341689 605.64788243 333.31314087 607.25593567 C333.61527765 609.81752276 333.91710887 612.3791428 334.21768272 614.9409138 C334.9650386 621.30979682 335.72492348 627.67709807 336.49208069 634.04362488 C336.66026343 635.43950599 336.66026343 635.43950599 336.83184379 636.86358672 C337.29418718 640.69895141 337.75693795 644.53426684 338.21987522 648.36955988 C339.52395046 659.17771803 340.81637412 669.98696546 342.07275391 680.80078125 C343.07486669 689.42536278 344.10352881 698.04633787 345.16156775 706.66424292 C345.71792668 711.20369168 346.26213159 715.74374917 346.7738781 720.28846169 C349.21068581 741.84605996 353.15899089 760.79765315 361.4650898 780.88838768 C372.37191257 808.98755937 382.7975753 848.10530239 370.76489258 877.23706055 C363.2415676 894.19164307 349.67481576 903.99983498 332.84692383 910.7409668 C314.26075884 917.75868683 293.5139281 919.72365408 273.76489258 920.23706055 C272.96696289 920.25897461 272.1690332 920.28088867 271.34692383 920.3034668 C199.35537946 921.95717762 125.61553152 907.75534371 55.69458008 892.1550293 C54.5682164 891.90385345 53.44185272 891.65267761 52.28135681 891.39389038 C46.99482993 890.20916456 41.71412063 889.00390714 36.43994141 887.76538086 C26.29050114 885.41799645 16.36694059 883.61723072 5.960495 882.89952087 C-7.25371604 881.95517787 -20.3349889 877.9972243 -32.23510742 872.23706055 C-33.39010742 871.6853418 -34.54510742 871.13362305 -35.73510742 870.56518555 C-51.10736916 862.94379703 -63.97018066 852.10298686 -76.23510742 840.23706055 C-76.90928711 839.6028418 -77.5834668 838.96862305 -78.27807617 838.31518555 C-83.41988278 833.37340345 -87.86040601 827.85654491 -92.23510742 822.23706055 C-92.73929199 821.59285156 -93.24347656 820.94864258 -93.76293945 820.28491211 C-123.89287637 781.47560658 -144.37242948 735.48717742 -160.23510742 689.23706055 C-160.59252014 688.19769348 -160.59252014 688.19769348 -160.95715332 687.1373291 C-188.10497714 607.99322666 -204.3008999 524.71940204 -212.0222168 441.48522949 C-212.23437128 439.24483437 -212.45955525 437.00609818 -212.68823242 434.76733398 C-217.3030229 389.0841237 -218.16459194 340.82178053 -212.23510742 295.23706055 C-212.060808 293.82181381 -211.88749919 292.40644479 -211.71508789 290.9909668 C-205.32444737 239.03121164 -192.65589212 188.10398468 -171.23510742 140.23706055 C-170.8823877 139.43526367 -170.52966797 138.6334668 -170.16625977 137.80737305 C-162.32408974 120.02502829 -152.49030057 103.07442409 -141.23510742 87.23706055 C-140.77136719 86.58398926 -140.30762695 85.93091797 -139.82983398 85.25805664 C-132.92029021 75.6137736 -125.4966341 66.74277028 -117.23510742 58.23706055 C-116.6859668 57.66213867 -116.13682617 57.0872168 -115.57104492 56.49487305 C-107.37464592 47.92420925 -98.88352007 40.14658536 -89.23510742 33.23706055 C-88.60830078 32.78766113 -87.98149414 32.33826172 -87.33569336 31.87524414 C-61.21812822 13.45968233 -31.62554778 3.3542771 0 0 Z " fill="#DAB7BF" transform="translate(215.235107421875,-0.237060546875)"/>
<path d="M0 0 C2.97 0 5.94 0 9 0 C9.11275269 0.97102661 9.11275269 0.97102661 9.2277832 1.96166992 C10.52925302 13.11810923 11.84806396 24.26436266 13.5 35.375 C14.82695956 44.34875763 15.83739495 53.34223858 16.8046875 62.36108398 C17.73444921 70.90686412 18.8334108 79.42106836 20 87.9375 C21.51090013 98.97891273 22.78628612 110.02591436 23.92797852 121.11108398 C24.62356 127.76731441 25.43585641 134.3832642 26.4375 141 C28.01552513 151.42754811 29.1262995 161.89917759 30.25695801 172.38247681 C31.3319313 182.33111087 32.5467268 192.22871337 34.05981445 202.12182617 C35.23450038 210.05323269 35.69568152 217.99327595 36 226 C32.91190305 227.76462683 31.76687864 228 28 228 C18.17043531 151.24327513 18.17043531 151.24327513 14.74008179 120.69088745 C11.64919427 93.24081482 8.1416806 65.84081633 4.69360352 38.43383789 C4.5745956 37.48751558 4.45558769 36.54119328 4.33297348 35.56619453 C3.76879024 31.08035142 3.2038857 26.59460227 2.63723755 22.10906982 C2.43416933 20.4976011 2.23111478 18.88613066 2.02807617 17.2746582 C1.9382248 16.56571694 1.84837343 15.85677568 1.75579929 15.12635136 C1.12205114 10.08919471 0.5521456 5.04676583 0 0 Z " fill="#828DBF" transform="translate(472,558)"/>
<path d="M0 0 C6.75 -0.125 6.75 -0.125 9 1 C9.44810486 2.86799622 9.44810486 2.86799622 9.73022461 5.35083008 C9.84062073 6.2824144 9.95101685 7.21399872 10.0647583 8.17381287 C10.1761615 9.19539993 10.2875647 10.216987 10.40234375 11.26953125 C10.58576324 12.85260826 10.58576324 12.85260826 10.77288818 14.46766663 C11.16996933 17.91499412 11.55380964 21.3636587 11.9375 24.8125 C12.20668702 27.17017052 12.47662543 29.52775536 12.74731445 31.88525391 C14.24319862 44.97334703 15.67056665 58.06813061 17.02929688 71.17114258 C17.77916456 78.2898939 18.73530095 85.35626029 19.80541992 92.43310547 C21.10618644 101.26219469 22.0400724 110.1288708 23 119 C24.13861826 129.51927088 25.34490069 140.0032691 26.92578125 150.46704102 C28.13324851 158.58381311 28.99482496 166.73295351 29.87084961 174.89111328 C30.76944692 183.17049708 31.84523082 191.4126891 33.0090332 199.65844727 C33.90707702 206.09614371 34.60289339 212.50936096 35 219 C30.375 222 30.375 222 27 222 C24.18855035 200.96095149 21.38501347 179.92086521 18.625 158.875 C18.52835808 158.13858276 18.43171616 157.40216553 18.33214569 156.64343262 C15.32655361 133.7285305 12.4860474 110.80288187 9.93994141 87.83154297 C8.82505602 77.81636735 7.58683637 67.83942241 6.12348938 57.86898804 C4.79346597 48.74188543 3.69628006 39.59075647 2.63745117 30.42871094 C2.30692119 27.57686549 1.96904564 24.72594659 1.63085938 21.875 C1.41622914 20.03390512 1.20202011 18.19276108 0.98828125 16.3515625 C0.88832352 15.51299713 0.78836578 14.67443176 0.68537903 13.81045532 C0.15607133 9.17081112 -0.09893226 4.66975888 0 0 Z " fill="#818DBF" transform="translate(493,558)"/>
<path d="M0 0 C4.95 0.99 4.95 0.99 10 2 C12.19397265 19.54086141 14.38087266 37.0825989 16.5625 54.625 C16.72323124 55.9171492 16.88396248 57.2092984 17.04956436 58.54060364 C21.2043775 91.95291187 25.32938879 125.36417658 28.95727539 158.83837891 C29.19381764 161.01208299 29.43069949 163.18575015 29.66796875 165.359375 C29.77651688 166.35701874 29.885065 167.35466248 29.99690247 168.38253784 C30.84627538 176.01727969 31.89055828 183.61627385 33.07670593 191.20599365 C33.78059418 195.83103346 34.40113861 200.31171579 34 205 C29.28205128 209 29.28205128 209 26 209 C23.42710235 190.53621458 20.91445645 172.08795075 19.02197266 153.54003906 C18.26290451 146.18917601 17.30591258 138.89748489 16.19702148 131.59228516 C14.63428474 121.00051534 13.56444839 110.34532845 12.44555664 99.69921875 C12.36471832 98.94452301 12.28388 98.18982727 12.20059204 97.41226196 C12.05022011 96.00814825 11.90298004 94.60369315 11.75985718 93.19882202 C11.35493648 89.44141062 10.78484868 85.75770459 10.07495117 82.04541016 C8.6545601 74.43066659 7.77201253 66.74808188 6.8359375 59.0625 C6.63723879 57.44870275 6.43831097 55.83493368 6.23916626 54.22119141 C5.82543187 50.86303267 5.41383144 47.50462189 5.00390625 44.14599609 C4.47831467 39.84040479 3.94825363 35.53537815 3.41673851 31.23051453 C3.00697141 27.90905092 2.59905805 24.58736181 2.19176102 21.26559448 C1.99685398 19.67709692 1.80148098 18.08865646 1.60563278 16.50027466 C1.33341694 14.28946318 1.06358238 12.07837418 0.79443359 9.8671875 C0.64058197 8.61019043 0.48673035 7.35319336 0.32821655 6.05810547 C0 3 0 3 0 0 Z " fill="#808CBF" transform="translate(513,562)"/>
<path d="M0 0 C2.13757163 6.28022079 2.82201493 12.6435247 3.57640076 19.21530914 C3.83008041 21.42492482 4.09089471 23.63361053 4.35314941 25.84222412 C4.74235617 29.12701425 5.1284054 32.41215389 5.51202393 35.69760132 C6.58705162 44.89910294 7.68342876 54.09806931 8.78125 63.296875 C8.96123472 64.80691636 8.96123472 64.80691636 9.1448555 66.34746361 C11.34021169 84.74363934 13.62852771 103.12766404 15.94259501 121.50919414 C16.21814453 123.6983148 16.49348771 125.88746131 16.7687645 128.07661629 C18.50856313 141.91183114 20.25117093 155.74668238 22.00581002 169.58002365 C22.70995633 175.13334773 23.41061955 180.68710482 24.10879683 186.24118245 C24.51695054 189.48669954 24.9274818 192.73188738 25.34138489 195.97667694 C25.79540725 199.53687812 26.24336191 203.09779425 26.68994141 206.65893555 C26.82386354 207.69684203 26.95778568 208.73474852 27.09576607 209.80410671 C27.77141447 215.24672812 28.23617132 220.51412109 28 226 C27 227 27 227 23.9375 227.0625 C22.968125 227.041875 21.99875 227.02125 21 227 C18.0207368 213.04790968 16.52276034 198.98428327 15 184.8125 C14.50435354 180.23519204 14.0046328 175.65835734 13.5 171.08203125 C13.37661255 169.96297394 13.2532251 168.84391663 13.12609863 167.69094849 C12.26107088 159.98493416 11.22623647 152.31693316 10.09094238 144.64668274 C8.51151415 133.87423367 7.37836408 123.0514342 6.19775391 112.22949219 C5.00384883 101.32861977 3.6760573 90.46960751 2.08239746 79.61962891 C0.95006454 71.84019767 0.0591732 64.04589288 -0.76473999 56.22857666 C-1.98467741 44.6723242 -3.31907491 33.15840027 -5.05981445 21.66723633 C-6.08293252 14.79381525 -6.66155985 7.9438582 -7 1 C-4 0 -4 0 0 0 Z " fill="#818DBF" transform="translate(459,560)"/>
<path d="M0 0 C2.4111425 13.59846198 4.23452381 27.22673972 5.875 40.9375 C6.14075471 43.13056746 6.40679238 45.32360065 6.6730957 47.51660156 C7.85297802 57.26382736 9.01240402 67.01305102 10.11328125 76.76953125 C10.47070547 79.92976135 10.82867582 83.08992854 11.1875 86.25 C11.27800629 87.04765778 11.36851257 87.84531555 11.46176147 88.66714478 C14.28285545 113.37021529 17.58483275 138.01717318 20.80204582 162.67105675 C21.16280884 165.4356336 21.52325159 168.20025208 21.88366699 170.96487427 C22.32904576 174.38097298 22.77597583 177.79686317 23.22399902 181.21261597 C23.82535396 185.80723454 24.41583539 190.40316654 25 195 C25.09850376 195.76889305 25.19700752 196.5377861 25.29849625 197.32997894 C25.5884761 199.60978843 25.87113075 201.8903911 26.15161133 204.17138672 C26.23769244 204.84310976 26.32377356 205.5148328 26.41246319 206.20691109 C26.97156312 210.84471533 27.07039672 215.33906879 27 220 C24.69 220 22.38 220 20 220 C18.38068129 216.35487241 17.6128347 213.12457568 17.17797852 209.16601562 C17.04766739 208.01290894 16.91735626 206.85980225 16.78309631 205.67175293 C16.64971359 204.42913696 16.51633087 203.186521 16.37890625 201.90625 C16.15649341 199.92253167 15.9340771 197.93881373 15.71147823 195.95511627 C15.40089328 193.1716954 15.09673586 190.38758665 14.79260254 187.60345459 C14.1221085 181.47421428 13.43960024 175.34630607 12.75390625 169.21875 C12.67965109 168.55299454 12.60539593 167.88723907 12.52889061 167.2013092 C11.53560769 158.32257513 10.40654537 149.48033545 9.09179688 140.64404297 C7.6339904 130.74185113 6.55147978 120.79704573 5.43817139 110.85131836 C3.61902061 94.62289741 1.74564694 78.41854776 -0.59472656 62.25610352 C-2.2345416 50.75927401 -3.46912112 39.21903953 -4.69384766 27.671875 C-4.77396591 26.92474747 -4.85408417 26.17761993 -4.93663025 25.40785217 C-5.15452739 23.37169747 -5.36876594 21.3351522 -5.58276367 19.29858398 C-5.90379209 16.76059984 -6.34630277 14.45909651 -7 12 C-7.06624507 10.25113019 -7.08552595 8.49997252 -7.0625 6.75 C-7.05347656 5.85796875 -7.04445313 4.9659375 -7.03515625 4.046875 C-7.02355469 3.37140625 -7.01195312 2.6959375 -7 2 C-4.35261084 0.5393715 -3.10551666 0 0 0 Z " fill="#828DBF" transform="translate(440,566)"/>
<path d="M0 0 C0.06184479 0.55153244 0.12368958 1.10306488 0.18740845 1.67131042 C2.93537765 26.14268451 5.72719271 50.6008105 9.0625 75 C11.18817034 90.55286131 13.08069064 106.11586999 14.79949951 121.71878052 C16.59522493 137.97925895 18.69172344 154.18939046 20.9453125 170.39257812 C22.62562495 182.57102419 23.92378646 194.75351235 25 207 C22.03 206.01 19.06 205.02 16 204 C11.42884106 171.36991967 7.3375819 138.7012297 3.55445099 105.97165012 C3.10867414 102.11757806 2.66062944 98.26377339 2.2109375 94.41015625 C2.07908113 93.28006984 2.07908113 93.28006984 1.944561 92.1271534 C0.36004768 78.60139749 -1.41873706 65.10515419 -3.28543091 51.61561584 C-8.65114017 12.78538355 -8.65114017 12.78538355 -8 4 C-3.4 0 -3.4 0 0 0 Z " fill="#828DBF" transform="translate(422,575)"/>
<path d="M0 0 C1.67299959 0.65061095 3.33859237 1.32033324 5 2 C5.69359682 2.25776687 6.38719364 2.51553373 7.10180855 2.78111172 C9 4 9 4 9.75559807 6.04030704 C9.87620157 6.89398585 9.99680508 7.74766466 10.12106323 8.62721252 C10.26858913 9.62136736 10.41611504 10.61552219 10.56811142 11.63980293 C10.71063465 12.74866796 10.85315788 13.857533 11 15 C11.16116428 16.17729109 11.32232857 17.35458218 11.48837662 18.56754875 C12.03827197 22.6970798 12.55377406 26.82990874 13.06298828 30.96459961 C13.26006549 32.54595116 13.45740987 34.12726943 13.65499878 35.70855713 C14.18666932 39.97008076 14.71445436 44.23207706 15.24136972 48.49419093 C15.79460653 52.96484077 16.35101657 57.43509585 16.9069519 61.90541077 C17.83876173 69.40224582 18.76804458 76.89939081 19.69580078 84.39672852 C20.7683416 93.06384245 21.84486826 101.7304543 22.92351353 110.39681047 C23.96268868 118.74676344 24.99910197 127.09705696 26.03423691 135.44751167 C26.47432974 138.99737147 26.91538472 142.54710976 27.35721207 146.09675407 C27.87656517 150.27028249 28.39349997 154.44410347 28.90855789 158.61816406 C29.09798957 160.15014079 29.28825433 161.68201476 29.47940826 163.21377754 C29.73992907 165.30251921 29.99743984 167.39161057 30.25418091 169.4808197 C30.39907015 170.65011489 30.54395939 171.81941008 30.69323921 173.02413845 C31 176 31 176 31 180 C28.5625 182.125 28.5625 182.125 26 184 C25.67 184.66 25.34 185.32 25 186 C24.34 186 23.68 186 23 186 C19.74527168 163.0239104 16.68510554 140.03242344 13.85830665 116.999897 C13.36893683 113.01656188 12.87670885 109.03357959 12.38496399 105.05053711 C11.56547833 98.40925658 10.748217 91.76770538 9.93237305 85.12597656 C8.99080022 77.46095263 8.04540121 69.79640743 7.0981223 62.13208675 C6.17804927 54.68709656 5.26070434 47.24177264 4.34458351 39.79629517 C3.9575372 36.65114168 3.5695195 33.50611033 3.1807003 30.36117554 C2.7261795 26.68387914 2.27404007 23.00629766 1.82375908 19.32847977 C1.5797078 17.33983059 1.33326833 15.35147495 1.08676147 13.36312866 C0.9425325 12.18118927 0.79830353 10.99924988 0.64970398 9.78149414 C0.52345988 8.75528458 0.39721579 7.72907501 0.26714611 6.67176819 C0 4 0 4 0 0 Z " fill="#7F8CBF" transform="translate(535,571)"/>
<path d="M0 0 C3.48124364 24.55899852 6.65908679 49.13284886 9.43972778 73.78137207 C10.99444853 87.54488647 12.64658579 101.28203142 14.5625 115 C16.5125299 128.97829773 18.21657989 142.97685193 19.8125 157 C19.92377228 157.97018066 20.03504456 158.94036133 20.14968872 159.93994141 C20.46399584 162.68874324 20.77394326 165.43799488 21.08203125 168.1875 C21.17550842 169.00653809 21.2689856 169.82557617 21.36529541 170.66943359 C21.78450183 174.46767043 22.1126993 178.17110106 22 182 C20.686298 181.3566152 19.37407102 180.71021785 18.0625 180.0625 C16.96615234 179.52302734 16.96615234 179.52302734 15.84765625 178.97265625 C14 178 14 178 13 177 C12.5882877 174.4514051 12.23348854 171.9161261 11.9140625 169.35546875 C11.81260925 168.56698044 11.71115601 167.77849213 11.60662842 166.96611023 C11.2747797 164.3738072 10.94966296 161.78071205 10.625 159.1875 C10.39801495 157.39924296 10.1709638 155.6109943 9.94384766 153.82275391 C8.50026088 142.37969746 7.20200726 130.92940659 6.02392578 119.45581055 C5.24161125 111.93948792 4.25002524 104.47903623 3.12451172 97.00732422 C1.86739816 88.48615941 1.00834291 79.92986715 0.125 71.36328125 C-0.60584378 64.38220054 -1.45450519 57.4406397 -2.5 50.5 C-3.76911514 42.04175552 -4.76986482 33.56591937 -5.6875 25.0625 C-5.81898438 23.85851562 -5.95046875 22.65453125 -6.0859375 21.4140625 C-6.20582031 20.27839844 -6.32570313 19.14273438 -6.44921875 17.97265625 C-6.55580811 16.96468994 -6.66239746 15.95672363 -6.7722168 14.91821289 C-7.41965086 6.62370128 -7.41965086 6.62370128 -5.72265625 4.1015625 C-4.90087891 3.37066406 -4.90087891 3.37066406 -4.0625 2.625 C-3.51722656 2.12226562 -2.97195313 1.61953125 -2.41015625 1.1015625 C-1 0 -1 0 0 0 Z " fill="#828DBF" transform="translate(402,590)"/>
<path d="M0 0 C4.64528658 2.15133498 8.0674687 4.76175449 11 9 C12.31121091 13.03049686 12.65767454 17.06878836 13.04296875 21.27734375 C13.26629172 23.26281735 13.48974217 25.24827796 13.71595669 27.23342419 C13.9683801 29.48209285 14.20752775 31.73195274 14.44622803 33.9821167 C15.04434537 39.51515509 15.74036142 45.03468376 16.44384766 50.55517578 C16.57347837 51.57322989 16.70310909 52.59128399 16.83666801 53.64018822 C17.1053843 55.75027894 17.37413469 57.86036531 17.64291763 59.97044754 C18.46847178 66.48996957 19.26949968 73.01253442 20.07365608 79.53472328 C20.76716748 85.15728879 21.46377102 90.77942712 22.16821289 96.40063477 C22.86064543 101.92621429 23.54536562 107.45269707 24.22444725 112.97993279 C24.48211588 115.06666302 24.74248081 117.15306221 25.00564003 119.23910713 C25.36967591 122.12932905 25.72376695 125.020605 26.07543945 127.91235352 C26.23971939 129.18925049 26.23971939 129.18925049 26.40731812 130.49194336 C27.13592613 136.6127434 26.94658511 140.98030654 23.5625 146.3125 C22.91474609 147.35857422 22.91474609 147.35857422 22.25390625 148.42578125 C21.84011719 148.94527344 21.42632813 149.46476563 21 150 C20.34 150 19.68 150 19 150 C16.4808229 134.02698079 14.44023118 118.00433748 12.46495271 101.95619988 C12.02634663 98.39710545 11.58484946 94.8383695 11.14372253 91.27958679 C10.40669493 85.33039943 9.67153887 79.38098343 8.93774414 73.43139648 C7.995133 65.78878525 7.04954169 58.14654581 6.10298634 50.50442219 C5.28642697 43.9118268 4.4709691 37.31909525 3.65581679 30.72632575 C3.48127054 29.31475126 3.30668839 27.9031812 3.13207078 26.49161553 C2.56083799 21.87383718 1.99070578 17.2559241 1.42114258 12.63793945 C1.20379456 10.88109581 1.20379456 10.88109581 0.98205566 9.08876038 C0.85176468 8.03086304 0.72147369 6.9729657 0.5872345 5.88301086 C0.47314145 4.95861867 0.3590484 4.03422647 0.24149799 3.0818224 C0 1 0 1 0 0 Z " fill="#7F8CBF" transform="translate(557,587)"/>
<path d="M0 0 C0.66 0 1.32 0 2 0 C2.06993164 0.66080566 2.13986328 1.32161133 2.21191406 2.00244141 C3.61799721 15.19294809 5.14003976 28.35673156 6.9375 41.5 C8.53928709 53.22551026 9.93687924 64.96164438 11.24771118 76.72247314 C12.40971397 87.12708763 13.7023067 97.50263513 15.125 107.875 C16.72775033 119.5621072 18.01395921 131.24535579 19 143 C17.89134015 142.08877273 16.78827781 141.17073341 15.6875 140.25 C14.76517578 139.48429687 14.76517578 139.48429687 13.82421875 138.703125 C10.30478503 135.41731536 8.67604281 132.9875799 8.19140625 128.16015625 C8.08634766 127.19489014 7.98128906 126.22962402 7.87304688 125.23510742 C7.77056641 124.18814697 7.66808594 123.14118652 7.5625 122.0625 C7.31642252 119.78877737 7.067616 117.51534882 6.81640625 115.2421875 C6.68637207 114.05334961 6.55633789 112.86451172 6.42236328 111.63964844 C5.72612521 105.63992749 4.855939 99.66614097 4 93.6875 C2.47423529 82.88036014 1.19913904 72.06659063 0.07861328 61.21044922 C-0.92675275 51.50294372 -2.11016573 41.82433758 -3.3515625 32.14453125 C-6.24927276 9.44086563 -6.24927276 9.44086563 0 0 Z " fill="#828DBF" transform="translate(383,612)"/>
<path d="M0 0 C13.86278827 16.94797853 16.61137757 46.31073234 14.6171875 66.96484375 C13.88023574 73.15523856 12.81227396 79.03777097 11 85 C10.67 85 10.34 85 10 85 C7.4270352 66.28271521 4.89989766 47.55931799 2.52182007 28.81616211 C2.30025754 27.07407995 2.076991 25.3322136 1.85195923 23.59057617 C1.53563048 21.13781169 1.22592738 18.68429643 0.91796875 16.23046875 C0.82446136 15.51416794 0.73095398 14.79786713 0.63461304 14.05986023 C0.05236829 9.33991465 -0.07828697 4.75618344 0 0 Z " fill="#7F8CBF" transform="translate(582,617)"/>
<path d="M0 0 C2.64995663 2.64995663 2.51383285 4.35363045 2.97729492 8.05444336 C3.14053757 9.32593735 3.30378021 10.59743134 3.4719696 11.90745544 C3.64185305 13.30153817 3.81134326 14.69566887 3.98046875 16.08984375 C4.15881025 17.51476412 4.337717 18.93961384 4.51716614 20.36439514 C4.89153305 23.35222314 5.25983859 26.34071854 5.6237793 29.32983398 C6.09079339 33.16244059 6.57147279 36.99318066 7.0565443 40.82353878 C7.42789627 43.76626743 7.79263027 46.70978651 8.15529823 49.65359688 C8.330042 51.0664373 8.50669917 52.47904241 8.6852932 53.89140129 C8.93378066 55.86549927 9.17256247 57.84081164 9.41088867 59.81616211 C9.61834969 61.50255043 9.61834969 61.50255043 9.83000183 63.2230072 C10 66 10 66 9 69 C-0.06161041 46.82925987 -4.46897745 24.01147625 0 0 Z " fill="#868FBF" transform="translate(368,652)"/>
<path d="M0 0 C2 2 2 2 2.125 5.125 C2.08375 6.07375 2.0425 7.0225 2 8 C1.34 8 0.68 8 0 8 C-0.33 8.99 -0.66 9.98 -1 11 C-0.67 7.37 -0.34 3.74 0 0 Z " fill="#9898BF" transform="translate(368,652)"/>
</svg>
