<?xml version="1.0" encoding="UTF-8"?>
<svg version="1.1" xmlns="http://www.w3.org/2000/svg" width="750" height="817">
<path d="M0 0 C0.67256836 0.16628906 1.34513672 0.33257812 2.03808594 0.50390625 C28.40145265 7.29275605 49.70178709 21.76429508 63.9609375 45.2265625 C67.99448364 52.18055118 71.05194643 59.32584651 73.625 66.9375 C73.9226123 67.81108154 74.22022461 68.68466309 74.52685547 69.5847168 C76.10778364 74.46751134 77.2594905 79.21662727 78.03125 84.29296875 C79.45302971 95.07533681 79.45302971 95.07533681 85.08886719 103.96289062 C90.18902861 107.36838455 95.7597515 109.61789661 101.43408203 111.88623047 C105.10496272 113.47962321 108.23886201 115.55318775 111.4375 117.9375 C111.98583496 118.34427979 112.53416992 118.75105957 113.09912109 119.17016602 C114.75184548 120.42435588 116.37927351 121.70476501 118 123 C118.5779834 123.45987305 119.1559668 123.91974609 119.75146484 124.39355469 C133.22433813 135.24088848 144.5529955 147.50606874 154 162 C154.42023438 162.64420898 154.84046875 163.28841797 155.2734375 163.95214844 C177.38150578 198.40388817 185.14244384 241.21766481 176.96484375 281.31640625 C170.64954892 310.17208243 157.48357446 335.44898943 137.84594727 357.47241211 C135.62700748 359.97638704 134.07032994 361.78901019 133 365 C133.89991505 367.67326946 133.89991505 367.67326946 135.359375 370.6015625 C135.89264404 371.72353027 136.42591309 372.84549805 136.9753418 374.00146484 C137.56559621 375.20994489 138.15717734 376.41777773 138.75 377.625 C139.0458902 378.23369934 139.3417804 378.84239868 139.64663696 379.46954346 C144.69599511 389.82752485 150.25374225 399.64474849 157 409 C157.41846191 409.58378418 157.83692383 410.16756836 158.26806641 410.76904297 C164.26715836 419.0479303 170.96457802 426.60294418 178 434 C178.58007812 434.63292969 179.16015625 435.26585937 179.7578125 435.91796875 C189.37521334 446.09114903 201.17384533 453.75803588 213.39453125 460.3828125 C230.07307676 469.43895419 246.31731862 478.90467436 261 491 C261.58120605 491.474375 262.16241211 491.94875 262.76123047 492.4375 C274.00527902 501.66092247 283.82367306 511.17185081 291 524 C291.43570313 524.76570312 291.87140625 525.53140625 292.3203125 526.3203125 C296.45687603 534.85378272 296.61734606 545.34256277 294.03515625 554.375 C286.30938291 571.57324327 269.51972208 580.77089361 252.75 587.25 C220.15684024 599.31795279 185.2707931 603.24155011 150.6875 603.1875 C149.51155777 603.18609512 149.51155777 603.18609512 148.31185913 603.18466187 C85.7946216 603.02413619 12.55775174 591.36204704 -34 546 C-40.08489711 539.7646263 -45.49843134 533.18919489 -50.65234375 526.171875 C-57.02132135 517.566867 -63.75796242 509.23140278 -70.5625 500.96875 C-72.40447914 498.72531386 -74.23717834 496.47567481 -76.0625 494.21875 C-81.69799127 487.25227174 -87.37474984 480.33206529 -93.18701172 473.51220703 C-96.51245238 469.60185925 -99.72220277 465.61227176 -102.91015625 461.58984375 C-105.8328489 457.96789006 -108.84934227 454.42870074 -111.86547852 450.88452148 C-114.76303423 447.4753091 -117.61744791 444.03647722 -120.4375 440.5625 C-123.89274151 436.31607618 -127.42697834 432.14703706 -131 428 C-135.31809648 422.98818987 -139.54906526 417.91781816 -143.71875 412.78125 C-146.29843114 409.63615929 -148.92642411 406.53529458 -151.5625 403.4375 C-155.36457909 398.96427469 -159.07883346 394.4365427 -162.7265625 389.8359375 C-165.67874152 386.15332244 -168.68270294 382.51472233 -171.6875 378.875 C-180.87375374 367.73891525 -190.02939376 356.58253968 -198.91577148 345.20483398 C-201.19794204 342.28472576 -203.49373038 339.37784609 -205.82421875 336.49609375 C-212.91726553 327.72314623 -219.7265479 318.7638014 -226.46875 309.71875 C-229.31412007 305.90474331 -232.20364097 302.13103304 -235.125 298.375 C-251.54323766 277.09609987 -266.94538794 254.90440177 -281 232 C-281.39203613 231.36755371 -281.78407227 230.73510742 -282.18798828 230.08349609 C-301.56606017 198.7985172 -325.5120792 159.41510888 -319.53125 120.98828125 C-315.36062612 105.17466569 -303.42806725 96.59599734 -290.375 88.0625 C-289.31394043 87.36302246 -288.25288086 86.66354492 -287.15966797 85.94287109 C-279.22934235 80.74172713 -271.24051393 75.69415772 -263 71 C-262.33967773 70.62246582 -261.67935547 70.24493164 -260.99902344 69.85595703 C-248.1838968 62.56068852 -235.14316393 55.68356607 -222 49 C-221.11844238 48.55043945 -220.23688477 48.10087891 -219.32861328 47.63769531 C-189.45354655 32.53502901 -157.93510852 20.90275765 -126 11 C-124.41493652 10.50765869 -124.41493652 10.50765869 -122.79785156 10.00537109 C-106.50078846 5.04260573 -89.76541113 1.90919939 -73 -1 C-72.1558252 -1.14985352 -71.31165039 -1.29970703 -70.44189453 -1.45410156 C-48.41883687 -5.19358385 -21.72596916 -5.4773163 0 0 Z M84 109 C84.2840051 111.06356895 84.57753352 113.1258285 84.875 115.1875 C85.03742188 116.33605469 85.19984375 117.48460937 85.3671875 118.66796875 C86.51992294 124.8275613 86.51992294 124.8275613 90.87109375 129.140625 C92.05355663 129.85435933 93.24280111 130.55694176 94.4375 131.25 C126.72528054 151.07908813 147.57692612 182.53703242 156.3125 219.0625 C164.91356321 255.59315091 156.78293291 292.59183176 138.26953125 324.54296875 C135.43479786 329.06175333 131.99018563 333.16662588 128.41699219 337.11962891 C125.84998256 340.1240945 124.99295676 341.59413312 125.0625 345.6015625 C125.87544623 348.54849259 126.74933318 351.1840857 128.0625 353.9375 C128.42472656 354.70964844 128.78695312 355.48179687 129.16015625 356.27734375 C129.43730469 356.84582031 129.71445312 357.41429687 130 358 C131.6958686 356.35712729 133.35483453 354.6931995 135 353 C135.58136719 352.40316406 136.16273438 351.80632812 136.76171875 351.19140625 C159.92041124 326.34161248 173.89489581 290.84381588 175 257 C175.0515625 255.93910156 175.103125 254.87820313 175.15625 253.78515625 C176.21416692 213.89287254 161.58493362 174.87391623 134.4921875 145.625 C133.66976562 144.75875 132.84734375 143.8925 132 143 C131.53110352 142.49855469 131.06220703 141.99710938 130.57910156 141.48046875 C118.60426766 128.7383154 101.60606099 112.88577366 84 109 Z M89 133 C89.25394321 137.00962969 89.6012096 141.0022493 90 145 C90.07927734 146.13695312 90.07927734 146.13695312 90.16015625 147.296875 C90.8392422 152.0791704 92.86842537 154.03155818 96.625 157 C97.52476562 157.66644531 98.42453125 158.33289063 99.3515625 159.01953125 C122.90308833 176.63107048 135.28490134 206.87585824 139.4609375 235.1171875 C139.74339756 237.75093666 139.90447847 240.35325773 140 243 C140.0515625 243.92941406 140.103125 244.85882813 140.15625 245.81640625 C140.87084778 269.13015887 134.73412276 296.9720349 120.18359375 315.74609375 C117.78605014 318.7112505 117.78605014 318.7112505 117.87890625 321.625 C118.10449219 322.40875 118.33007812 323.1925 118.5625 324 C118.78808594 324.84304688 119.01367188 325.68609375 119.24609375 326.5546875 C119.49488281 327.36164063 119.74367188 328.16859375 120 329 C120.19722656 329.72445312 120.39445312 330.44890625 120.59765625 331.1953125 C121.03746443 332.80468466 121.5142302 334.40389922 122 336 C126.23220389 334.47601832 128.2784778 331.36905716 130.75 327.8125 C131.40307129 326.88026611 131.40307129 326.88026611 132.06933594 325.92919922 C143.60712671 309.11133108 150.32143661 290.9886092 154 271 C154.19335938 269.95199219 154.38671875 268.90398437 154.5859375 267.82421875 C158.73886858 229.46837414 148.63903117 193.67335289 124.75 163.5 C114.93449559 151.84199477 103.15974093 139.30108472 89 133 Z M93 160 C93.26577495 164.00760649 93.61461167 168.00217644 94 172 C94.07605469 172.95519531 94.15210938 173.91039062 94.23046875 174.89453125 C95.04711344 181.61023287 97.32542452 185.0543969 101.7109375 190.09375 C114.69660901 206.58067765 120.40736421 228.3850069 120.375 249.0625 C120.37338867 250.14869629 120.37177734 251.23489258 120.37011719 252.35400391 C120.19217941 264.19384404 118.08863652 274.9894912 113.6875 286 C110.19753182 295.02720115 113.54649954 304.01926245 116 313 C120.17821749 309.45656838 122.15871627 305.24275561 124.4375 300.375 C124.83074463 299.53541748 125.22398926 298.69583496 125.62915039 297.83081055 C138.36851828 269.75268651 139.29574343 238.01983433 129 209 C121.82359712 190.68055743 110.07788574 171.82197481 94 160 C93.67 160 93.34 160 93 160 Z M97 192 C98.81626381 209.42249383 100.98237971 226.76603575 103.53442383 244.09594727 C104.07186392 247.75118589 104.59978446 251.4077204 105.12695312 255.06445312 C105.47079994 257.4219559 105.81518024 259.77938095 106.16015625 262.13671875 C106.31541275 263.21378586 106.47066925 264.29085297 106.63063049 265.40055847 C107.46718659 271.03979556 108.50549294 276.49732808 110 282 C116.92146457 275.07853543 116.41739889 258.93409731 116.4375 249.8125 C116.18938659 228.4043359 110.0413301 209.64371736 98 192 C97.67 192 97.34 192 97 192 Z " fill="#DAB7BF" transform="translate(355,97)"/>
<path d="M0 0 C11.27347884 9.74508387 20.74405256 20.71271042 28.875 33.1875 C29.29523438 33.83170898 29.71546875 34.47591797 30.1484375 35.13964844 C52.25650578 69.59138817 60.01744384 112.40516481 51.83984375 152.50390625 C46.51500201 176.83403066 36.45560094 199.62615707 20.875 219.1875 C20.42044434 219.7654834 19.96588867 220.3434668 19.49755859 220.93896484 C-6.38174564 253.51226407 -47.06110608 275.41862634 -88.15234375 280.7421875 C-120.87996949 284.19772817 -152.66386607 278.69311742 -182.125 264.1875 C-183.28515625 263.62160156 -184.4453125 263.05570312 -185.640625 262.47265625 C-221.27378508 244.18268882 -248.69846726 211.69335342 -262.125 174.1875 C-262.57617188 172.95386719 -263.02734375 171.72023438 -263.4921875 170.44921875 C-277.23788858 131.286171 -273.10478457 88.59108861 -255.8125 51.3125 C-245.0020402 28.9330323 -228.68423853 9.40306348 -209.125 -5.8125 C-208.13242187 -6.59496094 -207.13984375 -7.37742188 -206.1171875 -8.18359375 C-145.06068382 -54.85727209 -57.63993872 -48.52765528 0 0 Z M-41.125 -19.8125 C-40.8409949 -17.74893105 -40.54746648 -15.6866715 -40.25 -13.625 C-40.08757812 -12.47644531 -39.92515625 -11.32789063 -39.7578125 -10.14453125 C-38.60507706 -3.9849387 -38.60507706 -3.9849387 -34.25390625 0.328125 C-33.07144337 1.04185933 -31.88219889 1.74444176 -30.6875 2.4375 C1.60028054 22.26658813 22.45192612 53.72453242 31.1875 90.25 C39.78856321 126.78065091 31.65793291 163.77933176 13.14453125 195.73046875 C10.30979786 200.24925333 6.86518563 204.35412588 3.29199219 208.30712891 C0.72498256 211.3115945 -0.13204324 212.78163312 -0.0625 216.7890625 C0.75044623 219.73599259 1.62433318 222.3715857 2.9375 225.125 C3.29972656 225.89714844 3.66195312 226.66929687 4.03515625 227.46484375 C4.31230469 228.03332031 4.58945312 228.60179687 4.875 229.1875 C6.5708686 227.54462729 8.22983453 225.8806995 9.875 224.1875 C10.45636719 223.59066406 11.03773438 222.99382812 11.63671875 222.37890625 C34.79541124 197.52911248 48.76989581 162.03131588 49.875 128.1875 C49.9265625 127.12660156 49.978125 126.06570313 50.03125 124.97265625 C51.08916692 85.08037254 36.45993362 46.06141623 9.3671875 16.8125 C8.54476562 15.94625 7.72234375 15.08 6.875 14.1875 C6.40610352 13.68605469 5.93720703 13.18460938 5.45410156 12.66796875 C-6.52073234 -0.0741846 -23.51893901 -15.92672634 -41.125 -19.8125 Z M-36.125 4.1875 C-35.87105679 8.19712969 -35.5237904 12.1897493 -35.125 16.1875 C-35.04572266 17.32445312 -35.04572266 17.32445312 -34.96484375 18.484375 C-34.2857578 23.2666704 -32.25657463 25.21905818 -28.5 28.1875 C-27.60023438 28.85394531 -26.70046875 29.52039063 -25.7734375 30.20703125 C-2.22191167 47.81857048 10.15990134 78.06335824 14.3359375 106.3046875 C14.61839756 108.93843666 14.77947847 111.54075773 14.875 114.1875 C14.9265625 115.11691406 14.978125 116.04632813 15.03125 117.00390625 C15.74584778 140.31765887 9.60912276 168.1595349 -4.94140625 186.93359375 C-7.33894986 189.8987505 -7.33894986 189.8987505 -7.24609375 192.8125 C-7.02050781 193.59625 -6.79492188 194.38 -6.5625 195.1875 C-6.33691406 196.03054688 -6.11132812 196.87359375 -5.87890625 197.7421875 C-5.63011719 198.54914063 -5.38132812 199.35609375 -5.125 200.1875 C-4.92777344 200.91195312 -4.73054688 201.63640625 -4.52734375 202.3828125 C-4.08753557 203.99218466 -3.6107698 205.59139922 -3.125 207.1875 C1.10720389 205.66351832 3.1534778 202.55655716 5.625 199 C6.27807129 198.06776611 6.27807129 198.06776611 6.94433594 197.11669922 C18.48212671 180.29883108 25.19643661 162.1761092 28.875 142.1875 C29.06835938 141.13949219 29.26171875 140.09148437 29.4609375 139.01171875 C33.61386858 100.65587414 23.51403117 64.86085289 -0.375 34.6875 C-10.19050441 23.02949477 -21.96525907 10.48858472 -36.125 4.1875 Z M-32.125 31.1875 C-31.85922505 35.19510649 -31.51038833 39.18967644 -31.125 43.1875 C-31.04894531 44.14269531 -30.97289062 45.09789062 -30.89453125 46.08203125 C-30.07788656 52.79773287 -27.79957548 56.2418969 -23.4140625 61.28125 C-10.42839099 77.76817765 -4.71763579 99.5725069 -4.75 120.25 C-4.75161133 121.33619629 -4.75322266 122.42239258 -4.75488281 123.54150391 C-4.93282059 135.38134404 -7.03636348 146.1769912 -11.4375 157.1875 C-14.92746818 166.21470115 -11.57850046 175.20676245 -9.125 184.1875 C-4.94678251 180.64406838 -2.96628373 176.43025561 -0.6875 171.5625 C-0.29425537 170.72291748 0.09898926 169.88333496 0.50415039 169.01831055 C13.24351828 140.94018651 14.17074343 109.20733433 3.875 80.1875 C-3.30140288 61.86805743 -15.04711426 43.00947481 -31.125 31.1875 C-31.455 31.1875 -31.785 31.1875 -32.125 31.1875 Z M-28.125 63.1875 C-26.30873619 80.60999383 -24.14262029 97.95353575 -21.59057617 115.28344727 C-21.05313608 118.93868589 -20.52521554 122.5952204 -19.99804688 126.25195312 C-19.65420006 128.6094559 -19.30981976 130.96688095 -18.96484375 133.32421875 C-18.80958725 134.40128586 -18.65433075 135.47835297 -18.49436951 136.58805847 C-17.65781341 142.22729556 -16.61950706 147.68482808 -15.125 153.1875 C-8.20353543 146.26603543 -8.70760111 130.12159731 -8.6875 121 C-8.93561341 99.5918359 -15.0836699 80.83121736 -27.125 63.1875 C-27.455 63.1875 -27.785 63.1875 -28.125 63.1875 Z " fill="#D9B7BF" transform="translate(480.125,225.8125)"/>
<path d="M0 0 C16.76825726 13.6914632 16.76825726 13.6914632 18.1171875 24.05859375 C18.20637955 24.7232515 18.29557159 25.38790924 18.38746643 26.07270813 C18.58249333 27.53126494 18.77402072 28.99029283 18.96252441 30.44970703 C19.4828975 34.47766226 20.02806392 38.50228526 20.5703125 42.52734375 C20.6865799 43.39531586 20.80284729 44.26328796 20.92263794 45.15756226 C21.87010938 52.18715086 22.884899 59.20575772 23.921875 66.22265625 C24.07935715 67.28977341 24.23683929 68.35689056 24.39909363 69.4563446 C25.02739817 73.70775347 25.65690647 77.95896848 26.29232788 82.20932007 C27.14016124 87.88507926 27.97120531 93.56235561 28.753479 99.24755859 C29.03416912 101.28711547 29.32462352 103.3253237 29.61669922 105.36328125 C30.3783232 111.76052238 29.92873886 115.98282769 26.69921875 121.578125 C26.33344727 122.25327148 25.96767578 122.92841797 25.59082031 123.62402344 C10.98880754 149.83817211 -11.76866155 165.40132301 -40.05859375 173.8515625 C-47.59414271 175.76111578 -54.88211999 175.76159205 -62.61328125 175.765625 C-63.82951172 175.77787109 -65.04574219 175.79011719 -66.29882812 175.80273438 C-77.37395823 175.82056872 -87.08622686 174.27271362 -97.42578125 170.328125 C-98.24965332 170.01657471 -99.07352539 169.70502441 -99.92236328 169.3840332 C-125.75942481 159.40072285 -144.26491492 140.46180667 -155.92578125 115.578125 C-164.89873401 94.39198655 -166.65925661 68.43776279 -158.92578125 46.578125 C-158.59634521 45.62075439 -158.59634521 45.62075439 -158.26025391 44.64404297 C-149.16029279 18.58067239 -130.20240482 -0.81921856 -105.65795898 -12.81347656 C-100.514144 -15.24182852 -95.49134338 -17.18324841 -89.92578125 -18.421875 C-88.83007812 -18.69773438 -87.734375 -18.97359375 -86.60546875 -19.2578125 C-55.72671328 -26.16907399 -25.0090386 -19.22263359 0 0 Z " fill="#D9B7BF" transform="translate(434.92578125,269.421875)"/>
<path d="M0 0 C11.27347884 9.74508387 20.74405256 20.71271042 28.875 33.1875 C29.29523438 33.83170898 29.71546875 34.47591797 30.1484375 35.13964844 C52.25650578 69.59138817 60.01744384 112.40516481 51.83984375 152.50390625 C46.51500201 176.83403066 36.45560094 199.62615707 20.875 219.1875 C20.42044434 219.7654834 19.96588867 220.3434668 19.49755859 220.93896484 C-6.38174564 253.51226407 -47.06110608 275.41862634 -88.15234375 280.7421875 C-120.87996949 284.19772817 -152.66386607 278.69311742 -182.125 264.1875 C-183.28515625 263.62160156 -184.4453125 263.05570312 -185.640625 262.47265625 C-221.27378508 244.18268882 -248.69846726 211.69335342 -262.125 174.1875 C-262.57617188 172.95386719 -263.02734375 171.72023438 -263.4921875 170.44921875 C-277.23788858 131.286171 -273.10478457 88.59108861 -255.8125 51.3125 C-245.0020402 28.9330323 -228.68423853 9.40306348 -209.125 -5.8125 C-208.13242187 -6.59496094 -207.13984375 -7.37742188 -206.1171875 -8.18359375 C-145.06068382 -54.85727209 -57.63993872 -48.52765528 0 0 Z M-41.125 -19.8125 C-40.8409949 -17.74893105 -40.54746648 -15.6866715 -40.25 -13.625 C-40.08757812 -12.47644531 -39.92515625 -11.32789063 -39.7578125 -10.14453125 C-38.60507706 -3.9849387 -38.60507706 -3.9849387 -34.25390625 0.328125 C-33.07144337 1.04185933 -31.88219889 1.74444176 -30.6875 2.4375 C1.60028054 22.26658813 22.45192612 53.72453242 31.1875 90.25 C39.78856321 126.78065091 31.65793291 163.77933176 13.14453125 195.73046875 C10.30979786 200.24925333 6.86518563 204.35412588 3.29199219 208.30712891 C0.72498256 211.3115945 -0.13204324 212.78163312 -0.0625 216.7890625 C0.75044623 219.73599259 1.62433318 222.3715857 2.9375 225.125 C3.29972656 225.89714844 3.66195312 226.66929687 4.03515625 227.46484375 C4.31230469 228.03332031 4.58945312 228.60179687 4.875 229.1875 C6.5708686 227.54462729 8.22983453 225.8806995 9.875 224.1875 C10.45636719 223.59066406 11.03773438 222.99382812 11.63671875 222.37890625 C34.79541124 197.52911248 48.76989581 162.03131588 49.875 128.1875 C49.9265625 127.12660156 49.978125 126.06570313 50.03125 124.97265625 C51.08916692 85.08037254 36.45993362 46.06141623 9.3671875 16.8125 C8.54476562 15.94625 7.72234375 15.08 6.875 14.1875 C6.40610352 13.68605469 5.93720703 13.18460938 5.45410156 12.66796875 C-6.52073234 -0.0741846 -23.51893901 -15.92672634 -41.125 -19.8125 Z M-136.16455078 -14.26123047 C-138.13418004 -13.81039877 -140.10971187 -13.40577803 -142.08984375 -13.00390625 C-175.83497102 -5.77221518 -207.00404367 17.26578978 -225.75 45.9375 C-245.23064509 76.6355715 -252.60027009 113.95868241 -245.2265625 149.81640625 C-236.58233232 186.12052018 -214.36629928 217.16596653 -183 237.25 C-168.73100317 245.72221687 -154.36849582 251.75097897 -138.125 255.1875 C-137.40022461 255.34976074 -136.67544922 255.51202148 -135.92871094 255.67919922 C-99.83268498 263.60331548 -63.35056703 255.11948475 -32.125 236.1875 C-27.52060901 233.16572939 -23.29827974 229.782941 -19.125 226.1875 C-18.21363281 225.4140625 -17.30226563 224.640625 -16.36328125 223.84375 C7.83099915 202.72348131 23.26090113 173.59772481 28.875 142.1875 C29.16310547 140.61935547 29.16310547 140.61935547 29.45703125 139.01953125 C33.63948003 100.67390274 23.50498295 64.84942441 -0.375 34.6875 C-10.08574554 23.15391827 -22.46735713 9.13827881 -37.125 4.1875 C-37.125 3.5275 -37.125 2.8675 -37.125 2.1875 C-68.41193507 -13.34069274 -101.18559066 -22.30266921 -136.16455078 -14.26123047 Z " fill="#D9B7BF" transform="translate(480.125,225.8125)"/>
<path d="M0 0 C0.78536133 0.32548828 1.57072266 0.65097656 2.37988281 0.98632812 C4.6487567 1.95128406 6.88901503 2.96135548 9.125 4 C9.79466797 4.29551758 10.46433594 4.59103516 11.15429688 4.89550781 C14.59321408 6.59684778 15.87777679 7.70462724 17.359375 11.28515625 C18.00003194 15.0001852 18.62672376 18.70042817 19.125 22.4375 C19.29257812 23.67371094 19.46015625 24.90992188 19.6328125 26.18359375 C19.75398437 27.11300781 19.87515625 28.04242188 20 29 C15.96257506 27.54533955 12.60124073 25.57280027 9 23.25 C-0.57723434 17.26473703 -10.39779824 13.00602507 -21.1875 9.6875 C-22.41641968 9.30537354 -22.41641968 9.30537354 -23.67016602 8.91552734 C-43.79529272 2.99601639 -71.09085719 3.42532957 -91 10 C-92.01006104 10.32145996 -92.01006104 10.32145996 -93.04052734 10.64941406 C-123.85888644 20.66228363 -150.04456272 42.14480336 -165 71 C-177.89183738 96.71417699 -183.03853528 126.91827387 -175 155 C-174.76893555 155.81130371 -174.53787109 156.62260742 -174.29980469 157.45849609 C-164.80394755 189.8339939 -144.7028217 216.54905699 -114.98730469 233.12255859 C-85.30758828 248.89214285 -51.44860801 252.53526899 -19.29858398 242.79418945 C6.4225508 234.55243418 29.47939997 219.41864449 45 197 C49.15653577 201.15653577 50.81551024 209.15832837 51 215 C49.47776409 218.73793484 47.10585304 220.53282984 44 223 C42.88506799 224.10905668 41.78057224 225.22865097 40.68359375 226.35546875 C15.9259997 251.3240182 -20.60155305 264.23310674 -55.3125 264.4375 C-65.4533161 264.32860751 -75.11273655 263.19150685 -85 261 C-86.10939941 260.77449463 -86.10939941 260.77449463 -87.24121094 260.54443359 C-121.48199044 253.48969019 -152.16847927 231.71462873 -171.60888672 202.81738281 C-191.43625031 172.32549375 -198.93728687 136.10178577 -192.875 100.125 C-192.31031575 97.73494107 -191.68387432 95.35872125 -191 93 C-190.70198486 91.9476416 -190.70198486 91.9476416 -190.39794922 90.87402344 C-184.7152055 71.19938563 -175.23250798 53.6452021 -162 38 C-161.33484375 37.19949219 -160.6696875 36.39898437 -159.984375 35.57421875 C-120.83747072 -9.87968677 -54.59498229 -22.79185737 0 0 Z " fill="#D9B7BF" transform="translate(427,220)"/>
<path d="M0 0 C16.76825726 13.6914632 16.76825726 13.6914632 18.1171875 24.05859375 C18.20637955 24.7232515 18.29557159 25.38790924 18.38746643 26.07270813 C18.58249333 27.53126494 18.77402072 28.99029283 18.96252441 30.44970703 C19.4828975 34.47766226 20.02806392 38.50228526 20.5703125 42.52734375 C20.6865799 43.39531586 20.80284729 44.26328796 20.92263794 45.15756226 C21.87010938 52.18715086 22.884899 59.20575772 23.921875 66.22265625 C24.07935715 67.28977341 24.23683929 68.35689056 24.39909363 69.4563446 C25.02739817 73.70775347 25.65690647 77.95896848 26.29232788 82.20932007 C27.14016124 87.88507926 27.97120531 93.56235561 28.753479 99.24755859 C29.03416912 101.28711547 29.32462352 103.3253237 29.61669922 105.36328125 C30.3783232 111.76052238 29.92873886 115.98282769 26.69921875 121.578125 C26.33344727 122.25327148 25.96767578 122.92841797 25.59082031 123.62402344 C10.98880754 149.83817211 -11.76866155 165.40132301 -40.05859375 173.8515625 C-47.59414271 175.76111578 -54.88211999 175.76159205 -62.61328125 175.765625 C-63.82951172 175.77787109 -65.04574219 175.79011719 -66.29882812 175.80273438 C-77.37395823 175.82056872 -87.08622686 174.27271362 -97.42578125 170.328125 C-98.24965332 170.01657471 -99.07352539 169.70502441 -99.92236328 169.3840332 C-125.75942481 159.40072285 -144.26491492 140.46180667 -155.92578125 115.578125 C-164.89873401 94.39198655 -166.65925661 68.43776279 -158.92578125 46.578125 C-158.59634521 45.62075439 -158.59634521 45.62075439 -158.26025391 44.64404297 C-149.16029279 18.58067239 -130.20240482 -0.81921856 -105.65795898 -12.81347656 C-100.514144 -15.24182852 -95.49134338 -17.18324841 -89.92578125 -18.421875 C-88.83007812 -18.69773438 -87.734375 -18.97359375 -86.60546875 -19.2578125 C-55.72671328 -26.16907399 -25.0090386 -19.22263359 0 0 Z M-128.61914062 23.01269531 C-144.79012714 42.38645569 -149.34412989 64.55866314 -147.6875 89.109375 C-145.50312976 106.93736646 -136.26595006 122.87184298 -123.92578125 135.578125 C-122.98798828 136.62613281 -122.98798828 136.62613281 -122.03125 137.6953125 C-108.93131551 151.87082056 -88.25756924 159.87929092 -69.19921875 161 C-45.484568 161.81217163 -23.40514079 154.83829865 -5.43408203 138.99365234 C10.65400325 123.89512232 20.45076333 104.10017649 21.328125 82.015625 C21.90842947 59.92022558 16.84969573 40.50468574 2.07421875 23.578125 C1.60628906 22.98 1.13835937 22.381875 0.65625 21.765625 C-10.22725756 8.10789002 -26.41785794 0.11384834 -42.92578125 -4.421875 C-43.60036377 -4.60733887 -44.27494629 -4.79280273 -44.9699707 -4.98388672 C-75.91437157 -12.74508447 -107.78820666 -0.24292277 -128.61914062 23.01269531 Z " fill="#D9B7BF" transform="translate(434.92578125,269.421875)"/>
<path d="M0 0 C10.04651113 7.44987441 17.04336724 17.58344808 21.3515625 29.2578125 C21.66996094 30.11761719 21.98835938 30.97742188 22.31640625 31.86328125 C27.07677525 46.71475503 24.63196953 63.35227214 17.6640625 77.1328125 C14.270516 82.82576456 10.02004198 87.58132534 5.3515625 92.2578125 C4.71347656 92.9075 4.07539063 93.5571875 3.41796875 94.2265625 C-7.72623753 104.79154808 -23.56690998 109.92215094 -38.74804688 109.66015625 C-54.10890426 109.00460075 -67.14096951 103.34350839 -78.6484375 93.2578125 C-79.27492188 92.71382813 -79.90140625 92.16984375 -80.546875 91.609375 C-90.99541681 81.89086232 -97.26758526 67.47877398 -98.01953125 53.3125 C-98.45921069 34.71067751 -94.01762608 19.92797229 -81.0234375 6.0703125 C-57.99059131 -15.88068789 -26.10717284 -17.17374497 0 0 Z M-65.6484375 13.2578125 C-66.25042969 13.66257812 -66.85242188 14.06734375 -67.47265625 14.484375 C-74.49346532 19.62770928 -80.95438343 30.39502897 -82.46875 39.01953125 C-83.66439396 53.91309627 -81.74199319 65.2300695 -72.6484375 77.2578125 C-72.13410156 78.0003125 -71.61976563 78.7428125 -71.08984375 79.5078125 C-70.37634766 80.3740625 -70.37634766 80.3740625 -69.6484375 81.2578125 C-68.9884375 81.2578125 -68.3284375 81.2578125 -67.6484375 81.2578125 C-67.6484375 81.9178125 -67.6484375 82.5778125 -67.6484375 83.2578125 C-56.38294972 91.85188866 -44.76818376 95.43445802 -30.6484375 94.2578125 C-17.49331931 91.65811057 -6.50511206 85.20358865 1.3515625 74.2578125 C8.36616333 62.57277591 9.86943995 50.64837361 7.921875 37.31640625 C4.90070718 25.69796458 -2.96642428 16.02638796 -13.05859375 9.76171875 C-30.71319936 0.33287233 -49.60490285 0.79005579 -65.6484375 13.2578125 Z " fill="#D9B7BF" transform="translate(408.6484375,297.7421875)"/>
<path d="M0 0 C11.27347884 9.74508387 20.74405256 20.71271042 28.875 33.1875 C29.29523438 33.83170898 29.71546875 34.47591797 30.1484375 35.13964844 C52.25650578 69.59138817 60.01744384 112.40516481 51.83984375 152.50390625 C46.51500201 176.83403066 36.45560094 199.62615707 20.875 219.1875 C20.42044434 219.7654834 19.96588867 220.3434668 19.49755859 220.93896484 C-6.38174564 253.51226407 -47.06110608 275.41862634 -88.15234375 280.7421875 C-120.87996949 284.19772817 -152.66386607 278.69311742 -182.125 264.1875 C-183.28515625 263.62160156 -184.4453125 263.05570312 -185.640625 262.47265625 C-221.27378508 244.18268882 -248.69846726 211.69335342 -262.125 174.1875 C-262.57617188 172.95386719 -263.02734375 171.72023438 -263.4921875 170.44921875 C-277.23788858 131.286171 -273.10478457 88.59108861 -255.8125 51.3125 C-245.0020402 28.9330323 -228.68423853 9.40306348 -209.125 -5.8125 C-208.13242187 -6.59496094 -207.13984375 -7.37742188 -206.1171875 -8.18359375 C-145.06068382 -54.85727209 -57.63993872 -48.52765528 0 0 Z M-222.125 11.1875 C-222.78628906 11.79851562 -223.44757813 12.40953125 -224.12890625 13.0390625 C-251.48227194 38.80580605 -266.00375492 78.56118794 -267.36328125 115.4140625 C-267.94759428 143.82268087 -261.85444515 170.30765991 -248.125 195.1875 C-247.54878906 196.25355469 -246.97257812 197.31960938 -246.37890625 198.41796875 C-239.51810234 210.66600899 -230.74953476 221.07162263 -221.125 231.1875 C-220.49335938 231.88359375 -219.86171875 232.5796875 -219.2109375 233.296875 C-193.62165661 260.57707753 -152.95098526 275.946344 -116.203125 277.57421875 C-74.40065433 278.61530415 -32.3482297 265.32451329 -1.45507812 236.42578125 C25.14941983 210.92240404 44.69940616 177.27978811 48.875 140.1875 C48.98457031 139.24390625 49.09414063 138.3003125 49.20703125 137.328125 C53.23217149 96.75471136 41.64143262 55.89662103 15.875 24.1875 C12.98017418 20.74688446 9.97064685 17.44811862 6.875 14.1875 C6.40610352 13.68605469 5.93720703 13.18460938 5.45410156 12.66796875 C-6.50722754 -0.05981445 -19.79642855 -9.65430154 -35.21679688 -17.80126953 C-37.01399 -18.75367152 -38.79662254 -19.73340518 -40.578125 -20.71484375 C-100.28669172 -52.44369839 -175.36753559 -34.56370621 -222.125 11.1875 Z " fill="#828DBF" transform="translate(480.125,225.8125)"/>
<path d="M0 0 C1.30324219 0.97453125 1.30324219 0.97453125 2.6328125 1.96875 C32.90509842 25.62173142 51.44222919 57.80682729 57.58984375 95.62890625 C61.98130076 134.06701612 51.9321942 171.91250188 27.94433594 202.29541016 C25.15281553 205.74743338 22.19449616 208.90902918 19 212 C18.08605469 212.89976562 17.17210937 213.79953125 16.23046875 214.7265625 C-1.02579687 231.31846759 -21.21071429 242.85425437 -44 250 C-45.20527344 250.39058594 -46.41054688 250.78117187 -47.65234375 251.18359375 C-83.56810796 262.21284418 -122.81253644 255.67490516 -155.55615234 238.35742188 C-166.94920283 232.02921401 -176.71235672 224.07505059 -186 215 C-186.84949219 214.21238281 -187.69898438 213.42476562 -188.57421875 212.61328125 C-204.1427517 197.826841 -214.84143217 178.73744617 -222 158.625 C-222.26651367 157.87839111 -222.53302734 157.13178223 -222.80761719 156.36254883 C-227.14345517 143.37606902 -228.47456421 130.87119415 -228.33618164 117.29223633 C-228.31242382 114.80452305 -228.31567057 112.31787771 -228.32226562 109.83007812 C-228.30188723 96.61123947 -226.65149341 84.81942319 -222.375 72.25 C-222.02308594 71.2094043 -221.67117187 70.16880859 -221.30859375 69.09667969 C-208.42024801 32.00255294 -181.19716377 3.1761042 -146.13916016 -13.90673828 C-137.99940839 -17.72259057 -129.6464865 -20.57992361 -121 -23 C-120.319375 -23.20367187 -119.63875 -23.40734375 -118.9375 -23.6171875 C-80.41717975 -34.4095186 -31.58062069 -24.18941159 0 0 Z M-113.03955078 -20.44873047 C-115.00918004 -19.99789877 -116.98471187 -19.59327803 -118.96484375 -19.19140625 C-152.70997102 -11.95971518 -183.87904367 11.07828978 -202.625 39.75 C-222.10564509 70.4480715 -229.47527009 107.77118241 -222.1015625 143.62890625 C-213.45733232 179.93302018 -191.24129928 210.97846653 -159.875 231.0625 C-145.60600317 239.53471687 -131.24349582 245.56347897 -115 249 C-114.27522461 249.16226074 -113.55044922 249.32452148 -112.80371094 249.49169922 C-76.70768498 257.41581548 -40.22556703 248.93198475 -9 230 C-4.39560901 226.97822939 -0.17327974 223.595441 4 220 C4.91136719 219.2265625 5.82273437 218.453125 6.76171875 217.65625 C30.95599915 196.53598131 46.38590113 167.41022481 52 136 C52.28810547 134.43185547 52.28810547 134.43185547 52.58203125 132.83203125 C56.76448003 94.48640274 46.62998295 58.66192441 22.75 28.5 C13.03925446 16.96641827 0.65764287 2.95077881 -14 -2 C-14 -2.66 -14 -3.32 -14 -4 C-45.28693507 -19.52819274 -78.06059066 -28.49016921 -113.03955078 -20.44873047 Z " fill="#828DBF" transform="translate(457,232)"/>
<path d="M0 0 C2.11088975 -0.0021628 4.22123534 -0.02028378 6.33203125 -0.03930664 C18.92228919 -0.0942295 30.98511419 1.11406524 42.95703125 5.24780273 C43.84511475 5.55016846 44.73319824 5.85253418 45.64819336 6.1640625 C54.47963139 9.29000467 62.61087231 13.39273636 70.64453125 18.18530273 C71.7325 18.83370117 72.82046875 19.48209961 73.94140625 20.15014648 C101.49443335 37.60277634 119.24445032 65.94744634 126.39453125 97.43530273 C127.56924884 103.34871162 128.36107013 109.16390141 128.64453125 115.18530273 C128.72380859 116.5871582 128.72380859 116.5871582 128.8046875 118.01733398 C129.39747763 138.09487806 124.58627761 157.11152438 116.20703125 175.18530273 C115.66828369 176.35150146 115.66828369 176.35150146 115.11865234 177.54125977 C112.5210147 182.92299053 109.36782514 187.52340071 105.64453125 192.18530273 C104.58878906 193.55428711 104.58878906 193.55428711 103.51171875 194.95092773 C81.93171391 221.86246319 52.44303569 239.77167765 17.83203125 243.97875977 C-16.11291582 247.18382954 -48.39946982 236.93402954 -74.98046875 215.81030273 C-93.50369964 200.20620565 -105.96066047 181.89947296 -113.73046875 159.06030273 C-114.06457764 158.08327393 -114.39868652 157.10624512 -114.74291992 156.09960938 C-124.46524656 126.14683522 -120.27610041 94.00772892 -106.35546875 66.18530273 C-100.98063293 55.73930809 -94.26300264 46.83749228 -86.35546875 38.18530273 C-85.68902344 37.44795898 -85.02257812 36.71061523 -84.3359375 35.95092773 C-62.71829031 13.19550963 -31.13876837 -0.0035579 0 0 Z M-80.35546875 38.18530273 C-81.14050781 38.91749023 -81.92554688 39.64967773 -82.734375 40.40405273 C-103.98056644 60.82340423 -115.04399037 90.71427057 -115.64819336 119.83251953 C-115.87828923 151.57154645 -103.95750532 181.12557312 -81.8828125 204.00952148 C-75.82540896 210.13918033 -69.78546885 215.74308719 -62.35546875 220.18530273 C-61.28941406 220.83756836 -60.22335937 221.48983398 -59.125 222.16186523 C-32.61209827 238.06288753 0.69179307 244.98330717 31.26953125 237.56030273 C33.74634908 236.82851565 36.20686489 236.03848596 38.64453125 235.18530273 C39.299375 234.97099609 39.95421875 234.75668945 40.62890625 234.53588867 C56.36654683 229.37760667 69.94065108 221.76356635 82.64453125 211.18530273 C83.51722656 210.47760742 84.38992188 209.76991211 85.2890625 209.04077148 C95.63435367 200.25949284 103.74909312 189.37251097 109.64453125 177.18530273 C110.21816406 176.06897461 110.79179687 174.95264648 111.3828125 173.80249023 C125.56198422 145.60384785 127.22348267 113.35667785 117.44677734 83.4465332 C106.9507801 53.86225856 84.83169255 29.04134075 56.7734375 15.25561523 C10.06191504 -6.76453558 -43.25711497 3.07113968 -80.35546875 38.18530273 Z " fill="#838EBF" transform="translate(367.35546875,224.814697265625)"/>
<path d="M0 0 C4.48125327 3.50033059 8.76705155 7.20537462 13 11 C13.82757813 11.73089844 14.65515625 12.46179688 15.5078125 13.21484375 C32.39645913 29.0148494 42.46409446 54.02427637 43.3359375 76.91015625 C43.52364109 89.79014848 42.78504736 101.65676801 39 114 C38.66097656 115.13179687 38.32195312 116.26359375 37.97265625 117.4296875 C33.28079116 131.08785704 24.54509105 143.29792822 15 154 C14.46375 154.61875 13.9275 155.2375 13.375 155.875 C-1.93951168 172.41467262 -26.85135871 184.61090534 -49.27124023 186.23730469 C-82.39576176 187.49290667 -108.55329914 179.96111965 -133.75 158.1875 C-150.32611325 142.53498251 -163.51567591 119.22863011 -165.28955078 96.24902344 C-165.40064395 92.32838094 -165.40970767 88.42196679 -165.375 84.5 C-165.39240234 82.53353516 -165.39240234 82.53353516 -165.41015625 80.52734375 C-165.38461247 71.95314864 -164.3130363 64.24877982 -162 56 C-161.80664062 55.27635254 -161.61328125 54.55270508 -161.4140625 53.80712891 C-154.04626567 27.34815174 -135.39591415 6.62595218 -111.97167969 -7.02636719 C-77.5076854 -26.36338355 -31.7782871 -23.50221521 0 0 Z M-136.77734375 17.46875 C-152.71953764 35.62435921 -161.43116905 58.09429139 -161.3125 82.1875 C-161.30686035 83.3827832 -161.3012207 84.57806641 -161.29541016 85.80957031 C-160.96544866 109.84775504 -152.01437707 132.0259286 -136 150 C-135.33613281 150.74636719 -134.67226563 151.49273437 -133.98828125 152.26171875 C-117.36761154 169.86549647 -93.01355648 181.51273241 -68.75390625 182.23828125 C-55.56280091 182.44179959 -43.50851958 182.47425451 -31 178 C-30.36852051 177.78037598 -29.73704102 177.56075195 -29.08642578 177.33447266 C-3.24551368 168.22666303 17.67089649 150.31112582 29.8125 125.6875 C40.34094514 100.80889653 41.45791974 72.63634815 31.80810547 47.33447266 C21.31582388 21.89176294 3.36233853 3.1790304 -21.87890625 -7.7578125 C-62.59869834 -23.96418783 -106.38806859 -13.83166744 -136.77734375 17.46875 Z " fill="#838EBF" transform="translate(433,263)"/>
<path d="M0 0 C1.32182035 1.1140342 2.63520367 2.23820383 3.9375 3.375 C4.535625 3.84292969 5.13375 4.31085938 5.75 4.79296875 C20.33090762 16.41212951 29.79758175 35.18780937 32.9375 53.375 C34.53081248 81.6770497 29.07163063 102.93927152 10.5625 124.6875 C-3.41984895 139.58435714 -24.54362319 149.63593872 -44.9765625 150.81640625 C-56.89588537 151.19017964 -67.7580052 150.25374314 -79.0625 146.375 C-80.10148437 146.024375 -81.14046875 145.67375 -82.2109375 145.3125 C-102.85317441 137.51070967 -119.38611468 122.06965804 -128.58203125 102.0703125 C-129.80354655 99.190775 -130.95304036 96.29915718 -132.0625 93.375 C-132.413125 92.55386719 -132.76375 91.73273438 -133.125 90.88671875 C-139.93770582 72.6343444 -136.75910858 49.64439875 -129.0625 32.375 C-118.51296569 10.08051673 -100.03159835 -5.37832718 -77.0625 -13.625 C-51.80588559 -22.52719787 -21.03443172 -16.03299012 0 0 Z M-104.0625 6.375 C-104.73410156 6.90480469 -105.40570313 7.43460937 -106.09765625 7.98046875 C-120.06065674 19.30691038 -129.87456038 38.57140103 -132.0625 56.375 C-133.98384489 79.25530132 -128.32449641 99.58134415 -114.2421875 117.85546875 C-103.93568401 129.76890021 -90.92309326 138.23992589 -76.0625 143.375 C-75.13953125 143.6946875 -74.2165625 144.014375 -73.265625 144.34375 C-52.39503571 150.30677551 -30.58092372 146.61727354 -11.79296875 136.51171875 C7.60801922 125.63473465 20.24332671 109.37965319 26.90234375 88.32421875 C32.16367951 68.07898669 29.73125985 47.19264919 19.98046875 28.79296875 C8.2614368 9.18655774 -9.09968615 -4.30859287 -31.0625 -10.625 C-56.83049411 -17.1036576 -84.02933766 -11.15905557 -104.0625 6.375 Z " fill="#848EBF" transform="translate(423.0625,279.625)"/>
<path d="M0 0 C14.0814685 11.98614599 23.58950237 27.31085168 25.12109375 46.01953125 C25.87633897 62.88187275 20.58242665 79.8955751 9.375 92.6875 C7.87444177 94.22834167 6.3547503 95.75088957 4.8125 97.25 C4.19890625 97.88421875 3.5853125 98.5184375 2.953125 99.171875 C-6.45348453 108.25689104 -21.15491913 114.54998776 -34.1875 115.25 C-35.95287109 115.34667969 -35.95287109 115.34667969 -37.75390625 115.4453125 C-55.39351991 116.09269736 -72.05439485 110.24109601 -85.1875 98.25 C-97.75633717 86.01633182 -105.95644202 69.32608368 -106.5 51.625 C-106.08477777 33.44749365 -99.61889224 17.9539896 -86.9453125 4.94921875 C-62.7023223 -18.09323999 -26.64314881 -20.29954195 0 0 Z M-89.08984375 13.3828125 C-97.45741925 23.90083361 -101.77907057 36.2496014 -101.5625 49.625 C-101.55162354 50.54474609 -101.54074707 51.46449219 -101.52954102 52.41210938 C-101.12986136 69.50934949 -94.57788986 83.38373831 -82.1875 95.25 C-69.40732469 106.89364429 -53.61356908 112.34323399 -36.37109375 111.65625 C-19.67649317 110.39894894 -5.09284012 102.36387721 6.3046875 90.28515625 C16.90663523 77.45382699 21.72065758 62.54998988 21.1953125 45.9140625 C19.570453 30.36183582 12.170326 15.33896823 0.27734375 5.05859375 C-29.02497687 -17.16057599 -64.70369839 -13.95771186 -89.08984375 13.3828125 Z " fill="#858EBF" transform="translate(412.1875,295.75)"/>
<path d="M0 0 C5.12655336 3.04558455 8.12258175 7.88196683 10.9375 13 C12.61651648 19.71606593 11.67386928 25.42842109 8.5625 31.5 C4.92701627 37.06015159 0.8788544 39.78256225 -5.4375 41.5 C-13.04327949 42.68904369 -18.9288586 41.80128735 -25.30078125 37.37890625 C-30.00543361 33.24190847 -32.01636165 29.32064758 -32.94140625 23.125 C-33.29358706 16.17130223 -32.752715 10.86879125 -28.3203125 5.34375 C-20.64381511 -2.17348396 -10.0970293 -4.31348186 0 0 Z " fill="#D9B7BF" transform="translate(382.4375,326.5)"/>
<path d="M0 0 C8.6292285 6.89244242 15.94340708 16.77296059 17.46484375 27.96875 C18.46232341 43.81395967 16.12821636 55.57509428 5.46484375 67.96875 C-2.48567507 76.30796085 -13.12090978 81.27923428 -24.5859375 82.21875 C-36.932288 82.46975586 -49.00229418 79.27886966 -58.53515625 70.96875 C-58.53515625 70.30875 -58.53515625 69.64875 -58.53515625 68.96875 C-59.52515625 68.63875 -60.51515625 68.30875 -61.53515625 67.96875 C-71.64184521 56.36129981 -74.34606533 43.91701729 -73.53515625 28.96875 C-71.86569799 18.04834871 -65.54323215 7.66862445 -57.05859375 0.71875 C-39.12064828 -11.72118742 -18.35833143 -12.72412986 0 0 Z M-60.34765625 9.71875 C-68.11760235 19.14187612 -70.53202884 30.0203194 -69.53515625 41.96875 C-67.06523113 54.09255389 -61.72125977 63.77224101 -51.53515625 70.96875 C-39.87128492 77.65857814 -27.49031885 78.92907858 -14.2421875 76.3203125 C-4.25665015 72.6055021 4.94182177 64.44397521 10.0078125 55.1328125 C14.6602833 44.57678631 15.52638927 32.25389479 11.5625 21.265625 C6.50693169 10.68671337 -1.57051987 2.09646204 -12.4921875 -2.33984375 C-29.83910573 -8.2105981 -47.92659878 -3.37444261 -60.34765625 9.71875 Z " fill="#858FBF" transform="translate(399.53515625,310.03125)"/>
<path d="M0 0 C6.74646112 4.35161345 11.76811444 10.34665783 13.8046875 18.1640625 C15.05034601 26.2549111 13.35428885 32.42008272 8.8046875 39.1640625 C4.74929541 44.39079356 0.40301068 47.9778471 -6.1953125 49.1640625 C-15.72090787 50.05534628 -22.52047658 49.57522362 -30.08984375 43.69140625 C-36.22868355 38.22460786 -39.26948315 31.35000457 -39.7578125 23.1640625 C-39.35069985 15.04725406 -35.55405214 9.0826631 -29.6953125 3.6640625 C-21.76008499 -3.15352733 -9.61061308 -4.41345751 0 0 Z M-32.3203125 11.6640625 C-35.40900979 17.44291549 -35.17513572 23.83781255 -34.1953125 30.1640625 C-32.19193028 35.85035413 -29.12801156 39.98175109 -24.0703125 43.2890625 C-17.6802528 46.29614942 -11.13578387 46.32237265 -4.41796875 44.34765625 C2.05320781 41.55483268 5.74663801 37.47199485 8.8046875 31.1640625 C10.72233921 24.9108504 10.41527833 19.85983638 7.6796875 13.9765625 C4.36312527 7.87746078 0.46819604 4.40130415 -6.1953125 2.1640625 C-16.81599517 0.7164203 -25.5907775 2.94198362 -32.3203125 11.6640625 Z " fill="#848EBF" transform="translate(384.1953125,322.8359375)"/>
</svg>
