<?xml version="1.0" encoding="UTF-8"?>
<svg version="1.1" xmlns="http://www.w3.org/2000/svg" width="600" height="654">
<path d="M0 0 C1.0881601 0.00131424 1.0881601 0.00131424 2.19830322 0.00265503 C38.23793046 0.14582276 70.65435444 14.4094712 96.33203125 39.5625 C111.73155681 55.23375804 123.44556682 75.07571685 129 96.375 C129.19174805 97.0565918 129.38349609 97.73818359 129.58105469 98.44042969 C137.68588074 127.91132245 133.9136134 159.57897406 122 187.375 C121.61666504 188.03177734 121.23333008 188.68855469 120.83837891 189.36523438 C119.78296476 191.89527784 120.02797967 192.84126292 121 195.375 C121.75551924 196.85428527 122.56630119 198.30595104 123.4140625 199.734375 C123.91969727 200.5898291 124.42533203 201.4452832 124.94628906 202.32666016 C125.50026367 203.2501123 126.05423828 204.17356445 126.625 205.125 C127.20475586 206.09872559 127.78451172 207.07245117 128.38183594 208.07568359 C133.191778 216.11493807 138.14415092 224.06175236 143.1315918 231.99169922 C147.97404623 239.70044807 152.72467545 247.46169981 157.4375 255.25 C162.98594768 264.41763801 168.56292297 273.56623248 174.1875 282.6875 C179.14972026 290.73516073 184.09141893 298.7945057 189 306.875 C193.29964327 313.95276109 197.61575182 321.01983349 201.96557617 328.06689453 C203.31789308 330.26584978 204.66187491 332.46995355 205.99731445 334.67919922 C209.24061774 340.02518117 212.55956547 345.22533789 216.23046875 350.2890625 C223.57248689 360.70956356 227.34914351 367.84065588 225.375 380.8125 C224.71476483 384.37488869 223.94659764 387.87797662 223 391.375 C222.01 391.375 221.02 391.375 220 391.375 C218.58056641 389.59692383 218.58056641 389.59692383 217.1015625 387.08203125 C216.54678223 386.15285889 215.99200195 385.22368652 215.42041016 384.26635742 C214.8279248 383.25033447 214.23543945 382.23431152 213.625 381.1875 C212.3549863 379.05419934 211.08413595 376.92139656 209.8125 374.7890625 C209.17183594 373.70786133 208.53117187 372.62666016 207.87109375 371.51269531 C205.17704963 366.99496892 202.40583043 362.52714001 199.625 358.0625 C198.55037287 356.33098255 197.47616305 354.59920605 196.40234375 352.8671875 C195.57839111 351.5383252 195.57839111 351.5383252 194.73779297 350.18261719 C189.49152791 341.70663402 184.27861026 333.21001201 179.05712891 324.71875 C177.01224572 321.39490475 174.96542134 318.07226304 172.91796875 314.75 C166.52256298 304.37036891 160.14237025 293.98225016 153.8125 283.5625 C148.92743103 275.52174779 144.00187657 267.5075115 139.04321289 259.51196289 C118.77393564 226.82779166 118.77393564 226.82779166 109 210.375 C103.92484204 215.98023001 98.89004655 221.60725279 94 227.375 C95.31066901 230.8721861 96.84830319 233.97514251 98.80078125 237.15625 C99.35878418 238.06930908 99.91678711 238.98236816 100.49169922 239.9230957 C101.39299561 241.38428833 101.39299561 241.38428833 102.3125 242.875 C103.25246826 244.40870239 103.25246826 244.40870239 104.21142578 245.97338867 C106.13611356 249.1102666 108.06679816 252.24336308 110 255.375 C110.55187988 256.26912598 111.10375977 257.16325195 111.67236328 258.08447266 C114.30713652 262.34940507 116.94737923 266.61092341 119.58984375 270.87109375 C128.51831716 285.27143463 137.39016656 299.70668284 146.1875 314.1875 C151.07754489 322.2363999 156.00759239 330.25908656 160.97216797 338.26220703 C165.26713369 345.18653296 169.54340875 352.1221936 173.8125 359.0625 C174.48321533 360.15264404 175.15393066 361.24278809 175.8449707 362.3659668 C179.24777062 367.89759798 182.64847068 373.43051106 186.046875 378.96484375 C186.71170898 380.04628662 187.37654297 381.12772949 188.06152344 382.24194336 C189.38772015 384.40130098 190.7113209 386.56225524 192.03222656 388.72485352 C195.05307945 393.6567894 198.09958971 398.56261245 201.27833557 403.39480591 C202.35954313 405.03899479 203.43167416 406.68914073 204.50366211 408.33935547 C205.84066535 410.39186869 207.19477839 412.43337433 208.56860352 414.46142578 C213.50526697 422.08712278 213.50526697 422.08712278 213.0625 426.6484375 C212.05111531 430.19572058 210.93169229 433.50348919 209.4375 436.875 C208.98246094 437.9165625 208.52742188 438.958125 208.05859375 440.03125 C207.70925781 440.8046875 207.35992187 441.578125 207 442.375 C203.21435941 441.1131198 202.86276816 439.9409127 200.8828125 436.546875 C200.28267334 435.53028809 199.68253418 434.51370117 199.06420898 433.46630859 C198.42427002 432.36367676 197.78433105 431.26104492 197.125 430.125 C196.10899278 428.40194396 195.09296807 426.67889724 194.07499695 424.95700073 C193.38418678 423.78823593 192.6943442 422.61889872 192.00544739 421.44900513 C188.89231032 416.16777312 185.68157457 410.95147189 182.4375 405.75 C177.98102284 398.58627254 173.56642387 391.39890366 169.1875 384.1875 C164.15365001 375.89885395 159.08822691 367.63037608 154 359.375 C148.91177259 351.11962311 143.84646058 342.85107939 138.8125 334.5625 C134.40870385 327.31210588 129.97393334 320.08232647 125.5 312.875 C121.02606527 305.66767131 116.59150824 298.43776683 112.1875 291.1875 C96.36209107 265.11338846 96.36209107 265.11338846 80 239.375 C71.09 244.82 71.09 244.82 62 250.375 C66.71877642 259.40808629 72.0496992 267.99582196 77.4375 276.640625 C81.0000573 282.36029117 84.50481766 288.11398874 88 293.875 C92.46575152 301.22992004 96.96152231 308.56473277 101.5 315.875 C106.56537537 324.03498756 111.57300265 332.22856254 116.55859375 340.4375 C121.01277627 347.7662981 125.50011936 355.07418429 130 362.375 C135.08822741 370.63037689 140.15353942 378.89892061 145.1875 387.1875 C150.11967943 395.30782244 155.09868838 403.39742919 160.1105957 411.46875 C164.65467382 418.79529505 169.1426966 426.1551365 173.59375 433.53857422 C176.7439009 438.74497553 179.96519319 443.89073807 183.2890625 448.98828125 C184.34311279 450.62059692 184.34311279 450.62059692 185.41845703 452.28588867 C186.78181065 454.39104353 188.15991509 456.48673541 189.55419922 458.5715332 C190.16537598 459.51988037 190.77655273 460.46822754 191.40625 461.4453125 C191.95603516 462.27820801 192.50582031 463.11110352 193.07226562 463.96923828 C194 466.375 194 466.375 193.28369141 469.00219727 C191.70179453 471.92620939 189.86436627 474.52431612 187.875 477.1875 C187.15054687 478.16332031 186.42609375 479.13914062 185.6796875 480.14453125 C185.12539063 480.88058594 184.57109375 481.61664063 184 482.375 C180.84131954 479.44441755 178.65973792 476.46701074 176.453125 472.7734375 C175.78128174 471.65670654 175.10943848 470.53997559 174.41723633 469.3894043 C174.06448639 468.79702972 173.71173645 468.20465515 173.34829712 467.59432983 C171.84729845 465.07375814 170.3337029 462.56083295 168.82087708 460.04734802 C168.03814931 458.74660393 167.2560813 457.44546261 166.47465515 456.14393616 C162.63579074 449.75334396 158.72964007 443.40542945 154.8125 437.0625 C149.78558428 428.91199215 144.78325243 420.74738153 139.8125 412.5625 C134.88170832 404.44442016 129.90363489 396.35734061 124.89379883 388.2878418 C120.2951544 380.87222305 115.75944261 373.41924765 111.23046875 365.9609375 C107.35159442 359.57928617 103.43905613 353.21965975 99.5 346.875 C94.36201255 338.59921486 89.28640905 330.28705552 84.23046875 321.9609375 C79.82901529 314.71952183 75.37837232 307.50987674 70.90771484 300.31103516 C66.19988012 292.72085265 61.55513045 285.09299532 56.93164062 277.45117188 C53.0416096 271.03562724 49.05107243 264.69004145 45 258.375 C43.35451172 258.79072266 43.35451172 258.79072266 41.67578125 259.21484375 C40.22137007 259.58079237 38.7669421 259.94667427 37.3125 260.3125 C36.59126953 260.49490234 35.87003906 260.67730469 35.12695312 260.86523438 C34.42119141 261.04248047 33.71542969 261.21972656 32.98828125 261.40234375 C32.02208862 261.64585571 32.02208862 261.64585571 31.03637695 261.89428711 C28.70118335 262.4455395 26.35479619 262.91548396 24 263.375 C27.45590899 270.65920497 31.41638529 277.45751126 35.75 284.25 C41.40152361 293.19853769 46.96117962 302.1936425 52.4375 311.25 C58.64180487 321.50324048 64.89416589 331.72526564 71.18457031 341.92602539 C75.54357013 348.99833528 79.87511035 356.08668401 84.1875 363.1875 C89.11829168 371.30557984 94.09636511 379.39265939 99.10620117 387.4621582 C103.7048456 394.87777695 108.24055739 402.33075235 112.76953125 409.7890625 C116.64840586 416.1707143 120.56098879 422.53031208 124.5 428.875 C129.56087087 437.02773111 134.56391474 445.2140966 139.54541016 453.41552734 C146.00853183 464.04898231 152.53633025 474.64232609 159.06542969 485.23535156 C162.37943384 490.61370761 165.68962325 495.99441071 169 501.375 C165.61082229 506.03687031 162.32213884 510.53309881 158 514.375 C157.34 514.375 156.68 514.375 156 514.375 C154.46630859 512.21728516 154.46630859 512.21728516 152.6484375 509.1640625 C151.97031006 508.03468262 151.29218262 506.90530273 150.59350586 505.74169922 C150.23255829 505.13291931 149.87161072 504.5241394 149.49972534 503.89691162 C148.36369562 501.98093453 147.21940498 500.07013499 146.07250977 498.16064453 C144.8862544 496.18560409 143.70044304 494.21031664 142.51716614 492.23348999 C138.70915056 485.87340823 134.83153739 479.55781711 130.9375 473.25 C129.61326193 471.10157441 128.28904321 468.95313689 126.96484375 466.8046875 C126.31112793 465.74475586 125.65741211 464.68482422 124.98388672 463.59277344 C121.65229429 458.18908303 118.32645301 452.78185509 115 447.375 C113.66669391 445.20831657 112.33336058 443.0416499 111 440.875 C108.33333333 436.54166667 105.66666667 432.20833333 103 427.875 C102.33983887 426.8022583 101.67967773 425.7295166 100.99951172 424.62426758 C99.66773332 422.46008703 98.33602746 420.29586185 97.00439453 418.1315918 C93.64786745 412.67651703 90.29003814 407.22225164 86.9296875 401.76953125 C80.53061494 391.38324371 74.14631143 380.98873783 67.8125 370.5625 C62.92384331 362.51584245 57.9947231 354.49568781 53.03222656 346.49438477 C43.56134393 331.22322799 34.1424948 315.92016077 24.8125 300.5625 C20.15581847 292.89744909 15.47013742 285.2511553 10.75 277.625 C10.20061768 276.73707764 9.65123535 275.84915527 9.08520508 274.93432617 C7.09241668 271.72012073 5.09800848 268.52201272 3 265.375 C1.07558819 264.88515063 1.07558819 264.88515063 -1.140625 264.8984375 C-1.96433594 264.8675 -2.78804687 264.8365625 -3.63671875 264.8046875 C-4.49910156 264.78664063 -5.36148438 264.76859375 -6.25 264.75 C-7.94280735 264.69846857 -9.63552391 264.6438492 -11.328125 264.5859375 C-12.12927734 264.55854492 -12.93042969 264.53115234 -13.75585938 264.50292969 C-16.55019156 264.34363573 -19.25679822 263.92184741 -22 263.375 C-17.34904888 272.44329283 -11.93650628 281.01770121 -6.55078125 289.66015625 C-3.05653996 295.27031747 0.38368915 300.9121786 3.8125 306.5625 C8.84609339 314.85130076 13.91177424 323.11962579 19 331.375 C24.08822741 339.63037689 29.15353942 347.89892061 34.1875 356.1875 C38.59129615 363.43789412 43.02606666 370.66767353 47.5 377.875 C52.56531808 386.03502346 57.57300229 394.22856193 62.55859375 402.4375 C67.01277627 409.7662981 71.50011936 417.07418429 76 424.375 C81.08822741 432.63037689 86.15353942 440.89892061 91.1875 449.1875 C96.11967943 457.30782244 101.09868838 465.39742919 106.1105957 473.46875 C110.65435285 480.79477754 115.1404988 488.15498658 119.59375 495.53637695 C122.74994836 500.74967713 125.97317809 505.91033167 129.2890625 511.0234375 C130.34311279 512.66252075 130.34311279 512.66252075 131.41845703 514.3347168 C132.78363531 516.45165581 134.1618254 518.56027218 135.55419922 520.65942383 C136.16537598 521.61099365 136.77655273 522.56256348 137.40625 523.54296875 C137.95603516 524.38110107 138.50582031 525.2192334 139.07226562 526.08276367 C140 528.375 140 528.375 139.30664062 530.55688477 C137.5412743 533.01329042 135.49571069 534.42733633 133 536.125 C132.113125 536.73859375 131.22625 537.3521875 130.3125 537.984375 C128 539.375 128 539.375 126 539.375 C124.55810547 537.40087891 124.55810547 537.40087891 122.8671875 534.6015625 C122.23425781 533.56257812 121.60132813 532.52359375 120.94921875 531.453125 C120.25775538 530.30211765 119.56635078 529.15107499 118.875 528 C118.15571458 526.81463861 117.43565073 525.62974926 116.71484375 524.4453125 C115.21538578 521.98001768 113.7193269 519.51270797 112.22558594 517.04394531 C108.84833342 511.46842042 105.42190455 505.92318593 102 500.375 C100.66643012 498.20847892 99.33309766 496.04181168 98 493.875 C97.34 492.8025 96.68 491.73 96 490.625 C42 402.87500001 42 402.87500001 39.99926758 399.6237793 C38.66841199 397.46115928 37.33752017 395.29856155 36.0065918 393.13598633 C32.63504875 387.65758992 29.26417261 382.17878508 25.89453125 376.69921875 C19.7755435 366.75002493 13.6525619 356.80347484 7.5 346.875 C0.65790519 335.83381629 -6.14751989 324.77016763 -12.95166016 313.70556641 C-14.97116576 310.421884 -16.99129917 307.13858886 -19.01171875 303.85546875 C-19.67107422 302.78393555 -20.33042969 301.71240234 -21.00976562 300.60839844 C-22.3295685 298.46420446 -23.64987563 296.32032077 -24.97070312 294.17675781 C-28.10166301 289.09397052 -31.22697529 284.00795131 -34.33328247 278.9100647 C-35.80314854 276.49855507 -37.27608527 274.08892816 -38.74926758 271.67944336 C-39.78962624 269.97497515 -40.82552855 268.26778946 -41.86132812 266.56054688 C-42.49103516 265.53123047 -43.12074219 264.50191406 -43.76953125 263.44140625 C-44.32229736 262.53334229 -44.87506348 261.62527832 -45.44458008 260.68969727 C-48.60744136 255.98288706 -52.26091747 254.12812596 -57.3125 251.75 C-70.17775772 245.48073949 -81.25068778 237.80525742 -92 228.375 C-86.63823464 238.10497675 -80.83000418 247.52150209 -74.91821289 256.92504883 C-70.51337905 263.93705784 -66.16847387 270.98179131 -61.875 278.0625 C-55.83913106 288.0123386 -49.73350093 297.91697512 -43.59570312 307.80419922 C-34.04273997 323.1947595 -24.5370971 338.6142233 -15.04833984 354.04443359 C-11.70006312 359.48867568 -8.34995241 364.9317889 -5 370.375 C-3.66665758 372.54166108 -2.33332426 374.70832775 -1 376.875 C-0.34 377.9475 0.32 379.02 1 380.125 C39.00000001 441.87500001 39.00000001 441.87500001 41.00073242 445.1262207 C42.33158801 447.28884072 43.66247983 449.45143845 44.9934082 451.61401367 C48.36495125 457.09241008 51.73582739 462.57121492 55.10546875 468.05078125 C61.22445684 477.99997563 67.34756456 487.9464464 73.5 497.875 C81.02724506 510.02496176 88.52974623 522.18991393 96 534.375 C96.78407227 535.65165527 96.78407227 535.65165527 97.58398438 536.95410156 C98.89440669 539.09135924 100.19873878 541.2321564 101.5 543.375 C101.86770508 543.9736084 102.23541016 544.5722168 102.61425781 545.18896484 C105 549.14339793 105 549.14339793 105 551.375 C100.38 553.685 95.76 555.995 91 558.375 C85.92226381 551.29084376 81.30451051 544.06565651 76.875 536.5625 C72.12709473 528.58356953 67.34313328 520.63302766 62.4375 512.75 C57.91713923 505.48290667 53.44121996 498.19074251 49 490.875 C44.53402301 483.52021543 40.03847913 476.18526954 35.5 468.875 C30.43462463 460.71501244 25.42699735 452.52143746 20.44140625 444.3125 C15.98722373 436.9837019 11.49988064 429.67581571 7 422.375 C1.91177259 414.11962311 -3.15353942 405.85107939 -8.1875 397.5625 C-13.11831047 389.4444314 -18.09636498 381.35734082 -23.10620117 373.2878418 C-27.7048456 365.87222305 -32.24055739 358.41924765 -36.76953125 350.9609375 C-40.64840586 344.5792857 -44.56098879 338.21968792 -48.5 331.875 C-52.97398446 324.66770443 -57.40862343 317.43784506 -61.8125 310.1875 C-69.48894843 297.55080254 -77.24223166 284.96188633 -85 272.375 C-92.69401476 259.89155308 -100.3849865 247.40684513 -108 234.875 C-112.77879354 227.01169369 -117.57541745 219.15954662 -122.39477539 211.32104492 C-123.39977707 209.68635828 -124.40400522 208.05119615 -125.40820312 206.41601562 C-126.03533203 205.39701172 -126.66246094 204.37800781 -127.30859375 203.328125 C-127.91429199 202.34005859 -128.51999023 201.35199219 -129.14404297 200.33398438 C-130.41741262 198.30382913 -131.7258694 196.29538738 -133.06298828 194.30664062 C-134.03921143 192.84774414 -134.03921143 192.84774414 -135.03515625 191.359375 C-135.62820557 190.49538086 -136.22125488 189.63138672 -136.83227539 188.74121094 C-138 186.375 -138 186.375 -137.828125 184.19726562 C-136.53805669 181.35850682 -134.3933794 179.99022486 -131.9375 178.125 C-131.01839844 177.41859375 -130.09929687 176.7121875 -129.15234375 175.984375 C-128.08693359 175.18773437 -128.08693359 175.18773437 -127 174.375 C-127.10957031 173.83875 -127.21914062 173.3025 -127.33203125 172.75 C-127.68302937 171.01498489 -128.02259932 169.27764671 -128.35546875 167.5390625 C-128.78329848 165.43880748 -129.26495871 163.34876967 -129.80078125 161.2734375 C-137.59906812 127.93668509 -130.87008397 91.33906196 -113 62.375 C-93.40344819 31.47695591 -63.43851828 10.86132583 -28 2.375 C-18.70162908 0.33279544 -9.48377839 -0.02806975 0 0 Z M-29 11.375 C-29.98589111 11.62443359 -29.98589111 11.62443359 -30.99169922 11.87890625 C-64.51132026 20.69771032 -91.71067137 42.54798969 -109.11816406 72.28515625 C-124.62970817 99.67997758 -128.82777588 133.72749978 -120.64160156 164.12402344 C-114.34918992 186.20014039 -103.77249437 203.60243805 -88 220.375 C-87.4121875 221.03886719 -86.824375 221.70273438 -86.21875 222.38671875 C-78.73150262 230.48148401 -68.64194776 237.06928469 -59 242.375 C-58.34 242.375 -57.68 242.375 -57 242.375 C-58.31066901 238.8778139 -59.84830319 235.77485749 -61.80078125 232.59375 C-62.35878418 231.68069092 -62.91678711 230.76763184 -63.49169922 229.8269043 C-64.39299561 228.36571167 -64.39299561 228.36571167 -65.3125 226.875 C-65.93914551 225.85253174 -66.56579102 224.83006348 -67.21142578 223.77661133 C-69.13611356 220.6397334 -71.06679816 217.50663692 -73 214.375 C-73.55187988 213.48087402 -74.10375977 212.58674805 -74.67236328 211.66552734 C-77.29328037 207.423024 -79.91922616 203.183649 -82.546875 198.9453125 C-83.69794139 197.08855699 -84.84898117 195.23178499 -86 193.375 C-87.02770508 191.71742676 -87.02770508 191.71742676 -88.07617188 190.02636719 C-89.90308162 187.07855184 -91.72692155 184.12885258 -93.5491333 181.1781311 C-94.60043321 179.4772463 -95.65443283 177.77803111 -96.70849609 176.07885742 C-97.35383301 175.03318604 -97.99916992 173.98751465 -98.6640625 172.91015625 C-99.23592285 171.985979 -99.8077832 171.06180176 -100.39697266 170.10961914 C-102.06934517 167.25670343 -103.55336177 164.34785524 -105 161.375 C-103.7315625 160.9728125 -103.7315625 160.9728125 -102.4375 160.5625 C-99.96927891 159.7098418 -97.6825392 158.81399632 -95.3125 157.75 C-92 156.375 -92 156.375 -89 156.375 C-87.62475586 158.140625 -87.62475586 158.140625 -86.21484375 160.625 C-85.68979248 161.53475586 -85.16474121 162.44451172 -84.6237793 163.38183594 C-84.06730713 164.36958008 -83.51083496 165.35732422 -82.9375 166.375 C-81.75677831 168.42278103 -80.5744776 170.4696524 -79.390625 172.515625 C-78.80990234 173.52431641 -78.22917969 174.53300781 -77.63085938 175.57226562 C-75.55606692 179.13792691 -73.39493117 182.64040211 -71.1875 186.125 C-60.29713506 203.3916476 -49.69069134 220.83820276 -39.0859375 238.28125 C-38.31189575 239.53832764 -38.31189575 239.53832764 -37.5222168 240.82080078 C-36.47455262 242.57872582 -35.47564167 244.3663285 -34.51879883 246.17529297 C-31.62371299 251.64890242 -31.62371299 251.64890242 -26.58984375 255.0078125 C-24.78193359 255.25144531 -24.78193359 255.25144531 -22.9375 255.5 C-21.63554687 255.68433594 -20.33359375 255.86867187 -18.9921875 256.05859375 C-13.32068805 256.57758162 -7.68663191 256.58720396 -2 256.375 C-5.98562019 248.86534794 -10.25707737 241.61360742 -14.8125 234.4375 C-20.50348709 225.40478697 -26.09971404 216.32210563 -31.625 207.1875 C-37.57564703 197.35498818 -43.57763849 187.55671446 -49.640625 177.79296875 C-53.7164704 171.22757309 -57.76407417 164.64482297 -61.8125 158.0625 C-62.17368927 157.47531189 -62.53487854 156.88812378 -62.90701294 156.28314209 C-64.93839073 152.98066281 -66.96926609 149.67787531 -69 146.375 C-63.39 144.395 -57.78 142.415 -52 140.375 C-51.01 142.85 -51.01 142.85 -50 145.375 C-49.13629345 146.97222205 -48.23847418 148.55133404 -47.3125 150.11328125 C-46.78422607 151.00692383 -46.25595215 151.90056641 -45.71166992 152.82128906 C-45.14681885 153.76713867 -44.58196777 154.71298828 -44 155.6875 C-43.41259033 156.67588867 -42.82518066 157.66427734 -42.2199707 158.68261719 C-38.15830877 165.49387337 -34.00569291 172.24068377 -29.77734375 178.94921875 C-19.25604111 195.6632165 -9.03338968 212.56853554 1.22070312 229.44726562 C4.43578871 234.73751073 7.65575125 240.02478766 10.875 245.3125 C12.05991557 247.25910257 13.24481333 249.20571598 14.4296875 251.15234375 C14.92710449 251.96952881 15.42452148 252.78671387 15.93701172 253.62866211 C16.28779785 254.20495361 16.63858398 254.78124512 17 255.375 C25.6449673 254.72571929 25.6449673 254.72571929 34.125 253 C35.03507813 252.76539063 35.94515625 252.53078125 36.8828125 252.2890625 C37.58148438 251.98742187 38.28015625 251.68578125 39 251.375 C40.33415115 248.50203321 40.33415115 248.50203321 39.08227539 246.33569336 C38.34738892 245.1621228 38.34738892 245.1621228 37.59765625 243.96484375 C37.04529297 243.07087891 36.49292969 242.17691406 35.92382812 241.25585938 C35.30958984 240.28455078 34.69535156 239.31324219 34.0625 238.3125 C33.43150391 237.29607422 32.80050781 236.27964844 32.15039062 235.23242188 C30.79969993 233.05726641 29.44490303 230.88465642 28.08642578 228.71435547 C24.69481728 223.28603567 21.35067706 217.82863983 18 212.375 C16.64977766 210.18357029 15.29951736 207.99216397 13.94921875 205.80078125 C9.63354712 198.78794665 5.35651521 191.75190354 1.08251953 184.71362305 C-2.7859834 178.35018406 -6.69458193 172.01285125 -10.625 165.6875 C-16.86134948 155.64971039 -22.9516925 145.526986 -29 135.375 C-27.7934375 135.3853125 -26.586875 135.395625 -25.34375 135.40625 C-22.03064799 135.40625 -18.79577502 135.24119722 -15.5 134.875 C-14.6440625 134.7821875 -13.788125 134.689375 -12.90625 134.59375 C-11.96265625 134.48546875 -11.96265625 134.48546875 -11 134.375 C0.80553843 153.16169817 12.40220828 172.07760213 23.92089844 191.04125977 C28.26770536 198.19048304 32.66431572 205.30771403 37.07763672 212.41601562 C43.45197415 222.69480599 49.72600428 233.03476221 56 243.375 C60.64686209 242.03241859 64.2459218 240.13874371 68.25 237.4375 C69.28640625 236.74785156 70.3228125 236.05820313 71.390625 235.34765625 C74.17694393 233.46623284 74.17694393 233.46623284 76 230.375 C75.38294189 229.37424438 75.38294189 229.37424438 74.75341797 228.35327148 C67.41030747 216.4408204 60.07651512 204.5234153 52.8125 192.5625 C48.40871504 185.31209353 43.97358038 178.08254818 39.5 170.875 C34.72815089 163.18001538 29.97517345 155.47374821 25.25 147.75 C24.64091797 146.75935547 24.03183594 145.76871094 23.40429688 144.74804688 C22.84291016 143.82830078 22.28152344 142.90855469 21.703125 141.9609375 C21.20458008 141.1467334 20.70603516 140.3325293 20.19238281 139.49365234 C19 137.375 19 137.375 18 134.375 C24.25376508 133.70140852 30.24303104 133.51676976 36 136.375 C41.51484437 141.78999724 44.73575231 149.2353673 48.22851562 156.03271484 C51.17155362 161.58538714 54.53722543 166.86620523 57.875 172.1875 C59.21544377 174.35820157 60.55397004 176.53008834 61.890625 178.703125 C62.56158203 179.79173828 63.23253906 180.88035156 63.92382812 182.00195312 C65.70710498 184.89914892 67.48722517 187.79822529 69.26498413 190.69880676 C70.70464998 193.04771307 72.14555302 195.3958594 73.58648682 197.74398804 C74.59121304 199.38240332 75.59422061 201.02187214 76.59716797 202.66137695 C80.27547424 208.65283997 84.04692245 214.56084213 88 220.375 C94.63709763 215.29126564 99.17931218 209.1305217 104 202.375 C101.09549525 196.33086392 97.81851026 190.67338231 94.25 185 C93.1038404 183.16166171 91.95802418 181.3231093 90.8125 179.484375 C90.20277344 178.50791016 89.59304688 177.53144531 88.96484375 176.52539062 C85.74148012 171.35711475 82.53142151 166.18069932 79.33093262 160.99822998 C78.26249807 159.27021357 77.19037067 157.54452525 76.11816406 155.81884766 C75.46557617 154.7622998 74.81298828 153.70575195 74.140625 152.6171875 C73.26712402 151.20735596 73.26712402 151.20735596 72.37597656 149.76904297 C71 147.375 71 147.375 70 144.375 C82.60042555 147.30847349 93.27159089 150.48377658 100.45068359 161.84350586 C102.63994273 165.74348914 104.71145335 169.67873979 106.66162109 173.70361328 C108.5311526 177.43517362 110.72562732 180.87820398 113 184.375 C122.31375612 175.94411034 124.49571859 155.19650806 125.18017578 143.22314453 C126.6134959 107.05107657 116.76669985 74.69250455 92.125 47.625 C74.06548247 28.39170035 51.52691327 16.31634456 26 10.375 C24.95972656 10.1275 23.91945313 9.88 22.84765625 9.625 C6.13571389 6.39477221 -12.52105844 7.17990989 -29 11.375 Z " fill="#7F8CBF" transform="translate(297,-0.375)"/>
<path d="M0 0 C2.38576162 2.16363314 3.70727251 4.12902198 5.015625 7.0625 C5.5561853 8.24984741 5.5561853 8.24984741 6.10766602 9.46118164 C6.48463623 10.2989917 6.86160645 11.13680176 7.25 12 C12.03724663 22.34499998 17.46642871 31.46753249 24.8125 40.22265625 C30.69722398 47.69415402 35.73978423 55.66507543 40.625 63.8125 C41.85870146 65.85457373 43.09309098 67.89623191 44.328125 69.9375 C44.94365234 70.95585937 45.55917969 71.97421875 46.19335938 73.0234375 C48.8925672 77.47056478 51.6308514 81.89300792 54.375 86.3125 C59.20314882 94.094592 64.01431479 101.88689406 68.8125 109.6875 C69.81639771 111.31945312 69.81639771 111.31945312 70.84057617 112.984375 C73.58124422 117.44021307 76.32137095 121.89638393 79.06152344 126.35253906 C85.86127663 137.40980993 92.66240495 148.46607761 99.5 159.5 C106.34209481 170.54118371 113.14751989 181.60483237 119.95166016 192.66943359 C123.29993688 198.11367568 126.65004759 203.5567889 130 209 C131.33334242 211.16666108 132.66667574 213.33332775 134 215.5 C134.66 216.5725 135.32 217.645 136 218.75 C174 280.5 174 280.5 176.00073242 283.7512207 C177.33158801 285.91384072 178.66247983 288.07643845 179.9934082 290.23901367 C183.36495125 295.71741008 186.73582739 301.19621492 190.10546875 306.67578125 C198.50277213 320.33000994 198.50277213 320.33000994 206.92993164 333.96582031 C207.96752274 335.6405514 209.00448094 337.31567478 210.04077148 338.99121094 C212.75484739 343.37935421 215.47494319 347.76357643 218.20605469 352.1411438 C219.69291182 354.52667441 221.17531229 356.914956 222.65698242 359.30371094 C223.37983056 360.46685545 224.10457344 361.6288248 224.83129883 362.78955078 C225.84556435 364.41002506 226.85261844 366.0350062 227.859375 367.66015625 C228.44170898 368.59480713 229.02404297 369.52945801 229.62402344 370.49243164 C231 373 231 373 232 377 C227.38 379.31 222.76 381.62 218 384 C212.92226381 376.91584376 208.30451051 369.69065651 203.875 362.1875 C199.12709473 354.20856953 194.34313328 346.25802766 189.4375 338.375 C184.91713923 331.10790667 180.44121996 323.81574251 176 316.5 C171.53402301 309.14521543 167.03847913 301.81026954 162.5 294.5 C157.43462463 286.34001244 152.42699735 278.14643746 147.44140625 269.9375 C142.98722373 262.6087019 138.49988064 255.30081571 134 248 C128.91177259 239.74462311 123.84646058 231.47607939 118.8125 223.1875 C113.88168953 215.0694314 108.90363502 206.98234082 103.89379883 198.9128418 C99.2951544 191.49722305 94.75944261 184.04424765 90.23046875 176.5859375 C86.35159414 170.2042857 82.43901121 163.84468792 78.5 157.5 C74.02601554 150.29270443 69.59137657 143.06284506 65.1875 135.8125 C57.51105157 123.17580254 49.75776834 110.58688633 42 98 C34.30598524 85.51655308 26.6150135 73.03184513 19 60.5 C14.22120646 52.63669369 9.42458255 44.78454662 4.60522461 36.94604492 C3.60022293 35.31135828 2.59599478 33.67619615 1.59179688 32.04101562 C0.96466797 31.02201172 0.33753906 30.00300781 -0.30859375 28.953125 C-0.91429199 27.96505859 -1.51999023 26.97699219 -2.14404297 25.95898438 C-3.41741262 23.92882913 -4.7258694 21.92038738 -6.06298828 19.93164062 C-6.71380371 18.95904297 -7.36461914 17.98644531 -8.03515625 16.984375 C-8.62820557 16.12038086 -9.22125488 15.25638672 -9.83227539 14.36621094 C-11 12 -11 12 -10.828125 9.82226562 C-9.53805669 6.98350682 -7.3933794 5.61522486 -4.9375 3.75 C-4.01839844 3.04359375 -3.09929687 2.3371875 -2.15234375 1.609375 C-1.44207031 1.07828125 -0.73179687 0.5471875 0 0 Z " fill="#DAB7BF" transform="translate(170,174)"/>
<path d="M0 0 C0.66 0 1.32 0 2 0 C3.52988874 2.36775883 4.93320573 4.73298438 6.3125 7.1875 C7.2204799 8.76687818 8.13073884 10.34494776 9.04296875 11.921875 C9.52556152 12.75654297 10.0081543 13.59121094 10.50537109 14.45117188 C12.97251722 18.65845799 15.54672465 22.79768933 18.125 26.9375 C19.23573061 28.72392506 20.34640608 30.51038439 21.45703125 32.296875 C22.03146973 33.22048828 22.6059082 34.14410156 23.19775391 35.09570312 C26.41729745 40.28395699 29.61422077 45.4861207 32.8125 50.6875 C33.81917725 52.32416626 33.81917725 52.32416626 34.84619141 53.99389648 C36.21477065 56.21902038 37.58325984 58.44419966 38.95166016 60.66943359 C42.29993688 66.11367568 45.65004759 71.5567889 49 77 C50.33334242 79.16666108 51.66667574 81.33332775 53 83.5 C53.66 84.5725 54.32 85.645 55 86.75 C74 117.625 74 117.625 93 148.5 C93.66016113 149.5727417 94.32032227 150.6454834 95.00048828 151.75073242 C96.33226668 153.91491297 97.66397254 156.07913815 98.99560547 158.2434082 C102.35213255 163.69848297 105.70996186 169.15274836 109.0703125 174.60546875 C115.46938506 184.99175629 121.85368857 195.38626217 128.1875 205.8125 C133.07752591 213.86141126 138.00759252 221.88408677 142.97216797 229.88720703 C147.26713348 236.81153262 151.54349509 243.74714074 155.8125 250.6875 C156.48394043 251.77909424 157.15538086 252.87068848 157.84716797 253.99536133 C159.21540332 256.22000824 160.58356704 258.44469921 161.95166016 260.66943359 C165.29993688 266.11367568 168.65004759 271.5567889 172 277 C173.33334242 279.16666108 174.66667574 281.33332775 176 283.5 C176.66 284.5725 177.32 285.645 178 286.75 C180 290 182 293.25 184 296.5 C184.66016113 297.5727417 185.32032227 298.6454834 186.00048828 299.75073242 C187.33226668 301.91491297 188.66397254 304.07913815 189.99560547 306.2434082 C194.02978605 312.79981492 198.0666879 319.35453557 202.10571289 325.90795898 C204.09568344 329.13988673 206.08123783 332.37449602 208.06640625 335.609375 C210.74150285 339.9660182 213.43980612 344.3072041 216.15234375 348.640625 C217.45583229 350.73951929 218.75922184 352.83847507 220.0625 354.9375 C220.67689941 355.90905029 221.29129883 356.88060059 221.92431641 357.8815918 C222.47651855 358.77531494 223.0287207 359.66903809 223.59765625 360.58984375 C224.08758057 361.37222412 224.57750488 362.15460449 225.08227539 362.96069336 C226 365 226 365 225 368 C222.671875 368.984375 222.671875 368.984375 219.75 369.75 C218.79609375 370.01296875 217.8421875 370.2759375 216.859375 370.546875 C213.76216308 371.03769 211.98035178 370.94084307 209 370 C207.40112305 368.18774414 207.40112305 368.18774414 206.01171875 365.78515625 C205.47885254 364.88498779 204.94598633 363.98481934 204.39697266 363.05737305 C203.83284668 362.06906494 203.2687207 361.08075684 202.6875 360.0625 C201.43988419 357.94467466 200.19114406 355.82751133 198.94140625 353.7109375 C197.97098389 352.05143066 197.97098389 352.05143066 196.98095703 350.35839844 C193.77323156 344.92020869 190.44695177 339.55639323 187.125 334.1875 C185.77568298 331.9976168 184.4267273 329.80751092 183.078125 327.6171875 C181.71882137 325.41141435 180.35944624 323.20568526 179 321 C170.65769808 307.46471492 162.33178338 293.92055604 154.07763672 280.33129883 C149.72188792 273.1674505 145.31599428 266.0358096 140.89379883 258.9128418 C136.2951544 251.49722305 131.75944261 244.04424765 127.23046875 236.5859375 C123.35159442 230.20428617 119.43905613 223.84465975 115.5 217.5 C110.36201255 209.22421486 105.28640905 200.91205552 100.23046875 192.5859375 C96.35159442 186.20428617 92.43905613 179.84465975 88.5 173.5 C83.36201255 165.22421486 78.28640905 156.91205552 73.23046875 148.5859375 C69.35159442 142.20428617 65.43905613 135.84465975 61.5 129.5 C56.36201255 121.22421486 51.28640905 112.91205552 46.23046875 104.5859375 C42.35159442 98.20428617 38.43905613 91.84465975 34.5 85.5 C29.96146773 78.18976068 25.46618679 70.85465796 21 63.5 C16.44584633 56.00256982 11.86678277 48.52153666 7.25 41.0625 C6.72003418 40.20269531 6.19006836 39.34289062 5.64404297 38.45703125 C3.12105278 34.37390472 0.56784593 30.3184249 -2.0703125 26.30859375 C-2.54500977 25.57825928 -3.01970703 24.8479248 -3.50878906 24.09545898 C-4.39144301 22.74166719 -5.28588594 21.39545631 -6.19433594 20.05883789 C-7.89915974 17.42956237 -8.99914501 15.5702751 -9.00390625 12.39453125 C-7.74887341 9.40100934 -6.11890654 7.19758032 -4.0625 4.6875 C-3.35222656 3.80449219 -2.64195312 2.92148438 -1.91015625 2.01171875 C-1.27980469 1.34785156 -0.64945313 0.68398437 0 0 Z " fill="#DBB7BF" transform="translate(140,200)"/>
<path d="M0 0 C4.2152213 3.6598039 6.66391395 8.17376997 9.4375 12.9375 C10.51302055 14.75728077 11.58988588 16.5762673 12.66796875 18.39453125 C13.2201709 19.3273291 13.77237305 20.26012695 14.34130859 21.22119141 C16.92741747 25.55370409 19.58525556 29.84054935 22.25 34.125 C23.33993798 35.88014982 24.42977927 37.63535969 25.51953125 39.390625 C26.0810791 40.29490234 26.64262695 41.19917969 27.22119141 42.13085938 C35.60494054 55.65348082 43.92653045 69.21456257 52.1875 82.8125 C57.07617567 90.85914618 62.00527678 98.87931199 66.96777344 106.88061523 C76.43865628 122.15177236 85.85747914 137.45485474 95.1875 152.8125 C100.07754489 160.8613999 105.00759239 168.88408656 109.97216797 176.88720703 C116.32335266 187.12656066 122.63138215 197.39239906 128.94287109 207.65625 C130.98775428 210.98009525 133.03457866 214.30273696 135.08203125 217.625 C141.47743702 228.00463109 147.85762975 238.39274984 154.1875 248.8125 C159.07615669 256.85915755 164.0052769 264.87931219 168.96777344 272.88061523 C179.1292749 289.2653481 189.23857643 305.68237257 199.22045898 322.17724609 C199.74712158 323.04559082 200.27378418 323.91393555 200.81640625 324.80859375 C201.32703613 325.65276855 201.83766602 326.49694336 202.36376953 327.36669922 C203.54203846 329.26297028 204.755906 331.13728735 205.99169922 332.99658203 C206.64283691 333.97868652 207.29397461 334.96079102 207.96484375 335.97265625 C208.56804443 336.863479 209.17124512 337.75430176 209.79272461 338.67211914 C210.39032593 339.82442017 210.39032593 339.82442017 211 341 C210.67 341.99 210.34 342.98 210 344 C207.30916087 344.44191509 204.64309687 344.80274529 201.9375 345.125 C201.18533203 345.25648438 200.43316406 345.38796875 199.65820312 345.5234375 C197.13808324 345.78526814 195.42243418 345.76924171 193 345 C189.98319928 342.08796046 188.07566821 338.61771731 186 335 C184.68591054 332.87827745 183.37076165 330.75721079 182.0546875 328.63671875 C181.01859585 326.91938668 179.98258778 325.2019986 178.95114136 323.48187256 C177.08808783 320.37539208 175.21301472 317.27616752 173.33984375 314.17578125 C172.96680618 313.5576355 172.59376862 312.93948975 172.20942688 312.3026123 C168.98923591 306.97028071 165.72465133 301.66632195 162.4375 296.375 C161.39319198 294.69273141 160.34892167 293.01043942 159.3046875 291.328125 C158.77456055 290.47412109 158.24443359 289.62011719 157.69824219 288.74023438 C149.34348397 275.25923865 141.04717185 261.74215019 132.8125 248.1875 C127.92382433 240.14085382 122.99472322 232.12068801 118.03222656 224.11938477 C108.56134372 208.84822764 99.14252086 193.54514526 89.8125 178.1875 C84.92245511 170.1386001 79.99240761 162.11591344 75.02783203 154.11279297 C68.67664734 143.87343934 62.36861785 133.60760094 56.05712891 123.34375 C54.01224572 120.01990475 51.96542134 116.69726304 49.91796875 113.375 C43.52256298 102.99536891 37.14237025 92.60725016 30.8125 82.1875 C25.93134871 74.15319623 21.01180592 66.14407913 16.05419922 58.15673828 C12.94771353 53.15063707 9.85229308 48.13793256 6.76953125 43.1171875 C6.40941956 42.5309108 6.04930786 41.94463409 5.67828369 41.34059143 C3.91061383 38.46251756 2.14412375 35.5837364 0.37939453 32.70385742 C-0.26271973 31.65818604 -0.90483398 30.61251465 -1.56640625 29.53515625 C-2.16340332 28.55691895 -2.76040039 27.57868164 -3.37548828 26.57080078 C-4.68364783 24.50062944 -6.05189466 22.57005025 -7.52734375 20.62109375 C-9 18 -9 18 -8.96875 14.98828125 C-7.88533091 11.64628284 -6.4491941 9.1072969 -4.5 6.1875 C-3.8709375 5.23230469 -3.241875 4.27710938 -2.59375 3.29296875 C-1 1 -1 1 0 0 Z " fill="#DBB7BF" transform="translate(115,232)"/>
<path d="M0 0 C3.21508698 2.97407729 5.40936049 6.02339811 7.65234375 9.77734375 C7.98851715 10.33584518 8.32469055 10.89434662 8.67105103 11.46977234 C9.39075028 12.66682398 10.10784244 13.8654463 10.82254028 15.06549072 C12.33866587 17.61105458 13.86748007 20.14891343 15.39555359 22.68731689 C16.1687589 23.97203978 16.94131083 25.25715613 17.71321106 26.54266357 C20.95065369 31.9319877 24.24239917 37.28618938 27.5625 42.625 C28.6068938 44.30721533 29.65116279 45.98950816 30.6953125 47.671875 C31.49050293 48.95288086 31.49050293 48.95288086 32.30175781 50.25976562 C40.65651603 63.74076135 48.95282815 77.25784981 57.1875 90.8125 C62.07617567 98.85914618 67.00527678 106.87931199 71.96777344 114.88061523 C81.43865628 130.15177236 90.85747914 145.45485474 100.1875 160.8125 C105.07617567 168.85914618 110.00527678 176.87931199 114.96777344 184.88061523 C124.43865628 200.15177236 133.85747914 215.45485474 143.1875 230.8125 C148.07173856 238.85184281 152.99558791 246.865222 157.95458984 254.85864258 C162.42328276 262.06256544 166.87118662 269.27917708 171.3125 276.5 C171.95815918 277.54969971 172.60381836 278.59939941 173.26904297 279.6809082 C174.53037393 281.73182265 175.79048502 283.78348789 177.04931641 285.8359375 C178.44354354 288.0974123 179.8461477 290.35198949 181.25927734 292.6015625 C181.63030075 293.19545776 182.00132416 293.78935303 182.3835907 294.40124512 C183.42622393 296.06945829 184.47312798 297.73499995 185.52026367 299.40039062 C187 302 187 302 187 304 C184.8119683 303.88468071 182.62457224 303.7572734 180.4375 303.625 C179.21933594 303.55539062 178.00117188 303.48578125 176.74609375 303.4140625 C167.25647951 302.36515832 167.25647951 302.36515832 164.55200195 299.42675781 C163.059497 297.27840278 161.73987304 295.08120873 160.4375 292.8125 C159.6794104 291.55348877 159.6794104 291.55348877 158.90600586 290.26904297 C157.81904382 288.46103018 156.74095344 286.64765998 155.67089844 284.82958984 C153.42814523 281.03159018 151.12564261 277.27133256 148.82446289 273.50854492 C147.04448322 270.59551459 145.27356143 267.67712428 143.50390625 264.7578125 C140.20089332 259.31873572 136.85719798 253.90575304 133.5 248.5 C128.43449126 240.34009612 123.42699646 232.14643601 118.44140625 223.9375 C113.98722373 216.6087019 109.49988064 209.30081571 105 202 C99.91177259 193.74462311 94.84646058 185.47607939 89.8125 177.1875 C85.40870385 169.93710588 80.97393334 162.70732647 76.5 155.5 C71.43468192 147.33997654 66.42699771 139.14643807 61.44140625 130.9375 C56.98722373 123.6087019 52.49988064 116.30081571 48 109 C42.91177259 100.74462311 37.84646058 92.47607939 32.8125 84.1875 C27.88749477 76.07898914 22.91566998 68.00118662 17.91137695 59.94140625 C13.14724476 52.25943405 8.44432037 44.5408478 3.75585938 36.8125 C3.20736328 35.90886719 2.65886719 35.00523437 2.09375 34.07421875 C1.31451172 32.77762329 1.31451172 32.77762329 0.51953125 31.45483398 C-0.46377074 29.8662894 -1.48546324 28.30061805 -2.55078125 26.76586914 C-6.01470224 21.7268422 -6.01470224 21.7268422 -5.9375 17.91015625 C-5.4734375 16.50056641 -5.4734375 16.50056641 -5 15.0625 C-4.68417969 14.04800781 -4.36835937 13.03351563 -4.04296875 11.98828125 C-3.52669922 10.50908203 -3.52669922 10.50908203 -3 9 C-2.56107422 7.62908203 -2.56107422 7.62908203 -2.11328125 6.23046875 C-1.4395327 4.14349155 -0.72447068 2.06991623 0 0 Z " fill="#DBB7BF" transform="translate(92,273)"/>
<path d="M0 0 C0.54785156 0.17015625 1.09570312 0.3403125 1.66015625 0.515625 C2.84931641 0.87914062 2.84931641 0.87914062 4.0625 1.25 C4.97515625 1.54777344 5.8878125 1.84554688 6.828125 2.15234375 C10.0283385 3.10460787 10.0283385 3.10460787 13.546875 3.31640625 C18.99520837 4.03418461 23.08121821 4.76194722 26.78125 9.07763672 C30.51682599 14.53773287 33.54294938 20.38437916 36.5625 26.26171875 C38.4640371 29.88394024 40.59667334 33.31442675 42.8125 36.75 C43.61745571 38.02374857 44.42076747 39.29853716 45.22265625 40.57421875 C45.65465332 41.2604834 46.08665039 41.94674805 46.53173828 42.65380859 C55.38222524 56.7963393 64.04782699 71.0563103 72.70996094 85.31469727 C77.7849973 93.66240053 82.90658979 101.98105806 88.0324707 110.29760742 C92.44121582 117.45495207 96.82383946 124.62759137 101.1875 131.8125 C105.59129615 139.06289412 110.02606666 146.29267353 114.5 153.5 C119.56531808 161.66002346 124.57300229 169.85356193 129.55859375 178.0625 C134.01277627 185.3912981 138.50011936 192.69918429 143 200 C148.088228 208.25537784 153.15340983 216.52399871 158.1875 224.8125 C162.67940571 232.20558702 167.19776098 239.58140403 171.75 246.9375 C172.27948242 247.79698242 172.80896484 248.65646484 173.35449219 249.54199219 C175.88577984 253.64019252 178.45000622 257.70752965 181.10546875 261.7265625 C181.58467773 262.46140869 182.06388672 263.19625488 182.55761719 263.95336914 C183.45229687 265.32087406 184.35981361 266.68009915 185.28222656 268.02905273 C188.11976264 272.39255526 188.11976264 272.39255526 187.56640625 275.19921875 C185.588401 277.47318488 183.49246823 279.05454196 181 280.75 C180.113125 281.36359375 179.22625 281.9771875 178.3125 282.609375 C176 284 176 284 174 284 C172.55810547 282.02587891 172.55810547 282.02587891 170.8671875 279.2265625 C170.23425781 278.18757813 169.60132813 277.14859375 168.94921875 276.078125 C168.25775538 274.92711765 167.56635078 273.77607499 166.875 272.625 C166.15571458 271.43963861 165.43565073 270.25474926 164.71484375 269.0703125 C163.21538578 266.60501768 161.7193269 264.13770797 160.22558594 261.66894531 C156.84833342 256.09342042 153.42190455 250.54818593 150 245 C148.66643012 242.83347892 147.33309766 240.66681168 146 238.5 C145.34 237.4275 144.68 236.355 144 235.25 C90 147.50000001 90 147.50000001 87.99926758 144.2487793 C86.66841199 142.08615928 85.33752017 139.92356155 84.0065918 137.76098633 C80.63504875 132.28258992 77.26417261 126.80378508 73.89453125 121.32421875 C67.7755435 111.37502493 61.6525619 101.42847484 55.5 91.5 C48.65790519 80.45881629 41.85248011 69.39516763 35.04833984 58.33056641 C32.36302984 53.96429714 29.6765644 49.59873969 26.98974609 45.23339844 C25.67062518 43.08978648 24.35193532 40.9459092 23.03369141 38.80175781 C19.90155542 33.70826201 16.76530787 28.6174274 13.61514282 23.5350647 C12.12216838 21.12581542 10.63143039 18.71518618 9.14086914 16.30444336 C8.08372768 14.59679013 7.02334171 12.89114681 5.96289062 11.18554688 C5.32673828 10.15623047 4.69058594 9.12691406 4.03515625 8.06640625 C3.4719165 7.15834229 2.90867676 6.25027832 2.32836914 5.31469727 C1 3 1 3 0 0 Z " fill="#DAB7BF" transform="translate(249,255)"/>
<path d="M0 0 C2.39988537 -0.37817614 3.77679206 -0.38965419 6.07666016 0.43774414 C9.26951331 3.89762107 11.41743069 7.9041174 13.70166016 12.00024414 C14.39437846 13.19104125 15.09014205 14.38007164 15.78881836 15.56738281 C17.21611132 18.00020844 18.62840537 20.44079697 20.02929688 22.88891602 C23.00451413 28.07187991 26.13911764 33.15675065 29.26416016 38.25024414 C30.41439939 40.14186749 31.56414345 42.03379204 32.71337891 43.92602539 C35.97402698 49.28018446 39.27047688 54.61161601 42.57666016 59.93774414 C47.05059401 67.14507143 51.48528326 74.37489854 55.88916016 81.62524414 C63.56560859 94.26194161 71.31889182 106.85085781 79.07666016 119.43774414 C87.34723734 132.8566567 95.60389509 146.28307423 103.78808594 159.75488281 C108.86267094 168.10174971 113.9837479 176.4196101 119.10913086 184.73535156 C123.51787594 191.89269615 127.90051356 199.06532701 132.26416016 206.25024414 C138.80469707 217.01897854 145.42625475 227.73657646 152.07666016 238.43774414 C151.13599839 239.71009307 150.19279105 240.98056026 149.24853516 242.25024414 C148.4610791 243.31178711 148.4610791 243.31178711 147.65771484 244.39477539 C145.63095077 247.01367004 143.55224696 249.23722253 141.07666016 251.43774414 C140.41666016 251.43774414 139.75666016 251.43774414 139.07666016 251.43774414 C137.54296875 249.2800293 137.54296875 249.2800293 135.72509766 246.22680664 C135.04697021 245.09742676 134.36884277 243.96804688 133.67016602 242.80444336 C133.30921844 242.19566345 132.94827087 241.58688354 132.5763855 240.95965576 C131.44035577 239.04367867 130.29606514 237.13287913 129.14916992 235.22338867 C127.96291455 233.24834823 126.7771032 231.27306078 125.59382629 229.29623413 C121.78581072 222.93615237 117.90819755 216.62056125 114.01416016 210.31274414 C112.68992209 208.16431855 111.36570337 206.01588103 110.04150391 203.86743164 C109.38778809 202.8075 108.73407227 201.74756836 108.06054688 200.65551758 C104.72895444 195.25182717 101.40311316 189.84459923 98.07666016 184.43774414 C96.74335406 182.27106071 95.41002074 180.10439404 94.07666016 177.93774414 C90.07666016 171.43774414 90.07666016 171.43774414 86.07666016 164.93774414 C85.41649902 163.86500244 84.75633789 162.79226074 84.07617188 161.68701172 C82.74439348 159.52283117 81.41268761 157.35860599 80.08105469 155.19433594 C76.72452761 149.73926117 73.3666983 144.28499578 70.00634766 138.83227539 C63.60727509 128.44598785 57.22297158 118.05148197 50.88916016 107.62524414 C46.00050347 99.57858659 41.07138325 91.55843195 36.10888672 83.55712891 C26.0597626 67.3535969 16.07545868 51.11069344 6.18139648 34.81201172 C1.55835567 27.2050748 -3.122365 19.63475687 -7.83813477 12.08496094 C-8.34578369 11.26938721 -8.85343262 10.45381348 -9.37646484 9.61352539 C-9.82151367 8.90107666 -10.2665625 8.18862793 -10.72509766 7.45458984 C-11.89283659 5.48908631 -12.9284844 3.4953386 -13.92333984 1.43774414 C-12.09041245 1.26667092 -10.25696787 1.10113674 -8.42333984 0.93774414 C-7.40240234 0.84493164 -6.38146484 0.75211914 -5.32958984 0.65649414 C-2.14995415 0.54292063 -2.14995415 0.54292063 0 0 Z " fill="#DBB7BF" transform="translate(313.92333984375,262.562255859375)"/>
<path d="M0 0 C3.15868046 2.93058245 5.34026208 5.90798926 7.546875 9.6015625 C8.21871826 10.71829346 8.89056152 11.83502441 9.58276367 12.9855957 C9.93551361 13.57797028 10.28826355 14.17034485 10.65170288 14.78067017 C12.15270155 17.30124186 13.6662971 19.81416705 15.17912292 22.32765198 C15.96185069 23.62839607 16.7439187 24.92953739 17.52534485 26.23106384 C21.36420926 32.62165604 25.27035993 38.96957055 29.1875 45.3125 C34.21441572 53.46300785 39.21674757 61.62761847 44.1875 69.8125 C49.11829168 77.93057984 54.09636511 86.01765939 59.10620117 94.0871582 C63.7048456 101.50277695 68.24055739 108.95575235 72.76953125 116.4140625 C76.64840558 122.79571383 80.56094387 129.15534025 84.5 135.5 C89.63798745 143.77578514 94.71359095 152.08794448 99.76953125 160.4140625 C103.64840558 166.79571383 107.56094387 173.15534025 111.5 179.5 C116.62962624 187.7623177 121.70040862 196.05890912 126.74316406 204.37451172 C129.7027285 209.2487467 132.68242167 214.10868582 135.703125 218.9453125 C136.29867187 219.89986328 136.89421875 220.85441406 137.5078125 221.83789062 C138.63971722 223.64868439 139.77495022 225.45740346 140.9140625 227.26367188 C141.42195312 228.07642578 141.92984375 228.88917969 142.453125 229.7265625 C142.89817383 230.43377441 143.34322266 231.14098633 143.80175781 231.86962891 C145.10118864 234.17990466 146.06678623 236.52172674 147 239 C140.78032037 237.55297249 134.72360741 235.69519102 128.75 233.4375 C127.63109375 233.02371094 126.5121875 232.60992188 125.359375 232.18359375 C117.23350849 227.86639377 112.56573846 216.13043656 108.0625 208.5 C102.75609519 199.58161662 97.38955387 190.7051295 91.9375 181.875 C86.8682634 173.66232169 81.82141919 165.43711439 76.8125 157.1875 C72.47197311 150.04072389 68.09990592 142.91511408 63.6875 135.8125 C58.19605312 126.97180417 52.78930153 118.08109278 47.39730835 109.17959595 C42.80268995 101.59602113 38.18140286 94.03043844 33.5 86.5 C29.92967394 80.75682399 26.38361826 74.99985376 22.875 69.21875 C22.5173909 68.63039871 22.1597818 68.04204742 21.79133606 67.43586731 C19.96097289 64.42133039 18.14099596 61.4012364 16.33862305 58.36987305 C13.07267794 52.89897011 9.75492439 47.55279699 5.95703125 42.42578125 C-2.81242446 30.31335523 -4.27252825 21.77338573 -1.9921875 6.92578125 C-1.53363556 4.3579362 -1.16476463 2.32952926 0 0 Z " fill="#DBB7BF" transform="translate(79,326)"/>
<path d="M0 0 C1.37182617 1.81225586 1.37182617 1.81225586 2.79296875 4.21484375 C3.33228027 5.11501221 3.8715918 6.01518066 4.42724609 6.94262695 C5.00812988 7.93093506 5.58901367 8.91924316 6.1875 9.9375 C7.45361958 12.0551705 8.720578 14.17233965 9.98828125 16.2890625 C10.64779785 17.39540039 11.30731445 18.50173828 11.98681641 19.64160156 C15.23552338 25.06110351 18.55571066 30.43604265 21.875 35.8125 C23.22408016 38.00252912 24.57303757 40.19263387 25.921875 42.3828125 C27.28117863 44.58858565 28.64055376 46.79431474 30 49 C38.27057719 62.41891256 46.52723494 75.84533009 54.71142578 89.31713867 C59.78601078 97.66400557 64.90708774 105.98186596 70.0324707 114.29760742 C74.44121582 121.45495207 78.82383946 128.62759137 83.1875 135.8125 C88.11967943 143.93282244 93.09868838 152.02242919 98.1105957 160.09375 C102.65467382 167.42029505 107.1426966 174.7801365 111.59375 182.16357422 C114.7439009 187.36997553 117.96519319 192.51573807 121.2890625 197.61328125 C121.9917627 198.7014917 122.69446289 199.78970215 123.41845703 200.91088867 C124.78181065 203.01604353 126.15991509 205.11173541 127.55419922 207.1965332 C128.16537598 208.14488037 128.77655273 209.09322754 129.40625 210.0703125 C129.95603516 210.90320801 130.50582031 211.73610352 131.07226562 212.59423828 C132 215 132 215 131.28369141 217.62719727 C129.70179453 220.55120939 127.86436627 223.14931612 125.875 225.8125 C125.15054688 226.78832031 124.42609375 227.76414062 123.6796875 228.76953125 C122.84824219 229.87361328 122.84824219 229.87361328 122 231 C118.84131954 228.06941755 116.65973792 225.09201074 114.453125 221.3984375 C113.44536011 219.72334106 113.44536011 219.72334106 112.41723633 218.0144043 C112.06448639 217.42202972 111.71173645 216.82965515 111.34829712 216.21932983 C109.84729845 213.69875814 108.3337029 211.18583295 106.82087708 208.67234802 C106.03814931 207.37160393 105.2560813 206.07046261 104.47465515 204.76893616 C100.63579074 198.37834396 96.72964007 192.03042945 92.8125 185.6875 C87.78558428 177.53699215 82.78325243 169.37238153 77.8125 161.1875 C72.88170832 153.06942016 67.90363489 144.98234061 62.89379883 136.9128418 C58.2951544 129.49722305 53.75944261 122.04424765 49.23046875 114.5859375 C45.35159442 108.20428617 41.43905613 101.84465975 37.5 95.5 C32.36201255 87.22421486 27.28640905 78.91205552 22.23046875 70.5859375 C17.82901529 63.34452183 13.37837232 56.13487674 8.90771484 48.93603516 C4.19988012 41.34585265 -0.44486955 33.71799532 -5.06835938 26.07617188 C-8.51584029 20.39049288 -12.05531006 14.77989727 -15.70166016 9.21923828 C-17 7 -17 7 -17 5 C-14.73392948 3.96724659 -12.46318061 2.94866449 -10.1875 1.9375 C-9.22360352 1.49567383 -9.22360352 1.49567383 -8.24023438 1.04492188 C-3.33984375 -1.11328125 -3.33984375 -1.11328125 0 0 Z " fill="#DBB7BF" transform="translate(359,251)"/>
<path d="M0 0 C4.12861688 4.7645652 7.20709405 10.11257402 10.4375 15.5 C11.69854371 17.58764749 12.9602767 19.67487876 14.22265625 21.76171875 C14.85703613 22.81149902 15.49141602 23.8612793 16.14501953 24.94287109 C18.85989052 29.41715571 21.61406876 33.86653791 24.375 38.3125 C34.37829335 54.43881658 44.33443603 70.59390163 54.1875 86.8125 C59.07754489 94.8613999 64.00759239 102.88408656 68.97216797 110.88720703 C73.26713369 117.81153296 77.54340875 124.7471936 81.8125 131.6875 C82.48321533 132.77764404 83.15393066 133.86778809 83.8449707 134.9909668 C87.24777062 140.52259798 90.64847068 146.05551106 94.046875 151.58984375 C95.04412598 153.21200806 95.04412598 153.21200806 96.06152344 154.86694336 C97.38772015 157.02630098 98.7113209 159.18725524 100.03222656 161.34985352 C103.05307945 166.2817894 106.09958971 171.18761245 109.27833557 176.01980591 C110.35954313 177.66399479 111.43167416 179.31414073 112.50366211 180.96435547 C113.84066535 183.01686869 115.19477839 185.05837433 116.56860352 187.08642578 C121.50526697 194.71212278 121.50526697 194.71212278 121.0625 199.2734375 C120.05111531 202.82072058 118.93169229 206.12848919 117.4375 209.5 C116.98246094 210.5415625 116.52742187 211.583125 116.05859375 212.65625 C115.53458984 213.81640625 115.53458984 213.81640625 115 215 C111.21435941 213.7381198 110.86276816 212.5659127 108.8828125 209.171875 C108.28267334 208.15528809 107.68253418 207.13870117 107.06420898 206.09130859 C106.42427002 204.98867676 105.78433105 203.88604492 105.125 202.75 C104.10899278 201.02694396 103.09296807 199.30389724 102.07499695 197.58200073 C101.38418678 196.41323593 100.6943442 195.24389872 100.00544739 194.07400513 C96.89231032 188.79277312 93.68157457 183.57647189 90.4375 178.375 C85.98102284 171.21127254 81.56642387 164.02390366 77.1875 156.8125 C72.15365001 148.52385395 67.08822691 140.25537608 62 132 C56.91177259 123.74462311 51.84646058 115.47607939 46.8125 107.1875 C42.40870385 99.93710588 37.97393334 92.70732647 33.5 85.5 C28.43832727 77.34584905 23.43374642 69.15850648 18.45239258 60.95507812 C13.8929942 53.45215889 9.29538623 45.97319483 4.6875 38.5 C-0.94002264 29.37150572 -6.52299857 20.21961908 -12 11 C-9.14982856 8.11044796 -6.29079467 5.30400335 -3.1875 2.6875 C-2.58292969 2.17574219 -1.97835938 1.66398438 -1.35546875 1.13671875 C-0.90816406 0.76160156 -0.46085937 0.38648438 0 0 Z " fill="#DBB7BF" transform="translate(389,227)"/>
<path d="M0 0 C3.21508698 2.97407729 5.40936049 6.02339811 7.65234375 9.77734375 C7.98860779 10.33598114 8.32487183 10.89461853 8.67132568 11.47018433 C9.3911203 12.66737098 10.10830424 13.86613052 10.8230896 15.0663147 C12.33704697 17.60837172 13.86346944 20.14286079 15.38923645 22.67784119 C16.1615204 23.96119434 16.93315668 25.24493747 17.70414734 26.52906799 C20.98313256 31.9874171 24.32236656 37.40684047 27.6875 42.8125 C32.69274914 50.86745908 37.63653582 58.95814515 42.55932617 67.0637207 C47.01327973 74.3921029 51.50040032 81.69956842 56 89 C61.60051108 98.08733065 67.16879496 107.19338165 72.7109375 116.31640625 C76.44245722 122.45399638 80.19274106 128.57960189 83.96557617 134.69189453 C85.31789308 136.89084978 86.66187491 139.09495355 87.99731445 141.30419922 C91.24061774 146.65018117 94.55956547 151.85033789 98.23046875 156.9140625 C105.57248689 167.33456356 109.34914351 174.46565588 107.375 187.4375 C106.71476483 190.99988869 105.94659764 194.50297662 105 198 C104.01 198 103.02 198 102 198 C100.58056641 196.22192383 100.58056641 196.22192383 99.1015625 193.70703125 C98.26939209 192.31327271 98.26939209 192.31327271 97.42041016 190.89135742 C96.8279248 189.87533447 96.23543945 188.85931152 95.625 187.8125 C94.3549863 185.67919934 93.08413595 183.54639656 91.8125 181.4140625 C91.17183594 180.33286133 90.53117187 179.25166016 89.87109375 178.13769531 C87.17704963 173.61996892 84.40583043 169.15214001 81.625 164.6875 C80.55037287 162.95598255 79.47616305 161.22420605 78.40234375 159.4921875 C77.85304199 158.6062793 77.30374023 157.72037109 76.73779297 156.80761719 C71.49152791 148.33163402 66.27861026 139.83501201 61.05712891 131.34375 C59.01224572 128.01990475 56.96542134 124.69726304 54.91796875 121.375 C48.52256298 110.99536891 42.14237025 100.60725016 35.8125 90.1875 C30.92743103 82.14674779 26.00187657 74.1325115 21.04321289 66.13696289 C15.24126926 56.78133976 9.45770203 47.41458219 3.70703125 38.02734375 C1.48206669 34.39695931 -0.76351157 30.78282767 -3.05078125 27.19140625 C-3.70095215 26.1547583 -3.70095215 26.1547583 -4.36425781 25.09716797 C-5.46418913 23.34418045 -6.57717141 21.59939962 -7.69140625 19.85546875 C-9 17 -9 17 -8.8984375 14.40234375 C-7.90757494 11.75286344 -6.68826612 9.68843736 -5.0625 7.375 C-4.53785156 6.61960938 -4.01320313 5.86421875 -3.47265625 5.0859375 C-2.98667969 4.39757812 -2.50070312 3.70921875 -2 3 C-1.34 2.01 -0.68 1.02 0 0 Z " fill="#DBB7BF" transform="translate(415,193)"/>
<path d="M0 0 C1.52988291 2.36774982 2.93327484 4.73295593 4.3125 7.1875 C5.21783433 8.76299523 6.12549272 10.33715666 7.03515625 11.91015625 C7.51742676 12.74434082 7.99969727 13.57852539 8.49658203 14.43798828 C11.00566355 18.7137761 13.62747485 22.91816486 16.25 27.125 C20.8106733 34.45542182 25.33213731 41.80770622 29.8125 49.1875 C34.84627851 57.47619237 39.9121075 65.74441696 45 74 C50.28185257 82.57659419 55.55972681 91.15555721 60.8125 99.75 C61.68358398 101.16925781 61.68358398 101.16925781 62.57226562 102.6171875 C65.24663445 107.00097965 67.80799403 111.35448559 70 116 C69.14664063 116.13792969 68.29328125 116.27585937 67.4140625 116.41796875 C64.0140298 116.95407683 64.0140298 116.95407683 60.7734375 117.80078125 C56.56942721 118.43379889 54.04010762 118.4172784 50 117 C45.29910881 112.22903163 42.52074301 105.75810501 39.50634766 99.85644531 C37.11351034 95.31897422 34.36808422 91.01892445 31.625 86.6875 C30.53186524 84.93222667 29.44074347 83.17569822 28.3515625 81.41796875 C27.80274414 80.53286621 27.25392578 79.64776367 26.68847656 78.73583984 C23.76870439 74.0049308 20.88509441 69.25210794 18 64.5 C13.05981396 56.36610338 8.08102601 48.25767359 3.0637207 40.17114258 C-1.578935 32.68717308 -6.19837311 25.1890772 -10.8125 17.6875 C-11.17341736 17.10076508 -11.53433472 16.51403015 -11.90618896 15.90951538 C-13.93784318 12.60657956 -15.96910177 9.3034007 -18 6 C-14.81099544 3.87399696 -12.09585431 2.97863761 -8.4375 1.875 C-7.28121094 1.52179688 -6.12492188 1.16859375 -4.93359375 0.8046875 C-2 0 -2 0 0 0 Z " fill="#DAB7BF" transform="translate(245,140)"/>
<path d="M0 0 C1.59472117 2.12320434 2.91885627 4.15517825 4.25 6.4375 C5.13516947 7.90379509 6.02060525 9.36992943 6.90625 10.8359375 C7.39480469 11.65416992 7.88335937 12.47240234 8.38671875 13.31542969 C10.79155584 17.31718341 13.25208421 21.28407599 15.70678711 25.25537109 C21.57304463 34.75045108 27.39233968 44.27390232 33.1875 53.8125 C37.61631314 61.10183552 42.07145941 68.37383367 46.5625 75.625 C47.34620972 76.8948877 47.34620972 76.8948877 48.14575195 78.19042969 C50.97337501 82.76446175 53.83485623 87.3134978 56.73828125 91.83984375 C57.34663818 92.79745605 57.95499512 93.75506836 58.58178711 94.74169922 C59.75330238 96.58454297 60.93471581 98.42114165 62.12719727 100.25048828 C62.64983154 101.07661621 63.17246582 101.90274414 63.7109375 102.75390625 C64.17806152 103.47908447 64.64518555 104.2042627 65.12646484 104.95141602 C66 107 66 107 65.80664062 109.17260742 C64.48406158 112.16882539 62.0809376 112.60165014 59.125 113.75 C58.05507813 114.17796875 56.98515625 114.6059375 55.8828125 115.046875 C53 116 53 116 50 116 C48.62475586 114.234375 48.62475586 114.234375 47.21484375 111.75 C46.42726685 110.38536621 46.42726685 110.38536621 45.6237793 108.99316406 C45.06730713 108.00541992 44.51083496 107.01767578 43.9375 106 C42.75677831 103.95221897 41.5744776 101.9053476 40.390625 99.859375 C39.80990234 98.85068359 39.22917969 97.84199219 38.63085938 96.80273438 C36.55606692 93.23707309 34.39493117 89.73459789 32.1875 86.25 C27.82944156 79.34030875 23.53063702 72.39543486 19.25 65.4375 C18.56405762 64.3225415 17.87811523 63.20758301 17.17138672 62.05883789 C12.1236502 53.84546131 7.10775609 45.6130702 2.10327148 37.37329102 C-2.49981966 29.80212987 -7.15239431 22.26235635 -11.8269043 14.73510742 C-12.80581895 13.15861861 -13.78340213 11.58130177 -14.75927734 10.00292969 C-15.78694036 8.34394753 -16.82390608 6.69073206 -17.86328125 5.0390625 C-19 3 -19 3 -19 1 C-16.58440932 0.63645961 -14.16805703 0.28389449 -11.75 -0.0625 C-11.06808594 -0.16626953 -10.38617188 -0.27003906 -9.68359375 -0.37695312 C-2.55814261 -1.38005062 -2.55814261 -1.38005062 0 0 Z " fill="#DBB7BF" transform="translate(287,134)"/>
<path d="M0 0 C44.45936118 28.76006153 73.14993908 79.77578198 85.3125 130.1875 C85.92218671 133.56848995 86.17554273 136.57691685 86 140 C83.23525669 136.65493657 80.82467432 133.26666329 78.56640625 129.5625 C77.92421143 128.51344482 77.2820166 127.46438965 76.62036133 126.38354492 C75.94126709 125.2669751 75.26217285 124.15040527 74.5625 123 C73.84633754 121.82829327 73.12977971 120.65682811 72.4128418 119.4855957 C70.962253 117.11559471 69.51295172 114.74481412 68.06445312 112.37353516 C65.16421277 107.63423511 62.24069376 102.90956254 59.3125 98.1875 C58.25260006 96.47656504 57.1927042 94.76562756 56.1328125 93.0546875 C55.08858811 91.36976289 54.04431745 89.68486694 53 88 C50.89536702 84.60445535 48.7911293 81.20866656 46.6875 77.8125 C46.15729248 76.9565625 45.62708496 76.100625 45.08081055 75.21875 C40.06778592 67.12027031 35.08419879 59.00377247 30.09814453 50.88867188 C25.45497777 43.34087567 20.76924462 35.82077906 16.0625 28.3125 C11.8625584 21.6036301 7.66649822 14.89312901 3.5625 8.125 C3.19068604 7.51825439 2.81887207 6.91150879 2.43579102 6.28637695 C0 2.23589511 0 2.23589511 0 0 Z " fill="#DBB7BF" transform="translate(433,177)"/>
<path d="M0 0 C1.48876953 1.87915039 1.48876953 1.87915039 2.8828125 4.34765625 C3.40464111 5.25418945 3.92646973 6.16072266 4.46411133 7.09472656 C5.01220459 8.0740918 5.56029785 9.05345703 6.125 10.0625 C7.29659803 12.10116869 8.46978425 14.13892547 9.64453125 16.17578125 C10.21896973 17.17818848 10.7934082 18.1805957 11.38525391 19.21337891 C13.45011042 22.77677054 15.60771234 26.27202509 17.8125 29.75 C28.18839028 46.19968728 38.30620579 62.81311592 48.39550781 79.43969727 C48.92885742 80.31811279 49.46220703 81.19652832 50.01171875 82.1015625 C50.51364746 82.92946289 51.01557617 83.75736328 51.53271484 84.61035156 C53.35339446 87.57554492 55.23054579 90.50295243 57.12817383 93.41943359 C58 95 58 95 58 97 C51.75274857 95.63756751 45.62461993 94.03792293 39.625 91.8125 C38.22121094 91.29623047 38.22121094 91.29623047 36.7890625 90.76953125 C29.66186304 86.2476526 25.66800941 77.38878094 21.4375 70.3125 C20.19469929 68.25218847 18.95119498 66.19230123 17.70703125 64.1328125 C17.08521973 63.10188477 16.4634082 62.07095703 15.82275391 61.00878906 C13.12104142 56.54911793 10.37624893 52.11672732 7.625 47.6875 C3.9721646 41.80224959 0.32709394 35.91239499 -3.30078125 30.01171875 C-3.66562622 29.41834213 -4.03047119 28.82496552 -4.40637207 28.21360779 C-6.20389066 25.28965318 -8.00053746 22.36516569 -9.79638672 19.44018555 C-10.44494629 18.38484619 -11.09350586 17.32950684 -11.76171875 16.2421875 C-12.33881592 15.3022998 -12.91591309 14.36241211 -13.51049805 13.39404297 C-14.64176249 11.57578708 -15.81213654 9.78179519 -17 8 C-17 7.01 -17 6.02 -17 5 C-14.9237343 3.96486753 -12.83868521 2.94733789 -10.75 1.9375 C-9.58984375 1.36902344 -8.4296875 0.80054688 -7.234375 0.21484375 C-3.11191505 -1.33356814 -3.11191505 -1.33356814 0 0 Z " fill="#DAB7BF" transform="translate(209,156)"/>
<path d="M0 0 C15.55007166 -0.95968015 15.55007166 -0.95968015 20.85205078 3.58886719 C24.43701763 8.02299208 26.95649234 13.10177517 29.52246094 18.17041016 C32.07421094 23.05718851 35.03329798 27.69235094 37.9375 32.375 C39.12432813 34.32695143 40.30922519 36.2800783 41.4921875 38.234375 C44.82089875 43.71544454 48.18484822 49.17398888 51.5625 54.625 C52.08465088 55.47102783 52.60680176 56.31705566 53.14477539 57.1887207 C55.97264095 61.76337558 58.83450163 66.312945 61.73828125 70.83984375 C62.34663818 71.79745605 62.95499512 72.75506836 63.58178711 73.74169922 C64.75330238 75.58454297 65.93471581 77.42114165 67.12719727 79.25048828 C67.64983154 80.07661621 68.17246582 80.90274414 68.7109375 81.75390625 C69.17806152 82.47908447 69.64518555 83.2042627 70.12646484 83.95141602 C71 86 71 86 70.7722168 88.1315918 C69.62406727 90.90958367 67.71408058 92.32612909 65.4375 94.25 C64.61121094 94.95640625 63.78492188 95.6628125 62.93359375 96.390625 C61.97646484 97.18726563 61.97646484 97.18726563 61 98 C56.3483794 96.53384294 54.77188607 92.6928039 52.5625 88.6875 C51.67554625 87.13015871 50.78610816 85.5742304 49.89453125 84.01953125 C49.4248291 83.19791504 48.95512695 82.37629883 48.47119141 81.52978516 C45.98612771 77.2565973 43.36679901 73.06835526 40.75 68.875 C36.18896065 61.54480619 31.66800944 54.19219995 27.1875 46.8125 C22.29017668 38.75183055 17.37613301 30.70170965 12.43740845 22.66635132 C11.40047521 20.97895567 10.36465225 19.29087789 9.32885742 17.6027832 C5.55442319 11.44354465 5.55442319 11.44354465 1.5390625 5.44140625 C0 3 0 3 0 0 Z " fill="#DAB7BF" transform="translate(314,133)"/>
<path d="M0 0 C4.2152213 3.6598039 6.66391395 8.17376997 9.4375 12.9375 C10.51302055 14.75728077 11.58988588 16.5762673 12.66796875 18.39453125 C13.2201709 19.3273291 13.77237305 20.26012695 14.34130859 21.22119141 C16.92741695 25.55370322 19.58521606 29.84057472 22.25 34.125 C23.34256013 35.88404489 24.43500519 37.64316126 25.52734375 39.40234375 C26.08921387 40.30710449 26.65108398 41.21186523 27.22998047 42.14404297 C30.43639791 47.31765279 33.62388424 52.50290664 36.8125 57.6875 C37.48087891 58.77377686 38.14925781 59.86005371 38.83789062 60.97924805 C42.27908841 66.57284096 45.71740489 72.16818639 49.15234375 77.765625 C57.01275533 90.56777111 64.93662121 103.32461289 73 116 C67.48238975 116 63.82367687 110.64818127 60 107 C59.10410156 106.15695312 58.20820313 105.31390625 57.28515625 104.4453125 C50.09368279 97.49114734 43.98128284 89.99623846 38 82 C37.35998047 81.15912842 37.35998047 81.15912842 36.70703125 80.30126953 C29.45276124 70.74516384 23.52027431 60.64227007 18 50 C17.60925293 49.25121582 17.21850586 48.50243164 16.81591797 47.73095703 C9.28545278 33.11559761 1.65960642 16.50386382 0 0 Z " fill="#DBB7BE" transform="translate(83,407)"/>
<path d="M0 0 C2.83600381 0.90897558 5.66859041 1.82690722 8.5 2.75 C9.29148437 3.00265625 10.08296875 3.2553125 10.8984375 3.515625 C13.28444574 4.29792278 15.64197865 5.13730321 18 6 C18.70165283 6.23106445 19.40330566 6.46212891 20.1262207 6.70019531 C26.99772484 9.42319611 29.69396451 15.0418667 33.1875 21.25 C34.36833482 23.27613187 35.54932161 25.30217518 36.73046875 27.328125 C37.28226807 28.29540527 37.83406738 29.26268555 38.40258789 30.25927734 C40.21907347 33.37587022 42.16145093 36.39086605 44.17626953 39.38232422 C45 41 45 41 44.6875 43.875 C37.73170732 56.75609756 37.73170732 56.75609756 34 58 C33.70456299 57.50411377 33.40912598 57.00822754 33.10473633 56.49731445 C27.24970355 46.6797734 21.34521344 36.89704056 15.3125 27.1875 C11.41620565 20.90878037 7.52034882 14.63022064 3.6875 8.3125 C3.11866089 7.38570435 3.11866089 7.38570435 2.53833008 6.44018555 C0 2.23217152 0 2.23217152 0 0 Z " fill="#DAB7BF" transform="translate(366,143)"/>
</svg>
